<svg width="252" height="259" viewBox="0 0 252 259" fill="none" xmlns="http://www.w3.org/2000/svg">
<rect width="250" height="259" rx="15" fill="#717683"/>
<path d="M0 201.656H251.077V244C251.077 252.284 244.361 259 236.077 259H15C6.71571 259 0 252.284 0 244V201.656Z" fill="white"/>
<path d="M66.264 215.52L67.432 219.36H65.144L66.264 215.52ZM69.16 224H71.624L67.544 212.976H65L60.904 224H63.4L64.376 221.392H68.184L69.16 224ZM77.3088 220.48C77.3088 221.52 76.7328 222 75.9648 222C75.3088 222 74.6368 221.584 74.6368 220.512V216.528H72.4128V220.992C72.4128 223.04 73.6288 224.16 75.3728 224.16C76.1248 224.16 76.9248 223.696 77.3088 222.976V224H79.5328V216.528H77.3088V220.48ZM83.8105 221.392C83.8105 219.408 84.4345 218.416 85.6665 218.416C86.1145 218.416 86.4985 218.496 86.8025 218.64L87.2025 216.64C86.8345 216.464 86.4185 216.368 85.9225 216.368C85.0745 216.368 84.1785 217.04 83.8105 218.336V216.528H81.5865V224H83.8105V221.392ZM91.6511 221.952C90.7071 221.952 89.9711 221.264 89.9711 220.24C89.9711 219.264 90.7071 218.544 91.6511 218.544C92.5951 218.544 93.3471 219.264 93.3471 220.24C93.3471 221.264 92.6111 221.952 91.6511 221.952ZM94.4031 223.056C95.1551 222.336 95.5391 221.392 95.5391 220.24C95.5391 219.088 95.1551 218.16 94.4031 217.44C93.6511 216.72 92.7391 216.368 91.6511 216.368C90.5631 216.368 89.6511 216.72 88.8991 217.44C88.1471 218.16 87.7791 219.088 87.7791 220.24C87.7791 221.392 88.1471 222.336 88.8991 223.056C89.6511 223.776 90.5631 224.128 91.6511 224.128C92.7391 224.128 93.6511 223.776 94.4031 223.056ZM105.389 218.528C106.093 218.528 106.621 219.072 106.621 220.016V224H108.829V219.76C108.829 217.536 107.757 216.368 105.949 216.368C105.005 216.368 104.253 216.816 103.709 217.696C103.293 216.816 102.493 216.384 101.309 216.384C100.477 216.384 99.6934 216.848 99.3574 217.616V216.528H97.1334V224H99.3574V220.048C99.3574 218.976 99.9014 218.528 100.653 218.528C101.341 218.528 101.869 219.072 101.885 219.968V224H104.109V220.048C104.109 219.024 104.621 218.528 105.389 218.528ZM116.038 221.536C115.67 222 115.126 222.24 114.406 222.24C113.526 222.24 112.678 221.808 112.566 220.992H118.038C118.054 220.736 118.07 220.512 118.07 220.304C118.07 219.136 117.702 218.192 116.966 217.472C116.246 216.736 115.334 216.368 114.246 216.368C113.142 216.368 112.214 216.72 111.462 217.44C110.71 218.16 110.342 219.088 110.342 220.24C110.342 221.392 110.71 222.336 111.462 223.072C112.214 223.792 113.142 224.16 114.246 224.16C115.83 224.16 116.966 223.648 117.654 222.64L116.038 221.536ZM112.598 219.6C112.95 217.888 115.606 217.904 115.83 219.6H112.598ZM122.436 213.664H120.228V216.528H118.868V218.288H120.228V224H122.436V218.288H124.004V216.528H122.436V213.664ZM133.002 224V216.528H130.794V217.36C130.282 216.64 129.322 216.368 128.618 216.368C127.61 216.368 126.73 216.736 125.962 217.456C125.194 218.176 124.81 219.104 124.81 220.256C124.81 221.408 125.194 222.352 125.962 223.072C126.73 223.792 127.61 224.144 128.618 224.144C128.97 224.144 129.37 224.064 129.802 223.888C130.25 223.712 130.586 223.472 130.794 223.152V224H133.002ZM128.986 222.032C128.49 222.032 128.058 221.872 127.674 221.536C127.306 221.2 127.114 220.768 127.114 220.256C127.114 219.744 127.306 219.328 127.674 218.992C128.058 218.656 128.49 218.48 128.986 218.48C129.946 218.48 130.794 219.184 130.794 220.256C130.794 221.328 129.946 222.032 128.986 222.032ZM135.055 224H137.279V212.464H135.055V224ZM142.233 221.184C142.761 221.328 142.969 221.504 142.969 221.824C142.969 222.192 142.569 222.432 142.057 222.448C141.465 222.448 140.969 222.032 140.953 221.584H138.873C138.889 222.368 139.193 223.008 139.817 223.472C140.441 223.936 141.177 224.16 141.993 224.16C142.857 224.16 143.609 223.952 144.249 223.552C144.905 223.152 145.225 222.576 145.225 221.824C145.225 221.376 145.161 220.96 144.505 220.336C144.185 220.032 143.753 219.792 143.193 219.648L141.929 219.312C141.513 219.2 141.289 219.024 141.273 218.752C141.257 218.416 141.561 218.192 142.057 218.192C142.617 218.192 142.889 218.416 142.905 218.848H145.001C144.985 218 144.681 217.376 144.089 216.976C143.497 216.576 142.777 216.368 141.929 216.368C141.145 216.368 140.473 216.592 139.897 217.024C139.321 217.456 139.033 217.936 139.017 218.496C139.001 218.96 139.033 219.216 139.273 219.728C139.529 220.224 140.217 220.656 141.257 220.928L142.233 221.184ZM154.534 224V216.528H152.326V217.36C151.814 216.64 150.854 216.368 150.15 216.368C149.142 216.368 148.262 216.736 147.494 217.456C146.726 218.176 146.342 219.104 146.342 220.256C146.342 221.408 146.726 222.352 147.494 223.072C148.262 223.792 149.142 224.144 150.15 224.144C150.502 224.144 150.902 224.064 151.334 223.888C151.782 223.712 152.118 223.472 152.326 223.152V224H154.534ZM150.518 222.032C150.022 222.032 149.59 221.872 149.206 221.536C148.838 221.2 148.646 220.768 148.646 220.256C148.646 219.744 148.838 219.328 149.206 218.992C149.59 218.656 150.022 218.48 150.518 218.48C151.478 218.48 152.326 219.184 152.326 220.256C152.326 221.328 151.478 222.032 150.518 222.032ZM161.403 220.48C161.403 221.52 160.827 222 160.059 222C159.403 222 158.731 221.584 158.731 220.512V216.528H156.507V220.992C156.507 223.04 157.723 224.16 159.467 224.16C160.219 224.16 161.019 223.696 161.403 222.976V224H163.627V216.528H161.403V220.48ZM167.904 221.392C167.904 219.408 168.528 218.416 169.76 218.416C170.208 218.416 170.592 218.496 170.896 218.64L171.296 216.64C170.928 216.464 170.512 216.368 170.016 216.368C169.168 216.368 168.272 217.04 167.904 218.336V216.528H165.68V224H167.904V221.392ZM177.262 220.48C177.262 221.52 176.686 222 175.918 222C175.262 222 174.59 221.584 174.59 220.512V216.528H172.366V220.992C172.366 223.04 173.582 224.16 175.326 224.16C176.078 224.16 176.878 223.696 177.262 222.976V224H179.486V216.528H177.262V220.48ZM184.452 221.184C184.98 221.328 185.188 221.504 185.188 221.824C185.188 222.192 184.788 222.432 184.276 222.448C183.684 222.448 183.188 222.032 183.172 221.584H181.092C181.108 222.368 181.412 223.008 182.036 223.472C182.66 223.936 183.396 224.16 184.212 224.16C185.076 224.16 185.828 223.952 186.468 223.552C187.124 223.152 187.444 222.576 187.444 221.824C187.444 221.376 187.38 220.96 186.724 220.336C186.404 220.032 185.972 219.792 185.412 219.648L184.148 219.312C183.732 219.2 183.508 219.024 183.492 218.752C183.476 218.416 183.78 218.192 184.276 218.192C184.836 218.192 185.108 218.416 185.124 218.848H187.22C187.204 218 186.9 217.376 186.308 216.976C185.716 216.576 184.996 216.368 184.148 216.368C183.364 216.368 182.692 216.592 182.116 217.024C181.54 217.456 181.252 217.936 181.236 218.496C181.22 218.96 181.252 219.216 181.492 219.728C181.748 220.224 182.436 220.656 183.476 220.928L184.452 221.184Z" fill="#202538"/>
<path opacity="0.6" d="M98.26 247H99.548L100.262 244.676H101.872L101.172 247H102.474L103.188 244.676H104.728L105.078 243.43H103.538L104.238 241.036H105.792L106.128 239.79H104.588L105.302 237.354H103.986L103.272 239.79H101.676L102.376 237.354H101.046L100.346 239.79H98.82L98.484 241.036H99.982L99.296 243.43H97.77L97.434 244.676H98.96L98.26 247ZM100.612 243.43L101.312 241.036H102.922L102.208 243.43H100.612ZM107.159 237.83V239.356H111.121L107.341 247H109.231L113.655 237.984V237.83H107.159ZM117.709 237.718L114.153 239.244V240.756L116.211 239.944V247H117.821V237.718H117.709ZM119.655 237.83V239.356H123.617L119.837 247H121.727L126.151 237.984V237.83H119.655ZM130.477 241.092C129.553 241.092 128.853 241.498 128.419 242.03C128.433 240.434 129.329 239.23 130.575 239.23C131.205 239.23 131.807 239.538 132.129 240.238L133.487 239.552C132.899 238.222 131.723 237.718 130.575 237.718C127.887 237.718 126.739 240.21 126.739 242.716C126.739 245.516 128.069 247.14 130.253 247.14C132.269 247.14 133.585 245.768 133.585 244.074C133.585 242.478 132.339 241.092 130.477 241.092ZM130.211 245.614C129.231 245.6 128.531 244.928 128.531 244.018C128.559 243.136 129.301 242.506 130.309 242.506C131.247 242.534 131.933 243.192 131.933 244.06C131.933 244.956 131.219 245.614 130.211 245.614ZM140.205 241.792C140.779 241.498 141.213 240.854 141.213 240.042C141.213 238.684 140.023 237.718 138.427 237.718C136.831 237.718 135.641 238.684 135.641 240.042C135.641 240.854 136.075 241.498 136.649 241.792C135.627 242.142 134.913 243.094 134.913 244.27C134.913 245.978 136.439 247.14 138.427 247.14C140.415 247.14 141.941 245.978 141.941 244.256C141.941 243.094 141.227 242.128 140.205 241.792ZM138.427 239.132C139.099 239.132 139.603 239.622 139.603 240.21C139.603 240.798 139.099 241.26 138.427 241.26C137.769 241.26 137.251 240.798 137.251 240.21C137.251 239.622 137.769 239.132 138.427 239.132ZM138.427 245.656C137.377 245.656 136.593 244.998 136.593 244.116C136.593 243.206 137.391 242.534 138.427 242.534C139.449 242.534 140.247 243.206 140.247 244.116C140.247 244.998 139.505 245.656 138.427 245.656ZM147.623 242.072C148.365 241.722 148.813 241.022 148.813 240.21C148.827 238.684 147.651 237.718 146.041 237.718C144.907 237.718 143.955 238.236 143.367 239.02L144.333 240.014C144.683 239.524 145.299 239.216 145.901 239.216C146.643 239.216 147.147 239.636 147.175 240.266C147.203 240.98 146.601 241.526 145.621 241.526H144.977V242.8H145.873C146.881 242.8 147.595 243.402 147.595 244.27C147.595 245.082 146.881 245.642 145.873 245.642C145.159 245.642 144.557 245.236 144.123 244.55L142.947 245.404C143.563 246.51 144.627 247.126 145.943 247.126C147.875 247.126 149.233 246.006 149.233 244.326C149.233 243.248 148.589 242.408 147.623 242.072Z" fill="#202538"/>
<circle r="2.71251" transform="matrix(1 0 0 -1 19.712 191.738)" fill="#7A808F"/>
<circle r="2.71251" transform="matrix(1 0 0 -1 35.9859 191.738)" fill="#7A808F"/>
<circle r="2.71251" transform="matrix(1 0 0 -1 52.2628 191.738)" fill="#7A808F"/>
<circle r="2.71251" transform="matrix(1 0 0 -1 68.5367 191.738)" fill="#7A808F"/>
<circle r="2.71251" transform="matrix(1 0 0 -1 84.8131 191.738)" fill="#7A808F"/>
<circle r="2.71251" transform="matrix(1 0 0 -1 101.088 191.738)" fill="#7A808F"/>
<circle r="2.71251" transform="matrix(1 0 0 -1 117.361 191.738)" fill="#7A808F"/>
<circle r="2.71251" transform="matrix(1 0 0 -1 133.638 191.738)" fill="#7A808F"/>
<circle r="2.71251" transform="matrix(1 0 0 -1 149.912 191.738)" fill="#7A808F"/>
<circle r="2.71251" transform="matrix(1 0 0 -1 166.188 191.738)" fill="#7A808F"/>
<circle r="2.71251" transform="matrix(1 0 0 -1 182.463 191.738)" fill="#7A808F"/>
<circle r="2.71251" transform="matrix(1 0 0 -1 198.738 191.738)" fill="#7A808F"/>
<circle r="2.71251" transform="matrix(1 0 0 -1 215.013 191.738)" fill="#7A808F"/>
<circle r="2.71251" transform="matrix(1 0 0 -1 231.287 191.738)" fill="#7A808F"/>
<circle r="2.71251" transform="matrix(1 0 0 -1 19.712 175.463)" fill="#7A808F"/>
<circle r="2.71251" transform="matrix(1 0 0 -1 35.9859 175.463)" fill="#7A808F"/>
<circle r="2.71251" transform="matrix(1 0 0 -1 52.2628 175.463)" fill="#7A808F"/>
<circle r="2.71251" transform="matrix(1 0 0 -1 68.5367 175.463)" fill="#7A808F"/>
<circle r="2.71251" transform="matrix(1 0 0 -1 84.8131 175.463)" fill="#7A808F"/>
<circle r="2.71251" transform="matrix(1 0 0 -1 101.088 175.463)" fill="#7A808F"/>
<circle r="2.71251" transform="matrix(1 0 0 -1 117.361 175.463)" fill="#7A808F"/>
<circle r="2.71251" transform="matrix(1 0 0 -1 133.638 175.463)" fill="#7A808F"/>
<circle r="2.71251" transform="matrix(1 0 0 -1 149.912 175.463)" fill="#7A808F"/>
<circle r="2.71251" transform="matrix(1 0 0 -1 166.188 175.463)" fill="#7A808F"/>
<circle r="2.71251" transform="matrix(1 0 0 -1 182.463 175.463)" fill="#7A808F"/>
<circle r="2.71251" transform="matrix(1 0 0 -1 198.738 175.463)" fill="#7A808F"/>
<circle r="2.71251" transform="matrix(1 0 0 -1 215.013 175.463)" fill="#7A808F"/>
<circle r="2.71251" transform="matrix(1 0 0 -1 231.287 175.463)" fill="#7A808F"/>
<circle r="2.71251" transform="matrix(1 0 0 -1 19.712 159.187)" fill="#7A808F"/>
<circle r="2.71251" transform="matrix(1 0 0 -1 35.9859 159.187)" fill="#7A808F"/>
<circle r="2.71251" transform="matrix(1 0 0 -1 52.2628 159.187)" fill="#7A808F"/>
<circle r="2.71251" transform="matrix(1 0 0 -1 68.5367 159.187)" fill="#7A808F"/>
<circle r="2.71251" transform="matrix(1 0 0 -1 84.8131 159.187)" fill="#7A808F"/>
<circle r="2.71251" transform="matrix(1 0 0 -1 101.088 159.187)" fill="#7A808F"/>
<circle r="2.71251" transform="matrix(1 0 0 -1 117.361 159.187)" fill="#7A808F"/>
<circle r="2.71251" transform="matrix(1 0 0 -1 133.638 159.187)" fill="#7A808F"/>
<circle r="2.71251" transform="matrix(1 0 0 -1 149.912 159.187)" fill="#7A808F"/>
<circle r="2.71251" transform="matrix(1 0 0 -1 166.188 159.187)" fill="#7A808F"/>
<circle r="2.71251" transform="matrix(1 0 0 -1 182.463 159.187)" fill="#7A808F"/>
<circle r="2.71251" transform="matrix(1 0 0 -1 198.738 159.187)" fill="#7A808F"/>
<circle r="2.71251" transform="matrix(1 0 0 -1 215.013 159.187)" fill="#7A808F"/>
<circle r="2.71251" transform="matrix(1 0 0 -1 231.287 159.187)" fill="#7A808F"/>
<circle r="2.71251" transform="matrix(1 0 0 -1 19.712 142.913)" fill="#7A808F"/>
<circle r="2.71251" transform="matrix(1 0 0 -1 35.9859 142.913)" fill="#7A808F"/>
<circle r="2.71251" transform="matrix(1 0 0 -1 52.2628 142.913)" fill="#7A808F"/>
<circle r="2.71251" transform="matrix(1 0 0 -1 68.5367 142.913)" fill="#7A808F"/>
<circle r="2.71251" transform="matrix(1 0 0 -1 84.8131 142.913)" fill="#7A808F"/>
<circle r="2.71251" transform="matrix(1 0 0 -1 101.088 142.913)" fill="#7A808F"/>
<circle r="2.71251" transform="matrix(1 0 0 -1 117.361 142.913)" fill="#7A808F"/>
<circle r="2.71251" transform="matrix(1 0 0 -1 133.638 142.913)" fill="#7A808F"/>
<circle r="2.71251" transform="matrix(1 0 0 -1 149.912 142.913)" fill="#7A808F"/>
<circle r="2.71251" transform="matrix(1 0 0 -1 166.188 142.913)" fill="#7A808F"/>
<circle r="2.71251" transform="matrix(1 0 0 -1 182.463 142.913)" fill="#7A808F"/>
<circle r="2.71251" transform="matrix(1 0 0 -1 198.738 142.913)" fill="#7A808F"/>
<circle r="2.71251" transform="matrix(1 0 0 -1 215.013 142.913)" fill="#7A808F"/>
<circle r="2.71251" transform="matrix(1 0 0 -1 231.287 142.913)" fill="#7A808F"/>
<circle r="2.71251" transform="matrix(1 0 0 -1 19.712 126.638)" fill="#7A808F"/>
<circle r="2.71251" transform="matrix(1 0 0 -1 35.9859 126.638)" fill="#7A808F"/>
<circle r="2.71251" transform="matrix(1 0 0 -1 52.2628 126.638)" fill="#7A808F"/>
<circle r="2.71251" transform="matrix(1 0 0 -1 68.5367 126.638)" fill="#7A808F"/>
<circle r="2.71251" transform="matrix(1 0 0 -1 84.8131 126.638)" fill="#7A808F"/>
<circle r="2.71251" transform="matrix(1 0 0 -1 101.088 126.638)" fill="#7A808F"/>
<circle r="2.71251" transform="matrix(1 0 0 -1 117.361 126.638)" fill="#7A808F"/>
<circle r="2.71251" transform="matrix(1 0 0 -1 133.638 126.638)" fill="#7A808F"/>
<circle r="2.71251" transform="matrix(1 0 0 -1 149.912 126.638)" fill="#7A808F"/>
<circle r="2.71251" transform="matrix(1 0 0 -1 166.188 126.638)" fill="#7A808F"/>
<circle r="2.71251" transform="matrix(1 0 0 -1 182.463 126.638)" fill="#7A808F"/>
<circle r="2.71251" transform="matrix(1 0 0 -1 198.738 126.638)" fill="#7A808F"/>
<circle r="2.71251" transform="matrix(1 0 0 -1 215.013 126.638)" fill="#7A808F"/>
<circle r="2.71251" transform="matrix(1 0 0 -1 231.287 126.638)" fill="#7A808F"/>
<circle r="2.71251" transform="matrix(1 0 0 -1 19.712 110.363)" fill="#7A808F"/>
<circle r="2.71251" transform="matrix(1 0 0 -1 35.9859 110.363)" fill="#7A808F"/>
<circle r="2.71251" transform="matrix(1 0 0 -1 52.2628 110.363)" fill="#7A808F"/>
<circle r="2.71251" transform="matrix(1 0 0 -1 68.5367 110.363)" fill="#7A808F"/>
<circle r="2.71251" transform="matrix(1 0 0 -1 84.8131 110.363)" fill="#7A808F"/>
<circle r="2.71251" transform="matrix(1 0 0 -1 101.088 110.363)" fill="#7A808F"/>
<circle r="2.71251" transform="matrix(1 0 0 -1 117.361 110.363)" fill="#7A808F"/>
<circle r="2.71251" transform="matrix(1 0 0 -1 133.638 110.363)" fill="#7A808F"/>
<circle r="2.71251" transform="matrix(1 0 0 -1 149.912 110.363)" fill="#7A808F"/>
<circle r="2.71251" transform="matrix(1 0 0 -1 166.188 110.363)" fill="#7A808F"/>
<circle r="2.71251" transform="matrix(1 0 0 -1 182.463 110.363)" fill="#7A808F"/>
<circle r="2.71251" transform="matrix(1 0 0 -1 198.738 110.363)" fill="#7A808F"/>
<circle r="2.71251" transform="matrix(1 0 0 -1 215.013 110.363)" fill="#7A808F"/>
<circle r="2.71251" transform="matrix(1 0 0 -1 231.287 110.363)" fill="#7A808F"/>
<circle r="2.71251" transform="matrix(1 0 0 -1 19.712 94.0873)" fill="#7A808F"/>
<circle r="2.71251" transform="matrix(1 0 0 -1 35.9859 94.0873)" fill="#7A808F"/>
<circle r="2.71251" transform="matrix(1 0 0 -1 52.2628 94.0873)" fill="#7A808F"/>
<circle r="2.71251" transform="matrix(1 0 0 -1 68.5367 94.0873)" fill="#7A808F"/>
<circle r="2.71251" transform="matrix(1 0 0 -1 84.8131 94.0873)" fill="#7A808F"/>
<circle r="2.71251" transform="matrix(1 0 0 -1 101.088 94.0873)" fill="#7A808F"/>
<circle r="2.71251" transform="matrix(1 0 0 -1 117.361 94.0873)" fill="#7A808F"/>
<circle r="2.71251" transform="matrix(1 0 0 -1 133.638 94.0873)" fill="#7A808F"/>
<circle r="2.71251" transform="matrix(1 0 0 -1 149.912 94.0873)" fill="#7A808F"/>
<circle r="2.71251" transform="matrix(1 0 0 -1 166.188 94.0873)" fill="#7A808F"/>
<circle r="2.71251" transform="matrix(1 0 0 -1 182.463 94.0873)" fill="#7A808F"/>
<circle r="2.71251" transform="matrix(1 0 0 -1 198.738 94.0873)" fill="#7A808F"/>
<circle r="2.71251" transform="matrix(1 0 0 -1 215.013 94.0873)" fill="#7A808F"/>
<circle r="2.71251" transform="matrix(1 0 0 -1 231.287 94.0873)" fill="#7A808F"/>
<circle r="2.71251" transform="matrix(1 0 0 -1 19.712 77.8126)" fill="#7A808F"/>
<circle r="2.71251" transform="matrix(1 0 0 -1 35.9859 77.8126)" fill="#7A808F"/>
<circle r="2.71251" transform="matrix(1 0 0 -1 52.2628 77.8126)" fill="#7A808F"/>
<circle r="2.71251" transform="matrix(1 0 0 -1 68.5367 77.8126)" fill="#7A808F"/>
<circle r="2.71251" transform="matrix(1 0 0 -1 84.8131 77.8126)" fill="#7A808F"/>
<circle r="2.71251" transform="matrix(1 0 0 -1 101.088 77.8126)" fill="#7A808F"/>
<circle r="2.71251" transform="matrix(1 0 0 -1 117.361 77.8126)" fill="#7A808F"/>
<circle r="2.71251" transform="matrix(1 0 0 -1 133.638 77.8126)" fill="#7A808F"/>
<circle r="2.71251" transform="matrix(1 0 0 -1 149.912 77.8126)" fill="#7A808F"/>
<circle r="2.71251" transform="matrix(1 0 0 -1 166.188 77.8126)" fill="#7A808F"/>
<circle r="2.71251" transform="matrix(1 0 0 -1 182.463 77.8126)" fill="#7A808F"/>
<circle r="2.71251" transform="matrix(1 0 0 -1 198.738 77.8126)" fill="#7A808F"/>
<circle r="2.71251" transform="matrix(1 0 0 -1 215.013 77.8126)" fill="#7A808F"/>
<circle r="2.71251" transform="matrix(1 0 0 -1 231.287 77.8126)" fill="#7A808F"/>
<circle r="2.71251" transform="matrix(1 0 0 -1 19.712 61.5372)" fill="#7A808F"/>
<circle r="2.71251" transform="matrix(1 0 0 -1 35.9859 61.5372)" fill="#7A808F"/>
<circle r="2.71251" transform="matrix(1 0 0 -1 52.2628 61.5372)" fill="#7A808F"/>
<circle r="2.71251" transform="matrix(1 0 0 -1 68.5367 61.5372)" fill="#7A808F"/>
<circle r="2.71251" transform="matrix(1 0 0 -1 84.8131 61.5372)" fill="#7A808F"/>
<circle r="2.71251" transform="matrix(1 0 0 -1 101.088 61.5372)" fill="#7A808F"/>
<circle r="2.71251" transform="matrix(1 0 0 -1 117.361 61.5372)" fill="#7A808F"/>
<circle r="2.71251" transform="matrix(1 0 0 -1 133.638 61.5372)" fill="#7A808F"/>
<circle r="2.71251" transform="matrix(1 0 0 -1 149.912 61.5372)" fill="#7A808F"/>
<circle r="2.71251" transform="matrix(1 0 0 -1 166.188 61.5372)" fill="#7A808F"/>
<circle r="2.71251" transform="matrix(1 0 0 -1 182.463 61.5372)" fill="#7A808F"/>
<circle r="2.71251" transform="matrix(1 0 0 -1 198.738 61.5372)" fill="#7A808F"/>
<circle r="2.71251" transform="matrix(1 0 0 -1 215.013 61.5372)" fill="#7A808F"/>
<circle r="2.71251" transform="matrix(1 0 0 -1 231.287 61.5372)" fill="#7A808F"/>
<circle r="2.71251" transform="matrix(1 0 0 -1 19.712 45.2626)" fill="#7A808F"/>
<circle r="2.71251" transform="matrix(1 0 0 -1 35.9859 45.2626)" fill="#7A808F"/>
<circle r="2.71251" transform="matrix(1 0 0 -1 52.2628 45.2626)" fill="#7A808F"/>
<circle r="2.71251" transform="matrix(1 0 0 -1 68.5367 45.2626)" fill="#7A808F"/>
<circle r="2.71251" transform="matrix(1 0 0 -1 84.8131 45.2626)" fill="#7A808F"/>
<circle r="2.71251" transform="matrix(1 0 0 -1 101.088 45.2626)" fill="#7A808F"/>
<circle r="2.71251" transform="matrix(1 0 0 -1 117.361 45.2626)" fill="#7A808F"/>
<circle r="2.71251" transform="matrix(1 0 0 -1 133.638 45.2626)" fill="#7A808F"/>
<circle r="2.71251" transform="matrix(1 0 0 -1 149.912 45.2626)" fill="#7A808F"/>
<circle r="2.71251" transform="matrix(1 0 0 -1 166.188 45.2626)" fill="#7A808F"/>
<circle r="2.71251" transform="matrix(1 0 0 -1 182.463 45.2626)" fill="#7A808F"/>
<circle r="2.71251" transform="matrix(1 0 0 -1 198.738 45.2626)" fill="#7A808F"/>
<circle r="2.71251" transform="matrix(1 0 0 -1 215.013 45.2626)" fill="#7A808F"/>
<circle r="2.71251" transform="matrix(1 0 0 -1 231.287 45.2626)" fill="#7A808F"/>
<circle r="2.71251" transform="matrix(1 0 0 -1 19.712 28.9872)" fill="#7A808F"/>
<circle r="2.71251" transform="matrix(1 0 0 -1 35.9859 28.9872)" fill="#7A808F"/>
<circle r="2.71251" transform="matrix(1 0 0 -1 52.2628 28.9872)" fill="#7A808F"/>
<circle r="2.71251" transform="matrix(1 0 0 -1 68.5367 28.9872)" fill="#7A808F"/>
<circle r="2.71251" transform="matrix(1 0 0 -1 84.8131 28.9872)" fill="#7A808F"/>
<circle r="2.71251" transform="matrix(1 0 0 -1 101.088 28.9872)" fill="#7A808F"/>
<circle r="2.71251" transform="matrix(1 0 0 -1 117.361 28.9872)" fill="#7A808F"/>
<circle r="2.71251" transform="matrix(1 0 0 -1 133.638 28.9872)" fill="#7A808F"/>
<circle r="2.71251" transform="matrix(1 0 0 -1 149.912 28.9872)" fill="#7A808F"/>
<circle r="2.71251" transform="matrix(1 0 0 -1 166.188 28.9872)" fill="#7A808F"/>
<circle r="2.71251" transform="matrix(1 0 0 -1 182.463 28.9872)" fill="#7A808F"/>
<circle r="2.71251" transform="matrix(1 0 0 -1 198.738 28.9872)" fill="#7A808F"/>
<circle r="2.71251" transform="matrix(1 0 0 -1 215.013 28.9872)" fill="#7A808F"/>
<circle r="2.71251" transform="matrix(1 0 0 -1 231.287 28.9872)" fill="#7A808F"/>
<circle r="2.71251" transform="matrix(1 0 0 -1 19.712 12.7125)" fill="#7A808F"/>
<circle r="2.71251" transform="matrix(1 0 0 -1 35.9859 12.7125)" fill="#7A808F"/>
<circle r="2.71251" transform="matrix(1 0 0 -1 52.2628 12.7125)" fill="#7A808F"/>
<circle r="2.71251" transform="matrix(1 0 0 -1 68.5367 12.7125)" fill="#7A808F"/>
<circle r="2.71251" transform="matrix(1 0 0 -1 84.8131 12.7125)" fill="#7A808F"/>
<circle r="2.71251" transform="matrix(1 0 0 -1 101.088 12.7125)" fill="#7A808F"/>
<circle r="2.71251" transform="matrix(1 0 0 -1 117.361 12.7125)" fill="#7A808F"/>
<circle r="2.71251" transform="matrix(1 0 0 -1 133.638 12.7125)" fill="#7A808F"/>
<circle r="2.71251" transform="matrix(1 0 0 -1 149.912 12.7125)" fill="#7A808F"/>
<circle r="2.71251" transform="matrix(1 0 0 -1 166.188 12.7125)" fill="#7A808F"/>
<circle r="2.71251" transform="matrix(1 0 0 -1 182.463 12.7125)" fill="#7A808F"/>
<circle r="2.71251" transform="matrix(1 0 0 -1 198.738 12.7125)" fill="#7A808F"/>
<circle r="2.71251" transform="matrix(1 0 0 -1 215.013 12.7125)" fill="#7A808F"/>
<circle r="2.71251" transform="matrix(1 0 0 -1 231.287 12.7125)" fill="#7A808F"/>
</svg>
