<svg width="252" height="259" viewBox="0 0 252 259" fill="none" xmlns="http://www.w3.org/2000/svg">
<rect width="250" height="259" rx="15" fill="#DCF6E9"/>
<path d="M0 201.656H251.077V244C251.077 252.284 244.361 259 236.077 259H15C6.71571 259 0 252.284 0 244V201.656Z" fill="white"/>
<path d="M75.264 215.52L76.432 219.36H74.144L75.264 215.52ZM78.16 224H80.624L76.544 212.976H74L69.904 224H72.4L73.376 221.392H77.184L78.16 224ZM81.4269 218.576H84.7229L81.2029 222.352V224H87.9389V221.952H84.3549L87.9389 218.192V216.528H81.4269V218.576ZM94.5431 220.48C94.5431 221.52 93.9671 222 93.1991 222C92.5431 222 91.8711 221.584 91.8711 220.512V216.528H89.6471V220.992C89.6471 223.04 90.8631 224.16 92.6071 224.16C93.3591 224.16 94.1591 223.696 94.5431 222.976V224H96.7671V216.528H94.5431V220.48ZM101.045 221.392C101.045 219.408 101.669 218.416 102.901 218.416C103.349 218.416 103.733 218.496 104.037 218.64L104.437 216.64C104.069 216.464 103.653 216.368 103.157 216.368C102.309 216.368 101.413 217.04 101.045 218.336V216.528H98.8209V224H101.045V221.392ZM110.71 221.536C110.342 222 109.798 222.24 109.078 222.24C108.198 222.24 107.35 221.808 107.238 220.992H112.71C112.726 220.736 112.742 220.512 112.742 220.304C112.742 219.136 112.374 218.192 111.638 217.472C110.918 216.736 110.006 216.368 108.918 216.368C107.814 216.368 106.886 216.72 106.134 217.44C105.382 218.16 105.014 219.088 105.014 220.24C105.014 221.392 105.382 222.336 106.134 223.072C106.886 223.792 107.814 224.16 108.918 224.16C110.502 224.16 111.638 223.648 112.326 222.64L110.71 221.536ZM107.27 219.6C107.622 217.888 110.278 217.904 110.502 219.6H107.27ZM114.258 216.528V224H116.466V216.528H114.258ZM115.362 212.464C114.594 212.464 113.97 213.04 113.97 213.76C113.97 214.48 114.594 215.072 115.362 215.072C116.114 215.072 116.722 214.48 116.722 213.76C116.722 213.04 116.114 212.464 115.362 212.464ZM121.42 221.184C121.948 221.328 122.156 221.504 122.156 221.824C122.156 222.192 121.756 222.432 121.244 222.448C120.652 222.448 120.156 222.032 120.14 221.584H118.06C118.076 222.368 118.38 223.008 119.004 223.472C119.628 223.936 120.364 224.16 121.18 224.16C122.044 224.16 122.796 223.952 123.436 223.552C124.092 223.152 124.412 222.576 124.412 221.824C124.412 221.376 124.348 220.96 123.692 220.336C123.372 220.032 122.94 219.792 122.38 219.648L121.116 219.312C120.7 219.2 120.476 219.024 120.46 218.752C120.444 218.416 120.748 218.192 121.244 218.192C121.804 218.192 122.076 218.416 122.092 218.848H124.188C124.172 218 123.868 217.376 123.276 216.976C122.684 216.576 121.964 216.368 121.116 216.368C120.332 216.368 119.66 216.592 119.084 217.024C118.508 217.456 118.22 217.936 118.204 218.496C118.188 218.96 118.22 219.216 118.46 219.728C118.716 220.224 119.404 220.656 120.444 220.928L121.42 221.184ZM128.201 220.048C128.201 219.008 128.873 218.528 129.689 218.528C130.409 218.528 131.065 219.104 131.065 220.016V224H133.289V219.936C133.289 217.648 132.233 216.368 130.297 216.368C129.897 216.368 129.481 216.48 129.049 216.72C128.617 216.944 128.345 217.264 128.201 217.696V212.464H125.977V224H128.201V220.048ZM145.673 214.528H143.753L142.281 219.92L140.137 212.976H137.609L141.321 224H143.177L144.697 218.208L146.249 224H148.089L151.833 212.976H149.289L147.129 219.92L145.673 214.528ZM155.045 220.048C155.045 219.008 155.717 218.528 156.533 218.528C157.253 218.528 157.909 219.104 157.909 220.016V224H160.133V219.936C160.133 217.648 159.077 216.368 157.141 216.368C156.741 216.368 156.325 216.48 155.893 216.72C155.461 216.944 155.189 217.264 155.045 217.696V212.464H152.821V224H155.045V220.048ZM162.087 216.528V224H164.295V216.528H162.087ZM163.191 212.464C162.423 212.464 161.799 213.04 161.799 213.76C161.799 214.48 162.423 215.072 163.191 215.072C163.943 215.072 164.551 214.48 164.551 213.76C164.551 213.04 163.943 212.464 163.191 212.464ZM169.249 213.664H167.041V216.528H165.681V218.288H167.041V224H169.249V218.288H170.817V216.528H169.249V213.664ZM177.319 221.536C176.951 222 176.407 222.24 175.687 222.24C174.807 222.24 173.959 221.808 173.847 220.992H179.319C179.335 220.736 179.351 220.512 179.351 220.304C179.351 219.136 178.983 218.192 178.247 217.472C177.527 216.736 176.615 216.368 175.527 216.368C174.423 216.368 173.495 216.72 172.743 217.44C171.991 218.16 171.623 219.088 171.623 220.24C171.623 221.392 171.991 222.336 172.743 223.072C173.495 223.792 174.423 224.16 175.527 224.16C177.111 224.16 178.247 223.648 178.935 222.64L177.319 221.536ZM173.879 219.6C174.231 217.888 176.887 217.904 177.111 219.6H173.879Z" fill="#202538"/>
<path opacity="0.6" d="M95.26 247H96.548L97.262 244.676H98.872L98.172 247H99.474L100.188 244.676H101.728L102.078 243.43H100.538L101.238 241.036H102.792L103.128 239.79H101.588L102.302 237.354H100.986L100.272 239.79H98.676L99.376 237.354H98.046L97.346 239.79H95.82L95.484 241.036H96.982L96.296 243.43H94.77L94.434 244.676H95.96L95.26 247ZM97.612 243.43L98.312 241.036H99.922L99.208 243.43H97.612ZM104.789 247H108.569C111.327 247 112.937 244.928 112.937 242.198C112.937 239.454 111.327 237.354 108.569 237.354H104.789V247ZM106.497 245.474V238.88H108.569C110.319 238.88 111.215 240.392 111.215 242.198C111.215 243.99 110.319 245.474 108.569 245.474H106.497ZM119.121 247.126C120.703 247.126 122.089 246.398 122.957 245.25L121.669 244.284C121.081 245.04 120.213 245.53 119.163 245.53C117.301 245.53 115.943 244.032 115.943 242.184C115.943 240.336 117.329 238.838 119.163 238.838C120.213 238.838 121.081 239.328 121.669 240.098L122.957 239.118C122.089 237.984 120.703 237.242 119.121 237.242C116.405 237.242 114.221 239.454 114.221 242.184C114.221 244.914 116.405 247.126 119.121 247.126ZM130.438 238.88V237.354H124.586V247H126.294V243.024H129.57V241.498H126.294V238.88H130.438ZM135.202 241.092C134.278 241.092 133.578 241.498 133.144 242.03C133.158 240.434 134.054 239.23 135.3 239.23C135.93 239.23 136.532 239.538 136.854 240.238L138.212 239.552C137.624 238.222 136.448 237.718 135.3 237.718C132.612 237.718 131.464 240.21 131.464 242.716C131.464 245.516 132.794 247.14 134.978 247.14C136.994 247.14 138.31 245.768 138.31 244.074C138.31 242.478 137.064 241.092 135.202 241.092ZM134.936 245.614C133.956 245.6 133.256 244.928 133.256 244.018C133.284 243.136 134.026 242.506 135.034 242.506C135.972 242.534 136.658 243.192 136.658 244.06C136.658 244.956 135.944 245.614 134.936 245.614ZM141.934 245.474V243.038H145.63V241.484H141.934V238.88H146.162V237.354H140.24V247H146.302V245.474H141.934ZM151.052 237.718C149.022 237.718 147.72 239.09 147.72 240.784C147.72 242.38 148.966 243.752 150.828 243.752C151.752 243.752 152.438 243.388 152.886 242.856C152.858 244.438 151.948 245.628 150.716 245.628C150.1 245.628 149.484 245.32 149.176 244.606L147.818 245.306C148.406 246.636 149.582 247.14 150.716 247.14C153.404 247.14 154.566 244.648 154.566 242.142C154.566 239.552 153.236 237.718 151.052 237.718ZM150.982 242.338C150.044 242.31 149.358 241.666 149.358 240.798C149.358 239.902 150.086 239.244 151.08 239.244C152.06 239.258 152.774 239.93 152.774 240.84C152.746 241.708 151.99 242.338 150.982 242.338Z" fill="#202538"/>
<circle r="2.71251" transform="matrix(1 0 0 -1 19.712 191.738)" fill="#ECFAF3"/>
<circle r="2.71251" transform="matrix(1 0 0 -1 35.9859 191.738)" fill="#ECFAF3"/>
<circle r="2.71251" transform="matrix(1 0 0 -1 52.2628 191.738)" fill="#ECFAF3"/>
<circle r="2.71251" transform="matrix(1 0 0 -1 68.5367 191.738)" fill="#ECFAF3"/>
<circle r="2.71251" transform="matrix(1 0 0 -1 84.8131 191.738)" fill="#ECFAF3"/>
<circle r="2.71251" transform="matrix(1 0 0 -1 101.088 191.738)" fill="#ECFAF3"/>
<circle r="2.71251" transform="matrix(1 0 0 -1 117.361 191.738)" fill="#ECFAF3"/>
<circle r="2.71251" transform="matrix(1 0 0 -1 133.638 191.738)" fill="#ECFAF3"/>
<circle r="2.71251" transform="matrix(1 0 0 -1 149.912 191.738)" fill="#ECFAF3"/>
<circle r="2.71251" transform="matrix(1 0 0 -1 166.188 191.738)" fill="#ECFAF3"/>
<circle r="2.71251" transform="matrix(1 0 0 -1 182.463 191.738)" fill="#ECFAF3"/>
<circle r="2.71251" transform="matrix(1 0 0 -1 198.738 191.738)" fill="#ECFAF3"/>
<circle r="2.71251" transform="matrix(1 0 0 -1 215.013 191.738)" fill="#ECFAF3"/>
<circle r="2.71251" transform="matrix(1 0 0 -1 231.287 191.738)" fill="#ECFAF3"/>
<circle r="2.71251" transform="matrix(1 0 0 -1 19.712 175.463)" fill="#ECFAF3"/>
<circle r="2.71251" transform="matrix(1 0 0 -1 35.9859 175.463)" fill="#ECFAF3"/>
<circle r="2.71251" transform="matrix(1 0 0 -1 52.2628 175.463)" fill="#ECFAF3"/>
<circle r="2.71251" transform="matrix(1 0 0 -1 68.5367 175.463)" fill="#ECFAF3"/>
<circle r="2.71251" transform="matrix(1 0 0 -1 84.8131 175.463)" fill="#ECFAF3"/>
<circle r="2.71251" transform="matrix(1 0 0 -1 101.088 175.463)" fill="#ECFAF3"/>
<circle r="2.71251" transform="matrix(1 0 0 -1 117.361 175.463)" fill="#ECFAF3"/>
<circle r="2.71251" transform="matrix(1 0 0 -1 133.638 175.463)" fill="#ECFAF3"/>
<circle r="2.71251" transform="matrix(1 0 0 -1 149.912 175.463)" fill="#ECFAF3"/>
<circle r="2.71251" transform="matrix(1 0 0 -1 166.188 175.463)" fill="#ECFAF3"/>
<circle r="2.71251" transform="matrix(1 0 0 -1 182.463 175.463)" fill="#ECFAF3"/>
<circle r="2.71251" transform="matrix(1 0 0 -1 198.738 175.463)" fill="#ECFAF3"/>
<circle r="2.71251" transform="matrix(1 0 0 -1 215.013 175.463)" fill="#ECFAF3"/>
<circle r="2.71251" transform="matrix(1 0 0 -1 231.287 175.463)" fill="#ECFAF3"/>
<circle r="2.71251" transform="matrix(1 0 0 -1 19.712 159.187)" fill="#ECFAF3"/>
<circle r="2.71251" transform="matrix(1 0 0 -1 35.9859 159.187)" fill="#ECFAF3"/>
<circle r="2.71251" transform="matrix(1 0 0 -1 52.2628 159.187)" fill="#ECFAF3"/>
<circle r="2.71251" transform="matrix(1 0 0 -1 68.5367 159.187)" fill="#ECFAF3"/>
<circle r="2.71251" transform="matrix(1 0 0 -1 84.8131 159.187)" fill="#ECFAF3"/>
<circle r="2.71251" transform="matrix(1 0 0 -1 101.088 159.187)" fill="#ECFAF3"/>
<circle r="2.71251" transform="matrix(1 0 0 -1 117.361 159.187)" fill="#ECFAF3"/>
<circle r="2.71251" transform="matrix(1 0 0 -1 133.638 159.187)" fill="#ECFAF3"/>
<circle r="2.71251" transform="matrix(1 0 0 -1 149.912 159.187)" fill="#ECFAF3"/>
<circle r="2.71251" transform="matrix(1 0 0 -1 166.188 159.187)" fill="#ECFAF3"/>
<circle r="2.71251" transform="matrix(1 0 0 -1 182.463 159.187)" fill="#ECFAF3"/>
<circle r="2.71251" transform="matrix(1 0 0 -1 198.738 159.187)" fill="#ECFAF3"/>
<circle r="2.71251" transform="matrix(1 0 0 -1 215.013 159.187)" fill="#ECFAF3"/>
<circle r="2.71251" transform="matrix(1 0 0 -1 231.287 159.187)" fill="#ECFAF3"/>
<circle r="2.71251" transform="matrix(1 0 0 -1 19.712 142.913)" fill="#ECFAF3"/>
<circle r="2.71251" transform="matrix(1 0 0 -1 35.9859 142.913)" fill="#ECFAF3"/>
<circle r="2.71251" transform="matrix(1 0 0 -1 52.2628 142.913)" fill="#ECFAF3"/>
<circle r="2.71251" transform="matrix(1 0 0 -1 68.5367 142.913)" fill="#ECFAF3"/>
<circle r="2.71251" transform="matrix(1 0 0 -1 84.8131 142.913)" fill="#ECFAF3"/>
<circle r="2.71251" transform="matrix(1 0 0 -1 101.088 142.913)" fill="#ECFAF3"/>
<circle r="2.71251" transform="matrix(1 0 0 -1 117.361 142.913)" fill="#ECFAF3"/>
<circle r="2.71251" transform="matrix(1 0 0 -1 133.638 142.913)" fill="#ECFAF3"/>
<circle r="2.71251" transform="matrix(1 0 0 -1 149.912 142.913)" fill="#ECFAF3"/>
<circle r="2.71251" transform="matrix(1 0 0 -1 166.188 142.913)" fill="#ECFAF3"/>
<circle r="2.71251" transform="matrix(1 0 0 -1 182.463 142.913)" fill="#ECFAF3"/>
<circle r="2.71251" transform="matrix(1 0 0 -1 198.738 142.913)" fill="#ECFAF3"/>
<circle r="2.71251" transform="matrix(1 0 0 -1 215.013 142.913)" fill="#ECFAF3"/>
<circle r="2.71251" transform="matrix(1 0 0 -1 231.287 142.913)" fill="#ECFAF3"/>
<circle r="2.71251" transform="matrix(1 0 0 -1 19.712 126.638)" fill="#ECFAF3"/>
<circle r="2.71251" transform="matrix(1 0 0 -1 35.9859 126.638)" fill="#ECFAF3"/>
<circle r="2.71251" transform="matrix(1 0 0 -1 52.2628 126.638)" fill="#ECFAF3"/>
<circle r="2.71251" transform="matrix(1 0 0 -1 68.5367 126.638)" fill="#ECFAF3"/>
<circle r="2.71251" transform="matrix(1 0 0 -1 84.8131 126.638)" fill="#ECFAF3"/>
<circle r="2.71251" transform="matrix(1 0 0 -1 101.088 126.638)" fill="#ECFAF3"/>
<circle r="2.71251" transform="matrix(1 0 0 -1 117.361 126.638)" fill="#ECFAF3"/>
<circle r="2.71251" transform="matrix(1 0 0 -1 133.638 126.638)" fill="#ECFAF3"/>
<circle r="2.71251" transform="matrix(1 0 0 -1 149.912 126.638)" fill="#ECFAF3"/>
<circle r="2.71251" transform="matrix(1 0 0 -1 166.188 126.638)" fill="#ECFAF3"/>
<circle r="2.71251" transform="matrix(1 0 0 -1 182.463 126.638)" fill="#ECFAF3"/>
<circle r="2.71251" transform="matrix(1 0 0 -1 198.738 126.638)" fill="#ECFAF3"/>
<circle r="2.71251" transform="matrix(1 0 0 -1 215.013 126.638)" fill="#ECFAF3"/>
<circle r="2.71251" transform="matrix(1 0 0 -1 231.287 126.638)" fill="#ECFAF3"/>
<circle r="2.71251" transform="matrix(1 0 0 -1 19.712 110.363)" fill="#ECFAF3"/>
<circle r="2.71251" transform="matrix(1 0 0 -1 35.9859 110.363)" fill="#ECFAF3"/>
<circle r="2.71251" transform="matrix(1 0 0 -1 52.2628 110.363)" fill="#ECFAF3"/>
<circle r="2.71251" transform="matrix(1 0 0 -1 68.5367 110.363)" fill="#ECFAF3"/>
<circle r="2.71251" transform="matrix(1 0 0 -1 84.8131 110.363)" fill="#ECFAF3"/>
<circle r="2.71251" transform="matrix(1 0 0 -1 101.088 110.363)" fill="#ECFAF3"/>
<circle r="2.71251" transform="matrix(1 0 0 -1 117.361 110.363)" fill="#ECFAF3"/>
<circle r="2.71251" transform="matrix(1 0 0 -1 133.638 110.363)" fill="#ECFAF3"/>
<circle r="2.71251" transform="matrix(1 0 0 -1 149.912 110.363)" fill="#ECFAF3"/>
<circle r="2.71251" transform="matrix(1 0 0 -1 166.188 110.363)" fill="#ECFAF3"/>
<circle r="2.71251" transform="matrix(1 0 0 -1 182.463 110.363)" fill="#ECFAF3"/>
<circle r="2.71251" transform="matrix(1 0 0 -1 198.738 110.363)" fill="#ECFAF3"/>
<circle r="2.71251" transform="matrix(1 0 0 -1 215.013 110.363)" fill="#ECFAF3"/>
<circle r="2.71251" transform="matrix(1 0 0 -1 231.287 110.363)" fill="#ECFAF3"/>
<circle r="2.71251" transform="matrix(1 0 0 -1 19.712 94.0873)" fill="#ECFAF3"/>
<circle r="2.71251" transform="matrix(1 0 0 -1 35.9859 94.0873)" fill="#ECFAF3"/>
<circle r="2.71251" transform="matrix(1 0 0 -1 52.2628 94.0873)" fill="#ECFAF3"/>
<circle r="2.71251" transform="matrix(1 0 0 -1 68.5367 94.0873)" fill="#ECFAF3"/>
<circle r="2.71251" transform="matrix(1 0 0 -1 84.8131 94.0873)" fill="#ECFAF3"/>
<circle r="2.71251" transform="matrix(1 0 0 -1 101.088 94.0873)" fill="#ECFAF3"/>
<circle r="2.71251" transform="matrix(1 0 0 -1 117.361 94.0873)" fill="#ECFAF3"/>
<circle r="2.71251" transform="matrix(1 0 0 -1 133.638 94.0873)" fill="#ECFAF3"/>
<circle r="2.71251" transform="matrix(1 0 0 -1 149.912 94.0873)" fill="#ECFAF3"/>
<circle r="2.71251" transform="matrix(1 0 0 -1 166.188 94.0873)" fill="#ECFAF3"/>
<circle r="2.71251" transform="matrix(1 0 0 -1 182.463 94.0873)" fill="#ECFAF3"/>
<circle r="2.71251" transform="matrix(1 0 0 -1 198.738 94.0873)" fill="#ECFAF3"/>
<circle r="2.71251" transform="matrix(1 0 0 -1 215.013 94.0873)" fill="#ECFAF3"/>
<circle r="2.71251" transform="matrix(1 0 0 -1 231.287 94.0873)" fill="#ECFAF3"/>
<circle r="2.71251" transform="matrix(1 0 0 -1 19.712 77.8126)" fill="#ECFAF3"/>
<circle r="2.71251" transform="matrix(1 0 0 -1 35.9859 77.8126)" fill="#ECFAF3"/>
<circle r="2.71251" transform="matrix(1 0 0 -1 52.2628 77.8126)" fill="#ECFAF3"/>
<circle r="2.71251" transform="matrix(1 0 0 -1 68.5367 77.8126)" fill="#ECFAF3"/>
<circle r="2.71251" transform="matrix(1 0 0 -1 84.8131 77.8126)" fill="#ECFAF3"/>
<circle r="2.71251" transform="matrix(1 0 0 -1 101.088 77.8126)" fill="#ECFAF3"/>
<circle r="2.71251" transform="matrix(1 0 0 -1 117.361 77.8126)" fill="#ECFAF3"/>
<circle r="2.71251" transform="matrix(1 0 0 -1 133.638 77.8126)" fill="#ECFAF3"/>
<circle r="2.71251" transform="matrix(1 0 0 -1 149.912 77.8126)" fill="#ECFAF3"/>
<circle r="2.71251" transform="matrix(1 0 0 -1 166.188 77.8126)" fill="#ECFAF3"/>
<circle r="2.71251" transform="matrix(1 0 0 -1 182.463 77.8126)" fill="#ECFAF3"/>
<circle r="2.71251" transform="matrix(1 0 0 -1 198.738 77.8126)" fill="#ECFAF3"/>
<circle r="2.71251" transform="matrix(1 0 0 -1 215.013 77.8126)" fill="#ECFAF3"/>
<circle r="2.71251" transform="matrix(1 0 0 -1 231.287 77.8126)" fill="#ECFAF3"/>
<circle r="2.71251" transform="matrix(1 0 0 -1 19.712 61.5372)" fill="#ECFAF3"/>
<circle r="2.71251" transform="matrix(1 0 0 -1 35.9859 61.5372)" fill="#ECFAF3"/>
<circle r="2.71251" transform="matrix(1 0 0 -1 52.2628 61.5372)" fill="#ECFAF3"/>
<circle r="2.71251" transform="matrix(1 0 0 -1 68.5367 61.5372)" fill="#ECFAF3"/>
<circle r="2.71251" transform="matrix(1 0 0 -1 84.8131 61.5372)" fill="#ECFAF3"/>
<circle r="2.71251" transform="matrix(1 0 0 -1 101.088 61.5372)" fill="#ECFAF3"/>
<circle r="2.71251" transform="matrix(1 0 0 -1 117.361 61.5372)" fill="#ECFAF3"/>
<circle r="2.71251" transform="matrix(1 0 0 -1 133.638 61.5372)" fill="#ECFAF3"/>
<circle r="2.71251" transform="matrix(1 0 0 -1 149.912 61.5372)" fill="#ECFAF3"/>
<circle r="2.71251" transform="matrix(1 0 0 -1 166.188 61.5372)" fill="#ECFAF3"/>
<circle r="2.71251" transform="matrix(1 0 0 -1 182.463 61.5372)" fill="#ECFAF3"/>
<circle r="2.71251" transform="matrix(1 0 0 -1 198.738 61.5372)" fill="#ECFAF3"/>
<circle r="2.71251" transform="matrix(1 0 0 -1 215.013 61.5372)" fill="#ECFAF3"/>
<circle r="2.71251" transform="matrix(1 0 0 -1 231.287 61.5372)" fill="#ECFAF3"/>
<circle r="2.71251" transform="matrix(1 0 0 -1 19.712 45.2626)" fill="#ECFAF3"/>
<circle r="2.71251" transform="matrix(1 0 0 -1 35.9859 45.2626)" fill="#ECFAF3"/>
<circle r="2.71251" transform="matrix(1 0 0 -1 52.2628 45.2626)" fill="#ECFAF3"/>
<circle r="2.71251" transform="matrix(1 0 0 -1 68.5367 45.2626)" fill="#ECFAF3"/>
<circle r="2.71251" transform="matrix(1 0 0 -1 84.8131 45.2626)" fill="#ECFAF3"/>
<circle r="2.71251" transform="matrix(1 0 0 -1 101.088 45.2626)" fill="#ECFAF3"/>
<circle r="2.71251" transform="matrix(1 0 0 -1 117.361 45.2626)" fill="#ECFAF3"/>
<circle r="2.71251" transform="matrix(1 0 0 -1 133.638 45.2626)" fill="#ECFAF3"/>
<circle r="2.71251" transform="matrix(1 0 0 -1 149.912 45.2626)" fill="#ECFAF3"/>
<circle r="2.71251" transform="matrix(1 0 0 -1 166.188 45.2626)" fill="#ECFAF3"/>
<circle r="2.71251" transform="matrix(1 0 0 -1 182.463 45.2626)" fill="#ECFAF3"/>
<circle r="2.71251" transform="matrix(1 0 0 -1 198.738 45.2626)" fill="#ECFAF3"/>
<circle r="2.71251" transform="matrix(1 0 0 -1 215.013 45.2626)" fill="#ECFAF3"/>
<circle r="2.71251" transform="matrix(1 0 0 -1 231.287 45.2626)" fill="#ECFAF3"/>
<circle r="2.71251" transform="matrix(1 0 0 -1 19.712 28.9872)" fill="#ECFAF3"/>
<circle r="2.71251" transform="matrix(1 0 0 -1 35.9859 28.9872)" fill="#ECFAF3"/>
<circle r="2.71251" transform="matrix(1 0 0 -1 52.2628 28.9872)" fill="#ECFAF3"/>
<circle r="2.71251" transform="matrix(1 0 0 -1 68.5367 28.9872)" fill="#ECFAF3"/>
<circle r="2.71251" transform="matrix(1 0 0 -1 84.8131 28.9872)" fill="#ECFAF3"/>
<circle r="2.71251" transform="matrix(1 0 0 -1 101.088 28.9872)" fill="#ECFAF3"/>
<circle r="2.71251" transform="matrix(1 0 0 -1 117.361 28.9872)" fill="#ECFAF3"/>
<circle r="2.71251" transform="matrix(1 0 0 -1 133.638 28.9872)" fill="#ECFAF3"/>
<circle r="2.71251" transform="matrix(1 0 0 -1 149.912 28.9872)" fill="#ECFAF3"/>
<circle r="2.71251" transform="matrix(1 0 0 -1 166.188 28.9872)" fill="#ECFAF3"/>
<circle r="2.71251" transform="matrix(1 0 0 -1 182.463 28.9872)" fill="#ECFAF3"/>
<circle r="2.71251" transform="matrix(1 0 0 -1 198.738 28.9872)" fill="#ECFAF3"/>
<circle r="2.71251" transform="matrix(1 0 0 -1 215.013 28.9872)" fill="#ECFAF3"/>
<circle r="2.71251" transform="matrix(1 0 0 -1 231.287 28.9872)" fill="#ECFAF3"/>
<circle r="2.71251" transform="matrix(1 0 0 -1 19.712 12.7125)" fill="#ECFAF3"/>
<circle r="2.71251" transform="matrix(1 0 0 -1 35.9859 12.7125)" fill="#ECFAF3"/>
<circle r="2.71251" transform="matrix(1 0 0 -1 52.2628 12.7125)" fill="#ECFAF3"/>
<circle r="2.71251" transform="matrix(1 0 0 -1 68.5367 12.7125)" fill="#ECFAF3"/>
<circle r="2.71251" transform="matrix(1 0 0 -1 84.8131 12.7125)" fill="#ECFAF3"/>
<circle r="2.71251" transform="matrix(1 0 0 -1 101.088 12.7125)" fill="#ECFAF3"/>
<circle r="2.71251" transform="matrix(1 0 0 -1 117.361 12.7125)" fill="#ECFAF3"/>
<circle r="2.71251" transform="matrix(1 0 0 -1 133.638 12.7125)" fill="#ECFAF3"/>
<circle r="2.71251" transform="matrix(1 0 0 -1 149.912 12.7125)" fill="#ECFAF3"/>
<circle r="2.71251" transform="matrix(1 0 0 -1 166.188 12.7125)" fill="#ECFAF3"/>
<circle r="2.71251" transform="matrix(1 0 0 -1 182.463 12.7125)" fill="#ECFAF3"/>
<circle r="2.71251" transform="matrix(1 0 0 -1 198.738 12.7125)" fill="#ECFAF3"/>
<circle r="2.71251" transform="matrix(1 0 0 -1 215.013 12.7125)" fill="#ECFAF3"/>
<circle r="2.71251" transform="matrix(1 0 0 -1 231.287 12.7125)" fill="#ECFAF3"/>
</svg>
