<svg width="252" height="259" viewBox="0 0 252 259" fill="none" xmlns="http://www.w3.org/2000/svg">
<rect width="250" height="259" rx="15" fill="#51A3A3"/>
<path d="M0 201.656H251.077V244C251.077 252.284 244.361 259 236.077 259H15C6.71571 259 0 252.284 0 244V201.656Z" fill="white"/>
<path d="M92.944 220.432C92.32 221.344 91.328 221.952 90.192 221.952C89.28 221.952 88.528 221.616 87.92 220.96C87.312 220.288 87.008 219.472 87.008 218.512C87.008 217.536 87.312 216.72 87.92 216.064C88.528 215.392 89.28 215.056 90.192 215.056C91.328 215.056 92.224 215.536 92.88 216.496L94.784 215.184C93.808 213.76 92.112 212.848 90.192 212.848C88.624 212.848 87.312 213.392 86.24 214.496C85.184 215.6 84.656 216.928 84.656 218.512C84.656 220.08 85.184 221.408 86.24 222.512C87.312 223.616 88.624 224.16 90.192 224.16C92.16 224.16 93.856 223.232 94.832 221.744L92.944 220.432ZM103.956 224V216.528H101.748V217.36C101.236 216.64 100.276 216.368 99.5715 216.368C98.5635 216.368 97.6835 216.736 96.9155 217.456C96.1475 218.176 95.7635 219.104 95.7635 220.256C95.7635 221.408 96.1475 222.352 96.9155 223.072C97.6835 223.792 98.5635 224.144 99.5715 224.144C99.9235 224.144 100.324 224.064 100.756 223.888C101.204 223.712 101.54 223.472 101.748 223.152V224H103.956ZM99.9395 222.032C99.4435 222.032 99.0115 221.872 98.6275 221.536C98.2595 221.2 98.0675 220.768 98.0675 220.256C98.0675 219.744 98.2595 219.328 98.6275 218.992C99.0115 218.656 99.4435 218.48 99.9395 218.48C100.9 218.48 101.748 219.184 101.748 220.256C101.748 221.328 100.9 222.032 99.9395 222.032ZM111.336 220.24C111.336 221.28 110.568 222.048 109.608 222.048C108.648 222.048 107.88 221.328 107.88 220.24C107.88 219.2 108.648 218.464 109.608 218.464C110.568 218.464 111.336 219.152 111.336 220.24ZM113.592 212.464H111.384V217.44C111.016 216.784 110.152 216.368 109.192 216.368C108.2 216.368 107.352 216.736 106.632 217.456C105.928 218.176 105.576 219.12 105.576 220.288C105.576 221.424 105.928 222.368 106.632 223.088C107.352 223.808 108.2 224.16 109.192 224.16C110.152 224.16 111.016 223.76 111.384 223.072V224H113.592V212.464ZM120.881 221.536C120.513 222 119.969 222.24 119.249 222.24C118.369 222.24 117.521 221.808 117.409 220.992H122.881C122.897 220.736 122.913 220.512 122.913 220.304C122.913 219.136 122.545 218.192 121.809 217.472C121.089 216.736 120.177 216.368 119.089 216.368C117.985 216.368 117.057 216.72 116.305 217.44C115.553 218.16 115.185 219.088 115.185 220.24C115.185 221.392 115.553 222.336 116.305 223.072C117.057 223.792 117.985 224.16 119.089 224.16C120.673 224.16 121.809 223.648 122.497 222.64L120.881 221.536ZM117.441 219.6C117.793 217.888 120.449 217.904 120.673 219.6H117.441ZM127.28 213.664H125.072V216.528H123.712V218.288H125.072V224H127.28V218.288H128.848V216.528H127.28V213.664ZM141.757 216.048C141.757 214.176 140.477 212.976 138.493 212.976H134.077V224H138.813C139.885 224 140.733 223.68 141.373 223.024C142.013 222.368 142.333 221.568 142.333 220.624C142.333 220.112 142.157 219.616 141.789 219.12C141.437 218.624 140.925 218.288 140.253 218.112C141.293 217.712 141.757 216.88 141.757 216.048ZM136.429 215.04H138.253C138.941 215.04 139.293 215.488 139.293 216.192C139.293 216.848 138.861 217.328 138.269 217.328H136.429V215.04ZM138.637 219.264C139.405 219.264 139.869 219.888 139.869 220.576C139.869 221.296 139.437 221.936 138.685 221.936H136.429V219.264H138.637ZM143.993 224H146.217V212.464H143.993V224ZM153.074 220.48C153.074 221.52 152.498 222 151.73 222C151.074 222 150.402 221.584 150.402 220.512V216.528H148.178V220.992C148.178 223.04 149.394 224.16 151.138 224.16C151.89 224.16 152.69 223.696 153.074 222.976V224H155.298V216.528H153.074V220.48ZM162.6 221.536C162.232 222 161.688 222.24 160.968 222.24C160.088 222.24 159.24 221.808 159.128 220.992H164.6C164.616 220.736 164.632 220.512 164.632 220.304C164.632 219.136 164.264 218.192 163.528 217.472C162.808 216.736 161.896 216.368 160.808 216.368C159.704 216.368 158.776 216.72 158.024 217.44C157.272 218.16 156.904 219.088 156.904 220.24C156.904 221.392 157.272 222.336 158.024 223.072C158.776 223.792 159.704 224.16 160.808 224.16C162.392 224.16 163.528 223.648 164.216 222.64L162.6 221.536ZM159.16 219.6C159.512 217.888 162.168 217.904 162.392 219.6H159.16Z" fill="#202538"/>
<path opacity="0.6" d="M97.26 247H98.548L99.262 244.676H100.872L100.172 247H101.474L102.188 244.676H103.728L104.078 243.43H102.538L103.238 241.036H104.792L105.128 239.79H103.588L104.302 237.354H102.986L102.272 239.79H100.676L101.376 237.354H100.046L99.346 239.79H97.82L97.484 241.036H98.982L98.296 243.43H96.77L96.434 244.676H97.96L97.26 247ZM99.612 243.43L100.312 241.036H101.922L101.208 243.43H99.612ZM109.883 240.896C109.197 240.896 108.539 241.134 108.077 241.47L108.511 239.342H112.263V237.83H107.167L106.369 242.422L107.335 243.094C107.951 242.59 108.707 242.268 109.435 242.268C110.457 242.268 111.241 242.94 111.241 243.934C111.241 244.942 110.457 245.614 109.351 245.614C108.511 245.614 107.713 245.082 107.391 244.368L106.103 245.18C106.691 246.314 107.993 247.14 109.435 247.14C111.325 247.14 112.879 245.908 112.879 243.92C112.879 242.142 111.633 240.896 109.883 240.896ZM117.434 237.718L113.878 239.244V240.756L115.936 239.944V247H117.546V237.718H117.434ZM126.015 247H127.821L124.209 237.354H122.361L118.735 247H120.555L121.395 244.634H125.175L126.015 247ZM121.913 243.15L123.285 239.258L124.657 243.15H121.913ZM132.841 242.072C133.583 241.722 134.031 241.022 134.031 240.21C134.045 238.684 132.869 237.718 131.259 237.718C130.125 237.718 129.173 238.236 128.585 239.02L129.551 240.014C129.901 239.524 130.517 239.216 131.119 239.216C131.861 239.216 132.365 239.636 132.393 240.266C132.421 240.98 131.819 241.526 130.839 241.526H130.195V242.8H131.091C132.099 242.8 132.813 243.402 132.813 244.27C132.813 245.082 132.099 245.642 131.091 245.642C130.377 245.642 129.775 245.236 129.341 244.55L128.165 245.404C128.781 246.51 129.845 247.126 131.161 247.126C133.093 247.126 134.451 246.006 134.451 244.326C134.451 243.248 133.807 242.408 132.841 242.072ZM142.367 247H144.173L140.561 237.354H138.713L135.087 247H136.907L137.747 244.634H141.527L142.367 247ZM138.265 243.15L139.637 239.258L141.009 243.15H138.265ZM149.193 242.072C149.935 241.722 150.383 241.022 150.383 240.21C150.397 238.684 149.221 237.718 147.611 237.718C146.477 237.718 145.525 238.236 144.937 239.02L145.903 240.014C146.253 239.524 146.869 239.216 147.471 239.216C148.213 239.216 148.717 239.636 148.745 240.266C148.773 240.98 148.171 241.526 147.191 241.526H146.547V242.8H147.443C148.451 242.8 149.165 243.402 149.165 244.27C149.165 245.082 148.451 245.642 147.443 245.642C146.729 245.642 146.127 245.236 145.693 244.55L144.517 245.404C145.133 246.51 146.197 247.126 147.513 247.126C149.445 247.126 150.803 246.006 150.803 244.326C150.803 243.248 150.159 242.408 149.193 242.072Z" fill="#202538"/>
<circle r="2.71251" transform="matrix(1 0 0 -1 19.712 191.738)" fill="#5BB7B7"/>
<circle r="2.71251" transform="matrix(1 0 0 -1 35.9859 191.738)" fill="#5BB7B7"/>
<circle r="2.71251" transform="matrix(1 0 0 -1 52.2628 191.738)" fill="#5BB7B7"/>
<circle r="2.71251" transform="matrix(1 0 0 -1 68.5367 191.738)" fill="#5BB7B7"/>
<circle r="2.71251" transform="matrix(1 0 0 -1 84.8131 191.738)" fill="#5BB7B7"/>
<circle r="2.71251" transform="matrix(1 0 0 -1 101.088 191.738)" fill="#5BB7B7"/>
<circle r="2.71251" transform="matrix(1 0 0 -1 117.361 191.738)" fill="#5BB7B7"/>
<circle r="2.71251" transform="matrix(1 0 0 -1 133.638 191.738)" fill="#5BB7B7"/>
<circle r="2.71251" transform="matrix(1 0 0 -1 149.912 191.738)" fill="#5BB7B7"/>
<circle r="2.71251" transform="matrix(1 0 0 -1 166.188 191.738)" fill="#5BB7B7"/>
<circle r="2.71251" transform="matrix(1 0 0 -1 182.463 191.738)" fill="#5BB7B7"/>
<circle r="2.71251" transform="matrix(1 0 0 -1 198.738 191.738)" fill="#5BB7B7"/>
<circle r="2.71251" transform="matrix(1 0 0 -1 215.013 191.738)" fill="#5BB7B7"/>
<circle r="2.71251" transform="matrix(1 0 0 -1 231.287 191.738)" fill="#5BB7B7"/>
<circle r="2.71251" transform="matrix(1 0 0 -1 19.712 175.463)" fill="#5BB7B7"/>
<circle r="2.71251" transform="matrix(1 0 0 -1 35.9859 175.463)" fill="#5BB7B7"/>
<circle r="2.71251" transform="matrix(1 0 0 -1 52.2628 175.463)" fill="#5BB7B7"/>
<circle r="2.71251" transform="matrix(1 0 0 -1 68.5367 175.463)" fill="#5BB7B7"/>
<circle r="2.71251" transform="matrix(1 0 0 -1 84.8131 175.463)" fill="#5BB7B7"/>
<circle r="2.71251" transform="matrix(1 0 0 -1 101.088 175.463)" fill="#5BB7B7"/>
<circle r="2.71251" transform="matrix(1 0 0 -1 117.361 175.463)" fill="#5BB7B7"/>
<circle r="2.71251" transform="matrix(1 0 0 -1 133.638 175.463)" fill="#5BB7B7"/>
<circle r="2.71251" transform="matrix(1 0 0 -1 149.912 175.463)" fill="#5BB7B7"/>
<circle r="2.71251" transform="matrix(1 0 0 -1 166.188 175.463)" fill="#5BB7B7"/>
<circle r="2.71251" transform="matrix(1 0 0 -1 182.463 175.463)" fill="#5BB7B7"/>
<circle r="2.71251" transform="matrix(1 0 0 -1 198.738 175.463)" fill="#5BB7B7"/>
<circle r="2.71251" transform="matrix(1 0 0 -1 215.013 175.463)" fill="#5BB7B7"/>
<circle r="2.71251" transform="matrix(1 0 0 -1 231.287 175.463)" fill="#5BB7B7"/>
<circle r="2.71251" transform="matrix(1 0 0 -1 19.712 159.187)" fill="#5BB7B7"/>
<circle r="2.71251" transform="matrix(1 0 0 -1 35.9859 159.187)" fill="#5BB7B7"/>
<circle r="2.71251" transform="matrix(1 0 0 -1 52.2628 159.187)" fill="#5BB7B7"/>
<circle r="2.71251" transform="matrix(1 0 0 -1 68.5367 159.187)" fill="#5BB7B7"/>
<circle r="2.71251" transform="matrix(1 0 0 -1 84.8131 159.187)" fill="#5BB7B7"/>
<circle r="2.71251" transform="matrix(1 0 0 -1 101.088 159.187)" fill="#5BB7B7"/>
<circle r="2.71251" transform="matrix(1 0 0 -1 117.361 159.187)" fill="#5BB7B7"/>
<circle r="2.71251" transform="matrix(1 0 0 -1 133.638 159.187)" fill="#5BB7B7"/>
<circle r="2.71251" transform="matrix(1 0 0 -1 149.912 159.187)" fill="#5BB7B7"/>
<circle r="2.71251" transform="matrix(1 0 0 -1 166.188 159.187)" fill="#5BB7B7"/>
<circle r="2.71251" transform="matrix(1 0 0 -1 182.463 159.187)" fill="#5BB7B7"/>
<circle r="2.71251" transform="matrix(1 0 0 -1 198.738 159.187)" fill="#5BB7B7"/>
<circle r="2.71251" transform="matrix(1 0 0 -1 215.013 159.187)" fill="#5BB7B7"/>
<circle r="2.71251" transform="matrix(1 0 0 -1 231.287 159.187)" fill="#5BB7B7"/>
<circle r="2.71251" transform="matrix(1 0 0 -1 19.712 142.913)" fill="#5BB7B7"/>
<circle r="2.71251" transform="matrix(1 0 0 -1 35.9859 142.913)" fill="#5BB7B7"/>
<circle r="2.71251" transform="matrix(1 0 0 -1 52.2628 142.913)" fill="#5BB7B7"/>
<circle r="2.71251" transform="matrix(1 0 0 -1 68.5367 142.913)" fill="#5BB7B7"/>
<circle r="2.71251" transform="matrix(1 0 0 -1 84.8131 142.913)" fill="#5BB7B7"/>
<circle r="2.71251" transform="matrix(1 0 0 -1 101.088 142.913)" fill="#5BB7B7"/>
<circle r="2.71251" transform="matrix(1 0 0 -1 117.361 142.913)" fill="#5BB7B7"/>
<circle r="2.71251" transform="matrix(1 0 0 -1 133.638 142.913)" fill="#5BB7B7"/>
<circle r="2.71251" transform="matrix(1 0 0 -1 149.912 142.913)" fill="#5BB7B7"/>
<circle r="2.71251" transform="matrix(1 0 0 -1 166.188 142.913)" fill="#5BB7B7"/>
<circle r="2.71251" transform="matrix(1 0 0 -1 182.463 142.913)" fill="#5BB7B7"/>
<circle r="2.71251" transform="matrix(1 0 0 -1 198.738 142.913)" fill="#5BB7B7"/>
<circle r="2.71251" transform="matrix(1 0 0 -1 215.013 142.913)" fill="#5BB7B7"/>
<circle r="2.71251" transform="matrix(1 0 0 -1 231.287 142.913)" fill="#5BB7B7"/>
<circle r="2.71251" transform="matrix(1 0 0 -1 19.712 126.638)" fill="#5BB7B7"/>
<circle r="2.71251" transform="matrix(1 0 0 -1 35.9859 126.638)" fill="#5BB7B7"/>
<circle r="2.71251" transform="matrix(1 0 0 -1 52.2628 126.638)" fill="#5BB7B7"/>
<circle r="2.71251" transform="matrix(1 0 0 -1 68.5367 126.638)" fill="#5BB7B7"/>
<circle r="2.71251" transform="matrix(1 0 0 -1 84.8131 126.638)" fill="#5BB7B7"/>
<circle r="2.71251" transform="matrix(1 0 0 -1 101.088 126.638)" fill="#5BB7B7"/>
<circle r="2.71251" transform="matrix(1 0 0 -1 117.361 126.638)" fill="#5BB7B7"/>
<circle r="2.71251" transform="matrix(1 0 0 -1 133.638 126.638)" fill="#5BB7B7"/>
<circle r="2.71251" transform="matrix(1 0 0 -1 149.912 126.638)" fill="#5BB7B7"/>
<circle r="2.71251" transform="matrix(1 0 0 -1 166.188 126.638)" fill="#5BB7B7"/>
<circle r="2.71251" transform="matrix(1 0 0 -1 182.463 126.638)" fill="#5BB7B7"/>
<circle r="2.71251" transform="matrix(1 0 0 -1 198.738 126.638)" fill="#5BB7B7"/>
<circle r="2.71251" transform="matrix(1 0 0 -1 215.013 126.638)" fill="#5BB7B7"/>
<circle r="2.71251" transform="matrix(1 0 0 -1 231.287 126.638)" fill="#5BB7B7"/>
<circle r="2.71251" transform="matrix(1 0 0 -1 19.712 110.363)" fill="#5BB7B7"/>
<circle r="2.71251" transform="matrix(1 0 0 -1 35.9859 110.363)" fill="#5BB7B7"/>
<circle r="2.71251" transform="matrix(1 0 0 -1 52.2628 110.363)" fill="#5BB7B7"/>
<circle r="2.71251" transform="matrix(1 0 0 -1 68.5367 110.363)" fill="#5BB7B7"/>
<circle r="2.71251" transform="matrix(1 0 0 -1 84.8131 110.363)" fill="#5BB7B7"/>
<circle r="2.71251" transform="matrix(1 0 0 -1 101.088 110.363)" fill="#5BB7B7"/>
<circle r="2.71251" transform="matrix(1 0 0 -1 117.361 110.363)" fill="#5BB7B7"/>
<circle r="2.71251" transform="matrix(1 0 0 -1 133.638 110.363)" fill="#5BB7B7"/>
<circle r="2.71251" transform="matrix(1 0 0 -1 149.912 110.363)" fill="#5BB7B7"/>
<circle r="2.71251" transform="matrix(1 0 0 -1 166.188 110.363)" fill="#5BB7B7"/>
<circle r="2.71251" transform="matrix(1 0 0 -1 182.463 110.363)" fill="#5BB7B7"/>
<circle r="2.71251" transform="matrix(1 0 0 -1 198.738 110.363)" fill="#5BB7B7"/>
<circle r="2.71251" transform="matrix(1 0 0 -1 215.013 110.363)" fill="#5BB7B7"/>
<circle r="2.71251" transform="matrix(1 0 0 -1 231.287 110.363)" fill="#5BB7B7"/>
<circle r="2.71251" transform="matrix(1 0 0 -1 19.712 94.0873)" fill="#5BB7B7"/>
<circle r="2.71251" transform="matrix(1 0 0 -1 35.9859 94.0873)" fill="#5BB7B7"/>
<circle r="2.71251" transform="matrix(1 0 0 -1 52.2628 94.0873)" fill="#5BB7B7"/>
<circle r="2.71251" transform="matrix(1 0 0 -1 68.5367 94.0873)" fill="#5BB7B7"/>
<circle r="2.71251" transform="matrix(1 0 0 -1 84.8131 94.0873)" fill="#5BB7B7"/>
<circle r="2.71251" transform="matrix(1 0 0 -1 101.088 94.0873)" fill="#5BB7B7"/>
<circle r="2.71251" transform="matrix(1 0 0 -1 117.361 94.0873)" fill="#5BB7B7"/>
<circle r="2.71251" transform="matrix(1 0 0 -1 133.638 94.0873)" fill="#5BB7B7"/>
<circle r="2.71251" transform="matrix(1 0 0 -1 149.912 94.0873)" fill="#5BB7B7"/>
<circle r="2.71251" transform="matrix(1 0 0 -1 166.188 94.0873)" fill="#5BB7B7"/>
<circle r="2.71251" transform="matrix(1 0 0 -1 182.463 94.0873)" fill="#5BB7B7"/>
<circle r="2.71251" transform="matrix(1 0 0 -1 198.738 94.0873)" fill="#5BB7B7"/>
<circle r="2.71251" transform="matrix(1 0 0 -1 215.013 94.0873)" fill="#5BB7B7"/>
<circle r="2.71251" transform="matrix(1 0 0 -1 231.287 94.0873)" fill="#5BB7B7"/>
<circle r="2.71251" transform="matrix(1 0 0 -1 19.712 77.8126)" fill="#5BB7B7"/>
<circle r="2.71251" transform="matrix(1 0 0 -1 35.9859 77.8126)" fill="#5BB7B7"/>
<circle r="2.71251" transform="matrix(1 0 0 -1 52.2628 77.8126)" fill="#5BB7B7"/>
<circle r="2.71251" transform="matrix(1 0 0 -1 68.5367 77.8126)" fill="#5BB7B7"/>
<circle r="2.71251" transform="matrix(1 0 0 -1 84.8131 77.8126)" fill="#5BB7B7"/>
<circle r="2.71251" transform="matrix(1 0 0 -1 101.088 77.8126)" fill="#5BB7B7"/>
<circle r="2.71251" transform="matrix(1 0 0 -1 117.361 77.8126)" fill="#5BB7B7"/>
<circle r="2.71251" transform="matrix(1 0 0 -1 133.638 77.8126)" fill="#5BB7B7"/>
<circle r="2.71251" transform="matrix(1 0 0 -1 149.912 77.8126)" fill="#5BB7B7"/>
<circle r="2.71251" transform="matrix(1 0 0 -1 166.188 77.8126)" fill="#5BB7B7"/>
<circle r="2.71251" transform="matrix(1 0 0 -1 182.463 77.8126)" fill="#5BB7B7"/>
<circle r="2.71251" transform="matrix(1 0 0 -1 198.738 77.8126)" fill="#5BB7B7"/>
<circle r="2.71251" transform="matrix(1 0 0 -1 215.013 77.8126)" fill="#5BB7B7"/>
<circle r="2.71251" transform="matrix(1 0 0 -1 231.287 77.8126)" fill="#5BB7B7"/>
<circle r="2.71251" transform="matrix(1 0 0 -1 19.712 61.5372)" fill="#5BB7B7"/>
<circle r="2.71251" transform="matrix(1 0 0 -1 35.9859 61.5372)" fill="#5BB7B7"/>
<circle r="2.71251" transform="matrix(1 0 0 -1 52.2628 61.5372)" fill="#5BB7B7"/>
<circle r="2.71251" transform="matrix(1 0 0 -1 68.5367 61.5372)" fill="#5BB7B7"/>
<circle r="2.71251" transform="matrix(1 0 0 -1 84.8131 61.5372)" fill="#5BB7B7"/>
<circle r="2.71251" transform="matrix(1 0 0 -1 101.088 61.5372)" fill="#5BB7B7"/>
<circle r="2.71251" transform="matrix(1 0 0 -1 117.361 61.5372)" fill="#5BB7B7"/>
<circle r="2.71251" transform="matrix(1 0 0 -1 133.638 61.5372)" fill="#5BB7B7"/>
<circle r="2.71251" transform="matrix(1 0 0 -1 149.912 61.5372)" fill="#5BB7B7"/>
<circle r="2.71251" transform="matrix(1 0 0 -1 166.188 61.5372)" fill="#5BB7B7"/>
<circle r="2.71251" transform="matrix(1 0 0 -1 182.463 61.5372)" fill="#5BB7B7"/>
<circle r="2.71251" transform="matrix(1 0 0 -1 198.738 61.5372)" fill="#5BB7B7"/>
<circle r="2.71251" transform="matrix(1 0 0 -1 215.013 61.5372)" fill="#5BB7B7"/>
<circle r="2.71251" transform="matrix(1 0 0 -1 231.287 61.5372)" fill="#5BB7B7"/>
<circle r="2.71251" transform="matrix(1 0 0 -1 19.712 45.2626)" fill="#5BB7B7"/>
<circle r="2.71251" transform="matrix(1 0 0 -1 35.9859 45.2626)" fill="#5BB7B7"/>
<circle r="2.71251" transform="matrix(1 0 0 -1 52.2628 45.2626)" fill="#5BB7B7"/>
<circle r="2.71251" transform="matrix(1 0 0 -1 68.5367 45.2626)" fill="#5BB7B7"/>
<circle r="2.71251" transform="matrix(1 0 0 -1 84.8131 45.2626)" fill="#5BB7B7"/>
<circle r="2.71251" transform="matrix(1 0 0 -1 101.088 45.2626)" fill="#5BB7B7"/>
<circle r="2.71251" transform="matrix(1 0 0 -1 117.361 45.2626)" fill="#5BB7B7"/>
<circle r="2.71251" transform="matrix(1 0 0 -1 133.638 45.2626)" fill="#5BB7B7"/>
<circle r="2.71251" transform="matrix(1 0 0 -1 149.912 45.2626)" fill="#5BB7B7"/>
<circle r="2.71251" transform="matrix(1 0 0 -1 166.188 45.2626)" fill="#5BB7B7"/>
<circle r="2.71251" transform="matrix(1 0 0 -1 182.463 45.2626)" fill="#5BB7B7"/>
<circle r="2.71251" transform="matrix(1 0 0 -1 198.738 45.2626)" fill="#5BB7B7"/>
<circle r="2.71251" transform="matrix(1 0 0 -1 215.013 45.2626)" fill="#5BB7B7"/>
<circle r="2.71251" transform="matrix(1 0 0 -1 231.287 45.2626)" fill="#5BB7B7"/>
<circle r="2.71251" transform="matrix(1 0 0 -1 19.712 28.9872)" fill="#5BB7B7"/>
<circle r="2.71251" transform="matrix(1 0 0 -1 35.9859 28.9872)" fill="#5BB7B7"/>
<circle r="2.71251" transform="matrix(1 0 0 -1 52.2628 28.9872)" fill="#5BB7B7"/>
<circle r="2.71251" transform="matrix(1 0 0 -1 68.5367 28.9872)" fill="#5BB7B7"/>
<circle r="2.71251" transform="matrix(1 0 0 -1 84.8131 28.9872)" fill="#5BB7B7"/>
<circle r="2.71251" transform="matrix(1 0 0 -1 101.088 28.9872)" fill="#5BB7B7"/>
<circle r="2.71251" transform="matrix(1 0 0 -1 117.361 28.9872)" fill="#5BB7B7"/>
<circle r="2.71251" transform="matrix(1 0 0 -1 133.638 28.9872)" fill="#5BB7B7"/>
<circle r="2.71251" transform="matrix(1 0 0 -1 149.912 28.9872)" fill="#5BB7B7"/>
<circle r="2.71251" transform="matrix(1 0 0 -1 166.188 28.9872)" fill="#5BB7B7"/>
<circle r="2.71251" transform="matrix(1 0 0 -1 182.463 28.9872)" fill="#5BB7B7"/>
<circle r="2.71251" transform="matrix(1 0 0 -1 198.738 28.9872)" fill="#5BB7B7"/>
<circle r="2.71251" transform="matrix(1 0 0 -1 215.013 28.9872)" fill="#5BB7B7"/>
<circle r="2.71251" transform="matrix(1 0 0 -1 231.287 28.9872)" fill="#5BB7B7"/>
<circle r="2.71251" transform="matrix(1 0 0 -1 19.712 12.7125)" fill="#5BB7B7"/>
<circle r="2.71251" transform="matrix(1 0 0 -1 35.9859 12.7125)" fill="#5BB7B7"/>
<circle r="2.71251" transform="matrix(1 0 0 -1 52.2628 12.7125)" fill="#5BB7B7"/>
<circle r="2.71251" transform="matrix(1 0 0 -1 68.5367 12.7125)" fill="#5BB7B7"/>
<circle r="2.71251" transform="matrix(1 0 0 -1 84.8131 12.7125)" fill="#5BB7B7"/>
<circle r="2.71251" transform="matrix(1 0 0 -1 101.088 12.7125)" fill="#5BB7B7"/>
<circle r="2.71251" transform="matrix(1 0 0 -1 117.361 12.7125)" fill="#5BB7B7"/>
<circle r="2.71251" transform="matrix(1 0 0 -1 133.638 12.7125)" fill="#5BB7B7"/>
<circle r="2.71251" transform="matrix(1 0 0 -1 149.912 12.7125)" fill="#5BB7B7"/>
<circle r="2.71251" transform="matrix(1 0 0 -1 166.188 12.7125)" fill="#5BB7B7"/>
<circle r="2.71251" transform="matrix(1 0 0 -1 182.463 12.7125)" fill="#5BB7B7"/>
<circle r="2.71251" transform="matrix(1 0 0 -1 198.738 12.7125)" fill="#5BB7B7"/>
<circle r="2.71251" transform="matrix(1 0 0 -1 215.013 12.7125)" fill="#5BB7B7"/>
<circle r="2.71251" transform="matrix(1 0 0 -1 231.287 12.7125)" fill="#5BB7B7"/>
</svg>
