<svg width="252" height="259" viewBox="0 0 252 259" fill="none" xmlns="http://www.w3.org/2000/svg">
<rect width="250" height="259" rx="15" fill="#2F3652"/>
<path d="M0 201.656H251.077V244C251.077 252.284 244.361 259 236.077 259H15C6.71571 259 0 252.284 0 244V201.656Z" fill="white"/>
<path d="M98.944 220.432C98.32 221.344 97.328 221.952 96.192 221.952C95.28 221.952 94.528 221.616 93.92 220.96C93.312 220.288 93.008 219.472 93.008 218.512C93.008 217.536 93.312 216.72 93.92 216.064C94.528 215.392 95.28 215.056 96.192 215.056C97.328 215.056 98.224 215.536 98.88 216.496L100.784 215.184C99.808 213.76 98.112 212.848 96.192 212.848C94.624 212.848 93.312 213.392 92.24 214.496C91.184 215.6 90.656 216.928 90.656 218.512C90.656 220.08 91.184 221.408 92.24 222.512C93.312 223.616 94.624 224.16 96.192 224.16C98.16 224.16 99.856 223.232 100.832 221.744L98.944 220.432ZM104.436 220.048C104.436 219.008 105.108 218.528 105.924 218.528C106.644 218.528 107.3 219.104 107.3 220.016V224H109.524V219.936C109.524 217.648 108.468 216.368 106.532 216.368C106.132 216.368 105.716 216.48 105.284 216.72C104.852 216.944 104.58 217.264 104.436 217.696V212.464H102.212V224H104.436V220.048ZM119.221 224V216.528H117.013V217.36C116.501 216.64 115.541 216.368 114.837 216.368C113.829 216.368 112.949 216.736 112.181 217.456C111.413 218.176 111.029 219.104 111.029 220.256C111.029 221.408 111.413 222.352 112.181 223.072C112.949 223.792 113.829 224.144 114.837 224.144C115.189 224.144 115.589 224.064 116.021 223.888C116.469 223.712 116.805 223.472 117.013 223.152V224H119.221ZM115.205 222.032C114.709 222.032 114.277 221.872 113.893 221.536C113.525 221.2 113.333 220.768 113.333 220.256C113.333 219.744 113.525 219.328 113.893 218.992C114.277 218.656 114.709 218.48 115.205 218.48C116.165 218.48 117.013 219.184 117.013 220.256C117.013 221.328 116.165 222.032 115.205 222.032ZM123.498 221.392C123.498 219.408 124.122 218.416 125.354 218.416C125.802 218.416 126.186 218.496 126.49 218.64L126.89 216.64C126.522 216.464 126.106 216.368 125.61 216.368C124.762 216.368 123.866 217.04 123.498 218.336V216.528H121.274V224H123.498V221.392ZM131.531 216.368C130.427 216.368 129.467 216.736 128.667 217.456C127.867 218.176 127.467 219.104 127.467 220.24C127.467 221.376 127.867 222.32 128.667 223.056C129.467 223.792 130.427 224.16 131.531 224.16C132.875 224.16 134.075 223.568 134.779 222.56L132.971 221.28C132.651 221.776 132.171 222.032 131.531 222.032C131.035 222.032 130.603 221.872 130.235 221.536C129.867 221.2 129.675 220.768 129.675 220.24C129.675 219.728 129.867 219.312 130.235 218.992C130.603 218.656 131.035 218.496 131.531 218.496C132.171 218.496 132.651 218.752 132.971 219.248L134.779 217.952C134.059 216.944 132.859 216.368 131.531 216.368ZM139.651 221.952C138.707 221.952 137.971 221.264 137.971 220.24C137.971 219.264 138.707 218.544 139.651 218.544C140.595 218.544 141.347 219.264 141.347 220.24C141.347 221.264 140.611 221.952 139.651 221.952ZM142.403 223.056C143.155 222.336 143.539 221.392 143.539 220.24C143.539 219.088 143.155 218.16 142.403 217.44C141.651 216.72 140.739 216.368 139.651 216.368C138.563 216.368 137.651 216.72 136.899 217.44C136.147 218.16 135.779 219.088 135.779 220.24C135.779 221.392 136.147 222.336 136.899 223.056C137.651 223.776 138.563 224.128 139.651 224.128C140.739 224.128 141.651 223.776 142.403 223.056ZM152.877 224V216.528H150.669V217.36C150.157 216.64 149.197 216.368 148.493 216.368C147.485 216.368 146.605 216.736 145.837 217.456C145.069 218.176 144.685 219.104 144.685 220.256C144.685 221.408 145.069 222.352 145.837 223.072C146.605 223.792 147.485 224.144 148.493 224.144C148.845 224.144 149.245 224.064 149.677 223.888C150.125 223.712 150.461 223.472 150.669 223.152V224H152.877ZM148.861 222.032C148.365 222.032 147.933 221.872 147.549 221.536C147.181 221.2 146.989 220.768 146.989 220.256C146.989 219.744 147.181 219.328 147.549 218.992C147.933 218.656 148.365 218.48 148.861 218.48C149.821 218.48 150.669 219.184 150.669 220.256C150.669 221.328 149.821 222.032 148.861 222.032ZM154.93 224H157.154V212.464H154.93V224Z" fill="#202538"/>
<path opacity="0.6" d="M98.26 247H99.548L100.262 244.676H101.872L101.172 247H102.474L103.188 244.676H104.728L105.078 243.43H103.538L104.238 241.036H105.792L106.128 239.79H104.588L105.302 237.354H103.986L103.272 239.79H101.676L102.376 237.354H101.046L100.346 239.79H98.82L98.484 241.036H99.982L99.296 243.43H97.77L97.434 244.676H98.96L98.26 247ZM100.612 243.43L101.312 241.036H102.922L102.208 243.43H100.612ZM109.833 245.474L112.115 242.814C112.703 242.128 113.137 241.274 113.137 240.476C113.137 238.824 111.975 237.718 110.183 237.718C108.447 237.718 107.369 238.768 107.159 240.308L108.629 240.588C108.713 239.776 109.259 239.23 110.127 239.23C110.953 239.23 111.499 239.72 111.499 240.448C111.499 240.812 111.205 241.372 110.743 241.932L107.229 246.174V247H113.263V245.474H109.833ZM118.138 247.14C120.784 247.14 121.498 245.04 121.498 242.436C121.498 239.818 120.784 237.718 118.138 237.718C115.478 237.718 114.75 239.818 114.75 242.436C114.75 245.04 115.478 247.14 118.138 247.14ZM118.138 245.628C116.766 245.628 116.388 244.186 116.388 242.436C116.388 240.672 116.766 239.23 118.138 239.23C119.496 239.23 119.86 240.672 119.86 242.436C119.86 244.186 119.496 245.628 118.138 245.628ZM125.542 245.474L127.824 242.814C128.412 242.128 128.846 241.274 128.846 240.476C128.846 238.824 127.684 237.718 125.892 237.718C124.156 237.718 123.078 238.768 122.868 240.308L124.338 240.588C124.422 239.776 124.968 239.23 125.836 239.23C126.662 239.23 127.208 239.72 127.208 240.448C127.208 240.812 126.914 241.372 126.452 241.932L122.938 246.174V247H128.972V245.474H125.542ZM134.029 240.896C133.343 240.896 132.685 241.134 132.223 241.47L132.657 239.342H136.409V237.83H131.313L130.515 242.422L131.481 243.094C132.097 242.59 132.853 242.268 133.581 242.268C134.603 242.268 135.387 242.94 135.387 243.934C135.387 244.942 134.603 245.614 133.497 245.614C132.657 245.614 131.859 245.082 131.537 244.368L130.249 245.18C130.837 246.314 132.139 247.14 133.581 247.14C135.471 247.14 137.025 245.908 137.025 243.92C137.025 242.142 135.779 240.896 134.029 240.896ZM142.714 242.072C143.456 241.722 143.904 241.022 143.904 240.21C143.918 238.684 142.742 237.718 141.132 237.718C139.998 237.718 139.046 238.236 138.458 239.02L139.424 240.014C139.774 239.524 140.39 239.216 140.992 239.216C141.734 239.216 142.238 239.636 142.266 240.266C142.294 240.98 141.692 241.526 140.712 241.526H140.068V242.8H140.964C141.972 242.8 142.686 243.402 142.686 244.27C142.686 245.082 141.972 245.642 140.964 245.642C140.25 245.642 139.648 245.236 139.214 244.55L138.038 245.404C138.654 246.51 139.718 247.126 141.034 247.126C142.966 247.126 144.324 246.006 144.324 244.326C144.324 243.248 143.68 242.408 142.714 242.072ZM150.924 241.792C151.498 241.498 151.932 240.854 151.932 240.042C151.932 238.684 150.742 237.718 149.146 237.718C147.55 237.718 146.36 238.684 146.36 240.042C146.36 240.854 146.794 241.498 147.368 241.792C146.346 242.142 145.632 243.094 145.632 244.27C145.632 245.978 147.158 247.14 149.146 247.14C151.134 247.14 152.66 245.978 152.66 244.256C152.66 243.094 151.946 242.128 150.924 241.792ZM149.146 239.132C149.818 239.132 150.322 239.622 150.322 240.21C150.322 240.798 149.818 241.26 149.146 241.26C148.488 241.26 147.97 240.798 147.97 240.21C147.97 239.622 148.488 239.132 149.146 239.132ZM149.146 245.656C148.096 245.656 147.312 244.998 147.312 244.116C147.312 243.206 148.11 242.534 149.146 242.534C150.168 242.534 150.966 243.206 150.966 244.116C150.966 244.998 150.224 245.656 149.146 245.656Z" fill="#202538"/>
<circle r="2.71251" transform="matrix(1 0 0 -1 19.712 191.738)" fill="#373F5F"/>
<circle r="2.71251" transform="matrix(1 0 0 -1 35.9859 191.738)" fill="#373F5F"/>
<circle r="2.71251" transform="matrix(1 0 0 -1 52.2628 191.738)" fill="#373F5F"/>
<circle r="2.71251" transform="matrix(1 0 0 -1 68.5367 191.738)" fill="#373F5F"/>
<circle r="2.71251" transform="matrix(1 0 0 -1 84.8131 191.738)" fill="#373F5F"/>
<circle r="2.71251" transform="matrix(1 0 0 -1 101.088 191.738)" fill="#373F5F"/>
<circle r="2.71251" transform="matrix(1 0 0 -1 117.361 191.738)" fill="#373F5F"/>
<circle r="2.71251" transform="matrix(1 0 0 -1 133.638 191.738)" fill="#373F5F"/>
<circle r="2.71251" transform="matrix(1 0 0 -1 149.912 191.738)" fill="#373F5F"/>
<circle r="2.71251" transform="matrix(1 0 0 -1 166.188 191.738)" fill="#373F5F"/>
<circle r="2.71251" transform="matrix(1 0 0 -1 182.463 191.738)" fill="#373F5F"/>
<circle r="2.71251" transform="matrix(1 0 0 -1 198.738 191.738)" fill="#373F5F"/>
<circle r="2.71251" transform="matrix(1 0 0 -1 215.013 191.738)" fill="#373F5F"/>
<circle r="2.71251" transform="matrix(1 0 0 -1 231.287 191.738)" fill="#373F5F"/>
<circle r="2.71251" transform="matrix(1 0 0 -1 19.712 175.463)" fill="#373F5F"/>
<circle r="2.71251" transform="matrix(1 0 0 -1 35.9859 175.463)" fill="#373F5F"/>
<circle r="2.71251" transform="matrix(1 0 0 -1 52.2628 175.463)" fill="#373F5F"/>
<circle r="2.71251" transform="matrix(1 0 0 -1 68.5367 175.463)" fill="#373F5F"/>
<circle r="2.71251" transform="matrix(1 0 0 -1 84.8131 175.463)" fill="#373F5F"/>
<circle r="2.71251" transform="matrix(1 0 0 -1 101.088 175.463)" fill="#373F5F"/>
<circle r="2.71251" transform="matrix(1 0 0 -1 117.361 175.463)" fill="#373F5F"/>
<circle r="2.71251" transform="matrix(1 0 0 -1 133.638 175.463)" fill="#373F5F"/>
<circle r="2.71251" transform="matrix(1 0 0 -1 149.912 175.463)" fill="#373F5F"/>
<circle r="2.71251" transform="matrix(1 0 0 -1 166.188 175.463)" fill="#373F5F"/>
<circle r="2.71251" transform="matrix(1 0 0 -1 182.463 175.463)" fill="#373F5F"/>
<circle r="2.71251" transform="matrix(1 0 0 -1 198.738 175.463)" fill="#373F5F"/>
<circle r="2.71251" transform="matrix(1 0 0 -1 215.013 175.463)" fill="#373F5F"/>
<circle r="2.71251" transform="matrix(1 0 0 -1 231.287 175.463)" fill="#373F5F"/>
<circle r="2.71251" transform="matrix(1 0 0 -1 19.712 159.187)" fill="#373F5F"/>
<circle r="2.71251" transform="matrix(1 0 0 -1 35.9859 159.187)" fill="#373F5F"/>
<circle r="2.71251" transform="matrix(1 0 0 -1 52.2628 159.187)" fill="#373F5F"/>
<circle r="2.71251" transform="matrix(1 0 0 -1 68.5367 159.187)" fill="#373F5F"/>
<circle r="2.71251" transform="matrix(1 0 0 -1 84.8131 159.187)" fill="#373F5F"/>
<circle r="2.71251" transform="matrix(1 0 0 -1 101.088 159.187)" fill="#373F5F"/>
<circle r="2.71251" transform="matrix(1 0 0 -1 117.361 159.187)" fill="#373F5F"/>
<circle r="2.71251" transform="matrix(1 0 0 -1 133.638 159.187)" fill="#373F5F"/>
<circle r="2.71251" transform="matrix(1 0 0 -1 149.912 159.187)" fill="#373F5F"/>
<circle r="2.71251" transform="matrix(1 0 0 -1 166.188 159.187)" fill="#373F5F"/>
<circle r="2.71251" transform="matrix(1 0 0 -1 182.463 159.187)" fill="#373F5F"/>
<circle r="2.71251" transform="matrix(1 0 0 -1 198.738 159.187)" fill="#373F5F"/>
<circle r="2.71251" transform="matrix(1 0 0 -1 215.013 159.187)" fill="#373F5F"/>
<circle r="2.71251" transform="matrix(1 0 0 -1 231.287 159.187)" fill="#373F5F"/>
<circle r="2.71251" transform="matrix(1 0 0 -1 19.712 142.913)" fill="#373F5F"/>
<circle r="2.71251" transform="matrix(1 0 0 -1 35.9859 142.913)" fill="#373F5F"/>
<circle r="2.71251" transform="matrix(1 0 0 -1 52.2628 142.913)" fill="#373F5F"/>
<circle r="2.71251" transform="matrix(1 0 0 -1 68.5367 142.913)" fill="#373F5F"/>
<circle r="2.71251" transform="matrix(1 0 0 -1 84.8131 142.913)" fill="#373F5F"/>
<circle r="2.71251" transform="matrix(1 0 0 -1 101.088 142.913)" fill="#373F5F"/>
<circle r="2.71251" transform="matrix(1 0 0 -1 117.361 142.913)" fill="#373F5F"/>
<circle r="2.71251" transform="matrix(1 0 0 -1 133.638 142.913)" fill="#373F5F"/>
<circle r="2.71251" transform="matrix(1 0 0 -1 149.912 142.913)" fill="#373F5F"/>
<circle r="2.71251" transform="matrix(1 0 0 -1 166.188 142.913)" fill="#373F5F"/>
<circle r="2.71251" transform="matrix(1 0 0 -1 182.463 142.913)" fill="#373F5F"/>
<circle r="2.71251" transform="matrix(1 0 0 -1 198.738 142.913)" fill="#373F5F"/>
<circle r="2.71251" transform="matrix(1 0 0 -1 215.013 142.913)" fill="#373F5F"/>
<circle r="2.71251" transform="matrix(1 0 0 -1 231.287 142.913)" fill="#373F5F"/>
<circle r="2.71251" transform="matrix(1 0 0 -1 19.712 126.638)" fill="#373F5F"/>
<circle r="2.71251" transform="matrix(1 0 0 -1 35.9859 126.638)" fill="#373F5F"/>
<circle r="2.71251" transform="matrix(1 0 0 -1 52.2628 126.638)" fill="#373F5F"/>
<circle r="2.71251" transform="matrix(1 0 0 -1 68.5367 126.638)" fill="#373F5F"/>
<circle r="2.71251" transform="matrix(1 0 0 -1 84.8131 126.638)" fill="#373F5F"/>
<circle r="2.71251" transform="matrix(1 0 0 -1 101.088 126.638)" fill="#373F5F"/>
<circle r="2.71251" transform="matrix(1 0 0 -1 117.361 126.638)" fill="#373F5F"/>
<circle r="2.71251" transform="matrix(1 0 0 -1 133.638 126.638)" fill="#373F5F"/>
<circle r="2.71251" transform="matrix(1 0 0 -1 149.912 126.638)" fill="#373F5F"/>
<circle r="2.71251" transform="matrix(1 0 0 -1 166.188 126.638)" fill="#373F5F"/>
<circle r="2.71251" transform="matrix(1 0 0 -1 182.463 126.638)" fill="#373F5F"/>
<circle r="2.71251" transform="matrix(1 0 0 -1 198.738 126.638)" fill="#373F5F"/>
<circle r="2.71251" transform="matrix(1 0 0 -1 215.013 126.638)" fill="#373F5F"/>
<circle r="2.71251" transform="matrix(1 0 0 -1 231.287 126.638)" fill="#373F5F"/>
<circle r="2.71251" transform="matrix(1 0 0 -1 19.712 110.363)" fill="#373F5F"/>
<circle r="2.71251" transform="matrix(1 0 0 -1 35.9859 110.363)" fill="#373F5F"/>
<circle r="2.71251" transform="matrix(1 0 0 -1 52.2628 110.363)" fill="#373F5F"/>
<circle r="2.71251" transform="matrix(1 0 0 -1 68.5367 110.363)" fill="#373F5F"/>
<circle r="2.71251" transform="matrix(1 0 0 -1 84.8131 110.363)" fill="#373F5F"/>
<circle r="2.71251" transform="matrix(1 0 0 -1 101.088 110.363)" fill="#373F5F"/>
<circle r="2.71251" transform="matrix(1 0 0 -1 117.361 110.363)" fill="#373F5F"/>
<circle r="2.71251" transform="matrix(1 0 0 -1 133.638 110.363)" fill="#373F5F"/>
<circle r="2.71251" transform="matrix(1 0 0 -1 149.912 110.363)" fill="#373F5F"/>
<circle r="2.71251" transform="matrix(1 0 0 -1 166.188 110.363)" fill="#373F5F"/>
<circle r="2.71251" transform="matrix(1 0 0 -1 182.463 110.363)" fill="#373F5F"/>
<circle r="2.71251" transform="matrix(1 0 0 -1 198.738 110.363)" fill="#373F5F"/>
<circle r="2.71251" transform="matrix(1 0 0 -1 215.013 110.363)" fill="#373F5F"/>
<circle r="2.71251" transform="matrix(1 0 0 -1 231.287 110.363)" fill="#373F5F"/>
<circle r="2.71251" transform="matrix(1 0 0 -1 19.712 94.0873)" fill="#373F5F"/>
<circle r="2.71251" transform="matrix(1 0 0 -1 35.9859 94.0873)" fill="#373F5F"/>
<circle r="2.71251" transform="matrix(1 0 0 -1 52.2628 94.0873)" fill="#373F5F"/>
<circle r="2.71251" transform="matrix(1 0 0 -1 68.5367 94.0873)" fill="#373F5F"/>
<circle r="2.71251" transform="matrix(1 0 0 -1 84.8131 94.0873)" fill="#373F5F"/>
<circle r="2.71251" transform="matrix(1 0 0 -1 101.088 94.0873)" fill="#373F5F"/>
<circle r="2.71251" transform="matrix(1 0 0 -1 117.361 94.0873)" fill="#373F5F"/>
<circle r="2.71251" transform="matrix(1 0 0 -1 133.638 94.0873)" fill="#373F5F"/>
<circle r="2.71251" transform="matrix(1 0 0 -1 149.912 94.0873)" fill="#373F5F"/>
<circle r="2.71251" transform="matrix(1 0 0 -1 166.188 94.0873)" fill="#373F5F"/>
<circle r="2.71251" transform="matrix(1 0 0 -1 182.463 94.0873)" fill="#373F5F"/>
<circle r="2.71251" transform="matrix(1 0 0 -1 198.738 94.0873)" fill="#373F5F"/>
<circle r="2.71251" transform="matrix(1 0 0 -1 215.013 94.0873)" fill="#373F5F"/>
<circle r="2.71251" transform="matrix(1 0 0 -1 231.287 94.0873)" fill="#373F5F"/>
<circle r="2.71251" transform="matrix(1 0 0 -1 19.712 77.8126)" fill="#373F5F"/>
<circle r="2.71251" transform="matrix(1 0 0 -1 35.9859 77.8126)" fill="#373F5F"/>
<circle r="2.71251" transform="matrix(1 0 0 -1 52.2628 77.8126)" fill="#373F5F"/>
<circle r="2.71251" transform="matrix(1 0 0 -1 68.5367 77.8126)" fill="#373F5F"/>
<circle r="2.71251" transform="matrix(1 0 0 -1 84.8131 77.8126)" fill="#373F5F"/>
<circle r="2.71251" transform="matrix(1 0 0 -1 101.088 77.8126)" fill="#373F5F"/>
<circle r="2.71251" transform="matrix(1 0 0 -1 117.361 77.8126)" fill="#373F5F"/>
<circle r="2.71251" transform="matrix(1 0 0 -1 133.638 77.8126)" fill="#373F5F"/>
<circle r="2.71251" transform="matrix(1 0 0 -1 149.912 77.8126)" fill="#373F5F"/>
<circle r="2.71251" transform="matrix(1 0 0 -1 166.188 77.8126)" fill="#373F5F"/>
<circle r="2.71251" transform="matrix(1 0 0 -1 182.463 77.8126)" fill="#373F5F"/>
<circle r="2.71251" transform="matrix(1 0 0 -1 198.738 77.8126)" fill="#373F5F"/>
<circle r="2.71251" transform="matrix(1 0 0 -1 215.013 77.8126)" fill="#373F5F"/>
<circle r="2.71251" transform="matrix(1 0 0 -1 231.287 77.8126)" fill="#373F5F"/>
<circle r="2.71251" transform="matrix(1 0 0 -1 19.712 61.5372)" fill="#373F5F"/>
<circle r="2.71251" transform="matrix(1 0 0 -1 35.9859 61.5372)" fill="#373F5F"/>
<circle r="2.71251" transform="matrix(1 0 0 -1 52.2628 61.5372)" fill="#373F5F"/>
<circle r="2.71251" transform="matrix(1 0 0 -1 68.5367 61.5372)" fill="#373F5F"/>
<circle r="2.71251" transform="matrix(1 0 0 -1 84.8131 61.5372)" fill="#373F5F"/>
<circle r="2.71251" transform="matrix(1 0 0 -1 101.088 61.5372)" fill="#373F5F"/>
<circle r="2.71251" transform="matrix(1 0 0 -1 117.361 61.5372)" fill="#373F5F"/>
<circle r="2.71251" transform="matrix(1 0 0 -1 133.638 61.5372)" fill="#373F5F"/>
<circle r="2.71251" transform="matrix(1 0 0 -1 149.912 61.5372)" fill="#373F5F"/>
<circle r="2.71251" transform="matrix(1 0 0 -1 166.188 61.5372)" fill="#373F5F"/>
<circle r="2.71251" transform="matrix(1 0 0 -1 182.463 61.5372)" fill="#373F5F"/>
<circle r="2.71251" transform="matrix(1 0 0 -1 198.738 61.5372)" fill="#373F5F"/>
<circle r="2.71251" transform="matrix(1 0 0 -1 215.013 61.5372)" fill="#373F5F"/>
<circle r="2.71251" transform="matrix(1 0 0 -1 231.287 61.5372)" fill="#373F5F"/>
<circle r="2.71251" transform="matrix(1 0 0 -1 19.712 45.2626)" fill="#373F5F"/>
<circle r="2.71251" transform="matrix(1 0 0 -1 35.9859 45.2626)" fill="#373F5F"/>
<circle r="2.71251" transform="matrix(1 0 0 -1 52.2628 45.2626)" fill="#373F5F"/>
<circle r="2.71251" transform="matrix(1 0 0 -1 68.5367 45.2626)" fill="#373F5F"/>
<circle r="2.71251" transform="matrix(1 0 0 -1 84.8131 45.2626)" fill="#373F5F"/>
<circle r="2.71251" transform="matrix(1 0 0 -1 101.088 45.2626)" fill="#373F5F"/>
<circle r="2.71251" transform="matrix(1 0 0 -1 117.361 45.2626)" fill="#373F5F"/>
<circle r="2.71251" transform="matrix(1 0 0 -1 133.638 45.2626)" fill="#373F5F"/>
<circle r="2.71251" transform="matrix(1 0 0 -1 149.912 45.2626)" fill="#373F5F"/>
<circle r="2.71251" transform="matrix(1 0 0 -1 166.188 45.2626)" fill="#373F5F"/>
<circle r="2.71251" transform="matrix(1 0 0 -1 182.463 45.2626)" fill="#373F5F"/>
<circle r="2.71251" transform="matrix(1 0 0 -1 198.738 45.2626)" fill="#373F5F"/>
<circle r="2.71251" transform="matrix(1 0 0 -1 215.013 45.2626)" fill="#373F5F"/>
<circle r="2.71251" transform="matrix(1 0 0 -1 231.287 45.2626)" fill="#373F5F"/>
<circle r="2.71251" transform="matrix(1 0 0 -1 19.712 28.9872)" fill="#373F5F"/>
<circle r="2.71251" transform="matrix(1 0 0 -1 35.9859 28.9872)" fill="#373F5F"/>
<circle r="2.71251" transform="matrix(1 0 0 -1 52.2628 28.9872)" fill="#373F5F"/>
<circle r="2.71251" transform="matrix(1 0 0 -1 68.5367 28.9872)" fill="#373F5F"/>
<circle r="2.71251" transform="matrix(1 0 0 -1 84.8131 28.9872)" fill="#373F5F"/>
<circle r="2.71251" transform="matrix(1 0 0 -1 101.088 28.9872)" fill="#373F5F"/>
<circle r="2.71251" transform="matrix(1 0 0 -1 117.361 28.9872)" fill="#373F5F"/>
<circle r="2.71251" transform="matrix(1 0 0 -1 133.638 28.9872)" fill="#373F5F"/>
<circle r="2.71251" transform="matrix(1 0 0 -1 149.912 28.9872)" fill="#373F5F"/>
<circle r="2.71251" transform="matrix(1 0 0 -1 166.188 28.9872)" fill="#373F5F"/>
<circle r="2.71251" transform="matrix(1 0 0 -1 182.463 28.9872)" fill="#373F5F"/>
<circle r="2.71251" transform="matrix(1 0 0 -1 198.738 28.9872)" fill="#373F5F"/>
<circle r="2.71251" transform="matrix(1 0 0 -1 215.013 28.9872)" fill="#373F5F"/>
<circle r="2.71251" transform="matrix(1 0 0 -1 231.287 28.9872)" fill="#373F5F"/>
<circle r="2.71251" transform="matrix(1 0 0 -1 19.712 12.7125)" fill="#373F5F"/>
<circle r="2.71251" transform="matrix(1 0 0 -1 35.9859 12.7125)" fill="#373F5F"/>
<circle r="2.71251" transform="matrix(1 0 0 -1 52.2628 12.7125)" fill="#373F5F"/>
<circle r="2.71251" transform="matrix(1 0 0 -1 68.5367 12.7125)" fill="#373F5F"/>
<circle r="2.71251" transform="matrix(1 0 0 -1 84.8131 12.7125)" fill="#373F5F"/>
<circle r="2.71251" transform="matrix(1 0 0 -1 101.088 12.7125)" fill="#373F5F"/>
<circle r="2.71251" transform="matrix(1 0 0 -1 117.361 12.7125)" fill="#373F5F"/>
<circle r="2.71251" transform="matrix(1 0 0 -1 133.638 12.7125)" fill="#373F5F"/>
<circle r="2.71251" transform="matrix(1 0 0 -1 149.912 12.7125)" fill="#373F5F"/>
<circle r="2.71251" transform="matrix(1 0 0 -1 166.188 12.7125)" fill="#373F5F"/>
<circle r="2.71251" transform="matrix(1 0 0 -1 182.463 12.7125)" fill="#373F5F"/>
<circle r="2.71251" transform="matrix(1 0 0 -1 198.738 12.7125)" fill="#373F5F"/>
<circle r="2.71251" transform="matrix(1 0 0 -1 215.013 12.7125)" fill="#373F5F"/>
<circle r="2.71251" transform="matrix(1 0 0 -1 231.287 12.7125)" fill="#373F5F"/>
</svg>
