<svg width="252" height="259" viewBox="0 0 252 259" fill="none" xmlns="http://www.w3.org/2000/svg">
<rect width="250" height="259" rx="15" fill="#373F51"/>
<path d="M0 201.656H251.077V244C251.077 252.284 244.361 259 236.077 259H15C6.71571 259 0 252.284 0 244V201.656Z" fill="white"/>
<path d="M98.944 220.432C98.32 221.344 97.328 221.952 96.192 221.952C95.28 221.952 94.528 221.616 93.92 220.96C93.312 220.288 93.008 219.472 93.008 218.512C93.008 217.536 93.312 216.72 93.92 216.064C94.528 215.392 95.28 215.056 96.192 215.056C97.328 215.056 98.224 215.536 98.88 216.496L100.784 215.184C99.808 213.76 98.112 212.848 96.192 212.848C94.624 212.848 93.312 213.392 92.24 214.496C91.184 215.6 90.656 216.928 90.656 218.512C90.656 220.08 91.184 221.408 92.24 222.512C93.312 223.616 94.624 224.16 96.192 224.16C98.16 224.16 99.856 223.232 100.832 221.744L98.944 220.432ZM104.436 220.048C104.436 219.008 105.108 218.528 105.924 218.528C106.644 218.528 107.3 219.104 107.3 220.016V224H109.524V219.936C109.524 217.648 108.468 216.368 106.532 216.368C106.132 216.368 105.716 216.48 105.284 216.72C104.852 216.944 104.58 217.264 104.436 217.696V212.464H102.212V224H104.436V220.048ZM119.221 224V216.528H117.013V217.36C116.501 216.64 115.541 216.368 114.837 216.368C113.829 216.368 112.949 216.736 112.181 217.456C111.413 218.176 111.029 219.104 111.029 220.256C111.029 221.408 111.413 222.352 112.181 223.072C112.949 223.792 113.829 224.144 114.837 224.144C115.189 224.144 115.589 224.064 116.021 223.888C116.469 223.712 116.805 223.472 117.013 223.152V224H119.221ZM115.205 222.032C114.709 222.032 114.277 221.872 113.893 221.536C113.525 221.2 113.333 220.768 113.333 220.256C113.333 219.744 113.525 219.328 113.893 218.992C114.277 218.656 114.709 218.48 115.205 218.48C116.165 218.48 117.013 219.184 117.013 220.256C117.013 221.328 116.165 222.032 115.205 222.032ZM123.498 221.392C123.498 219.408 124.122 218.416 125.354 218.416C125.802 218.416 126.186 218.496 126.49 218.64L126.89 216.64C126.522 216.464 126.106 216.368 125.61 216.368C124.762 216.368 123.866 217.04 123.498 218.336V216.528H121.274V224H123.498V221.392ZM131.531 216.368C130.427 216.368 129.467 216.736 128.667 217.456C127.867 218.176 127.467 219.104 127.467 220.24C127.467 221.376 127.867 222.32 128.667 223.056C129.467 223.792 130.427 224.16 131.531 224.16C132.875 224.16 134.075 223.568 134.779 222.56L132.971 221.28C132.651 221.776 132.171 222.032 131.531 222.032C131.035 222.032 130.603 221.872 130.235 221.536C129.867 221.2 129.675 220.768 129.675 220.24C129.675 219.728 129.867 219.312 130.235 218.992C130.603 218.656 131.035 218.496 131.531 218.496C132.171 218.496 132.651 218.752 132.971 219.248L134.779 217.952C134.059 216.944 132.859 216.368 131.531 216.368ZM139.651 221.952C138.707 221.952 137.971 221.264 137.971 220.24C137.971 219.264 138.707 218.544 139.651 218.544C140.595 218.544 141.347 219.264 141.347 220.24C141.347 221.264 140.611 221.952 139.651 221.952ZM142.403 223.056C143.155 222.336 143.539 221.392 143.539 220.24C143.539 219.088 143.155 218.16 142.403 217.44C141.651 216.72 140.739 216.368 139.651 216.368C138.563 216.368 137.651 216.72 136.899 217.44C136.147 218.16 135.779 219.088 135.779 220.24C135.779 221.392 136.147 222.336 136.899 223.056C137.651 223.776 138.563 224.128 139.651 224.128C140.739 224.128 141.651 223.776 142.403 223.056ZM152.877 224V216.528H150.669V217.36C150.157 216.64 149.197 216.368 148.493 216.368C147.485 216.368 146.605 216.736 145.837 217.456C145.069 218.176 144.685 219.104 144.685 220.256C144.685 221.408 145.069 222.352 145.837 223.072C146.605 223.792 147.485 224.144 148.493 224.144C148.845 224.144 149.245 224.064 149.677 223.888C150.125 223.712 150.461 223.472 150.669 223.152V224H152.877ZM148.861 222.032C148.365 222.032 147.933 221.872 147.549 221.536C147.181 221.2 146.989 220.768 146.989 220.256C146.989 219.744 147.181 219.328 147.549 218.992C147.933 218.656 148.365 218.48 148.861 218.48C149.821 218.48 150.669 219.184 150.669 220.256C150.669 221.328 149.821 222.032 148.861 222.032ZM154.93 224H157.154V212.464H154.93V224Z" fill="#202538"/>
<path opacity="0.6" d="M98.26 247H99.548L100.262 244.676H101.872L101.172 247H102.474L103.188 244.676H104.728L105.078 243.43H103.538L104.238 241.036H105.792L106.128 239.79H104.588L105.302 237.354H103.986L103.272 239.79H101.676L102.376 237.354H101.046L100.346 239.79H98.82L98.484 241.036H99.982L99.296 243.43H97.77L97.434 244.676H98.96L98.26 247ZM100.612 243.43L101.312 241.036H102.922L102.208 243.43H100.612ZM111.625 242.072C112.367 241.722 112.815 241.022 112.815 240.21C112.829 238.684 111.653 237.718 110.043 237.718C108.909 237.718 107.957 238.236 107.369 239.02L108.335 240.014C108.685 239.524 109.301 239.216 109.903 239.216C110.645 239.216 111.149 239.636 111.177 240.266C111.205 240.98 110.603 241.526 109.623 241.526H108.979V242.8H109.875C110.883 242.8 111.597 243.402 111.597 244.27C111.597 245.082 110.883 245.642 109.875 245.642C109.161 245.642 108.559 245.236 108.125 244.55L106.949 245.404C107.565 246.51 108.629 247.126 109.945 247.126C111.877 247.126 113.235 246.006 113.235 244.326C113.235 243.248 112.591 242.408 111.625 242.072ZM114.514 237.83V239.356H118.476L114.696 247H116.586L121.01 237.984V237.83H114.514ZM126.199 242.072C126.941 241.722 127.389 241.022 127.389 240.21C127.403 238.684 126.227 237.718 124.617 237.718C123.483 237.718 122.531 238.236 121.943 239.02L122.909 240.014C123.259 239.524 123.875 239.216 124.477 239.216C125.219 239.216 125.723 239.636 125.751 240.266C125.779 240.98 125.177 241.526 124.197 241.526H123.553V242.8H124.449C125.457 242.8 126.171 243.402 126.171 244.27C126.171 245.082 125.457 245.642 124.449 245.642C123.735 245.642 123.133 245.236 122.699 244.55L121.523 245.404C122.139 246.51 123.203 247.126 124.519 247.126C126.451 247.126 127.809 246.006 127.809 244.326C127.809 243.248 127.165 242.408 126.199 242.072ZM135.57 238.88V237.354H129.718V247H131.426V243.024H134.702V241.498H131.426V238.88H135.57ZM140.264 240.896C139.578 240.896 138.92 241.134 138.458 241.47L138.892 239.342H142.644V237.83H137.548L136.75 242.422L137.716 243.094C138.332 242.59 139.088 242.268 139.816 242.268C140.838 242.268 141.622 242.94 141.622 243.934C141.622 244.942 140.838 245.614 139.732 245.614C138.892 245.614 138.094 245.082 137.772 244.368L136.484 245.18C137.072 246.314 138.374 247.14 139.816 247.14C141.706 247.14 143.26 245.908 143.26 243.92C143.26 242.142 142.014 240.896 140.264 240.896ZM147.815 237.718L144.259 239.244V240.756L146.317 239.944V247H147.927V237.718H147.815Z" fill="#202538"/>
<circle r="2.71251" transform="matrix(1 0 0 -1 19.712 191.738)" fill="#3F485C"/>
<circle r="2.71251" transform="matrix(1 0 0 -1 35.9859 191.738)" fill="#3F485C"/>
<circle r="2.71251" transform="matrix(1 0 0 -1 52.2628 191.738)" fill="#3F485C"/>
<circle r="2.71251" transform="matrix(1 0 0 -1 68.5367 191.738)" fill="#3F485C"/>
<circle r="2.71251" transform="matrix(1 0 0 -1 84.8131 191.738)" fill="#3F485C"/>
<circle r="2.71251" transform="matrix(1 0 0 -1 101.088 191.738)" fill="#3F485C"/>
<circle r="2.71251" transform="matrix(1 0 0 -1 117.361 191.738)" fill="#3F485C"/>
<circle r="2.71251" transform="matrix(1 0 0 -1 133.638 191.738)" fill="#3F485C"/>
<circle r="2.71251" transform="matrix(1 0 0 -1 149.912 191.738)" fill="#3F485C"/>
<circle r="2.71251" transform="matrix(1 0 0 -1 166.188 191.738)" fill="#3F485C"/>
<circle r="2.71251" transform="matrix(1 0 0 -1 182.463 191.738)" fill="#3F485C"/>
<circle r="2.71251" transform="matrix(1 0 0 -1 198.738 191.738)" fill="#3F485C"/>
<circle r="2.71251" transform="matrix(1 0 0 -1 215.013 191.738)" fill="#3F485C"/>
<circle r="2.71251" transform="matrix(1 0 0 -1 231.287 191.738)" fill="#3F485C"/>
<circle r="2.71251" transform="matrix(1 0 0 -1 19.712 175.463)" fill="#3F485C"/>
<circle r="2.71251" transform="matrix(1 0 0 -1 35.9859 175.463)" fill="#3F485C"/>
<circle r="2.71251" transform="matrix(1 0 0 -1 52.2628 175.463)" fill="#3F485C"/>
<circle r="2.71251" transform="matrix(1 0 0 -1 68.5367 175.463)" fill="#3F485C"/>
<circle r="2.71251" transform="matrix(1 0 0 -1 84.8131 175.463)" fill="#3F485C"/>
<circle r="2.71251" transform="matrix(1 0 0 -1 101.088 175.463)" fill="#3F485C"/>
<circle r="2.71251" transform="matrix(1 0 0 -1 117.361 175.463)" fill="#3F485C"/>
<circle r="2.71251" transform="matrix(1 0 0 -1 133.638 175.463)" fill="#3F485C"/>
<circle r="2.71251" transform="matrix(1 0 0 -1 149.912 175.463)" fill="#3F485C"/>
<circle r="2.71251" transform="matrix(1 0 0 -1 166.188 175.463)" fill="#3F485C"/>
<circle r="2.71251" transform="matrix(1 0 0 -1 182.463 175.463)" fill="#3F485C"/>
<circle r="2.71251" transform="matrix(1 0 0 -1 198.738 175.463)" fill="#3F485C"/>
<circle r="2.71251" transform="matrix(1 0 0 -1 215.013 175.463)" fill="#3F485C"/>
<circle r="2.71251" transform="matrix(1 0 0 -1 231.287 175.463)" fill="#3F485C"/>
<circle r="2.71251" transform="matrix(1 0 0 -1 19.712 159.187)" fill="#3F485C"/>
<circle r="2.71251" transform="matrix(1 0 0 -1 35.9859 159.187)" fill="#3F485C"/>
<circle r="2.71251" transform="matrix(1 0 0 -1 52.2628 159.187)" fill="#3F485C"/>
<circle r="2.71251" transform="matrix(1 0 0 -1 68.5367 159.187)" fill="#3F485C"/>
<circle r="2.71251" transform="matrix(1 0 0 -1 84.8131 159.187)" fill="#3F485C"/>
<circle r="2.71251" transform="matrix(1 0 0 -1 101.088 159.187)" fill="#3F485C"/>
<circle r="2.71251" transform="matrix(1 0 0 -1 117.361 159.187)" fill="#3F485C"/>
<circle r="2.71251" transform="matrix(1 0 0 -1 133.638 159.187)" fill="#3F485C"/>
<circle r="2.71251" transform="matrix(1 0 0 -1 149.912 159.187)" fill="#3F485C"/>
<circle r="2.71251" transform="matrix(1 0 0 -1 166.188 159.187)" fill="#3F485C"/>
<circle r="2.71251" transform="matrix(1 0 0 -1 182.463 159.187)" fill="#3F485C"/>
<circle r="2.71251" transform="matrix(1 0 0 -1 198.738 159.187)" fill="#3F485C"/>
<circle r="2.71251" transform="matrix(1 0 0 -1 215.013 159.187)" fill="#3F485C"/>
<circle r="2.71251" transform="matrix(1 0 0 -1 231.287 159.187)" fill="#3F485C"/>
<circle r="2.71251" transform="matrix(1 0 0 -1 19.712 142.913)" fill="#3F485C"/>
<circle r="2.71251" transform="matrix(1 0 0 -1 35.9859 142.913)" fill="#3F485C"/>
<circle r="2.71251" transform="matrix(1 0 0 -1 52.2628 142.913)" fill="#3F485C"/>
<circle r="2.71251" transform="matrix(1 0 0 -1 68.5367 142.913)" fill="#3F485C"/>
<circle r="2.71251" transform="matrix(1 0 0 -1 84.8131 142.913)" fill="#3F485C"/>
<circle r="2.71251" transform="matrix(1 0 0 -1 101.088 142.913)" fill="#3F485C"/>
<circle r="2.71251" transform="matrix(1 0 0 -1 117.361 142.913)" fill="#3F485C"/>
<circle r="2.71251" transform="matrix(1 0 0 -1 133.638 142.913)" fill="#3F485C"/>
<circle r="2.71251" transform="matrix(1 0 0 -1 149.912 142.913)" fill="#3F485C"/>
<circle r="2.71251" transform="matrix(1 0 0 -1 166.188 142.913)" fill="#3F485C"/>
<circle r="2.71251" transform="matrix(1 0 0 -1 182.463 142.913)" fill="#3F485C"/>
<circle r="2.71251" transform="matrix(1 0 0 -1 198.738 142.913)" fill="#3F485C"/>
<circle r="2.71251" transform="matrix(1 0 0 -1 215.013 142.913)" fill="#3F485C"/>
<circle r="2.71251" transform="matrix(1 0 0 -1 231.287 142.913)" fill="#3F485C"/>
<circle r="2.71251" transform="matrix(1 0 0 -1 19.712 126.638)" fill="#3F485C"/>
<circle r="2.71251" transform="matrix(1 0 0 -1 35.9859 126.638)" fill="#3F485C"/>
<circle r="2.71251" transform="matrix(1 0 0 -1 52.2628 126.638)" fill="#3F485C"/>
<circle r="2.71251" transform="matrix(1 0 0 -1 68.5367 126.638)" fill="#3F485C"/>
<circle r="2.71251" transform="matrix(1 0 0 -1 84.8131 126.638)" fill="#3F485C"/>
<circle r="2.71251" transform="matrix(1 0 0 -1 101.088 126.638)" fill="#3F485C"/>
<circle r="2.71251" transform="matrix(1 0 0 -1 117.361 126.638)" fill="#3F485C"/>
<circle r="2.71251" transform="matrix(1 0 0 -1 133.638 126.638)" fill="#3F485C"/>
<circle r="2.71251" transform="matrix(1 0 0 -1 149.912 126.638)" fill="#3F485C"/>
<circle r="2.71251" transform="matrix(1 0 0 -1 166.188 126.638)" fill="#3F485C"/>
<circle r="2.71251" transform="matrix(1 0 0 -1 182.463 126.638)" fill="#3F485C"/>
<circle r="2.71251" transform="matrix(1 0 0 -1 198.738 126.638)" fill="#3F485C"/>
<circle r="2.71251" transform="matrix(1 0 0 -1 215.013 126.638)" fill="#3F485C"/>
<circle r="2.71251" transform="matrix(1 0 0 -1 231.287 126.638)" fill="#3F485C"/>
<circle r="2.71251" transform="matrix(1 0 0 -1 19.712 110.363)" fill="#3F485C"/>
<circle r="2.71251" transform="matrix(1 0 0 -1 35.9859 110.363)" fill="#3F485C"/>
<circle r="2.71251" transform="matrix(1 0 0 -1 52.2628 110.363)" fill="#3F485C"/>
<circle r="2.71251" transform="matrix(1 0 0 -1 68.5367 110.363)" fill="#3F485C"/>
<circle r="2.71251" transform="matrix(1 0 0 -1 84.8131 110.363)" fill="#3F485C"/>
<circle r="2.71251" transform="matrix(1 0 0 -1 101.088 110.363)" fill="#3F485C"/>
<circle r="2.71251" transform="matrix(1 0 0 -1 117.361 110.363)" fill="#3F485C"/>
<circle r="2.71251" transform="matrix(1 0 0 -1 133.638 110.363)" fill="#3F485C"/>
<circle r="2.71251" transform="matrix(1 0 0 -1 149.912 110.363)" fill="#3F485C"/>
<circle r="2.71251" transform="matrix(1 0 0 -1 166.188 110.363)" fill="#3F485C"/>
<circle r="2.71251" transform="matrix(1 0 0 -1 182.463 110.363)" fill="#3F485C"/>
<circle r="2.71251" transform="matrix(1 0 0 -1 198.738 110.363)" fill="#3F485C"/>
<circle r="2.71251" transform="matrix(1 0 0 -1 215.013 110.363)" fill="#3F485C"/>
<circle r="2.71251" transform="matrix(1 0 0 -1 231.287 110.363)" fill="#3F485C"/>
<circle r="2.71251" transform="matrix(1 0 0 -1 19.712 94.0873)" fill="#3F485C"/>
<circle r="2.71251" transform="matrix(1 0 0 -1 35.9859 94.0873)" fill="#3F485C"/>
<circle r="2.71251" transform="matrix(1 0 0 -1 52.2628 94.0873)" fill="#3F485C"/>
<circle r="2.71251" transform="matrix(1 0 0 -1 68.5367 94.0873)" fill="#3F485C"/>
<circle r="2.71251" transform="matrix(1 0 0 -1 84.8131 94.0873)" fill="#3F485C"/>
<circle r="2.71251" transform="matrix(1 0 0 -1 101.088 94.0873)" fill="#3F485C"/>
<circle r="2.71251" transform="matrix(1 0 0 -1 117.361 94.0873)" fill="#3F485C"/>
<circle r="2.71251" transform="matrix(1 0 0 -1 133.638 94.0873)" fill="#3F485C"/>
<circle r="2.71251" transform="matrix(1 0 0 -1 149.912 94.0873)" fill="#3F485C"/>
<circle r="2.71251" transform="matrix(1 0 0 -1 166.188 94.0873)" fill="#3F485C"/>
<circle r="2.71251" transform="matrix(1 0 0 -1 182.463 94.0873)" fill="#3F485C"/>
<circle r="2.71251" transform="matrix(1 0 0 -1 198.738 94.0873)" fill="#3F485C"/>
<circle r="2.71251" transform="matrix(1 0 0 -1 215.013 94.0873)" fill="#3F485C"/>
<circle r="2.71251" transform="matrix(1 0 0 -1 231.287 94.0873)" fill="#3F485C"/>
<circle r="2.71251" transform="matrix(1 0 0 -1 19.712 77.8126)" fill="#3F485C"/>
<circle r="2.71251" transform="matrix(1 0 0 -1 35.9859 77.8126)" fill="#3F485C"/>
<circle r="2.71251" transform="matrix(1 0 0 -1 52.2628 77.8126)" fill="#3F485C"/>
<circle r="2.71251" transform="matrix(1 0 0 -1 68.5367 77.8126)" fill="#3F485C"/>
<circle r="2.71251" transform="matrix(1 0 0 -1 84.8131 77.8126)" fill="#3F485C"/>
<circle r="2.71251" transform="matrix(1 0 0 -1 101.088 77.8126)" fill="#3F485C"/>
<circle r="2.71251" transform="matrix(1 0 0 -1 117.361 77.8126)" fill="#3F485C"/>
<circle r="2.71251" transform="matrix(1 0 0 -1 133.638 77.8126)" fill="#3F485C"/>
<circle r="2.71251" transform="matrix(1 0 0 -1 149.912 77.8126)" fill="#3F485C"/>
<circle r="2.71251" transform="matrix(1 0 0 -1 166.188 77.8126)" fill="#3F485C"/>
<circle r="2.71251" transform="matrix(1 0 0 -1 182.463 77.8126)" fill="#3F485C"/>
<circle r="2.71251" transform="matrix(1 0 0 -1 198.738 77.8126)" fill="#3F485C"/>
<circle r="2.71251" transform="matrix(1 0 0 -1 215.013 77.8126)" fill="#3F485C"/>
<circle r="2.71251" transform="matrix(1 0 0 -1 231.287 77.8126)" fill="#3F485C"/>
<circle r="2.71251" transform="matrix(1 0 0 -1 19.712 61.5372)" fill="#3F485C"/>
<circle r="2.71251" transform="matrix(1 0 0 -1 35.9859 61.5372)" fill="#3F485C"/>
<circle r="2.71251" transform="matrix(1 0 0 -1 52.2628 61.5372)" fill="#3F485C"/>
<circle r="2.71251" transform="matrix(1 0 0 -1 68.5367 61.5372)" fill="#3F485C"/>
<circle r="2.71251" transform="matrix(1 0 0 -1 84.8131 61.5372)" fill="#3F485C"/>
<circle r="2.71251" transform="matrix(1 0 0 -1 101.088 61.5372)" fill="#3F485C"/>
<circle r="2.71251" transform="matrix(1 0 0 -1 117.361 61.5372)" fill="#3F485C"/>
<circle r="2.71251" transform="matrix(1 0 0 -1 133.638 61.5372)" fill="#3F485C"/>
<circle r="2.71251" transform="matrix(1 0 0 -1 149.912 61.5372)" fill="#3F485C"/>
<circle r="2.71251" transform="matrix(1 0 0 -1 166.188 61.5372)" fill="#3F485C"/>
<circle r="2.71251" transform="matrix(1 0 0 -1 182.463 61.5372)" fill="#3F485C"/>
<circle r="2.71251" transform="matrix(1 0 0 -1 198.738 61.5372)" fill="#3F485C"/>
<circle r="2.71251" transform="matrix(1 0 0 -1 215.013 61.5372)" fill="#3F485C"/>
<circle r="2.71251" transform="matrix(1 0 0 -1 231.287 61.5372)" fill="#3F485C"/>
<circle r="2.71251" transform="matrix(1 0 0 -1 19.712 45.2626)" fill="#3F485C"/>
<circle r="2.71251" transform="matrix(1 0 0 -1 35.9859 45.2626)" fill="#3F485C"/>
<circle r="2.71251" transform="matrix(1 0 0 -1 52.2628 45.2626)" fill="#3F485C"/>
<circle r="2.71251" transform="matrix(1 0 0 -1 68.5367 45.2626)" fill="#3F485C"/>
<circle r="2.71251" transform="matrix(1 0 0 -1 84.8131 45.2626)" fill="#3F485C"/>
<circle r="2.71251" transform="matrix(1 0 0 -1 101.088 45.2626)" fill="#3F485C"/>
<circle r="2.71251" transform="matrix(1 0 0 -1 117.361 45.2626)" fill="#3F485C"/>
<circle r="2.71251" transform="matrix(1 0 0 -1 133.638 45.2626)" fill="#3F485C"/>
<circle r="2.71251" transform="matrix(1 0 0 -1 149.912 45.2626)" fill="#3F485C"/>
<circle r="2.71251" transform="matrix(1 0 0 -1 166.188 45.2626)" fill="#3F485C"/>
<circle r="2.71251" transform="matrix(1 0 0 -1 182.463 45.2626)" fill="#3F485C"/>
<circle r="2.71251" transform="matrix(1 0 0 -1 198.738 45.2626)" fill="#3F485C"/>
<circle r="2.71251" transform="matrix(1 0 0 -1 215.013 45.2626)" fill="#3F485C"/>
<circle r="2.71251" transform="matrix(1 0 0 -1 231.287 45.2626)" fill="#3F485C"/>
<circle r="2.71251" transform="matrix(1 0 0 -1 19.712 28.9872)" fill="#3F485C"/>
<circle r="2.71251" transform="matrix(1 0 0 -1 35.9859 28.9872)" fill="#3F485C"/>
<circle r="2.71251" transform="matrix(1 0 0 -1 52.2628 28.9872)" fill="#3F485C"/>
<circle r="2.71251" transform="matrix(1 0 0 -1 68.5367 28.9872)" fill="#3F485C"/>
<circle r="2.71251" transform="matrix(1 0 0 -1 84.8131 28.9872)" fill="#3F485C"/>
<circle r="2.71251" transform="matrix(1 0 0 -1 101.088 28.9872)" fill="#3F485C"/>
<circle r="2.71251" transform="matrix(1 0 0 -1 117.361 28.9872)" fill="#3F485C"/>
<circle r="2.71251" transform="matrix(1 0 0 -1 133.638 28.9872)" fill="#3F485C"/>
<circle r="2.71251" transform="matrix(1 0 0 -1 149.912 28.9872)" fill="#3F485C"/>
<circle r="2.71251" transform="matrix(1 0 0 -1 166.188 28.9872)" fill="#3F485C"/>
<circle r="2.71251" transform="matrix(1 0 0 -1 182.463 28.9872)" fill="#3F485C"/>
<circle r="2.71251" transform="matrix(1 0 0 -1 198.738 28.9872)" fill="#3F485C"/>
<circle r="2.71251" transform="matrix(1 0 0 -1 215.013 28.9872)" fill="#3F485C"/>
<circle r="2.71251" transform="matrix(1 0 0 -1 231.287 28.9872)" fill="#3F485C"/>
<circle r="2.71251" transform="matrix(1 0 0 -1 19.712 12.7125)" fill="#3F485C"/>
<circle r="2.71251" transform="matrix(1 0 0 -1 35.9859 12.7125)" fill="#3F485C"/>
<circle r="2.71251" transform="matrix(1 0 0 -1 52.2628 12.7125)" fill="#3F485C"/>
<circle r="2.71251" transform="matrix(1 0 0 -1 68.5367 12.7125)" fill="#3F485C"/>
<circle r="2.71251" transform="matrix(1 0 0 -1 84.8131 12.7125)" fill="#3F485C"/>
<circle r="2.71251" transform="matrix(1 0 0 -1 101.088 12.7125)" fill="#3F485C"/>
<circle r="2.71251" transform="matrix(1 0 0 -1 117.361 12.7125)" fill="#3F485C"/>
<circle r="2.71251" transform="matrix(1 0 0 -1 133.638 12.7125)" fill="#3F485C"/>
<circle r="2.71251" transform="matrix(1 0 0 -1 149.912 12.7125)" fill="#3F485C"/>
<circle r="2.71251" transform="matrix(1 0 0 -1 166.188 12.7125)" fill="#3F485C"/>
<circle r="2.71251" transform="matrix(1 0 0 -1 182.463 12.7125)" fill="#3F485C"/>
<circle r="2.71251" transform="matrix(1 0 0 -1 198.738 12.7125)" fill="#3F485C"/>
<circle r="2.71251" transform="matrix(1 0 0 -1 215.013 12.7125)" fill="#3F485C"/>
<circle r="2.71251" transform="matrix(1 0 0 -1 231.287 12.7125)" fill="#3F485C"/>
</svg>
