<svg width="252" height="259" viewBox="0 0 252 259" fill="none" xmlns="http://www.w3.org/2000/svg">
<rect width="250" height="259" rx="15" fill="#202538"/>
<path d="M0 201.656H251.077V244C251.077 252.284 244.361 259 236.077 259H15C6.71571 259 0 252.284 0 244V201.656Z" fill="white"/>
<path d="M72.616 215.104C73.464 215.104 74.104 215.424 74.568 216.08C75.032 216.736 75.256 217.536 75.256 218.512C75.256 219.472 75.032 220.272 74.568 220.912C74.104 221.552 73.464 221.872 72.616 221.872H70.632V215.104H72.616ZM72.616 224C74.168 224 75.384 223.488 76.264 222.464C77.144 221.44 77.592 220.128 77.592 218.512C77.592 216.896 77.144 215.584 76.264 214.544C75.384 213.504 74.168 212.976 72.616 212.976H68.296V224H72.616ZM87.0024 224V216.528H84.7944V217.36C84.2824 216.64 83.3224 216.368 82.6184 216.368C81.6104 216.368 80.7304 216.736 79.9624 217.456C79.1944 218.176 78.8104 219.104 78.8104 220.256C78.8104 221.408 79.1944 222.352 79.9624 223.072C80.7304 223.792 81.6104 224.144 82.6184 224.144C82.9704 224.144 83.3704 224.064 83.8024 223.888C84.2504 223.712 84.5864 223.472 84.7944 223.152V224H87.0024ZM82.9864 222.032C82.4904 222.032 82.0584 221.872 81.6744 221.536C81.3064 221.2 81.1144 220.768 81.1144 220.256C81.1144 219.744 81.3064 219.328 81.6744 218.992C82.0584 218.656 82.4904 218.48 82.9864 218.48C83.9464 218.48 84.7944 219.184 84.7944 220.256C84.7944 221.328 83.9464 222.032 82.9864 222.032ZM91.2793 221.392C91.2793 219.408 91.9033 218.416 93.1353 218.416C93.5833 218.416 93.9673 218.496 94.2713 218.64L94.6713 216.64C94.3033 216.464 93.8873 216.368 93.3913 216.368C92.5433 216.368 91.6473 217.04 91.2793 218.336V216.528H89.0553V224H91.2793V221.392ZM100.525 224H103.261L99.5329 219.824L102.637 216.528H99.8049L98.0289 218.576V212.464H95.8209V224H98.0289V221.04L100.525 224ZM117.573 214.656C116.597 213.52 115.093 212.848 113.429 212.848C111.845 212.848 110.517 213.408 109.413 214.512C108.325 215.616 107.781 216.944 107.781 218.512C107.781 220.064 108.325 221.408 109.413 222.512C110.517 223.616 111.845 224.16 113.429 224.16C115.077 224.16 116.389 223.664 117.349 222.688C118.325 221.696 118.805 220.208 118.805 218.208H113.141V220.112H116.101C116.085 220.672 115.797 221.12 115.237 221.488C114.677 221.84 114.069 222.016 113.429 222.016C112.517 222.016 111.733 221.68 111.093 220.992C110.453 220.304 110.133 219.472 110.133 218.512C110.133 217.552 110.453 216.736 111.077 216.048C111.717 215.36 112.501 215.024 113.429 215.024C114.373 215.024 115.189 215.392 115.845 216.144L117.573 214.656ZM125.059 220.48C125.059 221.52 124.483 222 123.715 222C123.059 222 122.387 221.584 122.387 220.512V216.528H120.163V220.992C120.163 223.04 121.379 224.16 123.123 224.16C123.875 224.16 124.675 223.696 125.059 222.976V224H127.283V216.528H125.059V220.48ZM131.561 220.048C131.561 219.04 132.025 218.528 132.937 218.528C133.721 218.528 134.233 219.056 134.233 220.016V224H136.457V219.536C136.457 217.44 135.449 216.368 133.721 216.368C132.841 216.368 131.961 216.864 131.561 217.616V216.528H129.337V224H131.561V220.048ZM146.686 218.528C147.39 218.528 147.918 219.072 147.918 220.016V224H150.126V219.76C150.126 217.536 149.054 216.368 147.246 216.368C146.302 216.368 145.55 216.816 145.006 217.696C144.59 216.816 143.79 216.384 142.606 216.384C141.774 216.384 140.99 216.848 140.654 217.616V216.528H138.43V224H140.654V220.048C140.654 218.976 141.198 218.528 141.95 218.528C142.638 218.528 143.166 219.072 143.182 219.968V224H145.406V220.048C145.406 219.024 145.918 218.528 146.686 218.528ZM157.335 221.536C156.967 222 156.423 222.24 155.703 222.24C154.823 222.24 153.975 221.808 153.863 220.992H159.335C159.351 220.736 159.367 220.512 159.367 220.304C159.367 219.136 158.999 218.192 158.263 217.472C157.543 216.736 156.631 216.368 155.543 216.368C154.439 216.368 153.511 216.72 152.759 217.44C152.007 218.16 151.639 219.088 151.639 220.24C151.639 221.392 152.007 222.336 152.759 223.072C153.511 223.792 154.439 224.16 155.543 224.16C157.127 224.16 158.263 223.648 158.951 222.64L157.335 221.536ZM153.895 219.6C154.247 217.888 156.903 217.904 157.127 219.6H153.895ZM163.733 213.664H161.525V216.528H160.165V218.288H161.525V224H163.733V218.288H165.301V216.528H163.733V213.664ZM174.299 224V216.528H172.091V217.36C171.579 216.64 170.619 216.368 169.915 216.368C168.907 216.368 168.027 216.736 167.259 217.456C166.491 218.176 166.107 219.104 166.107 220.256C166.107 221.408 166.491 222.352 167.259 223.072C168.027 223.792 168.907 224.144 169.915 224.144C170.267 224.144 170.667 224.064 171.099 223.888C171.547 223.712 171.883 223.472 172.091 223.152V224H174.299ZM170.283 222.032C169.787 222.032 169.355 221.872 168.971 221.536C168.603 221.2 168.411 220.768 168.411 220.256C168.411 219.744 168.603 219.328 168.971 218.992C169.355 218.656 169.787 218.48 170.283 218.48C171.243 218.48 172.091 219.184 172.091 220.256C172.091 221.328 171.243 222.032 170.283 222.032ZM176.352 224H178.576V212.464H176.352V224Z" fill="#202538"/>
<path opacity="0.6" d="M98.26 247H99.548L100.262 244.676H101.872L101.172 247H102.474L103.188 244.676H104.728L105.078 243.43H103.538L104.238 241.036H105.792L106.128 239.79H104.588L105.302 237.354H103.986L103.272 239.79H101.676L102.376 237.354H101.046L100.346 239.79H98.82L98.484 241.036H99.982L99.296 243.43H97.77L97.434 244.676H98.96L98.26 247ZM100.612 243.43L101.312 241.036H102.922L102.208 243.43H100.612ZM109.833 245.474L112.115 242.814C112.703 242.128 113.137 241.274 113.137 240.476C113.137 238.824 111.975 237.718 110.183 237.718C108.447 237.718 107.369 238.768 107.159 240.308L108.629 240.588C108.713 239.776 109.259 239.23 110.127 239.23C110.953 239.23 111.499 239.72 111.499 240.448C111.499 240.812 111.205 241.372 110.743 241.932L107.229 246.174V247H113.263V245.474H109.833ZM118.138 247.14C120.784 247.14 121.498 245.04 121.498 242.436C121.498 239.818 120.784 237.718 118.138 237.718C115.478 237.718 114.75 239.818 114.75 242.436C114.75 245.04 115.478 247.14 118.138 247.14ZM118.138 245.628C116.766 245.628 116.388 244.186 116.388 242.436C116.388 240.672 116.766 239.23 118.138 239.23C119.496 239.23 119.86 240.672 119.86 242.436C119.86 244.186 119.496 245.628 118.138 245.628ZM125.542 245.474L127.824 242.814C128.412 242.128 128.846 241.274 128.846 240.476C128.846 238.824 127.684 237.718 125.892 237.718C124.156 237.718 123.078 238.768 122.868 240.308L124.338 240.588C124.422 239.776 124.968 239.23 125.836 239.23C126.662 239.23 127.208 239.72 127.208 240.448C127.208 240.812 126.914 241.372 126.452 241.932L122.938 246.174V247H128.972V245.474H125.542ZM134.029 240.896C133.343 240.896 132.685 241.134 132.223 241.47L132.657 239.342H136.409V237.83H131.313L130.515 242.422L131.481 243.094C132.097 242.59 132.853 242.268 133.581 242.268C134.603 242.268 135.387 242.94 135.387 243.934C135.387 244.942 134.603 245.614 133.497 245.614C132.657 245.614 131.859 245.082 131.537 244.368L130.249 245.18C130.837 246.314 132.139 247.14 133.581 247.14C135.471 247.14 137.025 245.908 137.025 243.92C137.025 242.142 135.779 240.896 134.029 240.896ZM142.714 242.072C143.456 241.722 143.904 241.022 143.904 240.21C143.918 238.684 142.742 237.718 141.132 237.718C139.998 237.718 139.046 238.236 138.458 239.02L139.424 240.014C139.774 239.524 140.39 239.216 140.992 239.216C141.734 239.216 142.238 239.636 142.266 240.266C142.294 240.98 141.692 241.526 140.712 241.526H140.068V242.8H140.964C141.972 242.8 142.686 243.402 142.686 244.27C142.686 245.082 141.972 245.642 140.964 245.642C140.25 245.642 139.648 245.236 139.214 244.55L138.038 245.404C138.654 246.51 139.718 247.126 141.034 247.126C142.966 247.126 144.324 246.006 144.324 244.326C144.324 243.248 143.68 242.408 142.714 242.072ZM150.924 241.792C151.498 241.498 151.932 240.854 151.932 240.042C151.932 238.684 150.742 237.718 149.146 237.718C147.55 237.718 146.36 238.684 146.36 240.042C146.36 240.854 146.794 241.498 147.368 241.792C146.346 242.142 145.632 243.094 145.632 244.27C145.632 245.978 147.158 247.14 149.146 247.14C151.134 247.14 152.66 245.978 152.66 244.256C152.66 243.094 151.946 242.128 150.924 241.792ZM149.146 239.132C149.818 239.132 150.322 239.622 150.322 240.21C150.322 240.798 149.818 241.26 149.146 241.26C148.488 241.26 147.97 240.798 147.97 240.21C147.97 239.622 148.488 239.132 149.146 239.132ZM149.146 245.656C148.096 245.656 147.312 244.998 147.312 244.116C147.312 243.206 148.11 242.534 149.146 242.534C150.168 242.534 150.966 243.206 150.966 244.116C150.966 244.998 150.224 245.656 149.146 245.656Z" fill="#202538"/>
<circle r="2.71251" transform="matrix(1 0 0 -1 19.712 191.738)" fill="#2C324D"/>
<circle r="2.71251" transform="matrix(1 0 0 -1 35.9859 191.738)" fill="#2C324D"/>
<circle r="2.71251" transform="matrix(1 0 0 -1 52.2628 191.738)" fill="#2C324D"/>
<circle r="2.71251" transform="matrix(1 0 0 -1 68.5367 191.738)" fill="#2C324D"/>
<circle r="2.71251" transform="matrix(1 0 0 -1 84.8131 191.738)" fill="#2C324D"/>
<circle r="2.71251" transform="matrix(1 0 0 -1 101.088 191.738)" fill="#2C324D"/>
<circle r="2.71251" transform="matrix(1 0 0 -1 117.361 191.738)" fill="#2C324D"/>
<circle r="2.71251" transform="matrix(1 0 0 -1 133.638 191.738)" fill="#2C324D"/>
<circle r="2.71251" transform="matrix(1 0 0 -1 149.912 191.738)" fill="#2C324D"/>
<circle r="2.71251" transform="matrix(1 0 0 -1 166.188 191.738)" fill="#2C324D"/>
<circle r="2.71251" transform="matrix(1 0 0 -1 182.463 191.738)" fill="#2C324D"/>
<circle r="2.71251" transform="matrix(1 0 0 -1 198.738 191.738)" fill="#2C324D"/>
<circle r="2.71251" transform="matrix(1 0 0 -1 215.013 191.738)" fill="#2C324D"/>
<circle r="2.71251" transform="matrix(1 0 0 -1 231.287 191.738)" fill="#2C324D"/>
<circle r="2.71251" transform="matrix(1 0 0 -1 19.712 175.463)" fill="#2C324D"/>
<circle r="2.71251" transform="matrix(1 0 0 -1 35.9859 175.463)" fill="#2C324D"/>
<circle r="2.71251" transform="matrix(1 0 0 -1 52.2628 175.463)" fill="#2C324D"/>
<circle r="2.71251" transform="matrix(1 0 0 -1 68.5367 175.463)" fill="#2C324D"/>
<circle r="2.71251" transform="matrix(1 0 0 -1 84.8131 175.463)" fill="#2C324D"/>
<circle r="2.71251" transform="matrix(1 0 0 -1 101.088 175.463)" fill="#2C324D"/>
<circle r="2.71251" transform="matrix(1 0 0 -1 117.361 175.463)" fill="#2C324D"/>
<circle r="2.71251" transform="matrix(1 0 0 -1 133.638 175.463)" fill="#2C324D"/>
<circle r="2.71251" transform="matrix(1 0 0 -1 149.912 175.463)" fill="#2C324D"/>
<circle r="2.71251" transform="matrix(1 0 0 -1 166.188 175.463)" fill="#2C324D"/>
<circle r="2.71251" transform="matrix(1 0 0 -1 182.463 175.463)" fill="#2C324D"/>
<circle r="2.71251" transform="matrix(1 0 0 -1 198.738 175.463)" fill="#2C324D"/>
<circle r="2.71251" transform="matrix(1 0 0 -1 215.013 175.463)" fill="#2C324D"/>
<circle r="2.71251" transform="matrix(1 0 0 -1 231.287 175.463)" fill="#2C324D"/>
<circle r="2.71251" transform="matrix(1 0 0 -1 19.712 159.187)" fill="#2C324D"/>
<circle r="2.71251" transform="matrix(1 0 0 -1 35.9859 159.187)" fill="#2C324D"/>
<circle r="2.71251" transform="matrix(1 0 0 -1 52.2628 159.187)" fill="#2C324D"/>
<circle r="2.71251" transform="matrix(1 0 0 -1 68.5367 159.187)" fill="#2C324D"/>
<circle r="2.71251" transform="matrix(1 0 0 -1 84.8131 159.187)" fill="#2C324D"/>
<circle r="2.71251" transform="matrix(1 0 0 -1 101.088 159.187)" fill="#2C324D"/>
<circle r="2.71251" transform="matrix(1 0 0 -1 117.361 159.187)" fill="#2C324D"/>
<circle r="2.71251" transform="matrix(1 0 0 -1 133.638 159.187)" fill="#2C324D"/>
<circle r="2.71251" transform="matrix(1 0 0 -1 149.912 159.187)" fill="#2C324D"/>
<circle r="2.71251" transform="matrix(1 0 0 -1 166.188 159.187)" fill="#2C324D"/>
<circle r="2.71251" transform="matrix(1 0 0 -1 182.463 159.187)" fill="#2C324D"/>
<circle r="2.71251" transform="matrix(1 0 0 -1 198.738 159.187)" fill="#2C324D"/>
<circle r="2.71251" transform="matrix(1 0 0 -1 215.013 159.187)" fill="#2C324D"/>
<circle r="2.71251" transform="matrix(1 0 0 -1 231.287 159.187)" fill="#2C324D"/>
<circle r="2.71251" transform="matrix(1 0 0 -1 19.712 142.913)" fill="#2C324D"/>
<circle r="2.71251" transform="matrix(1 0 0 -1 35.9859 142.913)" fill="#2C324D"/>
<circle r="2.71251" transform="matrix(1 0 0 -1 52.2628 142.913)" fill="#2C324D"/>
<circle r="2.71251" transform="matrix(1 0 0 -1 68.5367 142.913)" fill="#2C324D"/>
<circle r="2.71251" transform="matrix(1 0 0 -1 84.8131 142.913)" fill="#2C324D"/>
<circle r="2.71251" transform="matrix(1 0 0 -1 101.088 142.913)" fill="#2C324D"/>
<circle r="2.71251" transform="matrix(1 0 0 -1 117.361 142.913)" fill="#2C324D"/>
<circle r="2.71251" transform="matrix(1 0 0 -1 133.638 142.913)" fill="#2C324D"/>
<circle r="2.71251" transform="matrix(1 0 0 -1 149.912 142.913)" fill="#2C324D"/>
<circle r="2.71251" transform="matrix(1 0 0 -1 166.188 142.913)" fill="#2C324D"/>
<circle r="2.71251" transform="matrix(1 0 0 -1 182.463 142.913)" fill="#2C324D"/>
<circle r="2.71251" transform="matrix(1 0 0 -1 198.738 142.913)" fill="#2C324D"/>
<circle r="2.71251" transform="matrix(1 0 0 -1 215.013 142.913)" fill="#2C324D"/>
<circle r="2.71251" transform="matrix(1 0 0 -1 231.287 142.913)" fill="#2C324D"/>
<circle r="2.71251" transform="matrix(1 0 0 -1 19.712 126.638)" fill="#2C324D"/>
<circle r="2.71251" transform="matrix(1 0 0 -1 35.9859 126.638)" fill="#2C324D"/>
<circle r="2.71251" transform="matrix(1 0 0 -1 52.2628 126.638)" fill="#2C324D"/>
<circle r="2.71251" transform="matrix(1 0 0 -1 68.5367 126.638)" fill="#2C324D"/>
<circle r="2.71251" transform="matrix(1 0 0 -1 84.8131 126.638)" fill="#2C324D"/>
<circle r="2.71251" transform="matrix(1 0 0 -1 101.088 126.638)" fill="#2C324D"/>
<circle r="2.71251" transform="matrix(1 0 0 -1 117.361 126.638)" fill="#2C324D"/>
<circle r="2.71251" transform="matrix(1 0 0 -1 133.638 126.638)" fill="#2C324D"/>
<circle r="2.71251" transform="matrix(1 0 0 -1 149.912 126.638)" fill="#2C324D"/>
<circle r="2.71251" transform="matrix(1 0 0 -1 166.188 126.638)" fill="#2C324D"/>
<circle r="2.71251" transform="matrix(1 0 0 -1 182.463 126.638)" fill="#2C324D"/>
<circle r="2.71251" transform="matrix(1 0 0 -1 198.738 126.638)" fill="#2C324D"/>
<circle r="2.71251" transform="matrix(1 0 0 -1 215.013 126.638)" fill="#2C324D"/>
<circle r="2.71251" transform="matrix(1 0 0 -1 231.287 126.638)" fill="#2C324D"/>
<circle r="2.71251" transform="matrix(1 0 0 -1 19.712 110.363)" fill="#2C324D"/>
<circle r="2.71251" transform="matrix(1 0 0 -1 35.9859 110.363)" fill="#2C324D"/>
<circle r="2.71251" transform="matrix(1 0 0 -1 52.2628 110.363)" fill="#2C324D"/>
<circle r="2.71251" transform="matrix(1 0 0 -1 68.5367 110.363)" fill="#2C324D"/>
<circle r="2.71251" transform="matrix(1 0 0 -1 84.8131 110.363)" fill="#2C324D"/>
<circle r="2.71251" transform="matrix(1 0 0 -1 101.088 110.363)" fill="#2C324D"/>
<circle r="2.71251" transform="matrix(1 0 0 -1 117.361 110.363)" fill="#2C324D"/>
<circle r="2.71251" transform="matrix(1 0 0 -1 133.638 110.363)" fill="#2C324D"/>
<circle r="2.71251" transform="matrix(1 0 0 -1 149.912 110.363)" fill="#2C324D"/>
<circle r="2.71251" transform="matrix(1 0 0 -1 166.188 110.363)" fill="#2C324D"/>
<circle r="2.71251" transform="matrix(1 0 0 -1 182.463 110.363)" fill="#2C324D"/>
<circle r="2.71251" transform="matrix(1 0 0 -1 198.738 110.363)" fill="#2C324D"/>
<circle r="2.71251" transform="matrix(1 0 0 -1 215.013 110.363)" fill="#2C324D"/>
<circle r="2.71251" transform="matrix(1 0 0 -1 231.287 110.363)" fill="#2C324D"/>
<circle r="2.71251" transform="matrix(1 0 0 -1 19.712 94.0873)" fill="#2C324D"/>
<circle r="2.71251" transform="matrix(1 0 0 -1 35.9859 94.0873)" fill="#2C324D"/>
<circle r="2.71251" transform="matrix(1 0 0 -1 52.2628 94.0873)" fill="#2C324D"/>
<circle r="2.71251" transform="matrix(1 0 0 -1 68.5367 94.0873)" fill="#2C324D"/>
<circle r="2.71251" transform="matrix(1 0 0 -1 84.8131 94.0873)" fill="#2C324D"/>
<circle r="2.71251" transform="matrix(1 0 0 -1 101.088 94.0873)" fill="#2C324D"/>
<circle r="2.71251" transform="matrix(1 0 0 -1 117.361 94.0873)" fill="#2C324D"/>
<circle r="2.71251" transform="matrix(1 0 0 -1 133.638 94.0873)" fill="#2C324D"/>
<circle r="2.71251" transform="matrix(1 0 0 -1 149.912 94.0873)" fill="#2C324D"/>
<circle r="2.71251" transform="matrix(1 0 0 -1 166.188 94.0873)" fill="#2C324D"/>
<circle r="2.71251" transform="matrix(1 0 0 -1 182.463 94.0873)" fill="#2C324D"/>
<circle r="2.71251" transform="matrix(1 0 0 -1 198.738 94.0873)" fill="#2C324D"/>
<circle r="2.71251" transform="matrix(1 0 0 -1 215.013 94.0873)" fill="#2C324D"/>
<circle r="2.71251" transform="matrix(1 0 0 -1 231.287 94.0873)" fill="#2C324D"/>
<circle r="2.71251" transform="matrix(1 0 0 -1 19.712 77.8126)" fill="#2C324D"/>
<circle r="2.71251" transform="matrix(1 0 0 -1 35.9859 77.8126)" fill="#2C324D"/>
<circle r="2.71251" transform="matrix(1 0 0 -1 52.2628 77.8126)" fill="#2C324D"/>
<circle r="2.71251" transform="matrix(1 0 0 -1 68.5367 77.8126)" fill="#2C324D"/>
<circle r="2.71251" transform="matrix(1 0 0 -1 84.8131 77.8126)" fill="#2C324D"/>
<circle r="2.71251" transform="matrix(1 0 0 -1 101.088 77.8126)" fill="#2C324D"/>
<circle r="2.71251" transform="matrix(1 0 0 -1 117.361 77.8126)" fill="#2C324D"/>
<circle r="2.71251" transform="matrix(1 0 0 -1 133.638 77.8126)" fill="#2C324D"/>
<circle r="2.71251" transform="matrix(1 0 0 -1 149.912 77.8126)" fill="#2C324D"/>
<circle r="2.71251" transform="matrix(1 0 0 -1 166.188 77.8126)" fill="#2C324D"/>
<circle r="2.71251" transform="matrix(1 0 0 -1 182.463 77.8126)" fill="#2C324D"/>
<circle r="2.71251" transform="matrix(1 0 0 -1 198.738 77.8126)" fill="#2C324D"/>
<circle r="2.71251" transform="matrix(1 0 0 -1 215.013 77.8126)" fill="#2C324D"/>
<circle r="2.71251" transform="matrix(1 0 0 -1 231.287 77.8126)" fill="#2C324D"/>
<circle r="2.71251" transform="matrix(1 0 0 -1 19.712 61.5372)" fill="#2C324D"/>
<circle r="2.71251" transform="matrix(1 0 0 -1 35.9859 61.5372)" fill="#2C324D"/>
<circle r="2.71251" transform="matrix(1 0 0 -1 52.2628 61.5372)" fill="#2C324D"/>
<circle r="2.71251" transform="matrix(1 0 0 -1 68.5367 61.5372)" fill="#2C324D"/>
<circle r="2.71251" transform="matrix(1 0 0 -1 84.8131 61.5372)" fill="#2C324D"/>
<circle r="2.71251" transform="matrix(1 0 0 -1 101.088 61.5372)" fill="#2C324D"/>
<circle r="2.71251" transform="matrix(1 0 0 -1 117.361 61.5372)" fill="#2C324D"/>
<circle r="2.71251" transform="matrix(1 0 0 -1 133.638 61.5372)" fill="#2C324D"/>
<circle r="2.71251" transform="matrix(1 0 0 -1 149.912 61.5372)" fill="#2C324D"/>
<circle r="2.71251" transform="matrix(1 0 0 -1 166.188 61.5372)" fill="#2C324D"/>
<circle r="2.71251" transform="matrix(1 0 0 -1 182.463 61.5372)" fill="#2C324D"/>
<circle r="2.71251" transform="matrix(1 0 0 -1 198.738 61.5372)" fill="#2C324D"/>
<circle r="2.71251" transform="matrix(1 0 0 -1 215.013 61.5372)" fill="#2C324D"/>
<circle r="2.71251" transform="matrix(1 0 0 -1 231.287 61.5372)" fill="#2C324D"/>
<circle r="2.71251" transform="matrix(1 0 0 -1 19.712 45.2626)" fill="#2C324D"/>
<circle r="2.71251" transform="matrix(1 0 0 -1 35.9859 45.2626)" fill="#2C324D"/>
<circle r="2.71251" transform="matrix(1 0 0 -1 52.2628 45.2626)" fill="#2C324D"/>
<circle r="2.71251" transform="matrix(1 0 0 -1 68.5367 45.2626)" fill="#2C324D"/>
<circle r="2.71251" transform="matrix(1 0 0 -1 84.8131 45.2626)" fill="#2C324D"/>
<circle r="2.71251" transform="matrix(1 0 0 -1 101.088 45.2626)" fill="#2C324D"/>
<circle r="2.71251" transform="matrix(1 0 0 -1 117.361 45.2626)" fill="#2C324D"/>
<circle r="2.71251" transform="matrix(1 0 0 -1 133.638 45.2626)" fill="#2C324D"/>
<circle r="2.71251" transform="matrix(1 0 0 -1 149.912 45.2626)" fill="#2C324D"/>
<circle r="2.71251" transform="matrix(1 0 0 -1 166.188 45.2626)" fill="#2C324D"/>
<circle r="2.71251" transform="matrix(1 0 0 -1 182.463 45.2626)" fill="#2C324D"/>
<circle r="2.71251" transform="matrix(1 0 0 -1 198.738 45.2626)" fill="#2C324D"/>
<circle r="2.71251" transform="matrix(1 0 0 -1 215.013 45.2626)" fill="#2C324D"/>
<circle r="2.71251" transform="matrix(1 0 0 -1 231.287 45.2626)" fill="#2C324D"/>
<circle r="2.71251" transform="matrix(1 0 0 -1 19.712 28.9872)" fill="#2C324D"/>
<circle r="2.71251" transform="matrix(1 0 0 -1 35.9859 28.9872)" fill="#2C324D"/>
<circle r="2.71251" transform="matrix(1 0 0 -1 52.2628 28.9872)" fill="#2C324D"/>
<circle r="2.71251" transform="matrix(1 0 0 -1 68.5367 28.9872)" fill="#2C324D"/>
<circle r="2.71251" transform="matrix(1 0 0 -1 84.8131 28.9872)" fill="#2C324D"/>
<circle r="2.71251" transform="matrix(1 0 0 -1 101.088 28.9872)" fill="#2C324D"/>
<circle r="2.71251" transform="matrix(1 0 0 -1 117.361 28.9872)" fill="#2C324D"/>
<circle r="2.71251" transform="matrix(1 0 0 -1 133.638 28.9872)" fill="#2C324D"/>
<circle r="2.71251" transform="matrix(1 0 0 -1 149.912 28.9872)" fill="#2C324D"/>
<circle r="2.71251" transform="matrix(1 0 0 -1 166.188 28.9872)" fill="#2C324D"/>
<circle r="2.71251" transform="matrix(1 0 0 -1 182.463 28.9872)" fill="#2C324D"/>
<circle r="2.71251" transform="matrix(1 0 0 -1 198.738 28.9872)" fill="#2C324D"/>
<circle r="2.71251" transform="matrix(1 0 0 -1 215.013 28.9872)" fill="#2C324D"/>
<circle r="2.71251" transform="matrix(1 0 0 -1 231.287 28.9872)" fill="#2C324D"/>
<circle r="2.71251" transform="matrix(1 0 0 -1 19.712 12.7125)" fill="#2C324D"/>
<circle r="2.71251" transform="matrix(1 0 0 -1 35.9859 12.7125)" fill="#2C324D"/>
<circle r="2.71251" transform="matrix(1 0 0 -1 52.2628 12.7125)" fill="#2C324D"/>
<circle r="2.71251" transform="matrix(1 0 0 -1 68.5367 12.7125)" fill="#2C324D"/>
<circle r="2.71251" transform="matrix(1 0 0 -1 84.8131 12.7125)" fill="#2C324D"/>
<circle r="2.71251" transform="matrix(1 0 0 -1 101.088 12.7125)" fill="#2C324D"/>
<circle r="2.71251" transform="matrix(1 0 0 -1 117.361 12.7125)" fill="#2C324D"/>
<circle r="2.71251" transform="matrix(1 0 0 -1 133.638 12.7125)" fill="#2C324D"/>
<circle r="2.71251" transform="matrix(1 0 0 -1 149.912 12.7125)" fill="#2C324D"/>
<circle r="2.71251" transform="matrix(1 0 0 -1 166.188 12.7125)" fill="#2C324D"/>
<circle r="2.71251" transform="matrix(1 0 0 -1 182.463 12.7125)" fill="#2C324D"/>
<circle r="2.71251" transform="matrix(1 0 0 -1 198.738 12.7125)" fill="#2C324D"/>
<circle r="2.71251" transform="matrix(1 0 0 -1 215.013 12.7125)" fill="#2C324D"/>
<circle r="2.71251" transform="matrix(1 0 0 -1 231.287 12.7125)" fill="#2C324D"/>
</svg>
