<svg width="252" height="259" viewBox="0 0 252 259" fill="none" xmlns="http://www.w3.org/2000/svg">
<rect width="250" height="259" rx="15" fill="#344E5B"/>
<path d="M0 201.656H251.077V244C251.077 252.284 244.361 259 236.077 259H15C6.71571 259 0 252.284 0 244V201.656Z" fill="white"/>
<path d="M72.616 215.104C73.464 215.104 74.104 215.424 74.568 216.08C75.032 216.736 75.256 217.536 75.256 218.512C75.256 219.472 75.032 220.272 74.568 220.912C74.104 221.552 73.464 221.872 72.616 221.872H70.632V215.104H72.616ZM72.616 224C74.168 224 75.384 223.488 76.264 222.464C77.144 221.44 77.592 220.128 77.592 218.512C77.592 216.896 77.144 215.584 76.264 214.544C75.384 213.504 74.168 212.976 72.616 212.976H68.296V224H72.616ZM87.0024 224V216.528H84.7944V217.36C84.2824 216.64 83.3224 216.368 82.6184 216.368C81.6104 216.368 80.7304 216.736 79.9624 217.456C79.1944 218.176 78.8104 219.104 78.8104 220.256C78.8104 221.408 79.1944 222.352 79.9624 223.072C80.7304 223.792 81.6104 224.144 82.6184 224.144C82.9704 224.144 83.3704 224.064 83.8024 223.888C84.2504 223.712 84.5864 223.472 84.7944 223.152V224H87.0024ZM82.9864 222.032C82.4904 222.032 82.0584 221.872 81.6744 221.536C81.3064 221.2 81.1144 220.768 81.1144 220.256C81.1144 219.744 81.3064 219.328 81.6744 218.992C82.0584 218.656 82.4904 218.48 82.9864 218.48C83.9464 218.48 84.7944 219.184 84.7944 220.256C84.7944 221.328 83.9464 222.032 82.9864 222.032ZM91.2793 221.392C91.2793 219.408 91.9033 218.416 93.1353 218.416C93.5833 218.416 93.9673 218.496 94.2713 218.64L94.6713 216.64C94.3033 216.464 93.8873 216.368 93.3913 216.368C92.5433 216.368 91.6473 217.04 91.2793 218.336V216.528H89.0553V224H91.2793V221.392ZM100.525 224H103.261L99.5329 219.824L102.637 216.528H99.8049L98.0289 218.576V212.464H95.8209V224H98.0289V221.04L100.525 224ZM117.573 214.656C116.597 213.52 115.093 212.848 113.429 212.848C111.845 212.848 110.517 213.408 109.413 214.512C108.325 215.616 107.781 216.944 107.781 218.512C107.781 220.064 108.325 221.408 109.413 222.512C110.517 223.616 111.845 224.16 113.429 224.16C115.077 224.16 116.389 223.664 117.349 222.688C118.325 221.696 118.805 220.208 118.805 218.208H113.141V220.112H116.101C116.085 220.672 115.797 221.12 115.237 221.488C114.677 221.84 114.069 222.016 113.429 222.016C112.517 222.016 111.733 221.68 111.093 220.992C110.453 220.304 110.133 219.472 110.133 218.512C110.133 217.552 110.453 216.736 111.077 216.048C111.717 215.36 112.501 215.024 113.429 215.024C114.373 215.024 115.189 215.392 115.845 216.144L117.573 214.656ZM122.467 221.392C122.467 219.408 123.091 218.416 124.323 218.416C124.771 218.416 125.155 218.496 125.459 218.64L125.859 216.64C125.491 216.464 125.075 216.368 124.579 216.368C123.731 216.368 122.835 217.04 122.467 218.336V216.528H120.243V224H122.467V221.392ZM132.131 221.536C131.763 222 131.219 222.24 130.499 222.24C129.619 222.24 128.771 221.808 128.659 220.992H134.131C134.147 220.736 134.163 220.512 134.163 220.304C134.163 219.136 133.795 218.192 133.059 217.472C132.339 216.736 131.427 216.368 130.339 216.368C129.235 216.368 128.307 216.72 127.555 217.44C126.803 218.16 126.435 219.088 126.435 220.24C126.435 221.392 126.803 222.336 127.555 223.072C128.307 223.792 129.235 224.16 130.339 224.16C131.923 224.16 133.059 223.648 133.747 222.64L132.131 221.536ZM128.691 219.6C129.043 217.888 131.699 217.904 131.923 219.6H128.691ZM140.259 216.528L138.595 220.768L136.947 216.528H134.579L137.459 223.232L135.667 227.664H138.019L142.627 216.528H140.259ZM146.907 220.768C146.907 221.776 147.275 222.592 148.011 223.232C148.747 223.856 149.707 224.176 150.907 224.176C152.267 224.176 153.483 223.76 154.267 222.752C154.667 222.24 154.859 221.632 154.875 220.944C154.923 219.328 153.915 218.208 151.851 217.616L150.539 217.2C149.755 216.976 149.355 216.608 149.355 216.08C149.355 215.44 149.947 214.976 150.779 214.976C151.691 214.976 152.203 215.472 152.203 216.224H154.539C154.539 215.184 154.187 214.368 153.483 213.76C152.795 213.152 151.899 212.848 150.811 212.848C149.739 212.848 148.827 213.152 148.107 213.776C147.387 214.384 147.019 215.168 147.019 216.144C147.019 217.664 147.963 218.72 149.867 219.312L151.195 219.68C152.235 219.984 152.539 220.368 152.523 220.928C152.507 221.632 151.867 222.096 150.907 222.096C149.899 222.096 149.307 221.52 149.259 220.768H146.907ZM156.54 224H158.764V212.464H156.54V224ZM168.549 224V216.528H166.341V217.36C165.829 216.64 164.869 216.368 164.165 216.368C163.157 216.368 162.277 216.736 161.509 217.456C160.741 218.176 160.357 219.104 160.357 220.256C160.357 221.408 160.741 222.352 161.509 223.072C162.277 223.792 163.157 224.144 164.165 224.144C164.517 224.144 164.917 224.064 165.349 223.888C165.797 223.712 166.133 223.472 166.341 223.152V224H168.549ZM164.533 222.032C164.037 222.032 163.605 221.872 163.221 221.536C162.853 221.2 162.661 220.768 162.661 220.256C162.661 219.744 162.853 219.328 163.221 218.992C163.605 218.656 164.037 218.48 164.533 218.48C165.493 218.48 166.341 219.184 166.341 220.256C166.341 221.328 165.493 222.032 164.533 222.032ZM173.514 213.664H171.306V216.528H169.946V218.288H171.306V224H173.514V218.288H175.082V216.528H173.514V213.664ZM181.585 221.536C181.217 222 180.673 222.24 179.953 222.24C179.073 222.24 178.225 221.808 178.113 220.992H183.585C183.601 220.736 183.617 220.512 183.617 220.304C183.617 219.136 183.249 218.192 182.513 217.472C181.793 216.736 180.881 216.368 179.793 216.368C178.689 216.368 177.761 216.72 177.009 217.44C176.257 218.16 175.889 219.088 175.889 220.24C175.889 221.392 176.257 222.336 177.009 223.072C177.761 223.792 178.689 224.16 179.793 224.16C181.377 224.16 182.513 223.648 183.201 222.64L181.585 221.536ZM178.145 219.6C178.497 217.888 181.153 217.904 181.377 219.6H178.145Z" fill="#202538"/>
<path opacity="0.6" d="M97.26 247H98.548L99.262 244.676H100.872L100.172 247H101.474L102.188 244.676H103.728L104.078 243.43H102.538L103.238 241.036H104.792L105.128 239.79H103.588L104.302 237.354H102.986L102.272 239.79H100.676L101.376 237.354H100.046L99.346 239.79H97.82L97.484 241.036H98.982L98.296 243.43H96.77L96.434 244.676H97.96L97.26 247ZM99.612 243.43L100.312 241.036H101.922L101.208 243.43H99.612ZM110.625 242.072C111.367 241.722 111.815 241.022 111.815 240.21C111.829 238.684 110.653 237.718 109.043 237.718C107.909 237.718 106.957 238.236 106.369 239.02L107.335 240.014C107.685 239.524 108.301 239.216 108.903 239.216C109.645 239.216 110.149 239.636 110.177 240.266C110.205 240.98 109.603 241.526 108.623 241.526H107.979V242.8H108.875C109.883 242.8 110.597 243.402 110.597 244.27C110.597 245.082 109.883 245.642 108.875 245.642C108.161 245.642 107.559 245.236 107.125 244.55L105.949 245.404C106.565 246.51 107.629 247.126 108.945 247.126C110.877 247.126 112.235 246.006 112.235 244.326C112.235 243.248 111.591 242.408 110.625 242.072ZM120.57 243.724H119.198V237.83H118.456L113.052 244.76V245.194H117.56V247H119.198V245.194H120.57V243.724ZM115.502 243.724L117.56 241.092V243.724H115.502ZM128.787 243.724H127.415V237.83H126.673L121.269 244.76V245.194H125.777V247H127.415V245.194H128.787V243.724ZM123.719 243.724L125.777 241.092V243.724H123.719ZM132.272 245.474V243.038H135.968V241.484H132.272V238.88H136.5V237.354H130.578V247H136.64V245.474H132.272ZM141.67 240.896C140.984 240.896 140.326 241.134 139.864 241.47L140.298 239.342H144.05V237.83H138.954L138.156 242.422L139.122 243.094C139.738 242.59 140.494 242.268 141.222 242.268C142.244 242.268 143.028 242.94 143.028 243.934C143.028 244.942 142.244 245.614 141.138 245.614C140.298 245.614 139.5 245.082 139.178 244.368L137.89 245.18C138.478 246.314 139.78 247.14 141.222 247.14C143.112 247.14 144.666 245.908 144.666 243.92C144.666 242.142 143.42 240.896 141.67 240.896ZM151.755 241.848C152.735 241.498 153.015 240.588 153.015 239.832C153.015 238.362 151.951 237.354 150.271 237.354H146.519V247H150.565C152.567 247 153.533 245.614 153.533 244.256C153.533 243.192 152.931 242.086 151.755 241.848ZM150.201 238.88C150.943 238.88 151.307 239.398 151.307 240.07C151.307 240.77 150.915 241.246 150.201 241.246H148.227V238.88H150.201ZM150.299 245.474H148.227V242.688H150.341C151.363 242.688 151.811 243.402 151.811 244.088C151.811 244.816 151.293 245.474 150.299 245.474Z" fill="#202538"/>
<circle r="2.71251" transform="matrix(1 0 0 -1 19.712 191.738)" fill="#395665"/>
<circle r="2.71251" transform="matrix(1 0 0 -1 35.9859 191.738)" fill="#395665"/>
<circle r="2.71251" transform="matrix(1 0 0 -1 52.2628 191.738)" fill="#395665"/>
<circle r="2.71251" transform="matrix(1 0 0 -1 68.5367 191.738)" fill="#395665"/>
<circle r="2.71251" transform="matrix(1 0 0 -1 84.8131 191.738)" fill="#395665"/>
<circle r="2.71251" transform="matrix(1 0 0 -1 101.088 191.738)" fill="#395665"/>
<circle r="2.71251" transform="matrix(1 0 0 -1 117.361 191.738)" fill="#395665"/>
<circle r="2.71251" transform="matrix(1 0 0 -1 133.638 191.738)" fill="#395665"/>
<circle r="2.71251" transform="matrix(1 0 0 -1 149.912 191.738)" fill="#395665"/>
<circle r="2.71251" transform="matrix(1 0 0 -1 166.188 191.738)" fill="#395665"/>
<circle r="2.71251" transform="matrix(1 0 0 -1 182.463 191.738)" fill="#395665"/>
<circle r="2.71251" transform="matrix(1 0 0 -1 198.738 191.738)" fill="#395665"/>
<circle r="2.71251" transform="matrix(1 0 0 -1 215.013 191.738)" fill="#395665"/>
<circle r="2.71251" transform="matrix(1 0 0 -1 231.287 191.738)" fill="#395665"/>
<circle r="2.71251" transform="matrix(1 0 0 -1 19.712 175.463)" fill="#395665"/>
<circle r="2.71251" transform="matrix(1 0 0 -1 35.9859 175.463)" fill="#395665"/>
<circle r="2.71251" transform="matrix(1 0 0 -1 52.2628 175.463)" fill="#395665"/>
<circle r="2.71251" transform="matrix(1 0 0 -1 68.5367 175.463)" fill="#395665"/>
<circle r="2.71251" transform="matrix(1 0 0 -1 84.8131 175.463)" fill="#395665"/>
<circle r="2.71251" transform="matrix(1 0 0 -1 101.088 175.463)" fill="#395665"/>
<circle r="2.71251" transform="matrix(1 0 0 -1 117.361 175.463)" fill="#395665"/>
<circle r="2.71251" transform="matrix(1 0 0 -1 133.638 175.463)" fill="#395665"/>
<circle r="2.71251" transform="matrix(1 0 0 -1 149.912 175.463)" fill="#395665"/>
<circle r="2.71251" transform="matrix(1 0 0 -1 166.188 175.463)" fill="#395665"/>
<circle r="2.71251" transform="matrix(1 0 0 -1 182.463 175.463)" fill="#395665"/>
<circle r="2.71251" transform="matrix(1 0 0 -1 198.738 175.463)" fill="#395665"/>
<circle r="2.71251" transform="matrix(1 0 0 -1 215.013 175.463)" fill="#395665"/>
<circle r="2.71251" transform="matrix(1 0 0 -1 231.287 175.463)" fill="#395665"/>
<circle r="2.71251" transform="matrix(1 0 0 -1 19.712 159.187)" fill="#395665"/>
<circle r="2.71251" transform="matrix(1 0 0 -1 35.9859 159.187)" fill="#395665"/>
<circle r="2.71251" transform="matrix(1 0 0 -1 52.2628 159.187)" fill="#395665"/>
<circle r="2.71251" transform="matrix(1 0 0 -1 68.5367 159.187)" fill="#395665"/>
<circle r="2.71251" transform="matrix(1 0 0 -1 84.8131 159.187)" fill="#395665"/>
<circle r="2.71251" transform="matrix(1 0 0 -1 101.088 159.187)" fill="#395665"/>
<circle r="2.71251" transform="matrix(1 0 0 -1 117.361 159.187)" fill="#395665"/>
<circle r="2.71251" transform="matrix(1 0 0 -1 133.638 159.187)" fill="#395665"/>
<circle r="2.71251" transform="matrix(1 0 0 -1 149.912 159.187)" fill="#395665"/>
<circle r="2.71251" transform="matrix(1 0 0 -1 166.188 159.187)" fill="#395665"/>
<circle r="2.71251" transform="matrix(1 0 0 -1 182.463 159.187)" fill="#395665"/>
<circle r="2.71251" transform="matrix(1 0 0 -1 198.738 159.187)" fill="#395665"/>
<circle r="2.71251" transform="matrix(1 0 0 -1 215.013 159.187)" fill="#395665"/>
<circle r="2.71251" transform="matrix(1 0 0 -1 231.287 159.187)" fill="#395665"/>
<circle r="2.71251" transform="matrix(1 0 0 -1 19.712 142.913)" fill="#395665"/>
<circle r="2.71251" transform="matrix(1 0 0 -1 35.9859 142.913)" fill="#395665"/>
<circle r="2.71251" transform="matrix(1 0 0 -1 52.2628 142.913)" fill="#395665"/>
<circle r="2.71251" transform="matrix(1 0 0 -1 68.5367 142.913)" fill="#395665"/>
<circle r="2.71251" transform="matrix(1 0 0 -1 84.8131 142.913)" fill="#395665"/>
<circle r="2.71251" transform="matrix(1 0 0 -1 101.088 142.913)" fill="#395665"/>
<circle r="2.71251" transform="matrix(1 0 0 -1 117.361 142.913)" fill="#395665"/>
<circle r="2.71251" transform="matrix(1 0 0 -1 133.638 142.913)" fill="#395665"/>
<circle r="2.71251" transform="matrix(1 0 0 -1 149.912 142.913)" fill="#395665"/>
<circle r="2.71251" transform="matrix(1 0 0 -1 166.188 142.913)" fill="#395665"/>
<circle r="2.71251" transform="matrix(1 0 0 -1 182.463 142.913)" fill="#395665"/>
<circle r="2.71251" transform="matrix(1 0 0 -1 198.738 142.913)" fill="#395665"/>
<circle r="2.71251" transform="matrix(1 0 0 -1 215.013 142.913)" fill="#395665"/>
<circle r="2.71251" transform="matrix(1 0 0 -1 231.287 142.913)" fill="#395665"/>
<circle r="2.71251" transform="matrix(1 0 0 -1 19.712 126.638)" fill="#395665"/>
<circle r="2.71251" transform="matrix(1 0 0 -1 35.9859 126.638)" fill="#395665"/>
<circle r="2.71251" transform="matrix(1 0 0 -1 52.2628 126.638)" fill="#395665"/>
<circle r="2.71251" transform="matrix(1 0 0 -1 68.5367 126.638)" fill="#395665"/>
<circle r="2.71251" transform="matrix(1 0 0 -1 84.8131 126.638)" fill="#395665"/>
<circle r="2.71251" transform="matrix(1 0 0 -1 101.088 126.638)" fill="#395665"/>
<circle r="2.71251" transform="matrix(1 0 0 -1 117.361 126.638)" fill="#395665"/>
<circle r="2.71251" transform="matrix(1 0 0 -1 133.638 126.638)" fill="#395665"/>
<circle r="2.71251" transform="matrix(1 0 0 -1 149.912 126.638)" fill="#395665"/>
<circle r="2.71251" transform="matrix(1 0 0 -1 166.188 126.638)" fill="#395665"/>
<circle r="2.71251" transform="matrix(1 0 0 -1 182.463 126.638)" fill="#395665"/>
<circle r="2.71251" transform="matrix(1 0 0 -1 198.738 126.638)" fill="#395665"/>
<circle r="2.71251" transform="matrix(1 0 0 -1 215.013 126.638)" fill="#395665"/>
<circle r="2.71251" transform="matrix(1 0 0 -1 231.287 126.638)" fill="#395665"/>
<circle r="2.71251" transform="matrix(1 0 0 -1 19.712 110.363)" fill="#395665"/>
<circle r="2.71251" transform="matrix(1 0 0 -1 35.9859 110.363)" fill="#395665"/>
<circle r="2.71251" transform="matrix(1 0 0 -1 52.2628 110.363)" fill="#395665"/>
<circle r="2.71251" transform="matrix(1 0 0 -1 68.5367 110.363)" fill="#395665"/>
<circle r="2.71251" transform="matrix(1 0 0 -1 84.8131 110.363)" fill="#395665"/>
<circle r="2.71251" transform="matrix(1 0 0 -1 101.088 110.363)" fill="#395665"/>
<circle r="2.71251" transform="matrix(1 0 0 -1 117.361 110.363)" fill="#395665"/>
<circle r="2.71251" transform="matrix(1 0 0 -1 133.638 110.363)" fill="#395665"/>
<circle r="2.71251" transform="matrix(1 0 0 -1 149.912 110.363)" fill="#395665"/>
<circle r="2.71251" transform="matrix(1 0 0 -1 166.188 110.363)" fill="#395665"/>
<circle r="2.71251" transform="matrix(1 0 0 -1 182.463 110.363)" fill="#395665"/>
<circle r="2.71251" transform="matrix(1 0 0 -1 198.738 110.363)" fill="#395665"/>
<circle r="2.71251" transform="matrix(1 0 0 -1 215.013 110.363)" fill="#395665"/>
<circle r="2.71251" transform="matrix(1 0 0 -1 231.287 110.363)" fill="#395665"/>
<circle r="2.71251" transform="matrix(1 0 0 -1 19.712 94.0873)" fill="#395665"/>
<circle r="2.71251" transform="matrix(1 0 0 -1 35.9859 94.0873)" fill="#395665"/>
<circle r="2.71251" transform="matrix(1 0 0 -1 52.2628 94.0873)" fill="#395665"/>
<circle r="2.71251" transform="matrix(1 0 0 -1 68.5367 94.0873)" fill="#395665"/>
<circle r="2.71251" transform="matrix(1 0 0 -1 84.8131 94.0873)" fill="#395665"/>
<circle r="2.71251" transform="matrix(1 0 0 -1 101.088 94.0873)" fill="#395665"/>
<circle r="2.71251" transform="matrix(1 0 0 -1 117.361 94.0873)" fill="#395665"/>
<circle r="2.71251" transform="matrix(1 0 0 -1 133.638 94.0873)" fill="#395665"/>
<circle r="2.71251" transform="matrix(1 0 0 -1 149.912 94.0873)" fill="#395665"/>
<circle r="2.71251" transform="matrix(1 0 0 -1 166.188 94.0873)" fill="#395665"/>
<circle r="2.71251" transform="matrix(1 0 0 -1 182.463 94.0873)" fill="#395665"/>
<circle r="2.71251" transform="matrix(1 0 0 -1 198.738 94.0873)" fill="#395665"/>
<circle r="2.71251" transform="matrix(1 0 0 -1 215.013 94.0873)" fill="#395665"/>
<circle r="2.71251" transform="matrix(1 0 0 -1 231.287 94.0873)" fill="#395665"/>
<circle r="2.71251" transform="matrix(1 0 0 -1 19.712 77.8126)" fill="#395665"/>
<circle r="2.71251" transform="matrix(1 0 0 -1 35.9859 77.8126)" fill="#395665"/>
<circle r="2.71251" transform="matrix(1 0 0 -1 52.2628 77.8126)" fill="#395665"/>
<circle r="2.71251" transform="matrix(1 0 0 -1 68.5367 77.8126)" fill="#395665"/>
<circle r="2.71251" transform="matrix(1 0 0 -1 84.8131 77.8126)" fill="#395665"/>
<circle r="2.71251" transform="matrix(1 0 0 -1 101.088 77.8126)" fill="#395665"/>
<circle r="2.71251" transform="matrix(1 0 0 -1 117.361 77.8126)" fill="#395665"/>
<circle r="2.71251" transform="matrix(1 0 0 -1 133.638 77.8126)" fill="#395665"/>
<circle r="2.71251" transform="matrix(1 0 0 -1 149.912 77.8126)" fill="#395665"/>
<circle r="2.71251" transform="matrix(1 0 0 -1 166.188 77.8126)" fill="#395665"/>
<circle r="2.71251" transform="matrix(1 0 0 -1 182.463 77.8126)" fill="#395665"/>
<circle r="2.71251" transform="matrix(1 0 0 -1 198.738 77.8126)" fill="#395665"/>
<circle r="2.71251" transform="matrix(1 0 0 -1 215.013 77.8126)" fill="#395665"/>
<circle r="2.71251" transform="matrix(1 0 0 -1 231.287 77.8126)" fill="#395665"/>
<circle r="2.71251" transform="matrix(1 0 0 -1 19.712 61.5372)" fill="#395665"/>
<circle r="2.71251" transform="matrix(1 0 0 -1 35.9859 61.5372)" fill="#395665"/>
<circle r="2.71251" transform="matrix(1 0 0 -1 52.2628 61.5372)" fill="#395665"/>
<circle r="2.71251" transform="matrix(1 0 0 -1 68.5367 61.5372)" fill="#395665"/>
<circle r="2.71251" transform="matrix(1 0 0 -1 84.8131 61.5372)" fill="#395665"/>
<circle r="2.71251" transform="matrix(1 0 0 -1 101.088 61.5372)" fill="#395665"/>
<circle r="2.71251" transform="matrix(1 0 0 -1 117.361 61.5372)" fill="#395665"/>
<circle r="2.71251" transform="matrix(1 0 0 -1 133.638 61.5372)" fill="#395665"/>
<circle r="2.71251" transform="matrix(1 0 0 -1 149.912 61.5372)" fill="#395665"/>
<circle r="2.71251" transform="matrix(1 0 0 -1 166.188 61.5372)" fill="#395665"/>
<circle r="2.71251" transform="matrix(1 0 0 -1 182.463 61.5372)" fill="#395665"/>
<circle r="2.71251" transform="matrix(1 0 0 -1 198.738 61.5372)" fill="#395665"/>
<circle r="2.71251" transform="matrix(1 0 0 -1 215.013 61.5372)" fill="#395665"/>
<circle r="2.71251" transform="matrix(1 0 0 -1 231.287 61.5372)" fill="#395665"/>
<circle r="2.71251" transform="matrix(1 0 0 -1 19.712 45.2626)" fill="#395665"/>
<circle r="2.71251" transform="matrix(1 0 0 -1 35.9859 45.2626)" fill="#395665"/>
<circle r="2.71251" transform="matrix(1 0 0 -1 52.2628 45.2626)" fill="#395665"/>
<circle r="2.71251" transform="matrix(1 0 0 -1 68.5367 45.2626)" fill="#395665"/>
<circle r="2.71251" transform="matrix(1 0 0 -1 84.8131 45.2626)" fill="#395665"/>
<circle r="2.71251" transform="matrix(1 0 0 -1 101.088 45.2626)" fill="#395665"/>
<circle r="2.71251" transform="matrix(1 0 0 -1 117.361 45.2626)" fill="#395665"/>
<circle r="2.71251" transform="matrix(1 0 0 -1 133.638 45.2626)" fill="#395665"/>
<circle r="2.71251" transform="matrix(1 0 0 -1 149.912 45.2626)" fill="#395665"/>
<circle r="2.71251" transform="matrix(1 0 0 -1 166.188 45.2626)" fill="#395665"/>
<circle r="2.71251" transform="matrix(1 0 0 -1 182.463 45.2626)" fill="#395665"/>
<circle r="2.71251" transform="matrix(1 0 0 -1 198.738 45.2626)" fill="#395665"/>
<circle r="2.71251" transform="matrix(1 0 0 -1 215.013 45.2626)" fill="#395665"/>
<circle r="2.71251" transform="matrix(1 0 0 -1 231.287 45.2626)" fill="#395665"/>
<circle r="2.71251" transform="matrix(1 0 0 -1 19.712 28.9872)" fill="#395665"/>
<circle r="2.71251" transform="matrix(1 0 0 -1 35.9859 28.9872)" fill="#395665"/>
<circle r="2.71251" transform="matrix(1 0 0 -1 52.2628 28.9872)" fill="#395665"/>
<circle r="2.71251" transform="matrix(1 0 0 -1 68.5367 28.9872)" fill="#395665"/>
<circle r="2.71251" transform="matrix(1 0 0 -1 84.8131 28.9872)" fill="#395665"/>
<circle r="2.71251" transform="matrix(1 0 0 -1 101.088 28.9872)" fill="#395665"/>
<circle r="2.71251" transform="matrix(1 0 0 -1 117.361 28.9872)" fill="#395665"/>
<circle r="2.71251" transform="matrix(1 0 0 -1 133.638 28.9872)" fill="#395665"/>
<circle r="2.71251" transform="matrix(1 0 0 -1 149.912 28.9872)" fill="#395665"/>
<circle r="2.71251" transform="matrix(1 0 0 -1 166.188 28.9872)" fill="#395665"/>
<circle r="2.71251" transform="matrix(1 0 0 -1 182.463 28.9872)" fill="#395665"/>
<circle r="2.71251" transform="matrix(1 0 0 -1 198.738 28.9872)" fill="#395665"/>
<circle r="2.71251" transform="matrix(1 0 0 -1 215.013 28.9872)" fill="#395665"/>
<circle r="2.71251" transform="matrix(1 0 0 -1 231.287 28.9872)" fill="#395665"/>
<circle r="2.71251" transform="matrix(1 0 0 -1 19.712 12.7125)" fill="#395665"/>
<circle r="2.71251" transform="matrix(1 0 0 -1 35.9859 12.7125)" fill="#395665"/>
<circle r="2.71251" transform="matrix(1 0 0 -1 52.2628 12.7125)" fill="#395665"/>
<circle r="2.71251" transform="matrix(1 0 0 -1 68.5367 12.7125)" fill="#395665"/>
<circle r="2.71251" transform="matrix(1 0 0 -1 84.8131 12.7125)" fill="#395665"/>
<circle r="2.71251" transform="matrix(1 0 0 -1 101.088 12.7125)" fill="#395665"/>
<circle r="2.71251" transform="matrix(1 0 0 -1 117.361 12.7125)" fill="#395665"/>
<circle r="2.71251" transform="matrix(1 0 0 -1 133.638 12.7125)" fill="#395665"/>
<circle r="2.71251" transform="matrix(1 0 0 -1 149.912 12.7125)" fill="#395665"/>
<circle r="2.71251" transform="matrix(1 0 0 -1 166.188 12.7125)" fill="#395665"/>
<circle r="2.71251" transform="matrix(1 0 0 -1 182.463 12.7125)" fill="#395665"/>
<circle r="2.71251" transform="matrix(1 0 0 -1 198.738 12.7125)" fill="#395665"/>
<circle r="2.71251" transform="matrix(1 0 0 -1 215.013 12.7125)" fill="#395665"/>
<circle r="2.71251" transform="matrix(1 0 0 -1 231.287 12.7125)" fill="#395665"/>
</svg>
