<svg width="252" height="259" viewBox="0 0 252 259" fill="none" xmlns="http://www.w3.org/2000/svg">
<rect width="250" height="259" rx="15" fill="#16958B"/>
<path d="M0 201.656H251.077V244C251.077 252.284 244.361 259 236.077 259H15C6.71571 259 0 252.284 0 244V201.656Z" fill="white"/>
<path d="M90.616 215.104C91.464 215.104 92.104 215.424 92.568 216.08C93.032 216.736 93.256 217.536 93.256 218.512C93.256 219.472 93.032 220.272 92.568 220.912C92.104 221.552 91.464 221.872 90.616 221.872H88.632V215.104H90.616ZM90.616 224C92.168 224 93.384 223.488 94.264 222.464C95.144 221.44 95.592 220.128 95.592 218.512C95.592 216.896 95.144 215.584 94.264 214.544C93.384 213.504 92.168 212.976 90.616 212.976H86.296V224H90.616ZM105.002 224V216.528H102.794V217.36C102.282 216.64 101.322 216.368 100.618 216.368C99.6104 216.368 98.7304 216.736 97.9624 217.456C97.1944 218.176 96.8104 219.104 96.8104 220.256C96.8104 221.408 97.1944 222.352 97.9624 223.072C98.7304 223.792 99.6104 224.144 100.618 224.144C100.97 224.144 101.37 224.064 101.802 223.888C102.25 223.712 102.586 223.472 102.794 223.152V224H105.002ZM100.986 222.032C100.49 222.032 100.058 221.872 99.6744 221.536C99.3064 221.2 99.1144 220.768 99.1144 220.256C99.1144 219.744 99.3064 219.328 99.6744 218.992C100.058 218.656 100.49 218.48 100.986 218.48C101.946 218.48 102.794 219.184 102.794 220.256C102.794 221.328 101.946 222.032 100.986 222.032ZM109.279 221.392C109.279 219.408 109.903 218.416 111.135 218.416C111.583 218.416 111.967 218.496 112.271 218.64L112.671 216.64C112.303 216.464 111.887 216.368 111.391 216.368C110.543 216.368 109.647 217.04 109.279 218.336V216.528H107.055V224H109.279V221.392ZM118.525 224H121.261L117.533 219.824L120.637 216.528H117.805L116.029 218.576V212.464H113.821V224H116.029V221.04L118.525 224ZM134.069 220.432C133.445 221.344 132.453 221.952 131.317 221.952C130.405 221.952 129.653 221.616 129.045 220.96C128.437 220.288 128.133 219.472 128.133 218.512C128.133 217.536 128.437 216.72 129.045 216.064C129.653 215.392 130.405 215.056 131.317 215.056C132.453 215.056 133.349 215.536 134.005 216.496L135.909 215.184C134.933 213.76 133.237 212.848 131.317 212.848C129.749 212.848 128.437 213.392 127.365 214.496C126.309 215.6 125.781 216.928 125.781 218.512C125.781 220.08 126.309 221.408 127.365 222.512C128.437 223.616 129.749 224.16 131.317 224.16C133.285 224.16 134.981 223.232 135.957 221.744L134.069 220.432ZM142.041 216.528L140.377 220.768L138.729 216.528H136.361L139.241 223.232L137.449 227.664H139.801L144.409 216.528H142.041ZM153.081 224V216.528H150.873V217.36C150.361 216.64 149.401 216.368 148.697 216.368C147.689 216.368 146.809 216.736 146.041 217.456C145.273 218.176 144.889 219.104 144.889 220.256C144.889 221.408 145.273 222.352 146.041 223.072C146.809 223.792 147.689 224.144 148.697 224.144C149.049 224.144 149.449 224.064 149.881 223.888C150.329 223.712 150.665 223.472 150.873 223.152V224H153.081ZM149.065 222.032C148.569 222.032 148.137 221.872 147.753 221.536C147.385 221.2 147.193 220.768 147.193 220.256C147.193 219.744 147.385 219.328 147.753 218.992C148.137 218.656 148.569 218.48 149.065 218.48C150.025 218.48 150.873 219.184 150.873 220.256C150.873 221.328 150.025 222.032 149.065 222.032ZM157.357 220.048C157.357 219.04 157.821 218.528 158.733 218.528C159.517 218.528 160.029 219.056 160.029 220.016V224H162.253V219.536C162.253 217.44 161.245 216.368 159.517 216.368C158.637 216.368 157.757 216.864 157.357 217.616V216.528H155.133V224H157.357V220.048Z" fill="#202538"/>
<path opacity="0.6" d="M96.26 247H97.548L98.262 244.676H99.872L99.172 247H100.474L101.188 244.676H102.728L103.078 243.43H101.538L102.238 241.036H103.792L104.128 239.79H102.588L103.302 237.354H101.986L101.272 239.79H99.676L100.376 237.354H99.046L98.346 239.79H96.82L96.484 241.036H97.982L97.296 243.43H95.77L95.434 244.676H96.96L96.26 247ZM98.612 243.43L99.312 241.036H100.922L100.208 243.43H98.612ZM108.491 237.718L104.935 239.244V240.756L106.993 239.944V247H108.603V237.718H108.491ZM114.286 241.092C113.362 241.092 112.662 241.498 112.228 242.03C112.242 240.434 113.138 239.23 114.384 239.23C115.014 239.23 115.616 239.538 115.938 240.238L117.296 239.552C116.708 238.222 115.532 237.718 114.384 237.718C111.696 237.718 110.548 240.21 110.548 242.716C110.548 245.516 111.878 247.14 114.062 247.14C116.078 247.14 117.394 245.768 117.394 244.074C117.394 242.478 116.148 241.092 114.286 241.092ZM114.02 245.614C113.04 245.6 112.34 244.928 112.34 244.018C112.368 243.136 113.11 242.506 114.118 242.506C115.056 242.534 115.742 243.192 115.742 244.06C115.742 244.956 115.028 245.614 114.02 245.614ZM122.138 237.718C120.108 237.718 118.806 239.09 118.806 240.784C118.806 242.38 120.052 243.752 121.914 243.752C122.838 243.752 123.524 243.388 123.972 242.856C123.944 244.438 123.034 245.628 121.802 245.628C121.186 245.628 120.57 245.32 120.262 244.606L118.904 245.306C119.492 246.636 120.668 247.14 121.802 247.14C124.49 247.14 125.652 244.648 125.652 242.142C125.652 239.552 124.322 237.718 122.138 237.718ZM122.068 242.338C121.13 242.31 120.444 241.666 120.444 240.798C120.444 239.902 121.172 239.244 122.166 239.244C123.146 239.258 123.86 239.93 123.86 240.84C123.832 241.708 123.076 242.338 122.068 242.338ZM130.676 240.896C129.99 240.896 129.332 241.134 128.87 241.47L129.304 239.342H133.056V237.83H127.96L127.162 242.422L128.128 243.094C128.744 242.59 129.5 242.268 130.228 242.268C131.25 242.268 132.034 242.94 132.034 243.934C132.034 244.942 131.25 245.614 130.144 245.614C129.304 245.614 128.506 245.082 128.184 244.368L126.896 245.18C127.484 246.314 128.786 247.14 130.228 247.14C132.118 247.14 133.672 245.908 133.672 243.92C133.672 242.142 132.426 240.896 130.676 240.896ZM140.215 241.792C140.789 241.498 141.223 240.854 141.223 240.042C141.223 238.684 140.033 237.718 138.437 237.718C136.841 237.718 135.651 238.684 135.651 240.042C135.651 240.854 136.085 241.498 136.659 241.792C135.637 242.142 134.923 243.094 134.923 244.27C134.923 245.978 136.449 247.14 138.437 247.14C140.425 247.14 141.951 245.978 141.951 244.256C141.951 243.094 141.237 242.128 140.215 241.792ZM138.437 239.132C139.109 239.132 139.613 239.622 139.613 240.21C139.613 240.798 139.109 241.26 138.437 241.26C137.779 241.26 137.261 240.798 137.261 240.21C137.261 239.622 137.779 239.132 138.437 239.132ZM138.437 245.656C137.387 245.656 136.603 244.998 136.603 244.116C136.603 243.206 137.401 242.534 138.437 242.534C139.459 242.534 140.257 243.206 140.257 244.116C140.257 244.998 139.515 245.656 138.437 245.656ZM149.032 241.848C150.012 241.498 150.292 240.588 150.292 239.832C150.292 238.362 149.228 237.354 147.548 237.354H143.796V247H147.842C149.844 247 150.81 245.614 150.81 244.256C150.81 243.192 150.208 242.086 149.032 241.848ZM147.478 238.88C148.22 238.88 148.584 239.398 148.584 240.07C148.584 240.77 148.192 241.246 147.478 241.246H145.504V238.88H147.478ZM147.576 245.474H145.504V242.688H147.618C148.64 242.688 149.088 243.402 149.088 244.088C149.088 244.816 148.57 245.474 147.576 245.474Z" fill="#202538"/>
<circle r="2.71251" transform="matrix(1 0 0 -1 19.712 191.738)" fill="#18A297"/>
<circle r="2.71251" transform="matrix(1 0 0 -1 35.9859 191.738)" fill="#18A297"/>
<circle r="2.71251" transform="matrix(1 0 0 -1 52.2628 191.738)" fill="#18A297"/>
<circle r="2.71251" transform="matrix(1 0 0 -1 68.5367 191.738)" fill="#18A297"/>
<circle r="2.71251" transform="matrix(1 0 0 -1 84.8131 191.738)" fill="#18A297"/>
<circle r="2.71251" transform="matrix(1 0 0 -1 101.088 191.738)" fill="#18A297"/>
<circle r="2.71251" transform="matrix(1 0 0 -1 117.361 191.738)" fill="#18A297"/>
<circle r="2.71251" transform="matrix(1 0 0 -1 133.638 191.738)" fill="#18A297"/>
<circle r="2.71251" transform="matrix(1 0 0 -1 149.912 191.738)" fill="#18A297"/>
<circle r="2.71251" transform="matrix(1 0 0 -1 166.188 191.738)" fill="#18A297"/>
<circle r="2.71251" transform="matrix(1 0 0 -1 182.463 191.738)" fill="#18A297"/>
<circle r="2.71251" transform="matrix(1 0 0 -1 198.738 191.738)" fill="#18A297"/>
<circle r="2.71251" transform="matrix(1 0 0 -1 215.013 191.738)" fill="#18A297"/>
<circle r="2.71251" transform="matrix(1 0 0 -1 231.287 191.738)" fill="#18A297"/>
<circle r="2.71251" transform="matrix(1 0 0 -1 19.712 175.463)" fill="#18A297"/>
<circle r="2.71251" transform="matrix(1 0 0 -1 35.9859 175.463)" fill="#18A297"/>
<circle r="2.71251" transform="matrix(1 0 0 -1 52.2628 175.463)" fill="#18A297"/>
<circle r="2.71251" transform="matrix(1 0 0 -1 68.5367 175.463)" fill="#18A297"/>
<circle r="2.71251" transform="matrix(1 0 0 -1 84.8131 175.463)" fill="#18A297"/>
<circle r="2.71251" transform="matrix(1 0 0 -1 101.088 175.463)" fill="#18A297"/>
<circle r="2.71251" transform="matrix(1 0 0 -1 117.361 175.463)" fill="#18A297"/>
<circle r="2.71251" transform="matrix(1 0 0 -1 133.638 175.463)" fill="#18A297"/>
<circle r="2.71251" transform="matrix(1 0 0 -1 149.912 175.463)" fill="#18A297"/>
<circle r="2.71251" transform="matrix(1 0 0 -1 166.188 175.463)" fill="#18A297"/>
<circle r="2.71251" transform="matrix(1 0 0 -1 182.463 175.463)" fill="#18A297"/>
<circle r="2.71251" transform="matrix(1 0 0 -1 198.738 175.463)" fill="#18A297"/>
<circle r="2.71251" transform="matrix(1 0 0 -1 215.013 175.463)" fill="#18A297"/>
<circle r="2.71251" transform="matrix(1 0 0 -1 231.287 175.463)" fill="#18A297"/>
<circle r="2.71251" transform="matrix(1 0 0 -1 19.712 159.187)" fill="#18A297"/>
<circle r="2.71251" transform="matrix(1 0 0 -1 35.9859 159.187)" fill="#18A297"/>
<circle r="2.71251" transform="matrix(1 0 0 -1 52.2628 159.187)" fill="#18A297"/>
<circle r="2.71251" transform="matrix(1 0 0 -1 68.5367 159.187)" fill="#18A297"/>
<circle r="2.71251" transform="matrix(1 0 0 -1 84.8131 159.187)" fill="#18A297"/>
<circle r="2.71251" transform="matrix(1 0 0 -1 101.088 159.187)" fill="#18A297"/>
<circle r="2.71251" transform="matrix(1 0 0 -1 117.361 159.187)" fill="#18A297"/>
<circle r="2.71251" transform="matrix(1 0 0 -1 133.638 159.187)" fill="#18A297"/>
<circle r="2.71251" transform="matrix(1 0 0 -1 149.912 159.187)" fill="#18A297"/>
<circle r="2.71251" transform="matrix(1 0 0 -1 166.188 159.187)" fill="#18A297"/>
<circle r="2.71251" transform="matrix(1 0 0 -1 182.463 159.187)" fill="#18A297"/>
<circle r="2.71251" transform="matrix(1 0 0 -1 198.738 159.187)" fill="#18A297"/>
<circle r="2.71251" transform="matrix(1 0 0 -1 215.013 159.187)" fill="#18A297"/>
<circle r="2.71251" transform="matrix(1 0 0 -1 231.287 159.187)" fill="#18A297"/>
<circle r="2.71251" transform="matrix(1 0 0 -1 19.712 142.913)" fill="#18A297"/>
<circle r="2.71251" transform="matrix(1 0 0 -1 35.9859 142.913)" fill="#18A297"/>
<circle r="2.71251" transform="matrix(1 0 0 -1 52.2628 142.913)" fill="#18A297"/>
<circle r="2.71251" transform="matrix(1 0 0 -1 68.5367 142.913)" fill="#18A297"/>
<circle r="2.71251" transform="matrix(1 0 0 -1 84.8131 142.913)" fill="#18A297"/>
<circle r="2.71251" transform="matrix(1 0 0 -1 101.088 142.913)" fill="#18A297"/>
<circle r="2.71251" transform="matrix(1 0 0 -1 117.361 142.913)" fill="#18A297"/>
<circle r="2.71251" transform="matrix(1 0 0 -1 133.638 142.913)" fill="#18A297"/>
<circle r="2.71251" transform="matrix(1 0 0 -1 149.912 142.913)" fill="#18A297"/>
<circle r="2.71251" transform="matrix(1 0 0 -1 166.188 142.913)" fill="#18A297"/>
<circle r="2.71251" transform="matrix(1 0 0 -1 182.463 142.913)" fill="#18A297"/>
<circle r="2.71251" transform="matrix(1 0 0 -1 198.738 142.913)" fill="#18A297"/>
<circle r="2.71251" transform="matrix(1 0 0 -1 215.013 142.913)" fill="#18A297"/>
<circle r="2.71251" transform="matrix(1 0 0 -1 231.287 142.913)" fill="#18A297"/>
<circle r="2.71251" transform="matrix(1 0 0 -1 19.712 126.638)" fill="#18A297"/>
<circle r="2.71251" transform="matrix(1 0 0 -1 35.9859 126.638)" fill="#18A297"/>
<circle r="2.71251" transform="matrix(1 0 0 -1 52.2628 126.638)" fill="#18A297"/>
<circle r="2.71251" transform="matrix(1 0 0 -1 68.5367 126.638)" fill="#18A297"/>
<circle r="2.71251" transform="matrix(1 0 0 -1 84.8131 126.638)" fill="#18A297"/>
<circle r="2.71251" transform="matrix(1 0 0 -1 101.088 126.638)" fill="#18A297"/>
<circle r="2.71251" transform="matrix(1 0 0 -1 117.361 126.638)" fill="#18A297"/>
<circle r="2.71251" transform="matrix(1 0 0 -1 133.638 126.638)" fill="#18A297"/>
<circle r="2.71251" transform="matrix(1 0 0 -1 149.912 126.638)" fill="#18A297"/>
<circle r="2.71251" transform="matrix(1 0 0 -1 166.188 126.638)" fill="#18A297"/>
<circle r="2.71251" transform="matrix(1 0 0 -1 182.463 126.638)" fill="#18A297"/>
<circle r="2.71251" transform="matrix(1 0 0 -1 198.738 126.638)" fill="#18A297"/>
<circle r="2.71251" transform="matrix(1 0 0 -1 215.013 126.638)" fill="#18A297"/>
<circle r="2.71251" transform="matrix(1 0 0 -1 231.287 126.638)" fill="#18A297"/>
<circle r="2.71251" transform="matrix(1 0 0 -1 19.712 110.363)" fill="#18A297"/>
<circle r="2.71251" transform="matrix(1 0 0 -1 35.9859 110.363)" fill="#18A297"/>
<circle r="2.71251" transform="matrix(1 0 0 -1 52.2628 110.363)" fill="#18A297"/>
<circle r="2.71251" transform="matrix(1 0 0 -1 68.5367 110.363)" fill="#18A297"/>
<circle r="2.71251" transform="matrix(1 0 0 -1 84.8131 110.363)" fill="#18A297"/>
<circle r="2.71251" transform="matrix(1 0 0 -1 101.088 110.363)" fill="#18A297"/>
<circle r="2.71251" transform="matrix(1 0 0 -1 117.361 110.363)" fill="#18A297"/>
<circle r="2.71251" transform="matrix(1 0 0 -1 133.638 110.363)" fill="#18A297"/>
<circle r="2.71251" transform="matrix(1 0 0 -1 149.912 110.363)" fill="#18A297"/>
<circle r="2.71251" transform="matrix(1 0 0 -1 166.188 110.363)" fill="#18A297"/>
<circle r="2.71251" transform="matrix(1 0 0 -1 182.463 110.363)" fill="#18A297"/>
<circle r="2.71251" transform="matrix(1 0 0 -1 198.738 110.363)" fill="#18A297"/>
<circle r="2.71251" transform="matrix(1 0 0 -1 215.013 110.363)" fill="#18A297"/>
<circle r="2.71251" transform="matrix(1 0 0 -1 231.287 110.363)" fill="#18A297"/>
<circle r="2.71251" transform="matrix(1 0 0 -1 19.712 94.0873)" fill="#18A297"/>
<circle r="2.71251" transform="matrix(1 0 0 -1 35.9859 94.0873)" fill="#18A297"/>
<circle r="2.71251" transform="matrix(1 0 0 -1 52.2628 94.0873)" fill="#18A297"/>
<circle r="2.71251" transform="matrix(1 0 0 -1 68.5367 94.0873)" fill="#18A297"/>
<circle r="2.71251" transform="matrix(1 0 0 -1 84.8131 94.0873)" fill="#18A297"/>
<circle r="2.71251" transform="matrix(1 0 0 -1 101.088 94.0873)" fill="#18A297"/>
<circle r="2.71251" transform="matrix(1 0 0 -1 117.361 94.0873)" fill="#18A297"/>
<circle r="2.71251" transform="matrix(1 0 0 -1 133.638 94.0873)" fill="#18A297"/>
<circle r="2.71251" transform="matrix(1 0 0 -1 149.912 94.0873)" fill="#18A297"/>
<circle r="2.71251" transform="matrix(1 0 0 -1 166.188 94.0873)" fill="#18A297"/>
<circle r="2.71251" transform="matrix(1 0 0 -1 182.463 94.0873)" fill="#18A297"/>
<circle r="2.71251" transform="matrix(1 0 0 -1 198.738 94.0873)" fill="#18A297"/>
<circle r="2.71251" transform="matrix(1 0 0 -1 215.013 94.0873)" fill="#18A297"/>
<circle r="2.71251" transform="matrix(1 0 0 -1 231.287 94.0873)" fill="#18A297"/>
<circle r="2.71251" transform="matrix(1 0 0 -1 19.712 77.8126)" fill="#18A297"/>
<circle r="2.71251" transform="matrix(1 0 0 -1 35.9859 77.8126)" fill="#18A297"/>
<circle r="2.71251" transform="matrix(1 0 0 -1 52.2628 77.8126)" fill="#18A297"/>
<circle r="2.71251" transform="matrix(1 0 0 -1 68.5367 77.8126)" fill="#18A297"/>
<circle r="2.71251" transform="matrix(1 0 0 -1 84.8131 77.8126)" fill="#18A297"/>
<circle r="2.71251" transform="matrix(1 0 0 -1 101.088 77.8126)" fill="#18A297"/>
<circle r="2.71251" transform="matrix(1 0 0 -1 117.361 77.8126)" fill="#18A297"/>
<circle r="2.71251" transform="matrix(1 0 0 -1 133.638 77.8126)" fill="#18A297"/>
<circle r="2.71251" transform="matrix(1 0 0 -1 149.912 77.8126)" fill="#18A297"/>
<circle r="2.71251" transform="matrix(1 0 0 -1 166.188 77.8126)" fill="#18A297"/>
<circle r="2.71251" transform="matrix(1 0 0 -1 182.463 77.8126)" fill="#18A297"/>
<circle r="2.71251" transform="matrix(1 0 0 -1 198.738 77.8126)" fill="#18A297"/>
<circle r="2.71251" transform="matrix(1 0 0 -1 215.013 77.8126)" fill="#18A297"/>
<circle r="2.71251" transform="matrix(1 0 0 -1 231.287 77.8126)" fill="#18A297"/>
<circle r="2.71251" transform="matrix(1 0 0 -1 19.712 61.5372)" fill="#18A297"/>
<circle r="2.71251" transform="matrix(1 0 0 -1 35.9859 61.5372)" fill="#18A297"/>
<circle r="2.71251" transform="matrix(1 0 0 -1 52.2628 61.5372)" fill="#18A297"/>
<circle r="2.71251" transform="matrix(1 0 0 -1 68.5367 61.5372)" fill="#18A297"/>
<circle r="2.71251" transform="matrix(1 0 0 -1 84.8131 61.5372)" fill="#18A297"/>
<circle r="2.71251" transform="matrix(1 0 0 -1 101.088 61.5372)" fill="#18A297"/>
<circle r="2.71251" transform="matrix(1 0 0 -1 117.361 61.5372)" fill="#18A297"/>
<circle r="2.71251" transform="matrix(1 0 0 -1 133.638 61.5372)" fill="#18A297"/>
<circle r="2.71251" transform="matrix(1 0 0 -1 149.912 61.5372)" fill="#18A297"/>
<circle r="2.71251" transform="matrix(1 0 0 -1 166.188 61.5372)" fill="#18A297"/>
<circle r="2.71251" transform="matrix(1 0 0 -1 182.463 61.5372)" fill="#18A297"/>
<circle r="2.71251" transform="matrix(1 0 0 -1 198.738 61.5372)" fill="#18A297"/>
<circle r="2.71251" transform="matrix(1 0 0 -1 215.013 61.5372)" fill="#18A297"/>
<circle r="2.71251" transform="matrix(1 0 0 -1 231.287 61.5372)" fill="#18A297"/>
<circle r="2.71251" transform="matrix(1 0 0 -1 19.712 45.2626)" fill="#18A297"/>
<circle r="2.71251" transform="matrix(1 0 0 -1 35.9859 45.2626)" fill="#18A297"/>
<circle r="2.71251" transform="matrix(1 0 0 -1 52.2628 45.2626)" fill="#18A297"/>
<circle r="2.71251" transform="matrix(1 0 0 -1 68.5367 45.2626)" fill="#18A297"/>
<circle r="2.71251" transform="matrix(1 0 0 -1 84.8131 45.2626)" fill="#18A297"/>
<circle r="2.71251" transform="matrix(1 0 0 -1 101.088 45.2626)" fill="#18A297"/>
<circle r="2.71251" transform="matrix(1 0 0 -1 117.361 45.2626)" fill="#18A297"/>
<circle r="2.71251" transform="matrix(1 0 0 -1 133.638 45.2626)" fill="#18A297"/>
<circle r="2.71251" transform="matrix(1 0 0 -1 149.912 45.2626)" fill="#18A297"/>
<circle r="2.71251" transform="matrix(1 0 0 -1 166.188 45.2626)" fill="#18A297"/>
<circle r="2.71251" transform="matrix(1 0 0 -1 182.463 45.2626)" fill="#18A297"/>
<circle r="2.71251" transform="matrix(1 0 0 -1 198.738 45.2626)" fill="#18A297"/>
<circle r="2.71251" transform="matrix(1 0 0 -1 215.013 45.2626)" fill="#18A297"/>
<circle r="2.71251" transform="matrix(1 0 0 -1 231.287 45.2626)" fill="#18A297"/>
<circle r="2.71251" transform="matrix(1 0 0 -1 19.712 28.9872)" fill="#18A297"/>
<circle r="2.71251" transform="matrix(1 0 0 -1 35.9859 28.9872)" fill="#18A297"/>
<circle r="2.71251" transform="matrix(1 0 0 -1 52.2628 28.9872)" fill="#18A297"/>
<circle r="2.71251" transform="matrix(1 0 0 -1 68.5367 28.9872)" fill="#18A297"/>
<circle r="2.71251" transform="matrix(1 0 0 -1 84.8131 28.9872)" fill="#18A297"/>
<circle r="2.71251" transform="matrix(1 0 0 -1 101.088 28.9872)" fill="#18A297"/>
<circle r="2.71251" transform="matrix(1 0 0 -1 117.361 28.9872)" fill="#18A297"/>
<circle r="2.71251" transform="matrix(1 0 0 -1 133.638 28.9872)" fill="#18A297"/>
<circle r="2.71251" transform="matrix(1 0 0 -1 149.912 28.9872)" fill="#18A297"/>
<circle r="2.71251" transform="matrix(1 0 0 -1 166.188 28.9872)" fill="#18A297"/>
<circle r="2.71251" transform="matrix(1 0 0 -1 182.463 28.9872)" fill="#18A297"/>
<circle r="2.71251" transform="matrix(1 0 0 -1 198.738 28.9872)" fill="#18A297"/>
<circle r="2.71251" transform="matrix(1 0 0 -1 215.013 28.9872)" fill="#18A297"/>
<circle r="2.71251" transform="matrix(1 0 0 -1 231.287 28.9872)" fill="#18A297"/>
<circle r="2.71251" transform="matrix(1 0 0 -1 19.712 12.7125)" fill="#18A297"/>
<circle r="2.71251" transform="matrix(1 0 0 -1 35.9859 12.7125)" fill="#18A297"/>
<circle r="2.71251" transform="matrix(1 0 0 -1 52.2628 12.7125)" fill="#18A297"/>
<circle r="2.71251" transform="matrix(1 0 0 -1 68.5367 12.7125)" fill="#18A297"/>
<circle r="2.71251" transform="matrix(1 0 0 -1 84.8131 12.7125)" fill="#18A297"/>
<circle r="2.71251" transform="matrix(1 0 0 -1 101.088 12.7125)" fill="#18A297"/>
<circle r="2.71251" transform="matrix(1 0 0 -1 117.361 12.7125)" fill="#18A297"/>
<circle r="2.71251" transform="matrix(1 0 0 -1 133.638 12.7125)" fill="#18A297"/>
<circle r="2.71251" transform="matrix(1 0 0 -1 149.912 12.7125)" fill="#18A297"/>
<circle r="2.71251" transform="matrix(1 0 0 -1 166.188 12.7125)" fill="#18A297"/>
<circle r="2.71251" transform="matrix(1 0 0 -1 182.463 12.7125)" fill="#18A297"/>
<circle r="2.71251" transform="matrix(1 0 0 -1 198.738 12.7125)" fill="#18A297"/>
<circle r="2.71251" transform="matrix(1 0 0 -1 215.013 12.7125)" fill="#18A297"/>
<circle r="2.71251" transform="matrix(1 0 0 -1 231.287 12.7125)" fill="#18A297"/>
</svg>
