<svg width="252" height="259" viewBox="0 0 252 259" fill="none" xmlns="http://www.w3.org/2000/svg">
<rect width="250" height="259" rx="15" fill="#1C2032"/>
<path d="M0 201.656H251.077V244C251.077 252.284 244.361 259 236.077 259H15C6.71571 259 0 252.284 0 244V201.656Z" fill="white"/>
<path d="M91.416 224V221.936H86.632V219.584H90.696V217.552H86.632V215.04H91.272V212.976H84.296V224H91.416ZM98.3033 221.536C97.9353 222 97.3913 222.24 96.6713 222.24C95.7913 222.24 94.9433 221.808 94.8313 220.992H100.303C100.319 220.736 100.335 220.512 100.335 220.304C100.335 219.136 99.9673 218.192 99.2313 217.472C98.5113 216.736 97.5993 216.368 96.5113 216.368C95.4073 216.368 94.4793 216.72 93.7273 217.44C92.9753 218.16 92.6073 219.088 92.6073 220.24C92.6073 221.392 92.9753 222.336 93.7273 223.072C94.4793 223.792 95.4073 224.16 96.5113 224.16C98.0953 224.16 99.2313 223.648 99.9193 222.64L98.3033 221.536ZM94.8633 219.6C95.2153 217.888 97.8713 217.904 98.0953 219.6H94.8633ZM104.076 221.392C104.076 219.408 104.7 218.416 105.932 218.416C106.38 218.416 106.764 218.496 107.068 218.64L107.468 216.64C107.1 216.464 106.684 216.368 106.188 216.368C105.34 216.368 104.444 217.04 104.076 218.336V216.528H101.852V224H104.076V221.392ZM108.618 216.528V224H110.826V216.528H108.618ZM109.722 212.464C108.954 212.464 108.33 213.04 108.33 213.76C108.33 214.48 108.954 215.072 109.722 215.072C110.474 215.072 111.082 214.48 111.082 213.76C111.082 213.04 110.474 212.464 109.722 212.464ZM118.116 221.536C117.748 222 117.204 222.24 116.484 222.24C115.604 222.24 114.756 221.808 114.644 220.992H120.116C120.132 220.736 120.148 220.512 120.148 220.304C120.148 219.136 119.78 218.192 119.044 217.472C118.324 216.736 117.412 216.368 116.324 216.368C115.22 216.368 114.292 216.72 113.54 217.44C112.788 218.16 112.42 219.088 112.42 220.24C112.42 221.392 112.788 222.336 113.54 223.072C114.292 223.792 115.22 224.16 116.324 224.16C117.908 224.16 119.044 223.648 119.732 222.64L118.116 221.536ZM114.676 219.6C115.028 217.888 117.684 217.904 117.908 219.6H114.676ZM133.523 216.048C133.523 214.176 132.243 212.976 130.259 212.976H125.843V224H130.579C131.651 224 132.499 223.68 133.139 223.024C133.779 222.368 134.099 221.568 134.099 220.624C134.099 220.112 133.923 219.616 133.555 219.12C133.203 218.624 132.691 218.288 132.019 218.112C133.059 217.712 133.523 216.88 133.523 216.048ZM128.195 215.04H130.019C130.707 215.04 131.059 215.488 131.059 216.192C131.059 216.848 130.627 217.328 130.035 217.328H128.195V215.04ZM130.403 219.264C131.171 219.264 131.635 219.888 131.635 220.576C131.635 221.296 131.203 221.936 130.451 221.936H128.195V219.264H130.403ZM135.758 224H137.982V212.464H135.758V224ZM147.768 224V216.528H145.56V217.36C145.048 216.64 144.088 216.368 143.384 216.368C142.376 216.368 141.496 216.736 140.728 217.456C139.96 218.176 139.576 219.104 139.576 220.256C139.576 221.408 139.96 222.352 140.728 223.072C141.496 223.792 142.376 224.144 143.384 224.144C143.736 224.144 144.136 224.064 144.568 223.888C145.016 223.712 145.352 223.472 145.56 223.152V224H147.768ZM143.752 222.032C143.256 222.032 142.824 221.872 142.44 221.536C142.072 221.2 141.88 220.768 141.88 220.256C141.88 219.744 142.072 219.328 142.44 218.992C142.824 218.656 143.256 218.48 143.752 218.48C144.712 218.48 145.56 219.184 145.56 220.256C145.56 221.328 144.712 222.032 143.752 222.032ZM153.437 216.368C152.333 216.368 151.373 216.736 150.573 217.456C149.773 218.176 149.373 219.104 149.373 220.24C149.373 221.376 149.773 222.32 150.573 223.056C151.373 223.792 152.333 224.16 153.437 224.16C154.781 224.16 155.981 223.568 156.685 222.56L154.877 221.28C154.557 221.776 154.077 222.032 153.437 222.032C152.941 222.032 152.509 221.872 152.141 221.536C151.773 221.2 151.581 220.768 151.581 220.24C151.581 219.728 151.773 219.312 152.141 218.992C152.509 218.656 152.941 218.496 153.437 218.496C154.077 218.496 154.557 218.752 154.877 219.248L156.685 217.952C155.965 216.944 154.765 216.368 153.437 216.368ZM162.931 224H165.667L161.939 219.824L165.043 216.528H162.211L160.435 218.576V212.464H158.227V224H160.435V221.04L162.931 224Z" fill="#202538"/>
<path opacity="0.6" d="M98.26 247H99.548L100.262 244.676H101.872L101.172 247H102.474L103.188 244.676H104.728L105.078 243.43H103.538L104.238 241.036H105.792L106.128 239.79H104.588L105.302 237.354H103.986L103.272 239.79H101.676L102.376 237.354H101.046L100.346 239.79H98.82L98.484 241.036H99.982L99.296 243.43H97.77L97.434 244.676H98.96L98.26 247ZM100.612 243.43L101.312 241.036H102.922L102.208 243.43H100.612ZM110.491 237.718L106.935 239.244V240.756L108.993 239.944V247H110.603V237.718H110.491ZM117.35 247.126C118.932 247.126 120.318 246.398 121.186 245.25L119.898 244.284C119.31 245.04 118.442 245.53 117.392 245.53C115.53 245.53 114.172 244.032 114.172 242.184C114.172 240.336 115.558 238.838 117.392 238.838C118.442 238.838 119.31 239.328 119.898 240.098L121.186 239.118C120.318 237.984 118.932 237.242 117.35 237.242C114.634 237.242 112.45 239.454 112.45 242.184C112.45 244.914 114.634 247.126 117.35 247.126ZM124.858 245.474L127.14 242.814C127.728 242.128 128.162 241.274 128.162 240.476C128.162 238.824 127 237.718 125.208 237.718C123.472 237.718 122.394 238.768 122.184 240.308L123.654 240.588C123.738 239.776 124.284 239.23 125.152 239.23C125.978 239.23 126.524 239.72 126.524 240.448C126.524 240.812 126.23 241.372 125.768 241.932L122.254 246.174V247H128.288V245.474H124.858ZM133.164 247.14C135.81 247.14 136.524 245.04 136.524 242.436C136.524 239.818 135.81 237.718 133.164 237.718C130.504 237.718 129.776 239.818 129.776 242.436C129.776 245.04 130.504 247.14 133.164 247.14ZM133.164 245.628C131.792 245.628 131.414 244.186 131.414 242.436C131.414 240.672 131.792 239.23 133.164 239.23C134.522 239.23 134.886 240.672 134.886 242.436C134.886 244.186 134.522 245.628 133.164 245.628ZM142.359 242.072C143.101 241.722 143.549 241.022 143.549 240.21C143.563 238.684 142.387 237.718 140.777 237.718C139.643 237.718 138.691 238.236 138.103 239.02L139.069 240.014C139.419 239.524 140.035 239.216 140.637 239.216C141.379 239.216 141.883 239.636 141.911 240.266C141.939 240.98 141.337 241.526 140.357 241.526H139.713V242.8H140.609C141.617 242.8 142.331 243.402 142.331 244.27C142.331 245.082 141.617 245.642 140.609 245.642C139.895 245.642 139.293 245.236 138.859 244.55L137.683 245.404C138.299 246.51 139.363 247.126 140.679 247.126C142.611 247.126 143.969 246.006 143.969 244.326C143.969 243.248 143.325 242.408 142.359 242.072ZM147.922 245.474L150.204 242.814C150.792 242.128 151.226 241.274 151.226 240.476C151.226 238.824 150.064 237.718 148.272 237.718C146.536 237.718 145.458 238.768 145.248 240.308L146.718 240.588C146.802 239.776 147.348 239.23 148.216 239.23C149.042 239.23 149.588 239.72 149.588 240.448C149.588 240.812 149.294 241.372 148.832 241.932L145.318 246.174V247H151.352V245.474H147.922Z" fill="#202538"/>
<circle r="2.71251" transform="matrix(1 0 0 -1 19.712 191.738)" fill="#252A42"/>
<circle r="2.71251" transform="matrix(1 0 0 -1 35.9859 191.738)" fill="#252A42"/>
<circle r="2.71251" transform="matrix(1 0 0 -1 52.2628 191.738)" fill="#252A42"/>
<circle r="2.71251" transform="matrix(1 0 0 -1 68.5367 191.738)" fill="#252A42"/>
<circle r="2.71251" transform="matrix(1 0 0 -1 84.8131 191.738)" fill="#252A42"/>
<circle r="2.71251" transform="matrix(1 0 0 -1 101.088 191.738)" fill="#252A42"/>
<circle r="2.71251" transform="matrix(1 0 0 -1 117.361 191.738)" fill="#252A42"/>
<circle r="2.71251" transform="matrix(1 0 0 -1 133.638 191.738)" fill="#252A42"/>
<circle r="2.71251" transform="matrix(1 0 0 -1 149.912 191.738)" fill="#252A42"/>
<circle r="2.71251" transform="matrix(1 0 0 -1 166.188 191.738)" fill="#252A42"/>
<circle r="2.71251" transform="matrix(1 0 0 -1 182.463 191.738)" fill="#252A42"/>
<circle r="2.71251" transform="matrix(1 0 0 -1 198.738 191.738)" fill="#252A42"/>
<circle r="2.71251" transform="matrix(1 0 0 -1 215.013 191.738)" fill="#252A42"/>
<circle r="2.71251" transform="matrix(1 0 0 -1 231.287 191.738)" fill="#252A42"/>
<circle r="2.71251" transform="matrix(1 0 0 -1 19.712 175.463)" fill="#252A42"/>
<circle r="2.71251" transform="matrix(1 0 0 -1 35.9859 175.463)" fill="#252A42"/>
<circle r="2.71251" transform="matrix(1 0 0 -1 52.2628 175.463)" fill="#252A42"/>
<circle r="2.71251" transform="matrix(1 0 0 -1 68.5367 175.463)" fill="#252A42"/>
<circle r="2.71251" transform="matrix(1 0 0 -1 84.8131 175.463)" fill="#252A42"/>
<circle r="2.71251" transform="matrix(1 0 0 -1 101.088 175.463)" fill="#252A42"/>
<circle r="2.71251" transform="matrix(1 0 0 -1 117.361 175.463)" fill="#252A42"/>
<circle r="2.71251" transform="matrix(1 0 0 -1 133.638 175.463)" fill="#252A42"/>
<circle r="2.71251" transform="matrix(1 0 0 -1 149.912 175.463)" fill="#252A42"/>
<circle r="2.71251" transform="matrix(1 0 0 -1 166.188 175.463)" fill="#252A42"/>
<circle r="2.71251" transform="matrix(1 0 0 -1 182.463 175.463)" fill="#252A42"/>
<circle r="2.71251" transform="matrix(1 0 0 -1 198.738 175.463)" fill="#252A42"/>
<circle r="2.71251" transform="matrix(1 0 0 -1 215.013 175.463)" fill="#252A42"/>
<circle r="2.71251" transform="matrix(1 0 0 -1 231.287 175.463)" fill="#252A42"/>
<circle r="2.71251" transform="matrix(1 0 0 -1 19.712 159.187)" fill="#252A42"/>
<circle r="2.71251" transform="matrix(1 0 0 -1 35.9859 159.187)" fill="#252A42"/>
<circle r="2.71251" transform="matrix(1 0 0 -1 52.2628 159.187)" fill="#252A42"/>
<circle r="2.71251" transform="matrix(1 0 0 -1 68.5367 159.187)" fill="#252A42"/>
<circle r="2.71251" transform="matrix(1 0 0 -1 84.8131 159.187)" fill="#252A42"/>
<circle r="2.71251" transform="matrix(1 0 0 -1 101.088 159.187)" fill="#252A42"/>
<circle r="2.71251" transform="matrix(1 0 0 -1 117.361 159.187)" fill="#252A42"/>
<circle r="2.71251" transform="matrix(1 0 0 -1 133.638 159.187)" fill="#252A42"/>
<circle r="2.71251" transform="matrix(1 0 0 -1 149.912 159.187)" fill="#252A42"/>
<circle r="2.71251" transform="matrix(1 0 0 -1 166.188 159.187)" fill="#252A42"/>
<circle r="2.71251" transform="matrix(1 0 0 -1 182.463 159.187)" fill="#252A42"/>
<circle r="2.71251" transform="matrix(1 0 0 -1 198.738 159.187)" fill="#252A42"/>
<circle r="2.71251" transform="matrix(1 0 0 -1 215.013 159.187)" fill="#252A42"/>
<circle r="2.71251" transform="matrix(1 0 0 -1 231.287 159.187)" fill="#252A42"/>
<circle r="2.71251" transform="matrix(1 0 0 -1 19.712 142.913)" fill="#252A42"/>
<circle r="2.71251" transform="matrix(1 0 0 -1 35.9859 142.913)" fill="#252A42"/>
<circle r="2.71251" transform="matrix(1 0 0 -1 52.2628 142.913)" fill="#252A42"/>
<circle r="2.71251" transform="matrix(1 0 0 -1 68.5367 142.913)" fill="#252A42"/>
<circle r="2.71251" transform="matrix(1 0 0 -1 84.8131 142.913)" fill="#252A42"/>
<circle r="2.71251" transform="matrix(1 0 0 -1 101.088 142.913)" fill="#252A42"/>
<circle r="2.71251" transform="matrix(1 0 0 -1 117.361 142.913)" fill="#252A42"/>
<circle r="2.71251" transform="matrix(1 0 0 -1 133.638 142.913)" fill="#252A42"/>
<circle r="2.71251" transform="matrix(1 0 0 -1 149.912 142.913)" fill="#252A42"/>
<circle r="2.71251" transform="matrix(1 0 0 -1 166.188 142.913)" fill="#252A42"/>
<circle r="2.71251" transform="matrix(1 0 0 -1 182.463 142.913)" fill="#252A42"/>
<circle r="2.71251" transform="matrix(1 0 0 -1 198.738 142.913)" fill="#252A42"/>
<circle r="2.71251" transform="matrix(1 0 0 -1 215.013 142.913)" fill="#252A42"/>
<circle r="2.71251" transform="matrix(1 0 0 -1 231.287 142.913)" fill="#252A42"/>
<circle r="2.71251" transform="matrix(1 0 0 -1 19.712 126.638)" fill="#252A42"/>
<circle r="2.71251" transform="matrix(1 0 0 -1 35.9859 126.638)" fill="#252A42"/>
<circle r="2.71251" transform="matrix(1 0 0 -1 52.2628 126.638)" fill="#252A42"/>
<circle r="2.71251" transform="matrix(1 0 0 -1 68.5367 126.638)" fill="#252A42"/>
<circle r="2.71251" transform="matrix(1 0 0 -1 84.8131 126.638)" fill="#252A42"/>
<circle r="2.71251" transform="matrix(1 0 0 -1 101.088 126.638)" fill="#252A42"/>
<circle r="2.71251" transform="matrix(1 0 0 -1 117.361 126.638)" fill="#252A42"/>
<circle r="2.71251" transform="matrix(1 0 0 -1 133.638 126.638)" fill="#252A42"/>
<circle r="2.71251" transform="matrix(1 0 0 -1 149.912 126.638)" fill="#252A42"/>
<circle r="2.71251" transform="matrix(1 0 0 -1 166.188 126.638)" fill="#252A42"/>
<circle r="2.71251" transform="matrix(1 0 0 -1 182.463 126.638)" fill="#252A42"/>
<circle r="2.71251" transform="matrix(1 0 0 -1 198.738 126.638)" fill="#252A42"/>
<circle r="2.71251" transform="matrix(1 0 0 -1 215.013 126.638)" fill="#252A42"/>
<circle r="2.71251" transform="matrix(1 0 0 -1 231.287 126.638)" fill="#252A42"/>
<circle r="2.71251" transform="matrix(1 0 0 -1 19.712 110.363)" fill="#252A42"/>
<circle r="2.71251" transform="matrix(1 0 0 -1 35.9859 110.363)" fill="#252A42"/>
<circle r="2.71251" transform="matrix(1 0 0 -1 52.2628 110.363)" fill="#252A42"/>
<circle r="2.71251" transform="matrix(1 0 0 -1 68.5367 110.363)" fill="#252A42"/>
<circle r="2.71251" transform="matrix(1 0 0 -1 84.8131 110.363)" fill="#252A42"/>
<circle r="2.71251" transform="matrix(1 0 0 -1 101.088 110.363)" fill="#252A42"/>
<circle r="2.71251" transform="matrix(1 0 0 -1 117.361 110.363)" fill="#252A42"/>
<circle r="2.71251" transform="matrix(1 0 0 -1 133.638 110.363)" fill="#252A42"/>
<circle r="2.71251" transform="matrix(1 0 0 -1 149.912 110.363)" fill="#252A42"/>
<circle r="2.71251" transform="matrix(1 0 0 -1 166.188 110.363)" fill="#252A42"/>
<circle r="2.71251" transform="matrix(1 0 0 -1 182.463 110.363)" fill="#252A42"/>
<circle r="2.71251" transform="matrix(1 0 0 -1 198.738 110.363)" fill="#252A42"/>
<circle r="2.71251" transform="matrix(1 0 0 -1 215.013 110.363)" fill="#252A42"/>
<circle r="2.71251" transform="matrix(1 0 0 -1 231.287 110.363)" fill="#252A42"/>
<circle r="2.71251" transform="matrix(1 0 0 -1 19.712 94.0873)" fill="#252A42"/>
<circle r="2.71251" transform="matrix(1 0 0 -1 35.9859 94.0873)" fill="#252A42"/>
<circle r="2.71251" transform="matrix(1 0 0 -1 52.2628 94.0873)" fill="#252A42"/>
<circle r="2.71251" transform="matrix(1 0 0 -1 68.5367 94.0873)" fill="#252A42"/>
<circle r="2.71251" transform="matrix(1 0 0 -1 84.8131 94.0873)" fill="#252A42"/>
<circle r="2.71251" transform="matrix(1 0 0 -1 101.088 94.0873)" fill="#252A42"/>
<circle r="2.71251" transform="matrix(1 0 0 -1 117.361 94.0873)" fill="#252A42"/>
<circle r="2.71251" transform="matrix(1 0 0 -1 133.638 94.0873)" fill="#252A42"/>
<circle r="2.71251" transform="matrix(1 0 0 -1 149.912 94.0873)" fill="#252A42"/>
<circle r="2.71251" transform="matrix(1 0 0 -1 166.188 94.0873)" fill="#252A42"/>
<circle r="2.71251" transform="matrix(1 0 0 -1 182.463 94.0873)" fill="#252A42"/>
<circle r="2.71251" transform="matrix(1 0 0 -1 198.738 94.0873)" fill="#252A42"/>
<circle r="2.71251" transform="matrix(1 0 0 -1 215.013 94.0873)" fill="#252A42"/>
<circle r="2.71251" transform="matrix(1 0 0 -1 231.287 94.0873)" fill="#252A42"/>
<circle r="2.71251" transform="matrix(1 0 0 -1 19.712 77.8126)" fill="#252A42"/>
<circle r="2.71251" transform="matrix(1 0 0 -1 35.9859 77.8126)" fill="#252A42"/>
<circle r="2.71251" transform="matrix(1 0 0 -1 52.2628 77.8126)" fill="#252A42"/>
<circle r="2.71251" transform="matrix(1 0 0 -1 68.5367 77.8126)" fill="#252A42"/>
<circle r="2.71251" transform="matrix(1 0 0 -1 84.8131 77.8126)" fill="#252A42"/>
<circle r="2.71251" transform="matrix(1 0 0 -1 101.088 77.8126)" fill="#252A42"/>
<circle r="2.71251" transform="matrix(1 0 0 -1 117.361 77.8126)" fill="#252A42"/>
<circle r="2.71251" transform="matrix(1 0 0 -1 133.638 77.8126)" fill="#252A42"/>
<circle r="2.71251" transform="matrix(1 0 0 -1 149.912 77.8126)" fill="#252A42"/>
<circle r="2.71251" transform="matrix(1 0 0 -1 166.188 77.8126)" fill="#252A42"/>
<circle r="2.71251" transform="matrix(1 0 0 -1 182.463 77.8126)" fill="#252A42"/>
<circle r="2.71251" transform="matrix(1 0 0 -1 198.738 77.8126)" fill="#252A42"/>
<circle r="2.71251" transform="matrix(1 0 0 -1 215.013 77.8126)" fill="#252A42"/>
<circle r="2.71251" transform="matrix(1 0 0 -1 231.287 77.8126)" fill="#252A42"/>
<circle r="2.71251" transform="matrix(1 0 0 -1 19.712 61.5372)" fill="#252A42"/>
<circle r="2.71251" transform="matrix(1 0 0 -1 35.9859 61.5372)" fill="#252A42"/>
<circle r="2.71251" transform="matrix(1 0 0 -1 52.2628 61.5372)" fill="#252A42"/>
<circle r="2.71251" transform="matrix(1 0 0 -1 68.5367 61.5372)" fill="#252A42"/>
<circle r="2.71251" transform="matrix(1 0 0 -1 84.8131 61.5372)" fill="#252A42"/>
<circle r="2.71251" transform="matrix(1 0 0 -1 101.088 61.5372)" fill="#252A42"/>
<circle r="2.71251" transform="matrix(1 0 0 -1 117.361 61.5372)" fill="#252A42"/>
<circle r="2.71251" transform="matrix(1 0 0 -1 133.638 61.5372)" fill="#252A42"/>
<circle r="2.71251" transform="matrix(1 0 0 -1 149.912 61.5372)" fill="#252A42"/>
<circle r="2.71251" transform="matrix(1 0 0 -1 166.188 61.5372)" fill="#252A42"/>
<circle r="2.71251" transform="matrix(1 0 0 -1 182.463 61.5372)" fill="#252A42"/>
<circle r="2.71251" transform="matrix(1 0 0 -1 198.738 61.5372)" fill="#252A42"/>
<circle r="2.71251" transform="matrix(1 0 0 -1 215.013 61.5372)" fill="#252A42"/>
<circle r="2.71251" transform="matrix(1 0 0 -1 231.287 61.5372)" fill="#252A42"/>
<circle r="2.71251" transform="matrix(1 0 0 -1 19.712 45.2626)" fill="#252A42"/>
<circle r="2.71251" transform="matrix(1 0 0 -1 35.9859 45.2626)" fill="#252A42"/>
<circle r="2.71251" transform="matrix(1 0 0 -1 52.2628 45.2626)" fill="#252A42"/>
<circle r="2.71251" transform="matrix(1 0 0 -1 68.5367 45.2626)" fill="#252A42"/>
<circle r="2.71251" transform="matrix(1 0 0 -1 84.8131 45.2626)" fill="#252A42"/>
<circle r="2.71251" transform="matrix(1 0 0 -1 101.088 45.2626)" fill="#252A42"/>
<circle r="2.71251" transform="matrix(1 0 0 -1 117.361 45.2626)" fill="#252A42"/>
<circle r="2.71251" transform="matrix(1 0 0 -1 133.638 45.2626)" fill="#252A42"/>
<circle r="2.71251" transform="matrix(1 0 0 -1 149.912 45.2626)" fill="#252A42"/>
<circle r="2.71251" transform="matrix(1 0 0 -1 166.188 45.2626)" fill="#252A42"/>
<circle r="2.71251" transform="matrix(1 0 0 -1 182.463 45.2626)" fill="#252A42"/>
<circle r="2.71251" transform="matrix(1 0 0 -1 198.738 45.2626)" fill="#252A42"/>
<circle r="2.71251" transform="matrix(1 0 0 -1 215.013 45.2626)" fill="#252A42"/>
<circle r="2.71251" transform="matrix(1 0 0 -1 231.287 45.2626)" fill="#252A42"/>
<circle r="2.71251" transform="matrix(1 0 0 -1 19.712 28.9872)" fill="#252A42"/>
<circle r="2.71251" transform="matrix(1 0 0 -1 35.9859 28.9872)" fill="#252A42"/>
<circle r="2.71251" transform="matrix(1 0 0 -1 52.2628 28.9872)" fill="#252A42"/>
<circle r="2.71251" transform="matrix(1 0 0 -1 68.5367 28.9872)" fill="#252A42"/>
<circle r="2.71251" transform="matrix(1 0 0 -1 84.8131 28.9872)" fill="#252A42"/>
<circle r="2.71251" transform="matrix(1 0 0 -1 101.088 28.9872)" fill="#252A42"/>
<circle r="2.71251" transform="matrix(1 0 0 -1 117.361 28.9872)" fill="#252A42"/>
<circle r="2.71251" transform="matrix(1 0 0 -1 133.638 28.9872)" fill="#252A42"/>
<circle r="2.71251" transform="matrix(1 0 0 -1 149.912 28.9872)" fill="#252A42"/>
<circle r="2.71251" transform="matrix(1 0 0 -1 166.188 28.9872)" fill="#252A42"/>
<circle r="2.71251" transform="matrix(1 0 0 -1 182.463 28.9872)" fill="#252A42"/>
<circle r="2.71251" transform="matrix(1 0 0 -1 198.738 28.9872)" fill="#252A42"/>
<circle r="2.71251" transform="matrix(1 0 0 -1 215.013 28.9872)" fill="#252A42"/>
<circle r="2.71251" transform="matrix(1 0 0 -1 231.287 28.9872)" fill="#252A42"/>
<circle r="2.71251" transform="matrix(1 0 0 -1 19.712 12.7125)" fill="#252A42"/>
<circle r="2.71251" transform="matrix(1 0 0 -1 35.9859 12.7125)" fill="#252A42"/>
<circle r="2.71251" transform="matrix(1 0 0 -1 52.2628 12.7125)" fill="#252A42"/>
<circle r="2.71251" transform="matrix(1 0 0 -1 68.5367 12.7125)" fill="#252A42"/>
<circle r="2.71251" transform="matrix(1 0 0 -1 84.8131 12.7125)" fill="#252A42"/>
<circle r="2.71251" transform="matrix(1 0 0 -1 101.088 12.7125)" fill="#252A42"/>
<circle r="2.71251" transform="matrix(1 0 0 -1 117.361 12.7125)" fill="#252A42"/>
<circle r="2.71251" transform="matrix(1 0 0 -1 133.638 12.7125)" fill="#252A42"/>
<circle r="2.71251" transform="matrix(1 0 0 -1 149.912 12.7125)" fill="#252A42"/>
<circle r="2.71251" transform="matrix(1 0 0 -1 166.188 12.7125)" fill="#252A42"/>
<circle r="2.71251" transform="matrix(1 0 0 -1 182.463 12.7125)" fill="#252A42"/>
<circle r="2.71251" transform="matrix(1 0 0 -1 198.738 12.7125)" fill="#252A42"/>
<circle r="2.71251" transform="matrix(1 0 0 -1 215.013 12.7125)" fill="#252A42"/>
<circle r="2.71251" transform="matrix(1 0 0 -1 231.287 12.7125)" fill="#252A42"/>
</svg>
