<svg width="135" height="80" viewBox="0 0 135 80" fill="none" xmlns="http://www.w3.org/2000/svg">
<g filter="url(#filter0_d)">
<rect x="15" y="5" width="105" height="50" rx="10" fill="#F1FBFA"/>
</g>
<path d="M41.416 36V33.936H36.632V31.584H40.696V29.552H36.632V27.04H41.272V24.976H34.296V36H41.416ZM51.3581 30.528C52.0621 30.528 52.5901 31.072 52.5901 32.016V36H54.7981V31.76C54.7981 29.536 53.7261 28.368 51.9181 28.368C50.9741 28.368 50.2221 28.816 49.6781 29.696C49.2621 28.816 48.4621 28.384 47.2781 28.384C46.4461 28.384 45.6621 28.848 45.3261 29.616V28.528H43.1021V36H45.3261V32.048C45.3261 30.976 45.8701 30.528 46.6221 30.528C47.3101 30.528 47.8381 31.072 47.8541 31.968V36H50.0781V32.048C50.0781 31.024 50.5901 30.528 51.3581 30.528ZM64.5024 36V28.528H62.2944V29.36C61.7824 28.64 60.8224 28.368 60.1184 28.368C59.1104 28.368 58.2304 28.736 57.4624 29.456C56.6944 30.176 56.3104 31.104 56.3104 32.256C56.3104 33.408 56.6944 34.352 57.4624 35.072C58.2304 35.792 59.1104 36.144 60.1184 36.144C60.4704 36.144 60.8704 36.064 61.3024 35.888C61.7504 35.712 62.0864 35.472 62.2944 35.152V36H64.5024ZM60.4864 34.032C59.9904 34.032 59.5584 33.872 59.1744 33.536C58.8064 33.2 58.6144 32.768 58.6144 32.256C58.6144 31.744 58.8064 31.328 59.1744 30.992C59.5584 30.656 59.9904 30.48 60.4864 30.48C61.4464 30.48 62.2944 31.184 62.2944 32.256C62.2944 33.328 61.4464 34.032 60.4864 34.032ZM66.5553 28.528V36H68.7633V28.528H66.5553ZM67.6593 24.464C66.8913 24.464 66.2673 25.04 66.2673 25.76C66.2673 26.48 66.8913 27.072 67.6593 27.072C68.4113 27.072 69.0193 26.48 69.0193 25.76C69.0193 25.04 68.4113 24.464 67.6593 24.464ZM70.8053 36H73.0293V24.464H70.8053V36ZM81.9371 24.976H80.0011L78.6411 36H80.9931L81.7771 29.392L84.3691 34.736H86.1771L88.7531 29.392L89.5211 36H91.8731L90.5291 24.976H88.5611L85.2651 32.08L81.9371 24.976ZM98.7251 33.536C98.3571 34 97.8131 34.24 97.0931 34.24C96.2131 34.24 95.3651 33.808 95.2531 32.992H100.725C100.741 32.736 100.757 32.512 100.757 32.304C100.757 31.136 100.389 30.192 99.6531 29.472C98.9331 28.736 98.0211 28.368 96.9331 28.368C95.8291 28.368 94.9011 28.72 94.1491 29.44C93.3971 30.16 93.0291 31.088 93.0291 32.24C93.0291 33.392 93.3971 34.336 94.1491 35.072C94.9011 35.792 95.8291 36.16 96.9331 36.16C98.5171 36.16 99.6531 35.648 100.341 34.64L98.7251 33.536ZM95.2851 31.6C95.6371 29.888 98.2931 29.904 98.5171 31.6H95.2851Z" fill="#4ECDC4"/>
<defs>
<filter id="filter0_d" x="0" y="0" width="135" height="80" filterUnits="userSpaceOnUse" color-interpolation-filters="sRGB">
<feFlood flood-opacity="0" result="BackgroundImageFix"/>
<feColorMatrix in="SourceAlpha" type="matrix" values="0 0 0 0 0 0 0 0 0 0 0 0 0 0 0 0 0 0 127 0"/>
<feOffset dy="10"/>
<feGaussianBlur stdDeviation="7.5"/>
<feColorMatrix type="matrix" values="0 0 0 0 0 0 0 0 0 0 0 0 0 0 0 0 0 0 0.09 0"/>
<feBlend mode="normal" in2="BackgroundImageFix" result="effect1_dropShadow"/>
<feBlend mode="normal" in="SourceGraphic" in2="effect1_dropShadow" result="shape"/>
</filter>
</defs>
</svg>
