<svg width="252" height="259" viewBox="0 0 252 259" fill="none" xmlns="http://www.w3.org/2000/svg">
<rect width="250" height="259" rx="15" fill="#F3F3F3"/>
<path d="M0 201.656H251.077V244C251.077 252.284 244.361 259 236.077 259H15C6.71571 259 0 252.284 0 244V201.656Z" fill="white"/>
<path d="M69.264 215.52L70.432 219.36H68.144L69.264 215.52ZM72.16 224H74.624L70.544 212.976H68L63.904 224H66.4L67.376 221.392H71.184L72.16 224ZM77.7949 220.048C77.7949 219.04 78.2589 218.528 79.1709 218.528C79.9549 218.528 80.4669 219.056 80.4669 220.016V224H82.6909V219.536C82.6909 217.44 81.6829 216.368 79.9549 216.368C79.0749 216.368 78.1949 216.864 77.7949 217.616V216.528H75.5709V224H77.7949V220.048ZM87.5766 213.664H85.3686V216.528H84.0086V218.288H85.3686V224H87.5766V218.288H89.1446V216.528H87.5766V213.664ZM90.5084 216.528V224H92.7164V216.528H90.5084ZM91.6124 212.464C90.8444 212.464 90.2204 213.04 90.2204 213.76C90.2204 214.48 90.8444 215.072 91.6124 215.072C92.3644 215.072 92.9724 214.48 92.9724 213.76C92.9724 213.04 92.3644 212.464 91.6124 212.464ZM100.358 220.944V219.184H94.7104V220.944H100.358ZM104.976 224V219.6H108.576V217.552H104.976V215.04H109.52V212.976H102.624V224H104.976ZM110.962 224H113.186V212.464H110.962V224ZM122.971 224V216.528H120.763V217.36C120.251 216.64 119.291 216.368 118.587 216.368C117.579 216.368 116.699 216.736 115.931 217.456C115.163 218.176 114.779 219.104 114.779 220.256C114.779 221.408 115.163 222.352 115.931 223.072C116.699 223.792 117.579 224.144 118.587 224.144C118.939 224.144 119.339 224.064 119.771 223.888C120.219 223.712 120.555 223.472 120.763 223.152V224H122.971ZM118.955 222.032C118.459 222.032 118.027 221.872 117.643 221.536C117.275 221.2 117.083 220.768 117.083 220.256C117.083 219.744 117.275 219.328 117.643 218.992C118.027 218.656 118.459 218.48 118.955 218.48C119.915 218.48 120.763 219.184 120.763 220.256C120.763 221.328 119.915 222.032 118.955 222.032ZM127.936 221.184C128.464 221.328 128.672 221.504 128.672 221.824C128.672 222.192 128.272 222.432 127.76 222.448C127.168 222.448 126.672 222.032 126.656 221.584H124.576C124.592 222.368 124.896 223.008 125.52 223.472C126.144 223.936 126.88 224.16 127.696 224.16C128.56 224.16 129.312 223.952 129.952 223.552C130.608 223.152 130.928 222.576 130.928 221.824C130.928 221.376 130.864 220.96 130.208 220.336C129.888 220.032 129.456 219.792 128.896 219.648L127.632 219.312C127.216 219.2 126.992 219.024 126.976 218.752C126.96 218.416 127.264 218.192 127.76 218.192C128.32 218.192 128.592 218.416 128.608 218.848H130.704C130.688 218 130.384 217.376 129.792 216.976C129.2 216.576 128.48 216.368 127.632 216.368C126.848 216.368 126.176 216.592 125.6 217.024C125.024 217.456 124.736 217.936 124.72 218.496C124.704 218.96 124.736 219.216 124.976 219.728C125.232 220.224 125.92 220.656 126.96 220.928L127.936 221.184ZM134.717 220.048C134.717 219.008 135.389 218.528 136.205 218.528C136.925 218.528 137.581 219.104 137.581 220.016V224H139.805V219.936C139.805 217.648 138.749 216.368 136.813 216.368C136.413 216.368 135.997 216.48 135.565 216.72C135.133 216.944 134.861 217.264 134.717 217.696V212.464H132.493V224H134.717V220.048ZM152.189 214.528H150.269L148.797 219.92L146.653 212.976H144.125L147.837 224H149.693L151.213 218.208L152.765 224H154.605L158.349 212.976H155.805L153.645 219.92L152.189 214.528ZM161.561 220.048C161.561 219.008 162.233 218.528 163.049 218.528C163.769 218.528 164.425 219.104 164.425 220.016V224H166.649V219.936C166.649 217.648 165.593 216.368 163.657 216.368C163.257 216.368 162.841 216.48 162.409 216.72C161.977 216.944 161.705 217.264 161.561 217.696V212.464H159.337V224H161.561V220.048ZM168.602 216.528V224H170.81V216.528H168.602ZM169.706 212.464C168.938 212.464 168.314 213.04 168.314 213.76C168.314 214.48 168.938 215.072 169.706 215.072C170.458 215.072 171.066 214.48 171.066 213.76C171.066 213.04 170.458 212.464 169.706 212.464ZM175.764 213.664H173.556V216.528H172.196V218.288H173.556V224H175.764V218.288H177.332V216.528H175.764V213.664ZM183.835 221.536C183.467 222 182.923 222.24 182.203 222.24C181.323 222.24 180.475 221.808 180.363 220.992H185.835C185.851 220.736 185.867 220.512 185.867 220.304C185.867 219.136 185.499 218.192 184.763 217.472C184.043 216.736 183.131 216.368 182.043 216.368C180.939 216.368 180.011 216.72 179.259 217.44C178.507 218.16 178.139 219.088 178.139 220.24C178.139 221.392 178.507 222.336 179.259 223.072C180.011 223.792 180.939 224.16 182.043 224.16C183.627 224.16 184.763 223.648 185.451 222.64L183.835 221.536ZM180.395 219.6C180.747 217.888 183.403 217.904 183.627 219.6H180.395Z" fill="#202538"/>
<path opacity="0.6" d="M100.26 247H101.548L102.262 244.676H103.872L103.172 247H104.474L105.188 244.676H106.728L107.078 243.43H105.538L106.238 241.036H107.792L108.128 239.79H106.588L107.302 237.354H105.986L105.272 239.79H103.676L104.376 237.354H103.046L102.346 239.79H100.82L100.484 241.036H101.982L101.296 243.43H99.77L99.434 244.676H100.96L100.26 247ZM102.612 243.43L103.312 241.036H104.922L104.208 243.43H102.612ZM115.641 238.88V237.354H109.789V247H111.497V243.024H114.773V241.498H111.497V238.88H115.641ZM121.062 242.072C121.804 241.722 122.252 241.022 122.252 240.21C122.266 238.684 121.09 237.718 119.48 237.718C118.346 237.718 117.394 238.236 116.806 239.02L117.772 240.014C118.122 239.524 118.738 239.216 119.34 239.216C120.082 239.216 120.586 239.636 120.614 240.266C120.642 240.98 120.04 241.526 119.06 241.526H118.416V242.8H119.312C120.32 242.8 121.034 243.402 121.034 244.27C121.034 245.082 120.32 245.642 119.312 245.642C118.598 245.642 117.996 245.236 117.562 244.55L116.386 245.404C117.002 246.51 118.066 247.126 119.382 247.126C121.314 247.126 122.672 246.006 122.672 244.326C122.672 243.248 122.028 242.408 121.062 242.072ZM130.434 238.88V237.354H124.582V247H126.29V243.024H129.566V241.498H126.29V238.88H130.434ZM135.855 242.072C136.597 241.722 137.045 241.022 137.045 240.21C137.059 238.684 135.883 237.718 134.273 237.718C133.139 237.718 132.187 238.236 131.599 239.02L132.565 240.014C132.915 239.524 133.531 239.216 134.133 239.216C134.875 239.216 135.379 239.636 135.407 240.266C135.435 240.98 134.833 241.526 133.853 241.526H133.209V242.8H134.105C135.113 242.8 135.827 243.402 135.827 244.27C135.827 245.082 135.113 245.642 134.105 245.642C133.391 245.642 132.789 245.236 132.355 244.55L131.179 245.404C131.795 246.51 132.859 247.126 134.175 247.126C136.107 247.126 137.465 246.006 137.465 244.326C137.465 243.248 136.821 242.408 135.855 242.072ZM145.227 238.88V237.354H139.375V247H141.083V243.024H144.359V241.498H141.083V238.88H145.227ZM150.648 242.072C151.39 241.722 151.838 241.022 151.838 240.21C151.852 238.684 150.676 237.718 149.066 237.718C147.932 237.718 146.98 238.236 146.392 239.02L147.358 240.014C147.708 239.524 148.324 239.216 148.926 239.216C149.668 239.216 150.172 239.636 150.2 240.266C150.228 240.98 149.626 241.526 148.646 241.526H148.002V242.8H148.898C149.906 242.8 150.62 243.402 150.62 244.27C150.62 245.082 149.906 245.642 148.898 245.642C148.184 245.642 147.582 245.236 147.148 244.55L145.972 245.404C146.588 246.51 147.652 247.126 148.968 247.126C150.9 247.126 152.258 246.006 152.258 244.326C152.258 243.248 151.614 242.408 150.648 242.072Z" fill="#202538"/>
<circle r="2.71251" transform="matrix(1 0 0 -1 19.712 191.738)" fill="#EAE8E8"/>
<circle r="2.71251" transform="matrix(1 0 0 -1 35.9859 191.738)" fill="#EAE8E8"/>
<circle r="2.71251" transform="matrix(1 0 0 -1 52.2628 191.738)" fill="#EAE8E8"/>
<circle r="2.71251" transform="matrix(1 0 0 -1 68.5367 191.738)" fill="#EAE8E8"/>
<circle r="2.71251" transform="matrix(1 0 0 -1 84.8131 191.738)" fill="#EAE8E8"/>
<circle r="2.71251" transform="matrix(1 0 0 -1 101.088 191.738)" fill="#EAE8E8"/>
<circle r="2.71251" transform="matrix(1 0 0 -1 117.361 191.738)" fill="#EAE8E8"/>
<circle r="2.71251" transform="matrix(1 0 0 -1 133.638 191.738)" fill="#EAE8E8"/>
<circle r="2.71251" transform="matrix(1 0 0 -1 149.912 191.738)" fill="#EAE8E8"/>
<circle r="2.71251" transform="matrix(1 0 0 -1 166.188 191.738)" fill="#EAE8E8"/>
<circle r="2.71251" transform="matrix(1 0 0 -1 182.463 191.738)" fill="#EAE8E8"/>
<circle r="2.71251" transform="matrix(1 0 0 -1 198.738 191.738)" fill="#EAE8E8"/>
<circle r="2.71251" transform="matrix(1 0 0 -1 215.013 191.738)" fill="#EAE8E8"/>
<circle r="2.71251" transform="matrix(1 0 0 -1 231.287 191.738)" fill="#EAE8E8"/>
<circle r="2.71251" transform="matrix(1 0 0 -1 19.712 175.463)" fill="#EAE8E8"/>
<circle r="2.71251" transform="matrix(1 0 0 -1 35.9859 175.463)" fill="#EAE8E8"/>
<circle r="2.71251" transform="matrix(1 0 0 -1 52.2628 175.463)" fill="#EAE8E8"/>
<circle r="2.71251" transform="matrix(1 0 0 -1 68.5367 175.463)" fill="#EAE8E8"/>
<circle r="2.71251" transform="matrix(1 0 0 -1 84.8131 175.463)" fill="#EAE8E8"/>
<circle r="2.71251" transform="matrix(1 0 0 -1 101.088 175.463)" fill="#EAE8E8"/>
<circle r="2.71251" transform="matrix(1 0 0 -1 117.361 175.463)" fill="#EAE8E8"/>
<circle r="2.71251" transform="matrix(1 0 0 -1 133.638 175.463)" fill="#EAE8E8"/>
<circle r="2.71251" transform="matrix(1 0 0 -1 149.912 175.463)" fill="#EAE8E8"/>
<circle r="2.71251" transform="matrix(1 0 0 -1 166.188 175.463)" fill="#EAE8E8"/>
<circle r="2.71251" transform="matrix(1 0 0 -1 182.463 175.463)" fill="#EAE8E8"/>
<circle r="2.71251" transform="matrix(1 0 0 -1 198.738 175.463)" fill="#EAE8E8"/>
<circle r="2.71251" transform="matrix(1 0 0 -1 215.013 175.463)" fill="#EAE8E8"/>
<circle r="2.71251" transform="matrix(1 0 0 -1 231.287 175.463)" fill="#EAE8E8"/>
<circle r="2.71251" transform="matrix(1 0 0 -1 19.712 159.187)" fill="#EAE8E8"/>
<circle r="2.71251" transform="matrix(1 0 0 -1 35.9859 159.187)" fill="#EAE8E8"/>
<circle r="2.71251" transform="matrix(1 0 0 -1 52.2628 159.187)" fill="#EAE8E8"/>
<circle r="2.71251" transform="matrix(1 0 0 -1 68.5367 159.187)" fill="#EAE8E8"/>
<circle r="2.71251" transform="matrix(1 0 0 -1 84.8131 159.187)" fill="#EAE8E8"/>
<circle r="2.71251" transform="matrix(1 0 0 -1 101.088 159.187)" fill="#EAE8E8"/>
<circle r="2.71251" transform="matrix(1 0 0 -1 117.361 159.187)" fill="#EAE8E8"/>
<circle r="2.71251" transform="matrix(1 0 0 -1 133.638 159.187)" fill="#EAE8E8"/>
<circle r="2.71251" transform="matrix(1 0 0 -1 149.912 159.187)" fill="#EAE8E8"/>
<circle r="2.71251" transform="matrix(1 0 0 -1 166.188 159.187)" fill="#EAE8E8"/>
<circle r="2.71251" transform="matrix(1 0 0 -1 182.463 159.187)" fill="#EAE8E8"/>
<circle r="2.71251" transform="matrix(1 0 0 -1 198.738 159.187)" fill="#EAE8E8"/>
<circle r="2.71251" transform="matrix(1 0 0 -1 215.013 159.187)" fill="#EAE8E8"/>
<circle r="2.71251" transform="matrix(1 0 0 -1 231.287 159.187)" fill="#EAE8E8"/>
<circle r="2.71251" transform="matrix(1 0 0 -1 19.712 142.913)" fill="#EAE8E8"/>
<circle r="2.71251" transform="matrix(1 0 0 -1 35.9859 142.913)" fill="#EAE8E8"/>
<circle r="2.71251" transform="matrix(1 0 0 -1 52.2628 142.913)" fill="#EAE8E8"/>
<circle r="2.71251" transform="matrix(1 0 0 -1 68.5367 142.913)" fill="#EAE8E8"/>
<circle r="2.71251" transform="matrix(1 0 0 -1 84.8131 142.913)" fill="#EAE8E8"/>
<circle r="2.71251" transform="matrix(1 0 0 -1 101.088 142.913)" fill="#EAE8E8"/>
<circle r="2.71251" transform="matrix(1 0 0 -1 117.361 142.913)" fill="#EAE8E8"/>
<circle r="2.71251" transform="matrix(1 0 0 -1 133.638 142.913)" fill="#EAE8E8"/>
<circle r="2.71251" transform="matrix(1 0 0 -1 149.912 142.913)" fill="#EAE8E8"/>
<circle r="2.71251" transform="matrix(1 0 0 -1 166.188 142.913)" fill="#EAE8E8"/>
<circle r="2.71251" transform="matrix(1 0 0 -1 182.463 142.913)" fill="#EAE8E8"/>
<circle r="2.71251" transform="matrix(1 0 0 -1 198.738 142.913)" fill="#EAE8E8"/>
<circle r="2.71251" transform="matrix(1 0 0 -1 215.013 142.913)" fill="#EAE8E8"/>
<circle r="2.71251" transform="matrix(1 0 0 -1 231.287 142.913)" fill="#EAE8E8"/>
<circle r="2.71251" transform="matrix(1 0 0 -1 19.712 126.638)" fill="#EAE8E8"/>
<circle r="2.71251" transform="matrix(1 0 0 -1 35.9859 126.638)" fill="#EAE8E8"/>
<circle r="2.71251" transform="matrix(1 0 0 -1 52.2628 126.638)" fill="#EAE8E8"/>
<circle r="2.71251" transform="matrix(1 0 0 -1 68.5367 126.638)" fill="#EAE8E8"/>
<circle r="2.71251" transform="matrix(1 0 0 -1 84.8131 126.638)" fill="#EAE8E8"/>
<circle r="2.71251" transform="matrix(1 0 0 -1 101.088 126.638)" fill="#EAE8E8"/>
<circle r="2.71251" transform="matrix(1 0 0 -1 117.361 126.638)" fill="#EAE8E8"/>
<circle r="2.71251" transform="matrix(1 0 0 -1 133.638 126.638)" fill="#EAE8E8"/>
<circle r="2.71251" transform="matrix(1 0 0 -1 149.912 126.638)" fill="#EAE8E8"/>
<circle r="2.71251" transform="matrix(1 0 0 -1 166.188 126.638)" fill="#EAE8E8"/>
<circle r="2.71251" transform="matrix(1 0 0 -1 182.463 126.638)" fill="#EAE8E8"/>
<circle r="2.71251" transform="matrix(1 0 0 -1 198.738 126.638)" fill="#EAE8E8"/>
<circle r="2.71251" transform="matrix(1 0 0 -1 215.013 126.638)" fill="#EAE8E8"/>
<circle r="2.71251" transform="matrix(1 0 0 -1 231.287 126.638)" fill="#EAE8E8"/>
<circle r="2.71251" transform="matrix(1 0 0 -1 19.712 110.363)" fill="#EAE8E8"/>
<circle r="2.71251" transform="matrix(1 0 0 -1 35.9859 110.363)" fill="#EAE8E8"/>
<circle r="2.71251" transform="matrix(1 0 0 -1 52.2628 110.363)" fill="#EAE8E8"/>
<circle r="2.71251" transform="matrix(1 0 0 -1 68.5367 110.363)" fill="#EAE8E8"/>
<circle r="2.71251" transform="matrix(1 0 0 -1 84.8131 110.363)" fill="#EAE8E8"/>
<circle r="2.71251" transform="matrix(1 0 0 -1 101.088 110.363)" fill="#EAE8E8"/>
<circle r="2.71251" transform="matrix(1 0 0 -1 117.361 110.363)" fill="#EAE8E8"/>
<circle r="2.71251" transform="matrix(1 0 0 -1 133.638 110.363)" fill="#EAE8E8"/>
<circle r="2.71251" transform="matrix(1 0 0 -1 149.912 110.363)" fill="#EAE8E8"/>
<circle r="2.71251" transform="matrix(1 0 0 -1 166.188 110.363)" fill="#EAE8E8"/>
<circle r="2.71251" transform="matrix(1 0 0 -1 182.463 110.363)" fill="#EAE8E8"/>
<circle r="2.71251" transform="matrix(1 0 0 -1 198.738 110.363)" fill="#EAE8E8"/>
<circle r="2.71251" transform="matrix(1 0 0 -1 215.013 110.363)" fill="#EAE8E8"/>
<circle r="2.71251" transform="matrix(1 0 0 -1 231.287 110.363)" fill="#EAE8E8"/>
<circle r="2.71251" transform="matrix(1 0 0 -1 19.712 94.0873)" fill="#EAE8E8"/>
<circle r="2.71251" transform="matrix(1 0 0 -1 35.9859 94.0873)" fill="#EAE8E8"/>
<circle r="2.71251" transform="matrix(1 0 0 -1 52.2628 94.0873)" fill="#EAE8E8"/>
<circle r="2.71251" transform="matrix(1 0 0 -1 68.5367 94.0873)" fill="#EAE8E8"/>
<circle r="2.71251" transform="matrix(1 0 0 -1 84.8131 94.0873)" fill="#EAE8E8"/>
<circle r="2.71251" transform="matrix(1 0 0 -1 101.088 94.0873)" fill="#EAE8E8"/>
<circle r="2.71251" transform="matrix(1 0 0 -1 117.361 94.0873)" fill="#EAE8E8"/>
<circle r="2.71251" transform="matrix(1 0 0 -1 133.638 94.0873)" fill="#EAE8E8"/>
<circle r="2.71251" transform="matrix(1 0 0 -1 149.912 94.0873)" fill="#EAE8E8"/>
<circle r="2.71251" transform="matrix(1 0 0 -1 166.188 94.0873)" fill="#EAE8E8"/>
<circle r="2.71251" transform="matrix(1 0 0 -1 182.463 94.0873)" fill="#EAE8E8"/>
<circle r="2.71251" transform="matrix(1 0 0 -1 198.738 94.0873)" fill="#EAE8E8"/>
<circle r="2.71251" transform="matrix(1 0 0 -1 215.013 94.0873)" fill="#EAE8E8"/>
<circle r="2.71251" transform="matrix(1 0 0 -1 231.287 94.0873)" fill="#EAE8E8"/>
<circle r="2.71251" transform="matrix(1 0 0 -1 19.712 77.8126)" fill="#EAE8E8"/>
<circle r="2.71251" transform="matrix(1 0 0 -1 35.9859 77.8126)" fill="#EAE8E8"/>
<circle r="2.71251" transform="matrix(1 0 0 -1 52.2628 77.8126)" fill="#EAE8E8"/>
<circle r="2.71251" transform="matrix(1 0 0 -1 68.5367 77.8126)" fill="#EAE8E8"/>
<circle r="2.71251" transform="matrix(1 0 0 -1 84.8131 77.8126)" fill="#EAE8E8"/>
<circle r="2.71251" transform="matrix(1 0 0 -1 101.088 77.8126)" fill="#EAE8E8"/>
<circle r="2.71251" transform="matrix(1 0 0 -1 117.361 77.8126)" fill="#EAE8E8"/>
<circle r="2.71251" transform="matrix(1 0 0 -1 133.638 77.8126)" fill="#EAE8E8"/>
<circle r="2.71251" transform="matrix(1 0 0 -1 149.912 77.8126)" fill="#EAE8E8"/>
<circle r="2.71251" transform="matrix(1 0 0 -1 166.188 77.8126)" fill="#EAE8E8"/>
<circle r="2.71251" transform="matrix(1 0 0 -1 182.463 77.8126)" fill="#EAE8E8"/>
<circle r="2.71251" transform="matrix(1 0 0 -1 198.738 77.8126)" fill="#EAE8E8"/>
<circle r="2.71251" transform="matrix(1 0 0 -1 215.013 77.8126)" fill="#EAE8E8"/>
<circle r="2.71251" transform="matrix(1 0 0 -1 231.287 77.8126)" fill="#EAE8E8"/>
<circle r="2.71251" transform="matrix(1 0 0 -1 19.712 61.5372)" fill="#EAE8E8"/>
<circle r="2.71251" transform="matrix(1 0 0 -1 35.9859 61.5372)" fill="#EAE8E8"/>
<circle r="2.71251" transform="matrix(1 0 0 -1 52.2628 61.5372)" fill="#EAE8E8"/>
<circle r="2.71251" transform="matrix(1 0 0 -1 68.5367 61.5372)" fill="#EAE8E8"/>
<circle r="2.71251" transform="matrix(1 0 0 -1 84.8131 61.5372)" fill="#EAE8E8"/>
<circle r="2.71251" transform="matrix(1 0 0 -1 101.088 61.5372)" fill="#EAE8E8"/>
<circle r="2.71251" transform="matrix(1 0 0 -1 117.361 61.5372)" fill="#EAE8E8"/>
<circle r="2.71251" transform="matrix(1 0 0 -1 133.638 61.5372)" fill="#EAE8E8"/>
<circle r="2.71251" transform="matrix(1 0 0 -1 149.912 61.5372)" fill="#EAE8E8"/>
<circle r="2.71251" transform="matrix(1 0 0 -1 166.188 61.5372)" fill="#EAE8E8"/>
<circle r="2.71251" transform="matrix(1 0 0 -1 182.463 61.5372)" fill="#EAE8E8"/>
<circle r="2.71251" transform="matrix(1 0 0 -1 198.738 61.5372)" fill="#EAE8E8"/>
<circle r="2.71251" transform="matrix(1 0 0 -1 215.013 61.5372)" fill="#EAE8E8"/>
<circle r="2.71251" transform="matrix(1 0 0 -1 231.287 61.5372)" fill="#EAE8E8"/>
<circle r="2.71251" transform="matrix(1 0 0 -1 19.712 45.2626)" fill="#EAE8E8"/>
<circle r="2.71251" transform="matrix(1 0 0 -1 35.9859 45.2626)" fill="#EAE8E8"/>
<circle r="2.71251" transform="matrix(1 0 0 -1 52.2628 45.2626)" fill="#EAE8E8"/>
<circle r="2.71251" transform="matrix(1 0 0 -1 68.5367 45.2626)" fill="#EAE8E8"/>
<circle r="2.71251" transform="matrix(1 0 0 -1 84.8131 45.2626)" fill="#EAE8E8"/>
<circle r="2.71251" transform="matrix(1 0 0 -1 101.088 45.2626)" fill="#EAE8E8"/>
<circle r="2.71251" transform="matrix(1 0 0 -1 117.361 45.2626)" fill="#EAE8E8"/>
<circle r="2.71251" transform="matrix(1 0 0 -1 133.638 45.2626)" fill="#EAE8E8"/>
<circle r="2.71251" transform="matrix(1 0 0 -1 149.912 45.2626)" fill="#EAE8E8"/>
<circle r="2.71251" transform="matrix(1 0 0 -1 166.188 45.2626)" fill="#EAE8E8"/>
<circle r="2.71251" transform="matrix(1 0 0 -1 182.463 45.2626)" fill="#EAE8E8"/>
<circle r="2.71251" transform="matrix(1 0 0 -1 198.738 45.2626)" fill="#EAE8E8"/>
<circle r="2.71251" transform="matrix(1 0 0 -1 215.013 45.2626)" fill="#EAE8E8"/>
<circle r="2.71251" transform="matrix(1 0 0 -1 231.287 45.2626)" fill="#EAE8E8"/>
<circle r="2.71251" transform="matrix(1 0 0 -1 19.712 28.9872)" fill="#EAE8E8"/>
<circle r="2.71251" transform="matrix(1 0 0 -1 35.9859 28.9872)" fill="#EAE8E8"/>
<circle r="2.71251" transform="matrix(1 0 0 -1 52.2628 28.9872)" fill="#EAE8E8"/>
<circle r="2.71251" transform="matrix(1 0 0 -1 68.5367 28.9872)" fill="#EAE8E8"/>
<circle r="2.71251" transform="matrix(1 0 0 -1 84.8131 28.9872)" fill="#EAE8E8"/>
<circle r="2.71251" transform="matrix(1 0 0 -1 101.088 28.9872)" fill="#EAE8E8"/>
<circle r="2.71251" transform="matrix(1 0 0 -1 117.361 28.9872)" fill="#EAE8E8"/>
<circle r="2.71251" transform="matrix(1 0 0 -1 133.638 28.9872)" fill="#EAE8E8"/>
<circle r="2.71251" transform="matrix(1 0 0 -1 149.912 28.9872)" fill="#EAE8E8"/>
<circle r="2.71251" transform="matrix(1 0 0 -1 166.188 28.9872)" fill="#EAE8E8"/>
<circle r="2.71251" transform="matrix(1 0 0 -1 182.463 28.9872)" fill="#EAE8E8"/>
<circle r="2.71251" transform="matrix(1 0 0 -1 198.738 28.9872)" fill="#EAE8E8"/>
<circle r="2.71251" transform="matrix(1 0 0 -1 215.013 28.9872)" fill="#EAE8E8"/>
<circle r="2.71251" transform="matrix(1 0 0 -1 231.287 28.9872)" fill="#EAE8E8"/>
<circle r="2.71251" transform="matrix(1 0 0 -1 19.712 12.7125)" fill="#EAE8E8"/>
<circle r="2.71251" transform="matrix(1 0 0 -1 35.9859 12.7125)" fill="#EAE8E8"/>
<circle r="2.71251" transform="matrix(1 0 0 -1 52.2628 12.7125)" fill="#EAE8E8"/>
<circle r="2.71251" transform="matrix(1 0 0 -1 68.5367 12.7125)" fill="#EAE8E8"/>
<circle r="2.71251" transform="matrix(1 0 0 -1 84.8131 12.7125)" fill="#EAE8E8"/>
<circle r="2.71251" transform="matrix(1 0 0 -1 101.088 12.7125)" fill="#EAE8E8"/>
<circle r="2.71251" transform="matrix(1 0 0 -1 117.361 12.7125)" fill="#EAE8E8"/>
<circle r="2.71251" transform="matrix(1 0 0 -1 133.638 12.7125)" fill="#EAE8E8"/>
<circle r="2.71251" transform="matrix(1 0 0 -1 149.912 12.7125)" fill="#EAE8E8"/>
<circle r="2.71251" transform="matrix(1 0 0 -1 166.188 12.7125)" fill="#EAE8E8"/>
<circle r="2.71251" transform="matrix(1 0 0 -1 182.463 12.7125)" fill="#EAE8E8"/>
<circle r="2.71251" transform="matrix(1 0 0 -1 198.738 12.7125)" fill="#EAE8E8"/>
<circle r="2.71251" transform="matrix(1 0 0 -1 215.013 12.7125)" fill="#EAE8E8"/>
<circle r="2.71251" transform="matrix(1 0 0 -1 231.287 12.7125)" fill="#EAE8E8"/>
</svg>
