<svg width="252" height="259" viewBox="0 0 252 259" fill="none" xmlns="http://www.w3.org/2000/svg">
<rect width="250" height="259" rx="15" fill="#213640"/>
<path d="M0 201.656H251.077V244C251.077 252.284 244.361 259 236.077 259H15C6.71571 259 0 252.284 0 244V201.656Z" fill="white"/>
<path d="M99.448 214.656C98.472 213.52 96.968 212.848 95.304 212.848C93.72 212.848 92.392 213.408 91.288 214.512C90.2 215.616 89.656 216.944 89.656 218.512C89.656 220.064 90.2 221.408 91.288 222.512C92.392 223.616 93.72 224.16 95.304 224.16C96.952 224.16 98.264 223.664 99.224 222.688C100.2 221.696 100.68 220.208 100.68 218.208H95.016V220.112H97.976C97.96 220.672 97.672 221.12 97.112 221.488C96.552 221.84 95.944 222.016 95.304 222.016C94.392 222.016 93.608 221.68 92.968 220.992C92.328 220.304 92.008 219.472 92.008 218.512C92.008 217.552 92.328 216.736 92.952 216.048C93.592 215.36 94.376 215.024 95.304 215.024C96.248 215.024 97.064 215.392 97.72 216.144L99.448 214.656ZM106.934 220.48C106.934 221.52 106.358 222 105.59 222C104.934 222 104.262 221.584 104.262 220.512V216.528H102.038V220.992C102.038 223.04 103.254 224.16 104.998 224.16C105.75 224.16 106.55 223.696 106.934 222.976V224H109.158V216.528H106.934V220.48ZM113.436 220.048C113.436 219.04 113.9 218.528 114.812 218.528C115.596 218.528 116.108 219.056 116.108 220.016V224H118.332V219.536C118.332 217.44 117.324 216.368 115.596 216.368C114.716 216.368 113.836 216.864 113.436 217.616V216.528H111.212V224H113.436V220.048ZM128.561 218.528C129.265 218.528 129.793 219.072 129.793 220.016V224H132.001V219.76C132.001 217.536 130.929 216.368 129.121 216.368C128.177 216.368 127.425 216.816 126.881 217.696C126.465 216.816 125.665 216.384 124.481 216.384C123.649 216.384 122.865 216.848 122.529 217.616V216.528H120.305V224H122.529V220.048C122.529 218.976 123.073 218.528 123.825 218.528C124.513 218.528 125.041 219.072 125.057 219.968V224H127.281V220.048C127.281 219.024 127.793 218.528 128.561 218.528ZM139.21 221.536C138.842 222 138.298 222.24 137.578 222.24C136.698 222.24 135.85 221.808 135.738 220.992H141.21C141.226 220.736 141.242 220.512 141.242 220.304C141.242 219.136 140.874 218.192 140.138 217.472C139.418 216.736 138.506 216.368 137.418 216.368C136.314 216.368 135.386 216.72 134.634 217.44C133.882 218.16 133.514 219.088 133.514 220.24C133.514 221.392 133.882 222.336 134.634 223.072C135.386 223.792 136.314 224.16 137.418 224.16C139.002 224.16 140.138 223.648 140.826 222.64L139.21 221.536ZM135.77 219.6C136.122 217.888 138.778 217.904 139.002 219.6H135.77ZM145.608 213.664H143.4V216.528H142.04V218.288H143.4V224H145.608V218.288H147.176V216.528H145.608V213.664ZM156.174 224V216.528H153.966V217.36C153.454 216.64 152.494 216.368 151.79 216.368C150.782 216.368 149.902 216.736 149.134 217.456C148.366 218.176 147.982 219.104 147.982 220.256C147.982 221.408 148.366 222.352 149.134 223.072C149.902 223.792 150.782 224.144 151.79 224.144C152.142 224.144 152.542 224.064 152.974 223.888C153.422 223.712 153.758 223.472 153.966 223.152V224H156.174ZM152.158 222.032C151.662 222.032 151.23 221.872 150.846 221.536C150.478 221.2 150.286 220.768 150.286 220.256C150.286 219.744 150.478 219.328 150.846 218.992C151.23 218.656 151.662 218.48 152.158 218.48C153.118 218.48 153.966 219.184 153.966 220.256C153.966 221.328 153.118 222.032 152.158 222.032ZM158.227 224H160.451V212.464H158.227V224Z" fill="#202538"/>
<path opacity="0.6" d="M99.26 248H100.548L101.262 245.676H102.872L102.172 248H103.474L104.188 245.676H105.728L106.078 244.43H104.538L105.238 242.036H106.792L107.128 240.79H105.588L106.302 238.354H104.986L104.272 240.79H102.676L103.376 238.354H102.046L101.346 240.79H99.82L99.484 242.036H100.982L100.296 244.43H98.77L98.434 245.676H99.96L99.26 248ZM101.612 244.43L102.312 242.036H103.922L103.208 244.43H101.612ZM110.833 246.474L113.115 243.814C113.703 243.128 114.137 242.274 114.137 241.476C114.137 239.824 112.975 238.718 111.183 238.718C109.447 238.718 108.369 239.768 108.159 241.308L109.629 241.588C109.713 240.776 110.259 240.23 111.127 240.23C111.953 240.23 112.499 240.72 112.499 241.448C112.499 241.812 112.205 242.372 111.743 242.932L108.229 247.174V248H114.263V246.474H110.833ZM118.928 238.718L115.372 240.244V241.756L117.43 240.944V248H119.04V238.718H118.928ZM125.339 243.072C126.081 242.722 126.529 242.022 126.529 241.21C126.543 239.684 125.367 238.718 123.757 238.718C122.623 238.718 121.671 239.236 121.083 240.02L122.049 241.014C122.399 240.524 123.015 240.216 123.617 240.216C124.359 240.216 124.863 240.636 124.891 241.266C124.919 241.98 124.317 242.526 123.337 242.526H122.693V243.8H123.589C124.597 243.8 125.311 244.402 125.311 245.27C125.311 246.082 124.597 246.642 123.589 246.642C122.875 246.642 122.273 246.236 121.839 245.55L120.663 246.404C121.279 247.51 122.343 248.126 123.659 248.126C125.591 248.126 126.949 247.006 126.949 245.326C126.949 244.248 126.305 243.408 125.339 243.072ZM132.079 242.092C131.155 242.092 130.455 242.498 130.021 243.03C130.035 241.434 130.931 240.23 132.177 240.23C132.807 240.23 133.409 240.538 133.731 241.238L135.089 240.552C134.501 239.222 133.325 238.718 132.177 238.718C129.489 238.718 128.341 241.21 128.341 243.716C128.341 246.516 129.671 248.14 131.855 248.14C133.871 248.14 135.187 246.768 135.187 245.074C135.187 243.478 133.941 242.092 132.079 242.092ZM131.813 246.614C130.833 246.6 130.133 245.928 130.133 245.018C130.161 244.136 130.903 243.506 131.911 243.506C132.849 243.534 133.535 244.192 133.535 245.06C133.535 245.956 132.821 246.614 131.813 246.614ZM143.543 244.724H142.171V238.83H141.429L136.025 245.76V246.194H140.533V248H142.171V246.194H143.543V244.724ZM138.475 244.724L140.533 242.092V244.724H138.475ZM148.246 248.14C150.892 248.14 151.606 246.04 151.606 243.436C151.606 240.818 150.892 238.718 148.246 238.718C145.586 238.718 144.858 240.818 144.858 243.436C144.858 246.04 145.586 248.14 148.246 248.14ZM148.246 246.628C146.874 246.628 146.496 245.186 146.496 243.436C146.496 241.672 146.874 240.23 148.246 240.23C149.604 240.23 149.968 241.672 149.968 243.436C149.968 245.186 149.604 246.628 148.246 246.628Z" fill="#202538"/>
<circle r="2.71251" transform="matrix(1 0 0 -1 19.712 191.738)" fill="#2A4450"/>
<circle r="2.71251" transform="matrix(1 0 0 -1 35.9859 191.738)" fill="#2A4450"/>
<circle r="2.71251" transform="matrix(1 0 0 -1 52.2628 191.738)" fill="#2A4450"/>
<circle r="2.71251" transform="matrix(1 0 0 -1 68.5367 191.738)" fill="#2A4450"/>
<circle r="2.71251" transform="matrix(1 0 0 -1 84.8131 191.738)" fill="#2A4450"/>
<circle r="2.71251" transform="matrix(1 0 0 -1 101.088 191.738)" fill="#2A4450"/>
<circle r="2.71251" transform="matrix(1 0 0 -1 117.361 191.738)" fill="#2A4450"/>
<circle r="2.71251" transform="matrix(1 0 0 -1 133.638 191.738)" fill="#2A4450"/>
<circle r="2.71251" transform="matrix(1 0 0 -1 149.912 191.738)" fill="#2A4450"/>
<circle r="2.71251" transform="matrix(1 0 0 -1 166.188 191.738)" fill="#2A4450"/>
<circle r="2.71251" transform="matrix(1 0 0 -1 182.463 191.738)" fill="#2A4450"/>
<circle r="2.71251" transform="matrix(1 0 0 -1 198.738 191.738)" fill="#2A4450"/>
<circle r="2.71251" transform="matrix(1 0 0 -1 215.013 191.738)" fill="#2A4450"/>
<circle r="2.71251" transform="matrix(1 0 0 -1 231.287 191.738)" fill="#2A4450"/>
<circle r="2.71251" transform="matrix(1 0 0 -1 19.712 175.463)" fill="#2A4450"/>
<circle r="2.71251" transform="matrix(1 0 0 -1 35.9859 175.463)" fill="#2A4450"/>
<circle r="2.71251" transform="matrix(1 0 0 -1 52.2628 175.463)" fill="#2A4450"/>
<circle r="2.71251" transform="matrix(1 0 0 -1 68.5367 175.463)" fill="#2A4450"/>
<circle r="2.71251" transform="matrix(1 0 0 -1 84.8131 175.463)" fill="#2A4450"/>
<circle r="2.71251" transform="matrix(1 0 0 -1 101.088 175.463)" fill="#2A4450"/>
<circle r="2.71251" transform="matrix(1 0 0 -1 117.361 175.463)" fill="#2A4450"/>
<circle r="2.71251" transform="matrix(1 0 0 -1 133.638 175.463)" fill="#2A4450"/>
<circle r="2.71251" transform="matrix(1 0 0 -1 149.912 175.463)" fill="#2A4450"/>
<circle r="2.71251" transform="matrix(1 0 0 -1 166.188 175.463)" fill="#2A4450"/>
<circle r="2.71251" transform="matrix(1 0 0 -1 182.463 175.463)" fill="#2A4450"/>
<circle r="2.71251" transform="matrix(1 0 0 -1 198.738 175.463)" fill="#2A4450"/>
<circle r="2.71251" transform="matrix(1 0 0 -1 215.013 175.463)" fill="#2A4450"/>
<circle r="2.71251" transform="matrix(1 0 0 -1 231.287 175.463)" fill="#2A4450"/>
<circle r="2.71251" transform="matrix(1 0 0 -1 19.712 159.187)" fill="#2A4450"/>
<circle r="2.71251" transform="matrix(1 0 0 -1 35.9859 159.187)" fill="#2A4450"/>
<circle r="2.71251" transform="matrix(1 0 0 -1 52.2628 159.187)" fill="#2A4450"/>
<circle r="2.71251" transform="matrix(1 0 0 -1 68.5367 159.187)" fill="#2A4450"/>
<circle r="2.71251" transform="matrix(1 0 0 -1 84.8131 159.187)" fill="#2A4450"/>
<circle r="2.71251" transform="matrix(1 0 0 -1 101.088 159.187)" fill="#2A4450"/>
<circle r="2.71251" transform="matrix(1 0 0 -1 117.361 159.187)" fill="#2A4450"/>
<circle r="2.71251" transform="matrix(1 0 0 -1 133.638 159.187)" fill="#2A4450"/>
<circle r="2.71251" transform="matrix(1 0 0 -1 149.912 159.187)" fill="#2A4450"/>
<circle r="2.71251" transform="matrix(1 0 0 -1 166.188 159.187)" fill="#2A4450"/>
<circle r="2.71251" transform="matrix(1 0 0 -1 182.463 159.187)" fill="#2A4450"/>
<circle r="2.71251" transform="matrix(1 0 0 -1 198.738 159.187)" fill="#2A4450"/>
<circle r="2.71251" transform="matrix(1 0 0 -1 215.013 159.187)" fill="#2A4450"/>
<circle r="2.71251" transform="matrix(1 0 0 -1 231.287 159.187)" fill="#2A4450"/>
<circle r="2.71251" transform="matrix(1 0 0 -1 19.712 142.913)" fill="#2A4450"/>
<circle r="2.71251" transform="matrix(1 0 0 -1 35.9859 142.913)" fill="#2A4450"/>
<circle r="2.71251" transform="matrix(1 0 0 -1 52.2628 142.913)" fill="#2A4450"/>
<circle r="2.71251" transform="matrix(1 0 0 -1 68.5367 142.913)" fill="#2A4450"/>
<circle r="2.71251" transform="matrix(1 0 0 -1 84.8131 142.913)" fill="#2A4450"/>
<circle r="2.71251" transform="matrix(1 0 0 -1 101.088 142.913)" fill="#2A4450"/>
<circle r="2.71251" transform="matrix(1 0 0 -1 117.361 142.913)" fill="#2A4450"/>
<circle r="2.71251" transform="matrix(1 0 0 -1 133.638 142.913)" fill="#2A4450"/>
<circle r="2.71251" transform="matrix(1 0 0 -1 149.912 142.913)" fill="#2A4450"/>
<circle r="2.71251" transform="matrix(1 0 0 -1 166.188 142.913)" fill="#2A4450"/>
<circle r="2.71251" transform="matrix(1 0 0 -1 182.463 142.913)" fill="#2A4450"/>
<circle r="2.71251" transform="matrix(1 0 0 -1 198.738 142.913)" fill="#2A4450"/>
<circle r="2.71251" transform="matrix(1 0 0 -1 215.013 142.913)" fill="#2A4450"/>
<circle r="2.71251" transform="matrix(1 0 0 -1 231.287 142.913)" fill="#2A4450"/>
<circle r="2.71251" transform="matrix(1 0 0 -1 19.712 126.638)" fill="#2A4450"/>
<circle r="2.71251" transform="matrix(1 0 0 -1 35.9859 126.638)" fill="#2A4450"/>
<circle r="2.71251" transform="matrix(1 0 0 -1 52.2628 126.638)" fill="#2A4450"/>
<circle r="2.71251" transform="matrix(1 0 0 -1 68.5367 126.638)" fill="#2A4450"/>
<circle r="2.71251" transform="matrix(1 0 0 -1 84.8131 126.638)" fill="#2A4450"/>
<circle r="2.71251" transform="matrix(1 0 0 -1 101.088 126.638)" fill="#2A4450"/>
<circle r="2.71251" transform="matrix(1 0 0 -1 117.361 126.638)" fill="#2A4450"/>
<circle r="2.71251" transform="matrix(1 0 0 -1 133.638 126.638)" fill="#2A4450"/>
<circle r="2.71251" transform="matrix(1 0 0 -1 149.912 126.638)" fill="#2A4450"/>
<circle r="2.71251" transform="matrix(1 0 0 -1 166.188 126.638)" fill="#2A4450"/>
<circle r="2.71251" transform="matrix(1 0 0 -1 182.463 126.638)" fill="#2A4450"/>
<circle r="2.71251" transform="matrix(1 0 0 -1 198.738 126.638)" fill="#2A4450"/>
<circle r="2.71251" transform="matrix(1 0 0 -1 215.013 126.638)" fill="#2A4450"/>
<circle r="2.71251" transform="matrix(1 0 0 -1 231.287 126.638)" fill="#2A4450"/>
<circle r="2.71251" transform="matrix(1 0 0 -1 19.712 110.363)" fill="#2A4450"/>
<circle r="2.71251" transform="matrix(1 0 0 -1 35.9859 110.363)" fill="#2A4450"/>
<circle r="2.71251" transform="matrix(1 0 0 -1 52.2628 110.363)" fill="#2A4450"/>
<circle r="2.71251" transform="matrix(1 0 0 -1 68.5367 110.363)" fill="#2A4450"/>
<circle r="2.71251" transform="matrix(1 0 0 -1 84.8131 110.363)" fill="#2A4450"/>
<circle r="2.71251" transform="matrix(1 0 0 -1 101.088 110.363)" fill="#2A4450"/>
<circle r="2.71251" transform="matrix(1 0 0 -1 117.361 110.363)" fill="#2A4450"/>
<circle r="2.71251" transform="matrix(1 0 0 -1 133.638 110.363)" fill="#2A4450"/>
<circle r="2.71251" transform="matrix(1 0 0 -1 149.912 110.363)" fill="#2A4450"/>
<circle r="2.71251" transform="matrix(1 0 0 -1 166.188 110.363)" fill="#2A4450"/>
<circle r="2.71251" transform="matrix(1 0 0 -1 182.463 110.363)" fill="#2A4450"/>
<circle r="2.71251" transform="matrix(1 0 0 -1 198.738 110.363)" fill="#2A4450"/>
<circle r="2.71251" transform="matrix(1 0 0 -1 215.013 110.363)" fill="#2A4450"/>
<circle r="2.71251" transform="matrix(1 0 0 -1 231.287 110.363)" fill="#2A4450"/>
<circle r="2.71251" transform="matrix(1 0 0 -1 19.712 94.0873)" fill="#2A4450"/>
<circle r="2.71251" transform="matrix(1 0 0 -1 35.9859 94.0873)" fill="#2A4450"/>
<circle r="2.71251" transform="matrix(1 0 0 -1 52.2628 94.0873)" fill="#2A4450"/>
<circle r="2.71251" transform="matrix(1 0 0 -1 68.5367 94.0873)" fill="#2A4450"/>
<circle r="2.71251" transform="matrix(1 0 0 -1 84.8131 94.0873)" fill="#2A4450"/>
<circle r="2.71251" transform="matrix(1 0 0 -1 101.088 94.0873)" fill="#2A4450"/>
<circle r="2.71251" transform="matrix(1 0 0 -1 117.361 94.0873)" fill="#2A4450"/>
<circle r="2.71251" transform="matrix(1 0 0 -1 133.638 94.0873)" fill="#2A4450"/>
<circle r="2.71251" transform="matrix(1 0 0 -1 149.912 94.0873)" fill="#2A4450"/>
<circle r="2.71251" transform="matrix(1 0 0 -1 166.188 94.0873)" fill="#2A4450"/>
<circle r="2.71251" transform="matrix(1 0 0 -1 182.463 94.0873)" fill="#2A4450"/>
<circle r="2.71251" transform="matrix(1 0 0 -1 198.738 94.0873)" fill="#2A4450"/>
<circle r="2.71251" transform="matrix(1 0 0 -1 215.013 94.0873)" fill="#2A4450"/>
<circle r="2.71251" transform="matrix(1 0 0 -1 231.287 94.0873)" fill="#2A4450"/>
<circle r="2.71251" transform="matrix(1 0 0 -1 19.712 77.8126)" fill="#2A4450"/>
<circle r="2.71251" transform="matrix(1 0 0 -1 35.9859 77.8126)" fill="#2A4450"/>
<circle r="2.71251" transform="matrix(1 0 0 -1 52.2628 77.8126)" fill="#2A4450"/>
<circle r="2.71251" transform="matrix(1 0 0 -1 68.5367 77.8126)" fill="#2A4450"/>
<circle r="2.71251" transform="matrix(1 0 0 -1 84.8131 77.8126)" fill="#2A4450"/>
<circle r="2.71251" transform="matrix(1 0 0 -1 101.088 77.8126)" fill="#2A4450"/>
<circle r="2.71251" transform="matrix(1 0 0 -1 117.361 77.8126)" fill="#2A4450"/>
<circle r="2.71251" transform="matrix(1 0 0 -1 133.638 77.8126)" fill="#2A4450"/>
<circle r="2.71251" transform="matrix(1 0 0 -1 149.912 77.8126)" fill="#2A4450"/>
<circle r="2.71251" transform="matrix(1 0 0 -1 166.188 77.8126)" fill="#2A4450"/>
<circle r="2.71251" transform="matrix(1 0 0 -1 182.463 77.8126)" fill="#2A4450"/>
<circle r="2.71251" transform="matrix(1 0 0 -1 198.738 77.8126)" fill="#2A4450"/>
<circle r="2.71251" transform="matrix(1 0 0 -1 215.013 77.8126)" fill="#2A4450"/>
<circle r="2.71251" transform="matrix(1 0 0 -1 231.287 77.8126)" fill="#2A4450"/>
<circle r="2.71251" transform="matrix(1 0 0 -1 19.712 61.5372)" fill="#2A4450"/>
<circle r="2.71251" transform="matrix(1 0 0 -1 35.9859 61.5372)" fill="#2A4450"/>
<circle r="2.71251" transform="matrix(1 0 0 -1 52.2628 61.5372)" fill="#2A4450"/>
<circle r="2.71251" transform="matrix(1 0 0 -1 68.5367 61.5372)" fill="#2A4450"/>
<circle r="2.71251" transform="matrix(1 0 0 -1 84.8131 61.5372)" fill="#2A4450"/>
<circle r="2.71251" transform="matrix(1 0 0 -1 101.088 61.5372)" fill="#2A4450"/>
<circle r="2.71251" transform="matrix(1 0 0 -1 117.361 61.5372)" fill="#2A4450"/>
<circle r="2.71251" transform="matrix(1 0 0 -1 133.638 61.5372)" fill="#2A4450"/>
<circle r="2.71251" transform="matrix(1 0 0 -1 149.912 61.5372)" fill="#2A4450"/>
<circle r="2.71251" transform="matrix(1 0 0 -1 166.188 61.5372)" fill="#2A4450"/>
<circle r="2.71251" transform="matrix(1 0 0 -1 182.463 61.5372)" fill="#2A4450"/>
<circle r="2.71251" transform="matrix(1 0 0 -1 198.738 61.5372)" fill="#2A4450"/>
<circle r="2.71251" transform="matrix(1 0 0 -1 215.013 61.5372)" fill="#2A4450"/>
<circle r="2.71251" transform="matrix(1 0 0 -1 231.287 61.5372)" fill="#2A4450"/>
<circle r="2.71251" transform="matrix(1 0 0 -1 19.712 45.2626)" fill="#2A4450"/>
<circle r="2.71251" transform="matrix(1 0 0 -1 35.9859 45.2626)" fill="#2A4450"/>
<circle r="2.71251" transform="matrix(1 0 0 -1 52.2628 45.2626)" fill="#2A4450"/>
<circle r="2.71251" transform="matrix(1 0 0 -1 68.5367 45.2626)" fill="#2A4450"/>
<circle r="2.71251" transform="matrix(1 0 0 -1 84.8131 45.2626)" fill="#2A4450"/>
<circle r="2.71251" transform="matrix(1 0 0 -1 101.088 45.2626)" fill="#2A4450"/>
<circle r="2.71251" transform="matrix(1 0 0 -1 117.361 45.2626)" fill="#2A4450"/>
<circle r="2.71251" transform="matrix(1 0 0 -1 133.638 45.2626)" fill="#2A4450"/>
<circle r="2.71251" transform="matrix(1 0 0 -1 149.912 45.2626)" fill="#2A4450"/>
<circle r="2.71251" transform="matrix(1 0 0 -1 166.188 45.2626)" fill="#2A4450"/>
<circle r="2.71251" transform="matrix(1 0 0 -1 182.463 45.2626)" fill="#2A4450"/>
<circle r="2.71251" transform="matrix(1 0 0 -1 198.738 45.2626)" fill="#2A4450"/>
<circle r="2.71251" transform="matrix(1 0 0 -1 215.013 45.2626)" fill="#2A4450"/>
<circle r="2.71251" transform="matrix(1 0 0 -1 231.287 45.2626)" fill="#2A4450"/>
<circle r="2.71251" transform="matrix(1 0 0 -1 19.712 28.9872)" fill="#2A4450"/>
<circle r="2.71251" transform="matrix(1 0 0 -1 35.9859 28.9872)" fill="#2A4450"/>
<circle r="2.71251" transform="matrix(1 0 0 -1 52.2628 28.9872)" fill="#2A4450"/>
<circle r="2.71251" transform="matrix(1 0 0 -1 68.5367 28.9872)" fill="#2A4450"/>
<circle r="2.71251" transform="matrix(1 0 0 -1 84.8131 28.9872)" fill="#2A4450"/>
<circle r="2.71251" transform="matrix(1 0 0 -1 101.088 28.9872)" fill="#2A4450"/>
<circle r="2.71251" transform="matrix(1 0 0 -1 117.361 28.9872)" fill="#2A4450"/>
<circle r="2.71251" transform="matrix(1 0 0 -1 133.638 28.9872)" fill="#2A4450"/>
<circle r="2.71251" transform="matrix(1 0 0 -1 149.912 28.9872)" fill="#2A4450"/>
<circle r="2.71251" transform="matrix(1 0 0 -1 166.188 28.9872)" fill="#2A4450"/>
<circle r="2.71251" transform="matrix(1 0 0 -1 182.463 28.9872)" fill="#2A4450"/>
<circle r="2.71251" transform="matrix(1 0 0 -1 198.738 28.9872)" fill="#2A4450"/>
<circle r="2.71251" transform="matrix(1 0 0 -1 215.013 28.9872)" fill="#2A4450"/>
<circle r="2.71251" transform="matrix(1 0 0 -1 231.287 28.9872)" fill="#2A4450"/>
<circle r="2.71251" transform="matrix(1 0 0 -1 19.712 12.7125)" fill="#2A4450"/>
<circle r="2.71251" transform="matrix(1 0 0 -1 35.9859 12.7125)" fill="#2A4450"/>
<circle r="2.71251" transform="matrix(1 0 0 -1 52.2628 12.7125)" fill="#2A4450"/>
<circle r="2.71251" transform="matrix(1 0 0 -1 68.5367 12.7125)" fill="#2A4450"/>
<circle r="2.71251" transform="matrix(1 0 0 -1 84.8131 12.7125)" fill="#2A4450"/>
<circle r="2.71251" transform="matrix(1 0 0 -1 101.088 12.7125)" fill="#2A4450"/>
<circle r="2.71251" transform="matrix(1 0 0 -1 117.361 12.7125)" fill="#2A4450"/>
<circle r="2.71251" transform="matrix(1 0 0 -1 133.638 12.7125)" fill="#2A4450"/>
<circle r="2.71251" transform="matrix(1 0 0 -1 149.912 12.7125)" fill="#2A4450"/>
<circle r="2.71251" transform="matrix(1 0 0 -1 166.188 12.7125)" fill="#2A4450"/>
<circle r="2.71251" transform="matrix(1 0 0 -1 182.463 12.7125)" fill="#2A4450"/>
<circle r="2.71251" transform="matrix(1 0 0 -1 198.738 12.7125)" fill="#2A4450"/>
<circle r="2.71251" transform="matrix(1 0 0 -1 215.013 12.7125)" fill="#2A4450"/>
<circle r="2.71251" transform="matrix(1 0 0 -1 231.287 12.7125)" fill="#2A4450"/>
</svg>
