<svg width="286" height="286" viewBox="0 0 286 286" fill="none" xmlns="http://www.w3.org/2000/svg">
<rect width="286" height="286" rx="15" fill="#F1FBFA"/>
<path d="M95.9375 123.188H119.312L107.812 86.9375L95.9375 123.188ZM97.125 65.875H118.875L151.5 158H130.625L124.688 139.062H90.75L84.375 158H64.25L97.125 65.875ZM199.375 124.875C198.25 125.583 197.104 126.167 195.938 126.625C194.812 127.042 193.25 127.438 191.25 127.812L187.25 128.562C183.5 129.229 180.812 130.042 179.188 131C176.438 132.625 175.062 135.146 175.062 138.562C175.062 141.604 175.896 143.812 177.562 145.188C179.271 146.521 181.333 147.188 183.75 147.188C187.583 147.188 191.104 146.062 194.312 143.812C197.562 141.562 199.25 137.458 199.375 131.5V124.875ZM188.562 116.562C191.854 116.146 194.208 115.625 195.625 115C198.167 113.917 199.438 112.229 199.438 109.938C199.438 107.146 198.458 105.229 196.5 104.188C194.583 103.104 191.75 102.562 188 102.562C183.792 102.562 180.812 103.604 179.062 105.688C177.812 107.229 176.979 109.312 176.562 111.938H159.375C159.75 105.979 161.417 101.083 164.375 97.25C169.083 91.25 177.167 88.25 188.625 88.25C196.083 88.25 202.708 89.7292 208.5 92.6875C214.292 95.6458 217.188 101.229 217.188 109.438V140.688C217.188 142.854 217.229 145.479 217.312 148.562C217.438 150.896 217.792 152.479 218.375 153.312C218.958 154.146 219.833 154.833 221 155.375V158H201.625C201.083 156.625 200.708 155.333 200.5 154.125C200.292 152.917 200.125 151.542 200 150C197.542 152.667 194.708 154.938 191.5 156.812C187.667 159.021 183.333 160.125 178.5 160.125C172.333 160.125 167.229 158.375 163.188 154.875C159.188 151.333 157.188 146.333 157.188 139.875C157.188 131.5 160.417 125.438 166.875 121.688C170.417 119.646 175.625 118.188 182.5 117.312L188.562 116.562Z" fill="#202538" fill-opacity="0.53"/>
<path d="M66.707 229V203.09H72.0684V212.969H82.1934V203.09H87.5723V229H82.1934V217.434H72.0684V229H66.707ZM99.9121 213.461C98.752 213.461 97.8496 213.824 97.2051 214.551C96.5723 215.277 96.1738 216.262 96.0098 217.504H103.797C103.715 216.18 103.311 215.178 102.584 214.498C101.869 213.807 100.979 213.461 99.9121 213.461ZM99.9121 209.33C101.506 209.33 102.941 209.629 104.219 210.227C105.496 210.824 106.551 211.768 107.383 213.057C108.133 214.193 108.619 215.512 108.842 217.012C108.971 217.891 109.023 219.156 109 220.809H95.8867C95.957 222.73 96.5605 224.078 97.6973 224.852C98.3887 225.332 99.2207 225.572 100.193 225.572C101.225 225.572 102.062 225.279 102.707 224.693C103.059 224.377 103.369 223.938 103.639 223.375H108.754C108.625 224.512 108.033 225.666 106.979 226.838C105.338 228.701 103.041 229.633 100.088 229.633C97.6504 229.633 95.5 228.848 93.6367 227.277C91.7734 225.707 90.8418 223.152 90.8418 219.613C90.8418 216.297 91.6797 213.754 93.3555 211.984C95.043 210.215 97.2285 209.33 99.9121 209.33ZM117.508 229H112.498V203.09H117.508V229ZM134.225 209.84H139.604L132.695 229H127.404L120.531 209.84H126.156L130.146 223.973L134.225 209.84ZM150.01 213.461C148.85 213.461 147.947 213.824 147.303 214.551C146.67 215.277 146.271 216.262 146.107 217.504H153.895C153.812 216.18 153.408 215.178 152.682 214.498C151.967 213.807 151.076 213.461 150.01 213.461ZM150.01 209.33C151.604 209.33 153.039 209.629 154.316 210.227C155.594 210.824 156.648 211.768 157.48 213.057C158.23 214.193 158.717 215.512 158.939 217.012C159.068 217.891 159.121 219.156 159.098 220.809H145.984C146.055 222.73 146.658 224.078 147.795 224.852C148.486 225.332 149.318 225.572 150.291 225.572C151.322 225.572 152.16 225.279 152.805 224.693C153.156 224.377 153.467 223.938 153.736 223.375H158.852C158.723 224.512 158.131 225.666 157.076 226.838C155.436 228.701 153.139 229.633 150.186 229.633C147.748 229.633 145.598 228.848 143.734 227.277C141.871 225.707 140.939 223.152 140.939 219.613C140.939 216.297 141.777 213.754 143.453 211.984C145.141 210.215 147.326 209.33 150.01 209.33ZM160.521 213.584V210.016H163.193V204.672H168.15V210.016H171.262V213.584H168.15V223.709C168.15 224.494 168.25 224.986 168.449 225.186C168.648 225.373 169.258 225.467 170.277 225.467C170.43 225.467 170.588 225.467 170.752 225.467C170.928 225.455 171.098 225.443 171.262 225.432V229.176L168.889 229.264C166.521 229.346 164.904 228.936 164.037 228.033C163.475 227.459 163.193 226.574 163.193 225.379V213.584H160.521ZM179.629 207.555H174.549V202.932H179.629V207.555ZM174.549 209.84H179.629V229H174.549V209.84ZM195.941 216.713C195.848 215.998 195.607 215.354 195.221 214.779C194.658 214.006 193.785 213.619 192.602 213.619C190.914 213.619 189.76 214.457 189.139 216.133C188.811 217.023 188.646 218.207 188.646 219.684C188.646 221.09 188.811 222.221 189.139 223.076C189.736 224.67 190.861 225.467 192.514 225.467C193.686 225.467 194.518 225.15 195.01 224.518C195.502 223.885 195.801 223.064 195.906 222.057H201.021C200.904 223.58 200.354 225.021 199.369 226.381C197.799 228.572 195.473 229.668 192.391 229.668C189.309 229.668 187.041 228.754 185.588 226.926C184.135 225.098 183.408 222.725 183.408 219.807C183.408 216.514 184.211 213.953 185.816 212.125C187.422 210.297 189.637 209.383 192.461 209.383C194.863 209.383 196.826 209.922 198.35 211C199.885 212.078 200.793 213.982 201.074 216.713H195.941ZM215.102 219.684C214.785 219.883 214.463 220.047 214.135 220.176C213.818 220.293 213.379 220.404 212.816 220.51L211.691 220.721C210.637 220.908 209.881 221.137 209.424 221.406C208.65 221.863 208.264 222.572 208.264 223.533C208.264 224.389 208.498 225.01 208.967 225.396C209.447 225.771 210.027 225.959 210.707 225.959C211.785 225.959 212.775 225.643 213.678 225.01C214.592 224.377 215.066 223.223 215.102 221.547V219.684ZM212.061 217.346C212.986 217.229 213.648 217.082 214.047 216.906C214.762 216.602 215.119 216.127 215.119 215.482C215.119 214.697 214.844 214.158 214.293 213.865C213.754 213.561 212.957 213.408 211.902 213.408C210.719 213.408 209.881 213.701 209.389 214.287C209.037 214.721 208.803 215.307 208.686 216.045H203.852C203.957 214.369 204.426 212.992 205.258 211.914C206.582 210.227 208.855 209.383 212.078 209.383C214.176 209.383 216.039 209.799 217.668 210.631C219.297 211.463 220.111 213.033 220.111 215.342V224.131C220.111 224.74 220.123 225.479 220.146 226.346C220.182 227.002 220.281 227.447 220.445 227.682C220.609 227.916 220.855 228.109 221.184 228.262V229H215.734C215.582 228.613 215.477 228.25 215.418 227.91C215.359 227.57 215.312 227.184 215.277 226.75C214.586 227.5 213.789 228.139 212.887 228.666C211.809 229.287 210.59 229.598 209.23 229.598C207.496 229.598 206.061 229.105 204.924 228.121C203.799 227.125 203.236 225.719 203.236 223.902C203.236 221.547 204.145 219.842 205.961 218.787C206.957 218.213 208.422 217.803 210.355 217.557L212.061 217.346Z" fill="#202538" fill-opacity="0.53"/>
</svg>
