<svg width="252" height="259" viewBox="0 0 252 259" fill="none" xmlns="http://www.w3.org/2000/svg">
<rect width="250" height="259" rx="15" fill="#F0F0F0"/>
<path d="M0 201.656H251.077V244C251.077 252.284 244.361 259 236.077 259H15C6.71571 259 0 252.284 0 244V201.656Z" fill="white"/>
<path d="M90.296 224H92.632V212.976H90.296V224ZM97.7329 221.184C98.2609 221.328 98.4689 221.504 98.4689 221.824C98.4689 222.192 98.0689 222.432 97.5569 222.448C96.9649 222.448 96.4689 222.032 96.4529 221.584H94.3729C94.3889 222.368 94.6929 223.008 95.3169 223.472C95.9409 223.936 96.6769 224.16 97.4929 224.16C98.3569 224.16 99.1089 223.952 99.7489 223.552C100.405 223.152 100.725 222.576 100.725 221.824C100.725 221.376 100.661 220.96 100.005 220.336C99.6849 220.032 99.2529 219.792 98.6929 219.648L97.4289 219.312C97.0129 219.2 96.7889 219.024 96.7729 218.752C96.7569 218.416 97.0609 218.192 97.5569 218.192C98.1169 218.192 98.3889 218.416 98.4049 218.848H100.501C100.485 218 100.181 217.376 99.5889 216.976C98.9969 216.576 98.2769 216.368 97.4289 216.368C96.6449 216.368 95.9729 216.592 95.3969 217.024C94.8209 217.456 94.5329 217.936 94.5169 218.496C94.5009 218.96 94.5329 219.216 94.7729 219.728C95.0289 220.224 95.7169 220.656 96.7569 220.928L97.7329 221.184ZM110.034 224V216.528H107.826V217.36C107.314 216.64 106.354 216.368 105.65 216.368C104.642 216.368 103.762 216.736 102.994 217.456C102.226 218.176 101.842 219.104 101.842 220.256C101.842 221.408 102.226 222.352 102.994 223.072C103.762 223.792 104.642 224.144 105.65 224.144C106.002 224.144 106.402 224.064 106.834 223.888C107.282 223.712 107.618 223.472 107.826 223.152V224H110.034ZM106.018 222.032C105.522 222.032 105.09 221.872 104.706 221.536C104.338 221.2 104.146 220.768 104.146 220.256C104.146 219.744 104.338 219.328 104.706 218.992C105.09 218.656 105.522 218.48 106.018 218.48C106.978 218.48 107.826 219.184 107.826 220.256C107.826 221.328 106.978 222.032 106.018 222.032ZM114.343 220.24C114.343 219.152 115.111 218.464 116.071 218.464C117.031 218.464 117.799 219.2 117.799 220.24C117.799 221.328 117.031 222.048 116.071 222.048C115.111 222.048 114.343 221.28 114.343 220.24ZM114.295 223.072C114.663 223.76 115.527 224.16 116.487 224.16C117.479 224.16 118.327 223.808 119.031 223.088C119.751 222.368 120.102 221.424 120.102 220.288C120.102 219.12 119.751 218.176 119.031 217.456C118.327 216.736 117.479 216.368 116.487 216.368C115.527 216.368 114.663 216.784 114.295 217.44V212.464H112.087V224H114.295V223.072ZM126.96 221.536C126.592 222 126.048 222.24 125.328 222.24C124.448 222.24 123.6 221.808 123.488 220.992H128.96C128.976 220.736 128.992 220.512 128.992 220.304C128.992 219.136 128.624 218.192 127.888 217.472C127.168 216.736 126.256 216.368 125.168 216.368C124.064 216.368 123.136 216.72 122.384 217.44C121.632 218.16 121.264 219.088 121.264 220.24C121.264 221.392 121.632 222.336 122.384 223.072C123.136 223.792 124.064 224.16 125.168 224.16C126.752 224.16 127.888 223.648 128.576 222.64L126.96 221.536ZM123.52 219.6C123.872 217.888 126.528 217.904 126.752 219.6H123.52ZM130.508 224H132.732V212.464H130.508V224ZM134.774 224H136.998V212.464H134.774V224ZM139.04 216.528V224H141.248V216.528H139.04ZM140.144 212.464C139.376 212.464 138.752 213.04 138.752 213.76C138.752 214.48 139.376 215.072 140.144 215.072C140.896 215.072 141.504 214.48 141.504 213.76C141.504 213.04 140.896 212.464 140.144 212.464ZM145.514 220.048C145.514 219.04 145.978 218.528 146.89 218.528C147.674 218.528 148.186 219.056 148.186 220.016V224H150.41V219.536C150.41 217.44 149.402 216.368 147.674 216.368C146.794 216.368 145.914 216.864 145.514 217.616V216.528H143.29V224H145.514V220.048ZM157.631 221.536C157.263 222 156.719 222.24 155.999 222.24C155.119 222.24 154.271 221.808 154.159 220.992H159.631C159.647 220.736 159.663 220.512 159.663 220.304C159.663 219.136 159.295 218.192 158.559 217.472C157.839 216.736 156.927 216.368 155.839 216.368C154.735 216.368 153.807 216.72 153.055 217.44C152.303 218.16 151.935 219.088 151.935 220.24C151.935 221.392 152.303 222.336 153.055 223.072C153.807 223.792 154.735 224.16 155.839 224.16C157.423 224.16 158.559 223.648 159.247 222.64L157.631 221.536ZM154.191 219.6C154.543 217.888 157.199 217.904 157.423 219.6H154.191Z" fill="#202538"/>
<path opacity="0.6" d="M97.26 247H98.548L99.262 244.676H100.872L100.172 247H101.474L102.188 244.676H103.728L104.078 243.43H102.538L103.238 241.036H104.792L105.128 239.79H103.588L104.302 237.354H102.986L102.272 239.79H100.676L101.376 237.354H100.046L99.346 239.79H97.82L97.484 241.036H98.982L98.296 243.43H96.77L96.434 244.676H97.96L97.26 247ZM99.612 243.43L100.312 241.036H101.922L101.208 243.43H99.612ZM112.641 238.88V237.354H106.789V247H108.497V243.024H111.773V241.498H108.497V238.88H112.641ZM117.22 247.14C119.866 247.14 120.58 245.04 120.58 242.436C120.58 239.818 119.866 237.718 117.22 237.718C114.56 237.718 113.832 239.818 113.832 242.436C113.832 245.04 114.56 247.14 117.22 247.14ZM117.22 245.628C115.848 245.628 115.47 244.186 115.47 242.436C115.47 240.672 115.848 239.23 117.22 239.23C118.578 239.23 118.942 240.672 118.942 242.436C118.942 244.186 118.578 245.628 117.22 245.628ZM128.432 238.88V237.354H122.58V247H124.288V243.024H127.564V241.498H124.288V238.88H128.432ZM133.011 247.14C135.657 247.14 136.371 245.04 136.371 242.436C136.371 239.818 135.657 237.718 133.011 237.718C130.351 237.718 129.623 239.818 129.623 242.436C129.623 245.04 130.351 247.14 133.011 247.14ZM133.011 245.628C131.639 245.628 131.261 244.186 131.261 242.436C131.261 240.672 131.639 239.23 133.011 239.23C134.369 239.23 134.733 240.672 134.733 242.436C134.733 244.186 134.369 245.628 133.011 245.628ZM144.223 238.88V237.354H138.371V247H140.079V243.024H143.355V241.498H140.079V238.88H144.223ZM148.802 247.14C151.448 247.14 152.162 245.04 152.162 242.436C152.162 239.818 151.448 237.718 148.802 237.718C146.142 237.718 145.414 239.818 145.414 242.436C145.414 245.04 146.142 247.14 148.802 247.14ZM148.802 245.628C147.43 245.628 147.052 244.186 147.052 242.436C147.052 240.672 147.43 239.23 148.802 239.23C150.16 239.23 150.524 240.672 150.524 242.436C150.524 244.186 150.16 245.628 148.802 245.628Z" fill="#202538"/>
<circle r="2.71251" transform="matrix(1 0 0 -1 19.712 191.738)" fill="#FBFBFB"/>
<circle r="2.71251" transform="matrix(1 0 0 -1 35.9859 191.738)" fill="#FBFBFB"/>
<circle r="2.71251" transform="matrix(1 0 0 -1 52.2628 191.738)" fill="#FBFBFB"/>
<circle r="2.71251" transform="matrix(1 0 0 -1 68.5367 191.738)" fill="#FBFBFB"/>
<circle r="2.71251" transform="matrix(1 0 0 -1 84.8131 191.738)" fill="#FBFBFB"/>
<circle r="2.71251" transform="matrix(1 0 0 -1 101.088 191.738)" fill="#FBFBFB"/>
<circle r="2.71251" transform="matrix(1 0 0 -1 117.361 191.738)" fill="#FBFBFB"/>
<circle r="2.71251" transform="matrix(1 0 0 -1 133.638 191.738)" fill="#FBFBFB"/>
<circle r="2.71251" transform="matrix(1 0 0 -1 149.912 191.738)" fill="#FBFBFB"/>
<circle r="2.71251" transform="matrix(1 0 0 -1 166.188 191.738)" fill="#FBFBFB"/>
<circle r="2.71251" transform="matrix(1 0 0 -1 182.463 191.738)" fill="#FBFBFB"/>
<circle r="2.71251" transform="matrix(1 0 0 -1 198.738 191.738)" fill="#FBFBFB"/>
<circle r="2.71251" transform="matrix(1 0 0 -1 215.013 191.738)" fill="#FBFBFB"/>
<circle r="2.71251" transform="matrix(1 0 0 -1 231.287 191.738)" fill="#FBFBFB"/>
<circle r="2.71251" transform="matrix(1 0 0 -1 19.712 175.463)" fill="#FBFBFB"/>
<circle r="2.71251" transform="matrix(1 0 0 -1 35.9859 175.463)" fill="#FBFBFB"/>
<circle r="2.71251" transform="matrix(1 0 0 -1 52.2628 175.463)" fill="#FBFBFB"/>
<circle r="2.71251" transform="matrix(1 0 0 -1 68.5367 175.463)" fill="#FBFBFB"/>
<circle r="2.71251" transform="matrix(1 0 0 -1 84.8131 175.463)" fill="#FBFBFB"/>
<circle r="2.71251" transform="matrix(1 0 0 -1 101.088 175.463)" fill="#FBFBFB"/>
<circle r="2.71251" transform="matrix(1 0 0 -1 117.361 175.463)" fill="#FBFBFB"/>
<circle r="2.71251" transform="matrix(1 0 0 -1 133.638 175.463)" fill="#FBFBFB"/>
<circle r="2.71251" transform="matrix(1 0 0 -1 149.912 175.463)" fill="#FBFBFB"/>
<circle r="2.71251" transform="matrix(1 0 0 -1 166.188 175.463)" fill="#FBFBFB"/>
<circle r="2.71251" transform="matrix(1 0 0 -1 182.463 175.463)" fill="#FBFBFB"/>
<circle r="2.71251" transform="matrix(1 0 0 -1 198.738 175.463)" fill="#FBFBFB"/>
<circle r="2.71251" transform="matrix(1 0 0 -1 215.013 175.463)" fill="#FBFBFB"/>
<circle r="2.71251" transform="matrix(1 0 0 -1 231.287 175.463)" fill="#FBFBFB"/>
<circle r="2.71251" transform="matrix(1 0 0 -1 19.712 159.187)" fill="#FBFBFB"/>
<circle r="2.71251" transform="matrix(1 0 0 -1 35.9859 159.187)" fill="#FBFBFB"/>
<circle r="2.71251" transform="matrix(1 0 0 -1 52.2628 159.187)" fill="#FBFBFB"/>
<circle r="2.71251" transform="matrix(1 0 0 -1 68.5367 159.187)" fill="#FBFBFB"/>
<circle r="2.71251" transform="matrix(1 0 0 -1 84.8131 159.187)" fill="#FBFBFB"/>
<circle r="2.71251" transform="matrix(1 0 0 -1 101.088 159.187)" fill="#FBFBFB"/>
<circle r="2.71251" transform="matrix(1 0 0 -1 117.361 159.187)" fill="#FBFBFB"/>
<circle r="2.71251" transform="matrix(1 0 0 -1 133.638 159.187)" fill="#FBFBFB"/>
<circle r="2.71251" transform="matrix(1 0 0 -1 149.912 159.187)" fill="#FBFBFB"/>
<circle r="2.71251" transform="matrix(1 0 0 -1 166.188 159.187)" fill="#FBFBFB"/>
<circle r="2.71251" transform="matrix(1 0 0 -1 182.463 159.187)" fill="#FBFBFB"/>
<circle r="2.71251" transform="matrix(1 0 0 -1 198.738 159.187)" fill="#FBFBFB"/>
<circle r="2.71251" transform="matrix(1 0 0 -1 215.013 159.187)" fill="#FBFBFB"/>
<circle r="2.71251" transform="matrix(1 0 0 -1 231.287 159.187)" fill="#FBFBFB"/>
<circle r="2.71251" transform="matrix(1 0 0 -1 19.712 142.913)" fill="#FBFBFB"/>
<circle r="2.71251" transform="matrix(1 0 0 -1 35.9859 142.913)" fill="#FBFBFB"/>
<circle r="2.71251" transform="matrix(1 0 0 -1 52.2628 142.913)" fill="#FBFBFB"/>
<circle r="2.71251" transform="matrix(1 0 0 -1 68.5367 142.913)" fill="#FBFBFB"/>
<circle r="2.71251" transform="matrix(1 0 0 -1 84.8131 142.913)" fill="#FBFBFB"/>
<circle r="2.71251" transform="matrix(1 0 0 -1 101.088 142.913)" fill="#FBFBFB"/>
<circle r="2.71251" transform="matrix(1 0 0 -1 117.361 142.913)" fill="#FBFBFB"/>
<circle r="2.71251" transform="matrix(1 0 0 -1 133.638 142.913)" fill="#FBFBFB"/>
<circle r="2.71251" transform="matrix(1 0 0 -1 149.912 142.913)" fill="#FBFBFB"/>
<circle r="2.71251" transform="matrix(1 0 0 -1 166.188 142.913)" fill="#FBFBFB"/>
<circle r="2.71251" transform="matrix(1 0 0 -1 182.463 142.913)" fill="#FBFBFB"/>
<circle r="2.71251" transform="matrix(1 0 0 -1 198.738 142.913)" fill="#FBFBFB"/>
<circle r="2.71251" transform="matrix(1 0 0 -1 215.013 142.913)" fill="#FBFBFB"/>
<circle r="2.71251" transform="matrix(1 0 0 -1 231.287 142.913)" fill="#FBFBFB"/>
<circle r="2.71251" transform="matrix(1 0 0 -1 19.712 126.638)" fill="#FBFBFB"/>
<circle r="2.71251" transform="matrix(1 0 0 -1 35.9859 126.638)" fill="#FBFBFB"/>
<circle r="2.71251" transform="matrix(1 0 0 -1 52.2628 126.638)" fill="#FBFBFB"/>
<circle r="2.71251" transform="matrix(1 0 0 -1 68.5367 126.638)" fill="#FBFBFB"/>
<circle r="2.71251" transform="matrix(1 0 0 -1 84.8131 126.638)" fill="#FBFBFB"/>
<circle r="2.71251" transform="matrix(1 0 0 -1 101.088 126.638)" fill="#FBFBFB"/>
<circle r="2.71251" transform="matrix(1 0 0 -1 117.361 126.638)" fill="#FBFBFB"/>
<circle r="2.71251" transform="matrix(1 0 0 -1 133.638 126.638)" fill="#FBFBFB"/>
<circle r="2.71251" transform="matrix(1 0 0 -1 149.912 126.638)" fill="#FBFBFB"/>
<circle r="2.71251" transform="matrix(1 0 0 -1 166.188 126.638)" fill="#FBFBFB"/>
<circle r="2.71251" transform="matrix(1 0 0 -1 182.463 126.638)" fill="#FBFBFB"/>
<circle r="2.71251" transform="matrix(1 0 0 -1 198.738 126.638)" fill="#FBFBFB"/>
<circle r="2.71251" transform="matrix(1 0 0 -1 215.013 126.638)" fill="#FBFBFB"/>
<circle r="2.71251" transform="matrix(1 0 0 -1 231.287 126.638)" fill="#FBFBFB"/>
<circle r="2.71251" transform="matrix(1 0 0 -1 19.712 110.363)" fill="#FBFBFB"/>
<circle r="2.71251" transform="matrix(1 0 0 -1 35.9859 110.363)" fill="#FBFBFB"/>
<circle r="2.71251" transform="matrix(1 0 0 -1 52.2628 110.363)" fill="#FBFBFB"/>
<circle r="2.71251" transform="matrix(1 0 0 -1 68.5367 110.363)" fill="#FBFBFB"/>
<circle r="2.71251" transform="matrix(1 0 0 -1 84.8131 110.363)" fill="#FBFBFB"/>
<circle r="2.71251" transform="matrix(1 0 0 -1 101.088 110.363)" fill="#FBFBFB"/>
<circle r="2.71251" transform="matrix(1 0 0 -1 117.361 110.363)" fill="#FBFBFB"/>
<circle r="2.71251" transform="matrix(1 0 0 -1 133.638 110.363)" fill="#FBFBFB"/>
<circle r="2.71251" transform="matrix(1 0 0 -1 149.912 110.363)" fill="#FBFBFB"/>
<circle r="2.71251" transform="matrix(1 0 0 -1 166.188 110.363)" fill="#FBFBFB"/>
<circle r="2.71251" transform="matrix(1 0 0 -1 182.463 110.363)" fill="#FBFBFB"/>
<circle r="2.71251" transform="matrix(1 0 0 -1 198.738 110.363)" fill="#FBFBFB"/>
<circle r="2.71251" transform="matrix(1 0 0 -1 215.013 110.363)" fill="#FBFBFB"/>
<circle r="2.71251" transform="matrix(1 0 0 -1 231.287 110.363)" fill="#FBFBFB"/>
<circle r="2.71251" transform="matrix(1 0 0 -1 19.712 94.0873)" fill="#FBFBFB"/>
<circle r="2.71251" transform="matrix(1 0 0 -1 35.9859 94.0873)" fill="#FBFBFB"/>
<circle r="2.71251" transform="matrix(1 0 0 -1 52.2628 94.0873)" fill="#FBFBFB"/>
<circle r="2.71251" transform="matrix(1 0 0 -1 68.5367 94.0873)" fill="#FBFBFB"/>
<circle r="2.71251" transform="matrix(1 0 0 -1 84.8131 94.0873)" fill="#FBFBFB"/>
<circle r="2.71251" transform="matrix(1 0 0 -1 101.088 94.0873)" fill="#FBFBFB"/>
<circle r="2.71251" transform="matrix(1 0 0 -1 117.361 94.0873)" fill="#FBFBFB"/>
<circle r="2.71251" transform="matrix(1 0 0 -1 133.638 94.0873)" fill="#FBFBFB"/>
<circle r="2.71251" transform="matrix(1 0 0 -1 149.912 94.0873)" fill="#FBFBFB"/>
<circle r="2.71251" transform="matrix(1 0 0 -1 166.188 94.0873)" fill="#FBFBFB"/>
<circle r="2.71251" transform="matrix(1 0 0 -1 182.463 94.0873)" fill="#FBFBFB"/>
<circle r="2.71251" transform="matrix(1 0 0 -1 198.738 94.0873)" fill="#FBFBFB"/>
<circle r="2.71251" transform="matrix(1 0 0 -1 215.013 94.0873)" fill="#FBFBFB"/>
<circle r="2.71251" transform="matrix(1 0 0 -1 231.287 94.0873)" fill="#FBFBFB"/>
<circle r="2.71251" transform="matrix(1 0 0 -1 19.712 77.8126)" fill="#FBFBFB"/>
<circle r="2.71251" transform="matrix(1 0 0 -1 35.9859 77.8126)" fill="#FBFBFB"/>
<circle r="2.71251" transform="matrix(1 0 0 -1 52.2628 77.8126)" fill="#FBFBFB"/>
<circle r="2.71251" transform="matrix(1 0 0 -1 68.5367 77.8126)" fill="#FBFBFB"/>
<circle r="2.71251" transform="matrix(1 0 0 -1 84.8131 77.8126)" fill="#FBFBFB"/>
<circle r="2.71251" transform="matrix(1 0 0 -1 101.088 77.8126)" fill="#FBFBFB"/>
<circle r="2.71251" transform="matrix(1 0 0 -1 117.361 77.8126)" fill="#FBFBFB"/>
<circle r="2.71251" transform="matrix(1 0 0 -1 133.638 77.8126)" fill="#FBFBFB"/>
<circle r="2.71251" transform="matrix(1 0 0 -1 149.912 77.8126)" fill="#FBFBFB"/>
<circle r="2.71251" transform="matrix(1 0 0 -1 166.188 77.8126)" fill="#FBFBFB"/>
<circle r="2.71251" transform="matrix(1 0 0 -1 182.463 77.8126)" fill="#FBFBFB"/>
<circle r="2.71251" transform="matrix(1 0 0 -1 198.738 77.8126)" fill="#FBFBFB"/>
<circle r="2.71251" transform="matrix(1 0 0 -1 215.013 77.8126)" fill="#FBFBFB"/>
<circle r="2.71251" transform="matrix(1 0 0 -1 231.287 77.8126)" fill="#FBFBFB"/>
<circle r="2.71251" transform="matrix(1 0 0 -1 19.712 61.5372)" fill="#FBFBFB"/>
<circle r="2.71251" transform="matrix(1 0 0 -1 35.9859 61.5372)" fill="#FBFBFB"/>
<circle r="2.71251" transform="matrix(1 0 0 -1 52.2628 61.5372)" fill="#FBFBFB"/>
<circle r="2.71251" transform="matrix(1 0 0 -1 68.5367 61.5372)" fill="#FBFBFB"/>
<circle r="2.71251" transform="matrix(1 0 0 -1 84.8131 61.5372)" fill="#FBFBFB"/>
<circle r="2.71251" transform="matrix(1 0 0 -1 101.088 61.5372)" fill="#FBFBFB"/>
<circle r="2.71251" transform="matrix(1 0 0 -1 117.361 61.5372)" fill="#FBFBFB"/>
<circle r="2.71251" transform="matrix(1 0 0 -1 133.638 61.5372)" fill="#FBFBFB"/>
<circle r="2.71251" transform="matrix(1 0 0 -1 149.912 61.5372)" fill="#FBFBFB"/>
<circle r="2.71251" transform="matrix(1 0 0 -1 166.188 61.5372)" fill="#FBFBFB"/>
<circle r="2.71251" transform="matrix(1 0 0 -1 182.463 61.5372)" fill="#FBFBFB"/>
<circle r="2.71251" transform="matrix(1 0 0 -1 198.738 61.5372)" fill="#FBFBFB"/>
<circle r="2.71251" transform="matrix(1 0 0 -1 215.013 61.5372)" fill="#FBFBFB"/>
<circle r="2.71251" transform="matrix(1 0 0 -1 231.287 61.5372)" fill="#FBFBFB"/>
<circle r="2.71251" transform="matrix(1 0 0 -1 19.712 45.2626)" fill="#FBFBFB"/>
<circle r="2.71251" transform="matrix(1 0 0 -1 35.9859 45.2626)" fill="#FBFBFB"/>
<circle r="2.71251" transform="matrix(1 0 0 -1 52.2628 45.2626)" fill="#FBFBFB"/>
<circle r="2.71251" transform="matrix(1 0 0 -1 68.5367 45.2626)" fill="#FBFBFB"/>
<circle r="2.71251" transform="matrix(1 0 0 -1 84.8131 45.2626)" fill="#FBFBFB"/>
<circle r="2.71251" transform="matrix(1 0 0 -1 101.088 45.2626)" fill="#FBFBFB"/>
<circle r="2.71251" transform="matrix(1 0 0 -1 117.361 45.2626)" fill="#FBFBFB"/>
<circle r="2.71251" transform="matrix(1 0 0 -1 133.638 45.2626)" fill="#FBFBFB"/>
<circle r="2.71251" transform="matrix(1 0 0 -1 149.912 45.2626)" fill="#FBFBFB"/>
<circle r="2.71251" transform="matrix(1 0 0 -1 166.188 45.2626)" fill="#FBFBFB"/>
<circle r="2.71251" transform="matrix(1 0 0 -1 182.463 45.2626)" fill="#FBFBFB"/>
<circle r="2.71251" transform="matrix(1 0 0 -1 198.738 45.2626)" fill="#FBFBFB"/>
<circle r="2.71251" transform="matrix(1 0 0 -1 215.013 45.2626)" fill="#FBFBFB"/>
<circle r="2.71251" transform="matrix(1 0 0 -1 231.287 45.2626)" fill="#FBFBFB"/>
<circle r="2.71251" transform="matrix(1 0 0 -1 19.712 28.9872)" fill="#FBFBFB"/>
<circle r="2.71251" transform="matrix(1 0 0 -1 35.9859 28.9872)" fill="#FBFBFB"/>
<circle r="2.71251" transform="matrix(1 0 0 -1 52.2628 28.9872)" fill="#FBFBFB"/>
<circle r="2.71251" transform="matrix(1 0 0 -1 68.5367 28.9872)" fill="#FBFBFB"/>
<circle r="2.71251" transform="matrix(1 0 0 -1 84.8131 28.9872)" fill="#FBFBFB"/>
<circle r="2.71251" transform="matrix(1 0 0 -1 101.088 28.9872)" fill="#FBFBFB"/>
<circle r="2.71251" transform="matrix(1 0 0 -1 117.361 28.9872)" fill="#FBFBFB"/>
<circle r="2.71251" transform="matrix(1 0 0 -1 133.638 28.9872)" fill="#FBFBFB"/>
<circle r="2.71251" transform="matrix(1 0 0 -1 149.912 28.9872)" fill="#FBFBFB"/>
<circle r="2.71251" transform="matrix(1 0 0 -1 166.188 28.9872)" fill="#FBFBFB"/>
<circle r="2.71251" transform="matrix(1 0 0 -1 182.463 28.9872)" fill="#FBFBFB"/>
<circle r="2.71251" transform="matrix(1 0 0 -1 198.738 28.9872)" fill="#FBFBFB"/>
<circle r="2.71251" transform="matrix(1 0 0 -1 215.013 28.9872)" fill="#FBFBFB"/>
<circle r="2.71251" transform="matrix(1 0 0 -1 231.287 28.9872)" fill="#FBFBFB"/>
<circle r="2.71251" transform="matrix(1 0 0 -1 19.712 12.7125)" fill="#FBFBFB"/>
<circle r="2.71251" transform="matrix(1 0 0 -1 35.9859 12.7125)" fill="#FBFBFB"/>
<circle r="2.71251" transform="matrix(1 0 0 -1 52.2628 12.7125)" fill="#FBFBFB"/>
<circle r="2.71251" transform="matrix(1 0 0 -1 68.5367 12.7125)" fill="#FBFBFB"/>
<circle r="2.71251" transform="matrix(1 0 0 -1 84.8131 12.7125)" fill="#FBFBFB"/>
<circle r="2.71251" transform="matrix(1 0 0 -1 101.088 12.7125)" fill="#FBFBFB"/>
<circle r="2.71251" transform="matrix(1 0 0 -1 117.361 12.7125)" fill="#FBFBFB"/>
<circle r="2.71251" transform="matrix(1 0 0 -1 133.638 12.7125)" fill="#FBFBFB"/>
<circle r="2.71251" transform="matrix(1 0 0 -1 149.912 12.7125)" fill="#FBFBFB"/>
<circle r="2.71251" transform="matrix(1 0 0 -1 166.188 12.7125)" fill="#FBFBFB"/>
<circle r="2.71251" transform="matrix(1 0 0 -1 182.463 12.7125)" fill="#FBFBFB"/>
<circle r="2.71251" transform="matrix(1 0 0 -1 198.738 12.7125)" fill="#FBFBFB"/>
<circle r="2.71251" transform="matrix(1 0 0 -1 215.013 12.7125)" fill="#FBFBFB"/>
<circle r="2.71251" transform="matrix(1 0 0 -1 231.287 12.7125)" fill="#FBFBFB"/>
</svg>
