<svg width="251" height="259" viewBox="0 0 251 259" fill="none" xmlns="http://www.w3.org/2000/svg">
<rect width="250.022" height="259" rx="15" fill="#243A45"/>
<path d="M0 202H251V244C251 252.284 244.284 259 236 259H15C6.71572 259 0 252.284 0 244V202Z" fill="white"/>
<path d="M64.416 227.504C65.168 227.68 65.696 227.776 66.032 227.776C67.264 227.776 68.176 227.424 68.768 226.736C69.36 226.048 69.648 225.152 69.648 224.048V212.976H67.296V224.048C67.296 224.944 66.88 225.568 66.032 225.568C65.44 225.568 64.96 225.504 64.624 225.392L64.416 227.504ZM79.5336 224V216.528H77.3256V217.36C76.8136 216.64 75.8536 216.368 75.1496 216.368C74.1416 216.368 73.2616 216.736 72.4936 217.456C71.7256 218.176 71.3416 219.104 71.3416 220.256C71.3416 221.408 71.7256 222.352 72.4936 223.072C73.2616 223.792 74.1416 224.144 75.1496 224.144C75.5016 224.144 75.9016 224.064 76.3336 223.888C76.7816 223.712 77.1176 223.472 77.3256 223.152V224H79.5336ZM75.5176 222.032C75.0216 222.032 74.5896 221.872 74.2056 221.536C73.8376 221.2 73.6456 220.768 73.6456 220.256C73.6456 219.744 73.8376 219.328 74.2056 218.992C74.5896 218.656 75.0216 218.48 75.5176 218.48C76.4776 218.48 77.3256 219.184 77.3256 220.256C77.3256 221.328 76.4776 222.032 75.5176 222.032ZM83.8425 220.288C83.8425 219.248 84.6105 218.48 85.5705 218.48C86.5305 218.48 87.2985 219.216 87.2985 220.288C87.2985 221.328 86.5305 222.064 85.5705 222.064C84.6105 222.064 83.8425 221.376 83.8425 220.288ZM81.5865 227.664H83.7945V223.088C84.1625 223.744 85.0265 224.16 85.9865 224.16C86.9785 224.16 87.8265 223.792 88.5305 223.072C89.2505 222.352 89.6025 221.408 89.6025 220.24C89.6025 219.104 89.2505 218.176 88.5305 217.456C87.8265 216.736 86.9785 216.368 85.9865 216.368C85.0265 216.368 84.1625 216.768 83.7945 217.456V216.528H81.5865V227.664ZM98.9555 224V216.528H96.7475V217.36C96.2355 216.64 95.2755 216.368 94.5715 216.368C93.5635 216.368 92.6835 216.736 91.9155 217.456C91.1475 218.176 90.7635 219.104 90.7635 220.256C90.7635 221.408 91.1475 222.352 91.9155 223.072C92.6835 223.792 93.5635 224.144 94.5715 224.144C94.9235 224.144 95.3235 224.064 95.7555 223.888C96.2035 223.712 96.5395 223.472 96.7475 223.152V224H98.9555ZM94.9395 222.032C94.4435 222.032 94.0115 221.872 93.6275 221.536C93.2595 221.2 93.0675 220.768 93.0675 220.256C93.0675 219.744 93.2595 219.328 93.6275 218.992C94.0115 218.656 94.4435 218.48 94.9395 218.48C95.8995 218.48 96.7475 219.184 96.7475 220.256C96.7475 221.328 95.8995 222.032 94.9395 222.032ZM103.232 220.048C103.232 219.04 103.696 218.528 104.608 218.528C105.392 218.528 105.904 219.056 105.904 220.016V224H108.128V219.536C108.128 217.44 107.12 216.368 105.392 216.368C104.512 216.368 103.632 216.864 103.232 217.616V216.528H101.008V224H103.232V220.048ZM115.35 221.536C114.982 222 114.438 222.24 113.718 222.24C112.838 222.24 111.99 221.808 111.878 220.992H117.35C117.366 220.736 117.382 220.512 117.382 220.304C117.382 219.136 117.014 218.192 116.278 217.472C115.558 216.736 114.646 216.368 113.558 216.368C112.454 216.368 111.526 216.72 110.774 217.44C110.022 218.16 109.654 219.088 109.654 220.24C109.654 221.392 110.022 222.336 110.774 223.072C111.526 223.792 112.454 224.16 113.558 224.16C115.142 224.16 116.278 223.648 116.966 222.64L115.35 221.536ZM111.91 219.6C112.262 217.888 114.918 217.904 115.142 219.6H111.91ZM121.811 221.184C122.339 221.328 122.547 221.504 122.547 221.824C122.547 222.192 122.147 222.432 121.635 222.448C121.043 222.448 120.547 222.032 120.531 221.584H118.451C118.467 222.368 118.771 223.008 119.395 223.472C120.019 223.936 120.755 224.16 121.571 224.16C122.435 224.16 123.187 223.952 123.827 223.552C124.483 223.152 124.803 222.576 124.803 221.824C124.803 221.376 124.739 220.96 124.083 220.336C123.763 220.032 123.331 219.792 122.771 219.648L121.507 219.312C121.091 219.2 120.867 219.024 120.851 218.752C120.835 218.416 121.139 218.192 121.635 218.192C122.195 218.192 122.467 218.416 122.483 218.848H124.579C124.563 218 124.259 217.376 123.667 216.976C123.075 216.576 122.355 216.368 121.507 216.368C120.723 216.368 120.051 216.592 119.475 217.024C118.899 217.456 118.611 217.936 118.595 218.496C118.579 218.96 118.611 219.216 118.851 219.728C119.107 220.224 119.795 220.656 120.835 220.928L121.811 221.184ZM131.616 221.536C131.248 222 130.704 222.24 129.984 222.24C129.104 222.24 128.256 221.808 128.144 220.992H133.616C133.632 220.736 133.648 220.512 133.648 220.304C133.648 219.136 133.28 218.192 132.544 217.472C131.824 216.736 130.912 216.368 129.824 216.368C128.72 216.368 127.792 216.72 127.04 217.44C126.288 218.16 125.92 219.088 125.92 220.24C125.92 221.392 126.288 222.336 127.04 223.072C127.792 223.792 128.72 224.16 129.824 224.16C131.408 224.16 132.544 223.648 133.232 222.64L131.616 221.536ZM128.176 219.6C128.528 217.888 131.184 217.904 131.408 219.6H128.176ZM139.343 224H141.679V212.976H139.343V224ZM146.217 220.048C146.217 219.04 146.681 218.528 147.593 218.528C148.377 218.528 148.889 219.056 148.889 220.016V224H151.113V219.536C151.113 217.44 150.105 216.368 148.377 216.368C147.497 216.368 146.617 216.864 146.217 217.616V216.528H143.993V224H146.217V220.048ZM158.415 220.24C158.415 221.28 157.647 222.048 156.687 222.048C155.727 222.048 154.959 221.328 154.959 220.24C154.959 219.2 155.727 218.464 156.687 218.464C157.647 218.464 158.415 219.152 158.415 220.24ZM160.671 212.464H158.463V217.44C158.095 216.784 157.231 216.368 156.271 216.368C155.279 216.368 154.431 216.736 153.711 217.456C153.007 218.176 152.655 219.12 152.655 220.288C152.655 221.424 153.007 222.368 153.711 223.088C154.431 223.808 155.279 224.16 156.271 224.16C157.231 224.16 158.095 223.76 158.463 223.072V224H160.671V212.464ZM162.712 216.528V224H164.92V216.528H162.712ZM163.816 212.464C163.048 212.464 162.424 213.04 162.424 213.76C162.424 214.48 163.048 215.072 163.816 215.072C164.568 215.072 165.176 214.48 165.176 213.76C165.176 213.04 164.568 212.464 163.816 212.464ZM172.434 220.24C172.434 220.768 172.258 221.2 171.89 221.552C171.522 221.888 171.106 222.064 170.626 222.064C169.65 222.064 168.834 221.328 168.834 220.24C168.834 219.216 169.65 218.48 170.626 218.48C171.602 218.48 172.434 219.168 172.434 220.24ZM166.738 225.408C167.378 226.816 168.77 227.728 170.418 227.728C173.122 227.728 174.642 226.112 174.642 222.96V216.528H172.482V217.456C172.114 216.8 171.202 216.368 170.242 216.368C169.234 216.368 168.37 216.736 167.618 217.472C166.882 218.192 166.514 219.136 166.514 220.288C166.514 221.424 166.882 222.352 167.618 223.072C168.37 223.792 169.234 224.16 170.242 224.16C171.202 224.16 172.146 223.728 172.482 223.072C172.594 224.848 171.906 225.728 170.418 225.728C169.65 225.728 168.786 225.216 168.53 224.528L166.738 225.408ZM180.12 221.952C179.176 221.952 178.44 221.264 178.44 220.24C178.44 219.264 179.176 218.544 180.12 218.544C181.064 218.544 181.816 219.264 181.816 220.24C181.816 221.264 181.08 221.952 180.12 221.952ZM182.872 223.056C183.624 222.336 184.008 221.392 184.008 220.24C184.008 219.088 183.624 218.16 182.872 217.44C182.12 216.72 181.208 216.368 180.12 216.368C179.032 216.368 178.12 216.72 177.368 217.44C176.616 218.16 176.248 219.088 176.248 220.24C176.248 221.392 176.616 222.336 177.368 223.056C178.12 223.776 179.032 224.128 180.12 224.128C181.208 224.128 182.12 223.776 182.872 223.056Z" fill="#202538"/>
<path opacity="0.6" d="M98.26 246H99.548L100.262 243.676H101.872L101.172 246H102.474L103.188 243.676H104.728L105.078 242.43H103.538L104.238 240.036H105.792L106.128 238.79H104.588L105.302 236.354H103.986L103.272 238.79H101.676L102.376 236.354H101.046L100.346 238.79H98.82L98.484 240.036H99.982L99.296 242.43H97.77L97.434 243.676H98.96L98.26 246ZM100.612 242.43L101.312 240.036H102.922L102.208 242.43H100.612ZM109.833 244.474L112.115 241.814C112.703 241.128 113.137 240.274 113.137 239.476C113.137 237.824 111.975 236.718 110.183 236.718C108.447 236.718 107.369 237.768 107.159 239.308L108.629 239.588C108.713 238.776 109.259 238.23 110.127 238.23C110.953 238.23 111.499 238.72 111.499 239.448C111.499 239.812 111.205 240.372 110.743 240.932L107.229 245.174V246H113.263V244.474H109.833ZM121.652 242.724H120.28V236.83H119.538L114.134 243.76V244.194H118.642V246H120.28V244.194H121.652V242.724ZM116.584 242.724L118.642 240.092V242.724H116.584ZM127.279 241.072C128.021 240.722 128.469 240.022 128.469 239.21C128.483 237.684 127.307 236.718 125.697 236.718C124.563 236.718 123.611 237.236 123.023 238.02L123.989 239.014C124.339 238.524 124.955 238.216 125.557 238.216C126.299 238.216 126.803 238.636 126.831 239.266C126.859 239.98 126.257 240.526 125.277 240.526H124.633V241.8H125.529C126.537 241.8 127.251 242.402 127.251 243.27C127.251 244.082 126.537 244.642 125.529 244.642C124.815 244.642 124.213 244.236 123.779 243.55L122.603 244.404C123.219 245.51 124.283 246.126 125.599 246.126C127.531 246.126 128.889 245.006 128.889 243.326C128.889 242.248 128.245 241.408 127.279 241.072ZM136.804 246H138.61L134.998 236.354H133.15L129.524 246H131.344L132.184 243.634H135.964L136.804 246ZM132.702 242.15L134.074 238.258L135.446 242.15H132.702ZM146.221 242.724H144.849V236.83H144.107L138.703 243.76V244.194H143.211V246H144.849V244.194H146.221V242.724ZM141.153 242.724L143.211 240.092V242.724H141.153ZM151.105 239.896C150.419 239.896 149.761 240.134 149.299 240.47L149.733 238.342H153.485V236.83H148.389L147.591 241.422L148.557 242.094C149.173 241.59 149.929 241.268 150.657 241.268C151.679 241.268 152.463 241.94 152.463 242.934C152.463 243.942 151.679 244.614 150.573 244.614C149.733 244.614 148.935 244.082 148.613 243.368L147.325 244.18C147.913 245.314 149.215 246.14 150.657 246.14C152.547 246.14 154.101 244.908 154.101 242.92C154.101 241.142 152.855 239.896 151.105 239.896Z" fill="#202538"/>
<circle r="2.71251" transform="matrix(1 0 0 -1 19.712 191.738)" fill="#2B4552"/>
<circle r="2.71251" transform="matrix(1 0 0 -1 35.9859 191.738)" fill="#2B4552"/>
<circle r="2.71251" transform="matrix(1 0 0 -1 52.2628 191.738)" fill="#2B4552"/>
<circle r="2.71251" transform="matrix(1 0 0 -1 68.5367 191.738)" fill="#2B4552"/>
<circle r="2.71251" transform="matrix(1 0 0 -1 84.8131 191.738)" fill="#2B4552"/>
<circle r="2.71251" transform="matrix(1 0 0 -1 101.088 191.738)" fill="#2B4552"/>
<circle r="2.71251" transform="matrix(1 0 0 -1 117.361 191.738)" fill="#2B4552"/>
<circle r="2.71251" transform="matrix(1 0 0 -1 133.638 191.738)" fill="#2B4552"/>
<circle r="2.71251" transform="matrix(1 0 0 -1 149.912 191.738)" fill="#2B4552"/>
<circle r="2.71251" transform="matrix(1 0 0 -1 166.188 191.738)" fill="#2B4552"/>
<circle r="2.71251" transform="matrix(1 0 0 -1 182.463 191.738)" fill="#2B4552"/>
<circle r="2.71251" transform="matrix(1 0 0 -1 198.738 191.738)" fill="#2B4552"/>
<circle r="2.71251" transform="matrix(1 0 0 -1 215.013 191.738)" fill="#2B4552"/>
<circle r="2.71251" transform="matrix(1 0 0 -1 231.287 191.738)" fill="#2B4552"/>
<circle r="2.71251" transform="matrix(1 0 0 -1 19.712 175.463)" fill="#2B4552"/>
<circle r="2.71251" transform="matrix(1 0 0 -1 35.9859 175.463)" fill="#2B4552"/>
<circle r="2.71251" transform="matrix(1 0 0 -1 52.2628 175.463)" fill="#2B4552"/>
<circle r="2.71251" transform="matrix(1 0 0 -1 68.5367 175.463)" fill="#2B4552"/>
<circle r="2.71251" transform="matrix(1 0 0 -1 84.8131 175.463)" fill="#2B4552"/>
<circle r="2.71251" transform="matrix(1 0 0 -1 101.088 175.463)" fill="#2B4552"/>
<circle r="2.71251" transform="matrix(1 0 0 -1 117.361 175.463)" fill="#2B4552"/>
<circle r="2.71251" transform="matrix(1 0 0 -1 133.638 175.463)" fill="#2B4552"/>
<circle r="2.71251" transform="matrix(1 0 0 -1 149.912 175.463)" fill="#2B4552"/>
<circle r="2.71251" transform="matrix(1 0 0 -1 166.188 175.463)" fill="#2B4552"/>
<circle r="2.71251" transform="matrix(1 0 0 -1 182.463 175.463)" fill="#2B4552"/>
<circle r="2.71251" transform="matrix(1 0 0 -1 198.738 175.463)" fill="#2B4552"/>
<circle r="2.71251" transform="matrix(1 0 0 -1 215.013 175.463)" fill="#2B4552"/>
<circle r="2.71251" transform="matrix(1 0 0 -1 231.287 175.463)" fill="#2B4552"/>
<circle r="2.71251" transform="matrix(1 0 0 -1 19.712 159.187)" fill="#2B4552"/>
<circle r="2.71251" transform="matrix(1 0 0 -1 35.9859 159.187)" fill="#2B4552"/>
<circle r="2.71251" transform="matrix(1 0 0 -1 52.2628 159.187)" fill="#2B4552"/>
<circle r="2.71251" transform="matrix(1 0 0 -1 68.5367 159.187)" fill="#2B4552"/>
<circle r="2.71251" transform="matrix(1 0 0 -1 84.8131 159.187)" fill="#2B4552"/>
<circle r="2.71251" transform="matrix(1 0 0 -1 101.088 159.187)" fill="#2B4552"/>
<circle r="2.71251" transform="matrix(1 0 0 -1 117.361 159.187)" fill="#2B4552"/>
<circle r="2.71251" transform="matrix(1 0 0 -1 133.638 159.187)" fill="#2B4552"/>
<circle r="2.71251" transform="matrix(1 0 0 -1 149.912 159.187)" fill="#2B4552"/>
<circle r="2.71251" transform="matrix(1 0 0 -1 166.188 159.187)" fill="#2B4552"/>
<circle r="2.71251" transform="matrix(1 0 0 -1 182.463 159.187)" fill="#2B4552"/>
<circle r="2.71251" transform="matrix(1 0 0 -1 198.738 159.187)" fill="#2B4552"/>
<circle r="2.71251" transform="matrix(1 0 0 -1 215.013 159.187)" fill="#2B4552"/>
<circle r="2.71251" transform="matrix(1 0 0 -1 231.287 159.187)" fill="#2B4552"/>
<circle r="2.71251" transform="matrix(1 0 0 -1 19.712 142.913)" fill="#2B4552"/>
<circle r="2.71251" transform="matrix(1 0 0 -1 35.9859 142.913)" fill="#2B4552"/>
<circle r="2.71251" transform="matrix(1 0 0 -1 52.2628 142.913)" fill="#2B4552"/>
<circle r="2.71251" transform="matrix(1 0 0 -1 68.5367 142.913)" fill="#2B4552"/>
<circle r="2.71251" transform="matrix(1 0 0 -1 84.8131 142.913)" fill="#2B4552"/>
<circle r="2.71251" transform="matrix(1 0 0 -1 101.088 142.913)" fill="#2B4552"/>
<circle r="2.71251" transform="matrix(1 0 0 -1 117.361 142.913)" fill="#2B4552"/>
<circle r="2.71251" transform="matrix(1 0 0 -1 133.638 142.913)" fill="#2B4552"/>
<circle r="2.71251" transform="matrix(1 0 0 -1 149.912 142.913)" fill="#2B4552"/>
<circle r="2.71251" transform="matrix(1 0 0 -1 166.188 142.913)" fill="#2B4552"/>
<circle r="2.71251" transform="matrix(1 0 0 -1 182.463 142.913)" fill="#2B4552"/>
<circle r="2.71251" transform="matrix(1 0 0 -1 198.738 142.913)" fill="#2B4552"/>
<circle r="2.71251" transform="matrix(1 0 0 -1 215.013 142.913)" fill="#2B4552"/>
<circle r="2.71251" transform="matrix(1 0 0 -1 231.287 142.913)" fill="#2B4552"/>
<circle r="2.71251" transform="matrix(1 0 0 -1 19.712 126.638)" fill="#2B4552"/>
<circle r="2.71251" transform="matrix(1 0 0 -1 35.9859 126.638)" fill="#2B4552"/>
<circle r="2.71251" transform="matrix(1 0 0 -1 52.2628 126.638)" fill="#2B4552"/>
<circle r="2.71251" transform="matrix(1 0 0 -1 68.5367 126.638)" fill="#2B4552"/>
<circle r="2.71251" transform="matrix(1 0 0 -1 84.8131 126.638)" fill="#2B4552"/>
<circle r="2.71251" transform="matrix(1 0 0 -1 101.088 126.638)" fill="#2B4552"/>
<circle r="2.71251" transform="matrix(1 0 0 -1 117.361 126.638)" fill="#2B4552"/>
<circle r="2.71251" transform="matrix(1 0 0 -1 133.638 126.638)" fill="#2B4552"/>
<circle r="2.71251" transform="matrix(1 0 0 -1 149.912 126.638)" fill="#2B4552"/>
<circle r="2.71251" transform="matrix(1 0 0 -1 166.188 126.638)" fill="#2B4552"/>
<circle r="2.71251" transform="matrix(1 0 0 -1 182.463 126.638)" fill="#2B4552"/>
<circle r="2.71251" transform="matrix(1 0 0 -1 198.738 126.638)" fill="#2B4552"/>
<circle r="2.71251" transform="matrix(1 0 0 -1 215.013 126.638)" fill="#2B4552"/>
<circle r="2.71251" transform="matrix(1 0 0 -1 231.287 126.638)" fill="#2B4552"/>
<circle r="2.71251" transform="matrix(1 0 0 -1 19.712 110.363)" fill="#2B4552"/>
<circle r="2.71251" transform="matrix(1 0 0 -1 35.9859 110.363)" fill="#2B4552"/>
<circle r="2.71251" transform="matrix(1 0 0 -1 52.2628 110.363)" fill="#2B4552"/>
<circle r="2.71251" transform="matrix(1 0 0 -1 68.5367 110.363)" fill="#2B4552"/>
<circle r="2.71251" transform="matrix(1 0 0 -1 84.8131 110.363)" fill="#2B4552"/>
<circle r="2.71251" transform="matrix(1 0 0 -1 101.088 110.363)" fill="#2B4552"/>
<circle r="2.71251" transform="matrix(1 0 0 -1 117.361 110.363)" fill="#2B4552"/>
<circle r="2.71251" transform="matrix(1 0 0 -1 133.638 110.363)" fill="#2B4552"/>
<circle r="2.71251" transform="matrix(1 0 0 -1 149.912 110.363)" fill="#2B4552"/>
<circle r="2.71251" transform="matrix(1 0 0 -1 166.188 110.363)" fill="#2B4552"/>
<circle r="2.71251" transform="matrix(1 0 0 -1 182.463 110.363)" fill="#2B4552"/>
<circle r="2.71251" transform="matrix(1 0 0 -1 198.738 110.363)" fill="#2B4552"/>
<circle r="2.71251" transform="matrix(1 0 0 -1 215.013 110.363)" fill="#2B4552"/>
<circle r="2.71251" transform="matrix(1 0 0 -1 231.287 110.363)" fill="#2B4552"/>
<circle r="2.71251" transform="matrix(1 0 0 -1 19.712 94.0873)" fill="#2B4552"/>
<circle r="2.71251" transform="matrix(1 0 0 -1 35.9859 94.0873)" fill="#2B4552"/>
<circle r="2.71251" transform="matrix(1 0 0 -1 52.2628 94.0873)" fill="#2B4552"/>
<circle r="2.71251" transform="matrix(1 0 0 -1 68.5367 94.0873)" fill="#2B4552"/>
<circle r="2.71251" transform="matrix(1 0 0 -1 84.8131 94.0873)" fill="#2B4552"/>
<circle r="2.71251" transform="matrix(1 0 0 -1 101.088 94.0873)" fill="#2B4552"/>
<circle r="2.71251" transform="matrix(1 0 0 -1 117.361 94.0873)" fill="#2B4552"/>
<circle r="2.71251" transform="matrix(1 0 0 -1 133.638 94.0873)" fill="#2B4552"/>
<circle r="2.71251" transform="matrix(1 0 0 -1 149.912 94.0873)" fill="#2B4552"/>
<circle r="2.71251" transform="matrix(1 0 0 -1 166.188 94.0873)" fill="#2B4552"/>
<circle r="2.71251" transform="matrix(1 0 0 -1 182.463 94.0873)" fill="#2B4552"/>
<circle r="2.71251" transform="matrix(1 0 0 -1 198.738 94.0873)" fill="#2B4552"/>
<circle r="2.71251" transform="matrix(1 0 0 -1 215.013 94.0873)" fill="#2B4552"/>
<circle r="2.71251" transform="matrix(1 0 0 -1 231.287 94.0873)" fill="#2B4552"/>
<circle r="2.71251" transform="matrix(1 0 0 -1 19.712 77.8126)" fill="#2B4552"/>
<circle r="2.71251" transform="matrix(1 0 0 -1 35.9859 77.8126)" fill="#2B4552"/>
<circle r="2.71251" transform="matrix(1 0 0 -1 52.2628 77.8126)" fill="#2B4552"/>
<circle r="2.71251" transform="matrix(1 0 0 -1 68.5367 77.8126)" fill="#2B4552"/>
<circle r="2.71251" transform="matrix(1 0 0 -1 84.8131 77.8126)" fill="#2B4552"/>
<circle r="2.71251" transform="matrix(1 0 0 -1 101.088 77.8126)" fill="#2B4552"/>
<circle r="2.71251" transform="matrix(1 0 0 -1 117.361 77.8126)" fill="#2B4552"/>
<circle r="2.71251" transform="matrix(1 0 0 -1 133.713 77.7125)" fill="#2B4552"/>
<circle r="2.71251" transform="matrix(1 0 0 -1 149.912 77.8126)" fill="#2B4552"/>
<circle r="2.71251" transform="matrix(1 0 0 -1 166.188 77.8126)" fill="#2B4552"/>
<circle r="2.71251" transform="matrix(1 0 0 -1 182.463 77.8126)" fill="#2B4552"/>
<circle r="2.71251" transform="matrix(1 0 0 -1 198.738 77.8126)" fill="#2B4552"/>
<circle r="2.71251" transform="matrix(1 0 0 -1 215.013 77.8126)" fill="#2B4552"/>
<circle r="2.71251" transform="matrix(1 0 0 -1 231.287 77.8126)" fill="#2B4552"/>
<circle r="2.71251" transform="matrix(1 0 0 -1 19.712 61.5372)" fill="#2B4552"/>
<circle r="2.71251" transform="matrix(1 0 0 -1 35.9859 61.5372)" fill="#2B4552"/>
<circle r="2.71251" transform="matrix(1 0 0 -1 52.2628 61.5372)" fill="#2B4552"/>
<circle r="2.71251" transform="matrix(1 0 0 -1 68.5367 61.5372)" fill="#2B4552"/>
<circle r="2.71251" transform="matrix(1 0 0 -1 84.8131 61.5372)" fill="#2B4552"/>
<circle r="2.71251" transform="matrix(1 0 0 -1 101.088 61.5372)" fill="#2B4552"/>
<circle r="2.71251" transform="matrix(1 0 0 -1 117.361 61.5372)" fill="#2B4552"/>
<circle r="2.71251" transform="matrix(1 0 0 -1 133.638 61.5372)" fill="#2B4552"/>
<circle r="2.71251" transform="matrix(1 0 0 -1 149.912 61.5372)" fill="#2B4552"/>
<circle r="2.71251" transform="matrix(1 0 0 -1 166.188 61.5372)" fill="#2B4552"/>
<circle r="2.71251" transform="matrix(1 0 0 -1 182.463 61.5372)" fill="#2B4552"/>
<circle r="2.71251" transform="matrix(1 0 0 -1 198.738 61.5372)" fill="#2B4552"/>
<circle r="2.71251" transform="matrix(1 0 0 -1 215.013 61.5372)" fill="#2B4552"/>
<circle r="2.71251" transform="matrix(1 0 0 -1 231.287 61.5372)" fill="#2B4552"/>
<circle r="2.71251" transform="matrix(1 0 0 -1 19.712 45.2626)" fill="#2B4552"/>
<circle r="2.71251" transform="matrix(1 0 0 -1 35.9859 45.2626)" fill="#2B4552"/>
<circle r="2.71251" transform="matrix(1 0 0 -1 52.2628 45.2626)" fill="#2B4552"/>
<circle r="2.71251" transform="matrix(1 0 0 -1 68.5367 45.2626)" fill="#2B4552"/>
<circle r="2.71251" transform="matrix(1 0 0 -1 84.8131 45.2626)" fill="#2B4552"/>
<circle r="2.71251" transform="matrix(1 0 0 -1 101.088 45.2626)" fill="#2B4552"/>
<circle r="2.71251" transform="matrix(1 0 0 -1 117.361 45.2626)" fill="#2B4552"/>
<circle r="2.71251" transform="matrix(1 0 0 -1 133.638 45.2626)" fill="#2B4552"/>
<circle r="2.71251" transform="matrix(1 0 0 -1 149.912 45.2626)" fill="#2B4552"/>
<circle r="2.71251" transform="matrix(1 0 0 -1 166.188 45.2626)" fill="#2B4552"/>
<circle r="2.71251" transform="matrix(1 0 0 -1 182.463 45.2626)" fill="#2B4552"/>
<circle r="2.71251" transform="matrix(1 0 0 -1 198.738 45.2626)" fill="#2B4552"/>
<circle r="2.71251" transform="matrix(1 0 0 -1 215.013 45.2626)" fill="#2B4552"/>
<circle r="2.71251" transform="matrix(1 0 0 -1 231.287 45.2626)" fill="#2B4552"/>
<circle r="2.71251" transform="matrix(1 0 0 -1 19.712 28.9872)" fill="#2B4552"/>
<circle r="2.71251" transform="matrix(1 0 0 -1 35.9859 28.9872)" fill="#2B4552"/>
<circle r="2.71251" transform="matrix(1 0 0 -1 52.2628 28.9872)" fill="#2B4552"/>
<circle r="2.71251" transform="matrix(1 0 0 -1 68.5367 28.9872)" fill="#2B4552"/>
<circle r="2.71251" transform="matrix(1 0 0 -1 84.8131 28.9872)" fill="#2B4552"/>
<circle r="2.71251" transform="matrix(1 0 0 -1 101.088 28.9872)" fill="#2B4552"/>
<circle r="2.71251" transform="matrix(1 0 0 -1 117.361 28.9872)" fill="#2B4552"/>
<circle r="2.71251" transform="matrix(1 0 0 -1 133.638 28.9872)" fill="#2B4552"/>
<circle r="2.71251" transform="matrix(1 0 0 -1 149.912 28.9872)" fill="#2B4552"/>
<circle r="2.71251" transform="matrix(1 0 0 -1 166.188 28.9872)" fill="#2B4552"/>
<circle r="2.71251" transform="matrix(1 0 0 -1 182.463 28.9872)" fill="#2B4552"/>
<circle r="2.71251" transform="matrix(1 0 0 -1 198.738 28.9872)" fill="#2B4552"/>
<circle r="2.71251" transform="matrix(1 0 0 -1 215.013 28.9872)" fill="#2B4552"/>
<circle r="2.71251" transform="matrix(1 0 0 -1 231.287 28.9872)" fill="#2B4552"/>
<circle r="2.71251" transform="matrix(1 0 0 -1 19.712 12.7125)" fill="#2B4552"/>
<circle r="2.71251" transform="matrix(1 0 0 -1 35.9859 12.7125)" fill="#2B4552"/>
<circle r="2.71251" transform="matrix(1 0 0 -1 52.2628 12.7125)" fill="#2B4552"/>
<circle r="2.71251" transform="matrix(1 0 0 -1 68.5367 12.7125)" fill="#2B4552"/>
<circle r="2.71251" transform="matrix(1 0 0 -1 84.8131 12.7125)" fill="#2B4552"/>
<circle r="2.71251" transform="matrix(1 0 0 -1 101.088 12.7125)" fill="#2B4552"/>
<circle r="2.71251" transform="matrix(1 0 0 -1 117.361 12.7125)" fill="#2B4552"/>
<circle r="2.71251" transform="matrix(1 0 0 -1 133.638 12.7125)" fill="#2B4552"/>
<circle r="2.71251" transform="matrix(1 0 0 -1 149.912 12.7125)" fill="#2B4552"/>
<circle r="2.71251" transform="matrix(1 0 0 -1 166.188 12.7125)" fill="#2B4552"/>
<circle r="2.71251" transform="matrix(1 0 0 -1 182.463 12.7125)" fill="#2B4552"/>
<circle r="2.71251" transform="matrix(1 0 0 -1 198.738 12.7125)" fill="#2B4552"/>
<circle r="2.71251" transform="matrix(1 0 0 -1 215.013 12.7125)" fill="#2B4552"/>
<circle r="2.71251" transform="matrix(1 0 0 -1 231.287 12.7125)" fill="#2B4552"/>
</svg>
