<svg width="252" height="259" viewBox="0 0 252 259" fill="none" xmlns="http://www.w3.org/2000/svg">
<rect width="250" height="259" rx="15" fill="#11DE4A"/>
<path d="M0 201.656H251.077V244C251.077 252.284 244.361 259 236.077 259H15C6.71571 259 0 252.284 0 244V201.656Z" fill="white"/>
<path d="M91.984 212.976H90.048L88.688 224H91.04L91.824 217.392L94.416 222.736H96.224L98.8 217.392L99.568 224H101.92L100.576 212.976H98.608L95.312 220.08L91.984 212.976ZM111.268 224V216.528H109.06V217.36C108.548 216.64 107.588 216.368 106.884 216.368C105.876 216.368 104.996 216.736 104.228 217.456C103.46 218.176 103.076 219.104 103.076 220.256C103.076 221.408 103.46 222.352 104.228 223.072C104.996 223.792 105.876 224.144 106.884 224.144C107.236 224.144 107.636 224.064 108.068 223.888C108.516 223.712 108.852 223.472 109.06 223.152V224H111.268ZM107.252 222.032C106.756 222.032 106.324 221.872 105.94 221.536C105.572 221.2 105.38 220.768 105.38 220.256C105.38 219.744 105.572 219.328 105.94 218.992C106.324 218.656 106.756 218.48 107.252 218.48C108.212 218.48 109.06 219.184 109.06 220.256C109.06 221.328 108.212 222.032 107.252 222.032ZM113.321 224H115.545V212.464H113.321V224ZM125.331 224V216.528H123.123V217.36C122.611 216.64 121.651 216.368 120.947 216.368C119.939 216.368 119.059 216.736 118.291 217.456C117.523 218.176 117.139 219.104 117.139 220.256C117.139 221.408 117.523 222.352 118.291 223.072C119.059 223.792 119.939 224.144 120.947 224.144C121.299 224.144 121.699 224.064 122.131 223.888C122.579 223.712 122.915 223.472 123.123 223.152V224H125.331ZM121.315 222.032C120.819 222.032 120.387 221.872 120.003 221.536C119.635 221.2 119.443 220.768 119.443 220.256C119.443 219.744 119.635 219.328 120.003 218.992C120.387 218.656 120.819 218.48 121.315 218.48C122.275 218.48 123.123 219.184 123.123 220.256C123.123 221.328 122.275 222.032 121.315 222.032ZM130.999 216.368C129.895 216.368 128.935 216.736 128.135 217.456C127.335 218.176 126.935 219.104 126.935 220.24C126.935 221.376 127.335 222.32 128.135 223.056C128.935 223.792 129.895 224.16 130.999 224.16C132.343 224.16 133.543 223.568 134.247 222.56L132.439 221.28C132.119 221.776 131.639 222.032 130.999 222.032C130.503 222.032 130.071 221.872 129.703 221.536C129.335 221.2 129.143 220.768 129.143 220.24C129.143 219.728 129.335 219.312 129.703 218.992C130.071 218.656 130.503 218.496 130.999 218.496C131.639 218.496 132.119 218.752 132.439 219.248L134.247 217.952C133.527 216.944 132.327 216.368 130.999 216.368ZM138.014 220.048C138.014 219.008 138.686 218.528 139.502 218.528C140.222 218.528 140.878 219.104 140.878 220.016V224H143.102V219.936C143.102 217.648 142.046 216.368 140.11 216.368C139.71 216.368 139.294 216.48 138.862 216.72C138.43 216.944 138.158 217.264 138.014 217.696V212.464H135.79V224H138.014V220.048ZM145.055 216.528V224H147.263V216.528H145.055ZM146.159 212.464C145.391 212.464 144.767 213.04 144.767 213.76C144.767 214.48 145.391 215.072 146.159 215.072C146.911 215.072 147.519 214.48 147.519 213.76C147.519 213.04 146.911 212.464 146.159 212.464ZM152.217 213.664H150.009V216.528H148.649V218.288H150.009V224H152.217V218.288H153.785V216.528H152.217V213.664ZM160.288 221.536C159.92 222 159.376 222.24 158.656 222.24C157.776 222.24 156.928 221.808 156.816 220.992H162.288C162.304 220.736 162.32 220.512 162.32 220.304C162.32 219.136 161.952 218.192 161.216 217.472C160.496 216.736 159.584 216.368 158.496 216.368C157.392 216.368 156.464 216.72 155.712 217.44C154.96 218.16 154.592 219.088 154.592 220.24C154.592 221.392 154.96 222.336 155.712 223.072C156.464 223.792 157.392 224.16 158.496 224.16C160.08 224.16 161.216 223.648 161.904 222.64L160.288 221.536ZM156.848 219.6C157.2 217.888 159.856 217.904 160.08 219.6H156.848Z" fill="#202538"/>
<path opacity="0.6" d="M99.26 247H100.548L101.262 244.676H102.872L102.172 247H103.474L104.188 244.676H105.728L106.078 243.43H104.538L105.238 241.036H106.792L107.128 239.79H105.588L106.302 237.354H104.986L104.272 239.79H102.676L103.376 237.354H102.046L101.346 239.79H99.82L99.484 241.036H100.982L100.296 243.43H98.77L98.434 244.676H99.96L99.26 247ZM101.612 243.43L102.312 241.036H103.922L103.208 243.43H101.612ZM111.491 237.718L107.935 239.244V240.756L109.993 239.944V247H111.603V237.718H111.491ZM116.768 237.718L113.212 239.244V240.756L115.27 239.944V247H116.88V237.718H116.768ZM119.343 247H123.123C125.881 247 127.491 244.928 127.491 242.198C127.491 239.454 125.881 237.354 123.123 237.354H119.343V247ZM121.051 245.474V238.88H123.123C124.873 238.88 125.769 240.392 125.769 242.198C125.769 243.99 124.873 245.474 123.123 245.474H121.051ZM131.086 245.474V243.038H134.782V241.484H131.086V238.88H135.314V237.354H129.392V247H135.454V245.474H131.086ZM143.816 243.724H142.444V237.83H141.702L136.298 244.76V245.194H140.806V247H142.444V245.194H143.816V243.724ZM138.748 243.724L140.806 241.092V243.724H138.748ZM151.613 247H153.419L149.807 237.354H147.959L144.333 247H146.153L146.993 244.634H150.773L151.613 247ZM147.511 243.15L148.883 239.258L150.255 243.15H147.511Z" fill="#202538"/>
<circle r="2.71251" transform="matrix(1 0 0 -1 19.7125 191.738)" fill="#21EA58"/>
<circle r="2.71251" transform="matrix(1 0 0 -1 35.9864 191.738)" fill="#21EA58"/>
<circle r="2.71251" transform="matrix(1 0 0 -1 52.2633 191.738)" fill="#21EA58"/>
<circle r="2.71251" transform="matrix(1 0 0 -1 68.5372 191.738)" fill="#21EA58"/>
<circle r="2.71251" transform="matrix(1 0 0 -1 84.8136 191.738)" fill="#21EA58"/>
<circle r="2.71251" transform="matrix(1 0 0 -1 101.088 191.738)" fill="#21EA58"/>
<circle r="2.71251" transform="matrix(1 0 0 -1 117.362 191.738)" fill="#21EA58"/>
<circle r="2.71251" transform="matrix(1 0 0 -1 133.638 191.738)" fill="#21EA58"/>
<circle r="2.71251" transform="matrix(1 0 0 -1 149.913 191.738)" fill="#21EA58"/>
<circle r="2.71251" transform="matrix(1 0 0 -1 166.188 191.738)" fill="#21EA58"/>
<circle r="2.71251" transform="matrix(1 0 0 -1 182.463 191.738)" fill="#21EA58"/>
<circle r="2.71251" transform="matrix(1 0 0 -1 198.738 191.738)" fill="#21EA58"/>
<circle r="2.71251" transform="matrix(1 0 0 -1 215.014 191.738)" fill="#21EA58"/>
<circle r="2.71251" transform="matrix(1 0 0 -1 231.288 191.738)" fill="#21EA58"/>
<circle r="2.71251" transform="matrix(1 0 0 -1 19.7125 175.463)" fill="#21EA58"/>
<circle r="2.71251" transform="matrix(1 0 0 -1 35.9864 175.463)" fill="#21EA58"/>
<circle r="2.71251" transform="matrix(1 0 0 -1 52.2633 175.463)" fill="#21EA58"/>
<circle r="2.71251" transform="matrix(1 0 0 -1 68.5372 175.463)" fill="#21EA58"/>
<circle r="2.71251" transform="matrix(1 0 0 -1 84.8136 175.463)" fill="#21EA58"/>
<circle r="2.71251" transform="matrix(1 0 0 -1 101.088 175.463)" fill="#21EA58"/>
<circle r="2.71251" transform="matrix(1 0 0 -1 117.362 175.463)" fill="#21EA58"/>
<circle r="2.71251" transform="matrix(1 0 0 -1 133.638 175.463)" fill="#21EA58"/>
<circle r="2.71251" transform="matrix(1 0 0 -1 149.913 175.463)" fill="#21EA58"/>
<circle r="2.71251" transform="matrix(1 0 0 -1 166.188 175.463)" fill="#21EA58"/>
<circle r="2.71251" transform="matrix(1 0 0 -1 182.463 175.463)" fill="#21EA58"/>
<circle r="2.71251" transform="matrix(1 0 0 -1 198.738 175.463)" fill="#21EA58"/>
<circle r="2.71251" transform="matrix(1 0 0 -1 215.014 175.463)" fill="#21EA58"/>
<circle r="2.71251" transform="matrix(1 0 0 -1 231.288 175.463)" fill="#21EA58"/>
<circle r="2.71251" transform="matrix(1 0 0 -1 19.7125 159.187)" fill="#21EA58"/>
<circle r="2.71251" transform="matrix(1 0 0 -1 35.9864 159.187)" fill="#21EA58"/>
<circle r="2.71251" transform="matrix(1 0 0 -1 52.2633 159.187)" fill="#21EA58"/>
<circle r="2.71251" transform="matrix(1 0 0 -1 68.5372 159.187)" fill="#21EA58"/>
<circle r="2.71251" transform="matrix(1 0 0 -1 84.8136 159.187)" fill="#21EA58"/>
<circle r="2.71251" transform="matrix(1 0 0 -1 101.088 159.187)" fill="#21EA58"/>
<circle r="2.71251" transform="matrix(1 0 0 -1 117.362 159.187)" fill="#21EA58"/>
<circle r="2.71251" transform="matrix(1 0 0 -1 133.638 159.187)" fill="#21EA58"/>
<circle r="2.71251" transform="matrix(1 0 0 -1 149.913 159.187)" fill="#21EA58"/>
<circle r="2.71251" transform="matrix(1 0 0 -1 166.188 159.187)" fill="#21EA58"/>
<circle r="2.71251" transform="matrix(1 0 0 -1 182.463 159.187)" fill="#21EA58"/>
<circle r="2.71251" transform="matrix(1 0 0 -1 198.738 159.187)" fill="#21EA58"/>
<circle r="2.71251" transform="matrix(1 0 0 -1 215.014 159.187)" fill="#21EA58"/>
<circle r="2.71251" transform="matrix(1 0 0 -1 231.288 159.187)" fill="#21EA58"/>
<circle r="2.71251" transform="matrix(1 0 0 -1 19.7125 142.913)" fill="#21EA58"/>
<circle r="2.71251" transform="matrix(1 0 0 -1 35.9864 142.913)" fill="#21EA58"/>
<circle r="2.71251" transform="matrix(1 0 0 -1 52.2633 142.913)" fill="#21EA58"/>
<circle r="2.71251" transform="matrix(1 0 0 -1 68.5372 142.913)" fill="#21EA58"/>
<circle r="2.71251" transform="matrix(1 0 0 -1 84.8136 142.913)" fill="#21EA58"/>
<circle r="2.71251" transform="matrix(1 0 0 -1 101.088 142.913)" fill="#21EA58"/>
<circle r="2.71251" transform="matrix(1 0 0 -1 117.362 142.913)" fill="#21EA58"/>
<circle r="2.71251" transform="matrix(1 0 0 -1 133.638 142.913)" fill="#21EA58"/>
<circle r="2.71251" transform="matrix(1 0 0 -1 149.913 142.913)" fill="#21EA58"/>
<circle r="2.71251" transform="matrix(1 0 0 -1 166.188 142.913)" fill="#21EA58"/>
<circle r="2.71251" transform="matrix(1 0 0 -1 182.463 142.913)" fill="#21EA58"/>
<circle r="2.71251" transform="matrix(1 0 0 -1 198.738 142.913)" fill="#21EA58"/>
<circle r="2.71251" transform="matrix(1 0 0 -1 215.014 142.913)" fill="#21EA58"/>
<circle r="2.71251" transform="matrix(1 0 0 -1 231.288 142.913)" fill="#21EA58"/>
<circle r="2.71251" transform="matrix(1 0 0 -1 19.7125 126.638)" fill="#21EA58"/>
<circle r="2.71251" transform="matrix(1 0 0 -1 35.9864 126.638)" fill="#21EA58"/>
<circle r="2.71251" transform="matrix(1 0 0 -1 52.2633 126.638)" fill="#21EA58"/>
<circle r="2.71251" transform="matrix(1 0 0 -1 68.5372 126.638)" fill="#21EA58"/>
<circle r="2.71251" transform="matrix(1 0 0 -1 84.8136 126.638)" fill="#21EA58"/>
<circle r="2.71251" transform="matrix(1 0 0 -1 101.088 126.638)" fill="#21EA58"/>
<circle r="2.71251" transform="matrix(1 0 0 -1 117.362 126.638)" fill="#21EA58"/>
<circle r="2.71251" transform="matrix(1 0 0 -1 133.638 126.638)" fill="#21EA58"/>
<circle r="2.71251" transform="matrix(1 0 0 -1 149.913 126.638)" fill="#21EA58"/>
<circle r="2.71251" transform="matrix(1 0 0 -1 166.188 126.638)" fill="#21EA58"/>
<circle r="2.71251" transform="matrix(1 0 0 -1 182.463 126.638)" fill="#21EA58"/>
<circle r="2.71251" transform="matrix(1 0 0 -1 198.738 126.638)" fill="#21EA58"/>
<circle r="2.71251" transform="matrix(1 0 0 -1 215.014 126.638)" fill="#21EA58"/>
<circle r="2.71251" transform="matrix(1 0 0 -1 231.288 126.638)" fill="#21EA58"/>
<circle r="2.71251" transform="matrix(1 0 0 -1 19.7125 110.363)" fill="#21EA58"/>
<circle r="2.71251" transform="matrix(1 0 0 -1 35.9864 110.363)" fill="#21EA58"/>
<circle r="2.71251" transform="matrix(1 0 0 -1 52.2633 110.363)" fill="#21EA58"/>
<circle r="2.71251" transform="matrix(1 0 0 -1 68.5372 110.363)" fill="#21EA58"/>
<circle r="2.71251" transform="matrix(1 0 0 -1 84.8136 110.363)" fill="#21EA58"/>
<circle r="2.71251" transform="matrix(1 0 0 -1 101.088 110.363)" fill="#21EA58"/>
<circle r="2.71251" transform="matrix(1 0 0 -1 117.362 110.363)" fill="#21EA58"/>
<circle r="2.71251" transform="matrix(1 0 0 -1 133.638 110.363)" fill="#21EA58"/>
<circle r="2.71251" transform="matrix(1 0 0 -1 149.913 110.363)" fill="#21EA58"/>
<circle r="2.71251" transform="matrix(1 0 0 -1 166.188 110.363)" fill="#21EA58"/>
<circle r="2.71251" transform="matrix(1 0 0 -1 182.463 110.363)" fill="#21EA58"/>
<circle r="2.71251" transform="matrix(1 0 0 -1 198.738 110.363)" fill="#21EA58"/>
<circle r="2.71251" transform="matrix(1 0 0 -1 215.014 110.363)" fill="#21EA58"/>
<circle r="2.71251" transform="matrix(1 0 0 -1 231.288 110.363)" fill="#21EA58"/>
<circle r="2.71251" transform="matrix(1 0 0 -1 19.7125 94.0873)" fill="#21EA58"/>
<circle r="2.71251" transform="matrix(1 0 0 -1 35.9864 94.0873)" fill="#21EA58"/>
<circle r="2.71251" transform="matrix(1 0 0 -1 52.2633 94.0873)" fill="#21EA58"/>
<circle r="2.71251" transform="matrix(1 0 0 -1 68.5372 94.0873)" fill="#21EA58"/>
<circle r="2.71251" transform="matrix(1 0 0 -1 84.8136 94.0873)" fill="#21EA58"/>
<circle r="2.71251" transform="matrix(1 0 0 -1 101.088 94.0873)" fill="#21EA58"/>
<circle r="2.71251" transform="matrix(1 0 0 -1 117.362 94.0873)" fill="#21EA58"/>
<circle r="2.71251" transform="matrix(1 0 0 -1 133.638 94.0873)" fill="#21EA58"/>
<circle r="2.71251" transform="matrix(1 0 0 -1 149.913 94.0873)" fill="#21EA58"/>
<circle r="2.71251" transform="matrix(1 0 0 -1 166.188 94.0873)" fill="#21EA58"/>
<circle r="2.71251" transform="matrix(1 0 0 -1 182.463 94.0873)" fill="#21EA58"/>
<circle r="2.71251" transform="matrix(1 0 0 -1 198.738 94.0873)" fill="#21EA58"/>
<circle r="2.71251" transform="matrix(1 0 0 -1 215.014 94.0873)" fill="#21EA58"/>
<circle r="2.71251" transform="matrix(1 0 0 -1 231.288 94.0873)" fill="#21EA58"/>
<circle r="2.71251" transform="matrix(1 0 0 -1 19.7125 77.8126)" fill="#21EA58"/>
<circle r="2.71251" transform="matrix(1 0 0 -1 35.9864 77.8126)" fill="#21EA58"/>
<circle r="2.71251" transform="matrix(1 0 0 -1 52.2633 77.8126)" fill="#21EA58"/>
<circle r="2.71251" transform="matrix(1 0 0 -1 68.5372 77.8126)" fill="#21EA58"/>
<circle r="2.71251" transform="matrix(1 0 0 -1 84.8136 77.8126)" fill="#21EA58"/>
<circle r="2.71251" transform="matrix(1 0 0 -1 101.088 77.8126)" fill="#21EA58"/>
<circle r="2.71251" transform="matrix(1 0 0 -1 117.362 77.8126)" fill="#21EA58"/>
<circle r="2.71251" transform="matrix(1 0 0 -1 133.638 77.8126)" fill="#21EA58"/>
<circle r="2.71251" transform="matrix(1 0 0 -1 149.913 77.8126)" fill="#21EA58"/>
<circle r="2.71251" transform="matrix(1 0 0 -1 166.188 77.8126)" fill="#21EA58"/>
<circle r="2.71251" transform="matrix(1 0 0 -1 182.463 77.8126)" fill="#21EA58"/>
<circle r="2.71251" transform="matrix(1 0 0 -1 198.738 77.8126)" fill="#21EA58"/>
<circle r="2.71251" transform="matrix(1 0 0 -1 215.014 77.8126)" fill="#21EA58"/>
<circle r="2.71251" transform="matrix(1 0 0 -1 231.288 77.8126)" fill="#21EA58"/>
<circle r="2.71251" transform="matrix(1 0 0 -1 19.7125 61.5372)" fill="#21EA58"/>
<circle r="2.71251" transform="matrix(1 0 0 -1 35.9864 61.5372)" fill="#21EA58"/>
<circle r="2.71251" transform="matrix(1 0 0 -1 52.2633 61.5372)" fill="#21EA58"/>
<circle r="2.71251" transform="matrix(1 0 0 -1 68.5372 61.5372)" fill="#21EA58"/>
<circle r="2.71251" transform="matrix(1 0 0 -1 84.8136 61.5372)" fill="#21EA58"/>
<circle r="2.71251" transform="matrix(1 0 0 -1 101.088 61.5372)" fill="#21EA58"/>
<circle r="2.71251" transform="matrix(1 0 0 -1 117.362 61.5372)" fill="#21EA58"/>
<circle r="2.71251" transform="matrix(1 0 0 -1 133.638 61.5372)" fill="#21EA58"/>
<circle r="2.71251" transform="matrix(1 0 0 -1 149.913 61.5372)" fill="#21EA58"/>
<circle r="2.71251" transform="matrix(1 0 0 -1 166.188 61.5372)" fill="#21EA58"/>
<circle r="2.71251" transform="matrix(1 0 0 -1 182.463 61.5372)" fill="#21EA58"/>
<circle r="2.71251" transform="matrix(1 0 0 -1 198.738 61.5372)" fill="#21EA58"/>
<circle r="2.71251" transform="matrix(1 0 0 -1 215.014 61.5372)" fill="#21EA58"/>
<circle r="2.71251" transform="matrix(1 0 0 -1 231.288 61.5372)" fill="#21EA58"/>
<circle r="2.71251" transform="matrix(1 0 0 -1 19.7125 45.2626)" fill="#21EA58"/>
<circle r="2.71251" transform="matrix(1 0 0 -1 35.9864 45.2626)" fill="#21EA58"/>
<circle r="2.71251" transform="matrix(1 0 0 -1 52.2633 45.2626)" fill="#21EA58"/>
<circle r="2.71251" transform="matrix(1 0 0 -1 68.5372 45.2626)" fill="#21EA58"/>
<circle r="2.71251" transform="matrix(1 0 0 -1 84.8136 45.2626)" fill="#21EA58"/>
<circle r="2.71251" transform="matrix(1 0 0 -1 101.088 45.2626)" fill="#21EA58"/>
<circle r="2.71251" transform="matrix(1 0 0 -1 117.362 45.2626)" fill="#21EA58"/>
<circle r="2.71251" transform="matrix(1 0 0 -1 133.638 45.2626)" fill="#21EA58"/>
<circle r="2.71251" transform="matrix(1 0 0 -1 149.913 45.2626)" fill="#21EA58"/>
<circle r="2.71251" transform="matrix(1 0 0 -1 166.188 45.2626)" fill="#21EA58"/>
<circle r="2.71251" transform="matrix(1 0 0 -1 182.463 45.2626)" fill="#21EA58"/>
<circle r="2.71251" transform="matrix(1 0 0 -1 198.738 45.2626)" fill="#21EA58"/>
<circle r="2.71251" transform="matrix(1 0 0 -1 215.014 45.2626)" fill="#21EA58"/>
<circle r="2.71251" transform="matrix(1 0 0 -1 231.288 45.2626)" fill="#21EA58"/>
<circle r="2.71251" transform="matrix(1 0 0 -1 19.7125 28.9872)" fill="#21EA58"/>
<circle r="2.71251" transform="matrix(1 0 0 -1 35.9864 28.9872)" fill="#21EA58"/>
<circle r="2.71251" transform="matrix(1 0 0 -1 52.2633 28.9872)" fill="#21EA58"/>
<circle r="2.71251" transform="matrix(1 0 0 -1 68.5372 28.9872)" fill="#21EA58"/>
<circle r="2.71251" transform="matrix(1 0 0 -1 84.8136 28.9872)" fill="#21EA58"/>
<circle r="2.71251" transform="matrix(1 0 0 -1 101.088 28.9872)" fill="#21EA58"/>
<circle r="2.71251" transform="matrix(1 0 0 -1 117.362 28.9872)" fill="#21EA58"/>
<circle r="2.71251" transform="matrix(1 0 0 -1 133.638 28.9872)" fill="#21EA58"/>
<circle r="2.71251" transform="matrix(1 0 0 -1 149.913 28.9872)" fill="#21EA58"/>
<circle r="2.71251" transform="matrix(1 0 0 -1 166.188 28.9872)" fill="#21EA58"/>
<circle r="2.71251" transform="matrix(1 0 0 -1 182.463 28.9872)" fill="#21EA58"/>
<circle r="2.71251" transform="matrix(1 0 0 -1 198.738 28.9872)" fill="#21EA58"/>
<circle r="2.71251" transform="matrix(1 0 0 -1 215.014 28.9872)" fill="#21EA58"/>
<circle r="2.71251" transform="matrix(1 0 0 -1 231.288 28.9872)" fill="#21EA58"/>
<circle r="2.71251" transform="matrix(1 0 0 -1 19.7125 12.7125)" fill="#21EA58"/>
<circle r="2.71251" transform="matrix(1 0 0 -1 35.9864 12.7125)" fill="#21EA58"/>
<circle r="2.71251" transform="matrix(1 0 0 -1 52.2633 12.7125)" fill="#21EA58"/>
<circle r="2.71251" transform="matrix(1 0 0 -1 68.5372 12.7125)" fill="#21EA58"/>
<circle r="2.71251" transform="matrix(1 0 0 -1 84.8136 12.7125)" fill="#21EA58"/>
<circle r="2.71251" transform="matrix(1 0 0 -1 101.088 12.7125)" fill="#21EA58"/>
<circle r="2.71251" transform="matrix(1 0 0 -1 117.362 12.7125)" fill="#21EA58"/>
<circle r="2.71251" transform="matrix(1 0 0 -1 133.638 12.7125)" fill="#21EA58"/>
<circle r="2.71251" transform="matrix(1 0 0 -1 149.913 12.7125)" fill="#21EA58"/>
<circle r="2.71251" transform="matrix(1 0 0 -1 166.188 12.7125)" fill="#21EA58"/>
<circle r="2.71251" transform="matrix(1 0 0 -1 182.463 12.7125)" fill="#21EA58"/>
<circle r="2.71251" transform="matrix(1 0 0 -1 198.738 12.7125)" fill="#21EA58"/>
<circle r="2.71251" transform="matrix(1 0 0 -1 215.014 12.7125)" fill="#21EA58"/>
<circle r="2.71251" transform="matrix(1 0 0 -1 231.288 12.7125)" fill="#21EA58"/>
</svg>
