<svg width="252" height="259" viewBox="0 0 252 259" fill="none" xmlns="http://www.w3.org/2000/svg">
<rect width="250" height="259" rx="15" fill="#9D9FA7"/>
<path d="M0 201.656H251.077V244C251.077 252.284 244.361 259 236.077 259H15C6.71571 259 0 252.284 0 244V201.656Z" fill="white"/>
<path d="M94.984 212.976H93.048L91.688 224H94.04L94.824 217.392L97.416 222.736H99.224L101.8 217.392L102.568 224H104.92L103.576 212.976H101.608L98.312 220.08L94.984 212.976ZM114.268 224V216.528H112.06V217.36C111.548 216.64 110.588 216.368 109.884 216.368C108.876 216.368 107.996 216.736 107.228 217.456C106.46 218.176 106.076 219.104 106.076 220.256C106.076 221.408 106.46 222.352 107.228 223.072C107.996 223.792 108.876 224.144 109.884 224.144C110.236 224.144 110.636 224.064 111.068 223.888C111.516 223.712 111.852 223.472 112.06 223.152V224H114.268ZM110.252 222.032C109.756 222.032 109.324 221.872 108.94 221.536C108.572 221.2 108.38 220.768 108.38 220.256C108.38 219.744 108.572 219.328 108.94 218.992C109.324 218.656 109.756 218.48 110.252 218.48C111.212 218.48 112.06 219.184 112.06 220.256C112.06 221.328 111.212 222.032 110.252 222.032ZM118.545 220.048C118.545 219.04 119.009 218.528 119.921 218.528C120.705 218.528 121.217 219.056 121.217 220.016V224H123.441V219.536C123.441 217.44 122.433 216.368 120.705 216.368C119.825 216.368 118.945 216.864 118.545 217.616V216.528H116.321V224H118.545V220.048ZM133.159 224V216.528H130.951V217.36C130.439 216.64 129.479 216.368 128.775 216.368C127.767 216.368 126.887 216.736 126.119 217.456C125.351 218.176 124.967 219.104 124.967 220.256C124.967 221.408 125.351 222.352 126.119 223.072C126.887 223.792 127.767 224.144 128.775 224.144C129.127 224.144 129.527 224.064 129.959 223.888C130.407 223.712 130.743 223.472 130.951 223.152V224H133.159ZM129.143 222.032C128.647 222.032 128.215 221.872 127.831 221.536C127.463 221.2 127.271 220.768 127.271 220.256C127.271 219.744 127.463 219.328 127.831 218.992C128.215 218.656 128.647 218.48 129.143 218.48C130.103 218.48 130.951 219.184 130.951 220.256C130.951 221.328 130.103 222.032 129.143 222.032ZM138.124 213.664H135.916V216.528H134.556V218.288H135.916V224H138.124V218.288H139.692V216.528H138.124V213.664ZM146.194 221.536C145.826 222 145.282 222.24 144.562 222.24C143.682 222.24 142.834 221.808 142.722 220.992H148.194C148.21 220.736 148.226 220.512 148.226 220.304C148.226 219.136 147.858 218.192 147.122 217.472C146.402 216.736 145.49 216.368 144.402 216.368C143.298 216.368 142.37 216.72 141.618 217.44C140.866 218.16 140.498 219.088 140.498 220.24C140.498 221.392 140.866 222.336 141.618 223.072C142.37 223.792 143.298 224.16 144.402 224.16C145.986 224.16 147.122 223.648 147.81 222.64L146.194 221.536ZM142.754 219.6C143.106 217.888 145.762 217.904 145.986 219.6H142.754ZM154.991 221.536C154.623 222 154.079 222.24 153.359 222.24C152.479 222.24 151.631 221.808 151.519 220.992H156.991C157.007 220.736 157.023 220.512 157.023 220.304C157.023 219.136 156.655 218.192 155.919 217.472C155.199 216.736 154.287 216.368 153.199 216.368C152.095 216.368 151.167 216.72 150.415 217.44C149.663 218.16 149.295 219.088 149.295 220.24C149.295 221.392 149.663 222.336 150.415 223.072C151.167 223.792 152.095 224.16 153.199 224.16C154.783 224.16 155.919 223.648 156.607 222.64L154.991 221.536ZM151.551 219.6C151.903 217.888 154.559 217.904 154.783 219.6H151.551Z" fill="#202538"/>
<path opacity="0.6" d="M96.26 247H97.548L98.262 244.676H99.872L99.172 247H100.474L101.188 244.676H102.728L103.078 243.43H101.538L102.238 241.036H103.792L104.128 239.79H102.588L103.302 237.354H101.986L101.272 239.79H99.676L100.376 237.354H99.046L98.346 239.79H96.82L96.484 241.036H97.982L97.296 243.43H95.77L95.434 244.676H96.96L96.26 247ZM98.612 243.43L99.312 241.036H100.922L100.208 243.43H98.612ZM108.603 237.718C106.573 237.718 105.271 239.09 105.271 240.784C105.271 242.38 106.517 243.752 108.379 243.752C109.303 243.752 109.989 243.388 110.437 242.856C110.409 244.438 109.499 245.628 108.267 245.628C107.651 245.628 107.035 245.32 106.727 244.606L105.369 245.306C105.957 246.636 107.133 247.14 108.267 247.14C110.955 247.14 112.117 244.648 112.117 242.142C112.117 239.552 110.787 237.718 108.603 237.718ZM108.533 242.338C107.595 242.31 106.909 241.666 106.909 240.798C106.909 239.902 107.637 239.244 108.631 239.244C109.611 239.258 110.325 239.93 110.325 240.84C110.297 241.708 109.541 242.338 108.533 242.338ZM114.046 247H117.826C120.584 247 122.194 244.928 122.194 242.198C122.194 239.454 120.584 237.354 117.826 237.354H114.046V247ZM115.754 245.474V238.88H117.826C119.576 238.88 120.472 240.392 120.472 242.198C120.472 243.99 119.576 245.474 117.826 245.474H115.754ZM126.909 237.718C124.879 237.718 123.577 239.09 123.577 240.784C123.577 242.38 124.823 243.752 126.685 243.752C127.609 243.752 128.295 243.388 128.743 242.856C128.715 244.438 127.805 245.628 126.573 245.628C125.957 245.628 125.341 245.32 125.033 244.606L123.675 245.306C124.263 246.636 125.439 247.14 126.573 247.14C129.261 247.14 130.423 244.648 130.423 242.142C130.423 239.552 129.093 237.718 126.909 237.718ZM126.839 242.338C125.901 242.31 125.215 241.666 125.215 240.798C125.215 239.902 125.943 239.244 126.937 239.244C127.917 239.258 128.631 239.93 128.631 240.84C128.603 241.708 127.847 242.338 126.839 242.338ZM138.205 238.88V237.354H132.353V247H134.061V243.024H137.337V241.498H134.061V238.88H138.205ZM145.181 247H146.987L143.375 237.354H141.527L137.901 247H139.721L140.561 244.634H144.341L145.181 247ZM141.079 243.15L142.451 239.258L143.823 243.15H141.079ZM147.541 237.83V239.356H151.503L147.723 247H149.613L154.037 237.984V237.83H147.541Z" fill="#202538"/>
<circle r="2.71251" transform="matrix(1 0 0 -1 19.712 191.738)" fill="#B0B2B8"/>
<circle r="2.71251" transform="matrix(1 0 0 -1 35.9859 191.738)" fill="#B0B2B8"/>
<circle r="2.71251" transform="matrix(1 0 0 -1 52.2628 191.738)" fill="#B0B2B8"/>
<circle r="2.71251" transform="matrix(1 0 0 -1 68.5367 191.738)" fill="#B0B2B8"/>
<circle r="2.71251" transform="matrix(1 0 0 -1 84.8131 191.738)" fill="#B0B2B8"/>
<circle r="2.71251" transform="matrix(1 0 0 -1 101.088 191.738)" fill="#B0B2B8"/>
<circle r="2.71251" transform="matrix(1 0 0 -1 117.361 191.738)" fill="#B0B2B8"/>
<circle r="2.71251" transform="matrix(1 0 0 -1 133.638 191.738)" fill="#B0B2B8"/>
<circle r="2.71251" transform="matrix(1 0 0 -1 149.912 191.738)" fill="#B0B2B8"/>
<circle r="2.71251" transform="matrix(1 0 0 -1 166.188 191.738)" fill="#B0B2B8"/>
<circle r="2.71251" transform="matrix(1 0 0 -1 182.463 191.738)" fill="#B0B2B8"/>
<circle r="2.71251" transform="matrix(1 0 0 -1 198.738 191.738)" fill="#B0B2B8"/>
<circle r="2.71251" transform="matrix(1 0 0 -1 215.013 191.738)" fill="#B0B2B8"/>
<circle r="2.71251" transform="matrix(1 0 0 -1 231.287 191.738)" fill="#B0B2B8"/>
<circle r="2.71251" transform="matrix(1 0 0 -1 19.712 175.463)" fill="#B0B2B8"/>
<circle r="2.71251" transform="matrix(1 0 0 -1 35.9859 175.463)" fill="#B0B2B8"/>
<circle r="2.71251" transform="matrix(1 0 0 -1 52.2628 175.463)" fill="#B0B2B8"/>
<circle r="2.71251" transform="matrix(1 0 0 -1 68.5367 175.463)" fill="#B0B2B8"/>
<circle r="2.71251" transform="matrix(1 0 0 -1 84.8131 175.463)" fill="#B0B2B8"/>
<circle r="2.71251" transform="matrix(1 0 0 -1 101.088 175.463)" fill="#B0B2B8"/>
<circle r="2.71251" transform="matrix(1 0 0 -1 117.361 175.463)" fill="#B0B2B8"/>
<circle r="2.71251" transform="matrix(1 0 0 -1 133.638 175.463)" fill="#B0B2B8"/>
<circle r="2.71251" transform="matrix(1 0 0 -1 149.912 175.463)" fill="#B0B2B8"/>
<circle r="2.71251" transform="matrix(1 0 0 -1 166.188 175.463)" fill="#B0B2B8"/>
<circle r="2.71251" transform="matrix(1 0 0 -1 182.463 175.463)" fill="#B0B2B8"/>
<circle r="2.71251" transform="matrix(1 0 0 -1 198.738 175.463)" fill="#B0B2B8"/>
<circle r="2.71251" transform="matrix(1 0 0 -1 215.013 175.463)" fill="#B0B2B8"/>
<circle r="2.71251" transform="matrix(1 0 0 -1 231.287 175.463)" fill="#B0B2B8"/>
<circle r="2.71251" transform="matrix(1 0 0 -1 19.712 159.187)" fill="#B0B2B8"/>
<circle r="2.71251" transform="matrix(1 0 0 -1 35.9859 159.187)" fill="#B0B2B8"/>
<circle r="2.71251" transform="matrix(1 0 0 -1 52.2628 159.187)" fill="#B0B2B8"/>
<circle r="2.71251" transform="matrix(1 0 0 -1 68.5367 159.187)" fill="#B0B2B8"/>
<circle r="2.71251" transform="matrix(1 0 0 -1 84.8131 159.187)" fill="#B0B2B8"/>
<circle r="2.71251" transform="matrix(1 0 0 -1 101.088 159.187)" fill="#B0B2B8"/>
<circle r="2.71251" transform="matrix(1 0 0 -1 117.361 159.187)" fill="#B0B2B8"/>
<circle r="2.71251" transform="matrix(1 0 0 -1 133.638 159.187)" fill="#B0B2B8"/>
<circle r="2.71251" transform="matrix(1 0 0 -1 149.912 159.187)" fill="#B0B2B8"/>
<circle r="2.71251" transform="matrix(1 0 0 -1 166.188 159.187)" fill="#B0B2B8"/>
<circle r="2.71251" transform="matrix(1 0 0 -1 182.463 159.187)" fill="#B0B2B8"/>
<circle r="2.71251" transform="matrix(1 0 0 -1 198.738 159.187)" fill="#B0B2B8"/>
<circle r="2.71251" transform="matrix(1 0 0 -1 215.013 159.187)" fill="#B0B2B8"/>
<circle r="2.71251" transform="matrix(1 0 0 -1 231.287 159.187)" fill="#B0B2B8"/>
<circle r="2.71251" transform="matrix(1 0 0 -1 19.712 142.913)" fill="#B0B2B8"/>
<circle r="2.71251" transform="matrix(1 0 0 -1 35.9859 142.913)" fill="#B0B2B8"/>
<circle r="2.71251" transform="matrix(1 0 0 -1 52.2628 142.913)" fill="#B0B2B8"/>
<circle r="2.71251" transform="matrix(1 0 0 -1 68.5367 142.913)" fill="#B0B2B8"/>
<circle r="2.71251" transform="matrix(1 0 0 -1 84.8131 142.913)" fill="#B0B2B8"/>
<circle r="2.71251" transform="matrix(1 0 0 -1 101.088 142.913)" fill="#B0B2B8"/>
<circle r="2.71251" transform="matrix(1 0 0 -1 117.361 142.913)" fill="#B0B2B8"/>
<circle r="2.71251" transform="matrix(1 0 0 -1 133.638 142.913)" fill="#B0B2B8"/>
<circle r="2.71251" transform="matrix(1 0 0 -1 149.912 142.913)" fill="#B0B2B8"/>
<circle r="2.71251" transform="matrix(1 0 0 -1 166.188 142.913)" fill="#B0B2B8"/>
<circle r="2.71251" transform="matrix(1 0 0 -1 182.463 142.913)" fill="#B0B2B8"/>
<circle r="2.71251" transform="matrix(1 0 0 -1 198.738 142.913)" fill="#B0B2B8"/>
<circle r="2.71251" transform="matrix(1 0 0 -1 215.013 142.913)" fill="#B0B2B8"/>
<circle r="2.71251" transform="matrix(1 0 0 -1 231.287 142.913)" fill="#B0B2B8"/>
<circle r="2.71251" transform="matrix(1 0 0 -1 19.712 126.638)" fill="#B0B2B8"/>
<circle r="2.71251" transform="matrix(1 0 0 -1 35.9859 126.638)" fill="#B0B2B8"/>
<circle r="2.71251" transform="matrix(1 0 0 -1 52.2628 126.638)" fill="#B0B2B8"/>
<circle r="2.71251" transform="matrix(1 0 0 -1 68.5367 126.638)" fill="#B0B2B8"/>
<circle r="2.71251" transform="matrix(1 0 0 -1 84.8131 126.638)" fill="#B0B2B8"/>
<circle r="2.71251" transform="matrix(1 0 0 -1 101.088 126.638)" fill="#B0B2B8"/>
<circle r="2.71251" transform="matrix(1 0 0 -1 117.361 126.638)" fill="#B0B2B8"/>
<circle r="2.71251" transform="matrix(1 0 0 -1 133.638 126.638)" fill="#B0B2B8"/>
<circle r="2.71251" transform="matrix(1 0 0 -1 149.912 126.638)" fill="#B0B2B8"/>
<circle r="2.71251" transform="matrix(1 0 0 -1 166.188 126.638)" fill="#B0B2B8"/>
<circle r="2.71251" transform="matrix(1 0 0 -1 182.463 126.638)" fill="#B0B2B8"/>
<circle r="2.71251" transform="matrix(1 0 0 -1 198.738 126.638)" fill="#B0B2B8"/>
<circle r="2.71251" transform="matrix(1 0 0 -1 215.013 126.638)" fill="#B0B2B8"/>
<circle r="2.71251" transform="matrix(1 0 0 -1 231.287 126.638)" fill="#B0B2B8"/>
<circle r="2.71251" transform="matrix(1 0 0 -1 19.712 110.363)" fill="#B0B2B8"/>
<circle r="2.71251" transform="matrix(1 0 0 -1 35.9859 110.363)" fill="#B0B2B8"/>
<circle r="2.71251" transform="matrix(1 0 0 -1 52.2628 110.363)" fill="#B0B2B8"/>
<circle r="2.71251" transform="matrix(1 0 0 -1 68.5367 110.363)" fill="#B0B2B8"/>
<circle r="2.71251" transform="matrix(1 0 0 -1 84.8131 110.363)" fill="#B0B2B8"/>
<circle r="2.71251" transform="matrix(1 0 0 -1 101.088 110.363)" fill="#B0B2B8"/>
<circle r="2.71251" transform="matrix(1 0 0 -1 117.361 110.363)" fill="#B0B2B8"/>
<circle r="2.71251" transform="matrix(1 0 0 -1 133.638 110.363)" fill="#B0B2B8"/>
<circle r="2.71251" transform="matrix(1 0 0 -1 149.912 110.363)" fill="#B0B2B8"/>
<circle r="2.71251" transform="matrix(1 0 0 -1 166.188 110.363)" fill="#B0B2B8"/>
<circle r="2.71251" transform="matrix(1 0 0 -1 182.463 110.363)" fill="#B0B2B8"/>
<circle r="2.71251" transform="matrix(1 0 0 -1 198.738 110.363)" fill="#B0B2B8"/>
<circle r="2.71251" transform="matrix(1 0 0 -1 215.013 110.363)" fill="#B0B2B8"/>
<circle r="2.71251" transform="matrix(1 0 0 -1 231.287 110.363)" fill="#B0B2B8"/>
<circle r="2.71251" transform="matrix(1 0 0 -1 19.712 94.0873)" fill="#B0B2B8"/>
<circle r="2.71251" transform="matrix(1 0 0 -1 35.9859 94.0873)" fill="#B0B2B8"/>
<circle r="2.71251" transform="matrix(1 0 0 -1 52.2628 94.0873)" fill="#B0B2B8"/>
<circle r="2.71251" transform="matrix(1 0 0 -1 68.5367 94.0873)" fill="#B0B2B8"/>
<circle r="2.71251" transform="matrix(1 0 0 -1 84.8131 94.0873)" fill="#B0B2B8"/>
<circle r="2.71251" transform="matrix(1 0 0 -1 101.088 94.0873)" fill="#B0B2B8"/>
<circle r="2.71251" transform="matrix(1 0 0 -1 117.361 94.0873)" fill="#B0B2B8"/>
<circle r="2.71251" transform="matrix(1 0 0 -1 133.638 94.0873)" fill="#B0B2B8"/>
<circle r="2.71251" transform="matrix(1 0 0 -1 149.912 94.0873)" fill="#B0B2B8"/>
<circle r="2.71251" transform="matrix(1 0 0 -1 166.188 94.0873)" fill="#B0B2B8"/>
<circle r="2.71251" transform="matrix(1 0 0 -1 182.463 94.0873)" fill="#B0B2B8"/>
<circle r="2.71251" transform="matrix(1 0 0 -1 198.738 94.0873)" fill="#B0B2B8"/>
<circle r="2.71251" transform="matrix(1 0 0 -1 215.013 94.0873)" fill="#B0B2B8"/>
<circle r="2.71251" transform="matrix(1 0 0 -1 231.287 94.0873)" fill="#B0B2B8"/>
<circle r="2.71251" transform="matrix(1 0 0 -1 19.712 77.8126)" fill="#B0B2B8"/>
<circle r="2.71251" transform="matrix(1 0 0 -1 35.9859 77.8126)" fill="#B0B2B8"/>
<circle r="2.71251" transform="matrix(1 0 0 -1 52.2628 77.8126)" fill="#B0B2B8"/>
<circle r="2.71251" transform="matrix(1 0 0 -1 68.5367 77.8126)" fill="#B0B2B8"/>
<circle r="2.71251" transform="matrix(1 0 0 -1 84.8131 77.8126)" fill="#B0B2B8"/>
<circle r="2.71251" transform="matrix(1 0 0 -1 101.088 77.8126)" fill="#B0B2B8"/>
<circle r="2.71251" transform="matrix(1 0 0 -1 117.361 77.8126)" fill="#B0B2B8"/>
<circle r="2.71251" transform="matrix(1 0 0 -1 133.638 77.8126)" fill="#B0B2B8"/>
<circle r="2.71251" transform="matrix(1 0 0 -1 149.912 77.8126)" fill="#B0B2B8"/>
<circle r="2.71251" transform="matrix(1 0 0 -1 166.188 77.8126)" fill="#B0B2B8"/>
<circle r="2.71251" transform="matrix(1 0 0 -1 182.463 77.8126)" fill="#B0B2B8"/>
<circle r="2.71251" transform="matrix(1 0 0 -1 198.738 77.8126)" fill="#B0B2B8"/>
<circle r="2.71251" transform="matrix(1 0 0 -1 215.013 77.8126)" fill="#B0B2B8"/>
<circle r="2.71251" transform="matrix(1 0 0 -1 231.287 77.8126)" fill="#B0B2B8"/>
<circle r="2.71251" transform="matrix(1 0 0 -1 19.712 61.5372)" fill="#B0B2B8"/>
<circle r="2.71251" transform="matrix(1 0 0 -1 35.9859 61.5372)" fill="#B0B2B8"/>
<circle r="2.71251" transform="matrix(1 0 0 -1 52.2628 61.5372)" fill="#B0B2B8"/>
<circle r="2.71251" transform="matrix(1 0 0 -1 68.5367 61.5372)" fill="#B0B2B8"/>
<circle r="2.71251" transform="matrix(1 0 0 -1 84.8131 61.5372)" fill="#B0B2B8"/>
<circle r="2.71251" transform="matrix(1 0 0 -1 101.088 61.5372)" fill="#B0B2B8"/>
<circle r="2.71251" transform="matrix(1 0 0 -1 117.361 61.5372)" fill="#B0B2B8"/>
<circle r="2.71251" transform="matrix(1 0 0 -1 133.638 61.5372)" fill="#B0B2B8"/>
<circle r="2.71251" transform="matrix(1 0 0 -1 149.912 61.5372)" fill="#B0B2B8"/>
<circle r="2.71251" transform="matrix(1 0 0 -1 166.188 61.5372)" fill="#B0B2B8"/>
<circle r="2.71251" transform="matrix(1 0 0 -1 182.463 61.5372)" fill="#B0B2B8"/>
<circle r="2.71251" transform="matrix(1 0 0 -1 198.738 61.5372)" fill="#B0B2B8"/>
<circle r="2.71251" transform="matrix(1 0 0 -1 215.013 61.5372)" fill="#B0B2B8"/>
<circle r="2.71251" transform="matrix(1 0 0 -1 231.287 61.5372)" fill="#B0B2B8"/>
<circle r="2.71251" transform="matrix(1 0 0 -1 19.712 45.2626)" fill="#B0B2B8"/>
<circle r="2.71251" transform="matrix(1 0 0 -1 35.9859 45.2626)" fill="#B0B2B8"/>
<circle r="2.71251" transform="matrix(1 0 0 -1 52.2628 45.2626)" fill="#B0B2B8"/>
<circle r="2.71251" transform="matrix(1 0 0 -1 68.5367 45.2626)" fill="#B0B2B8"/>
<circle r="2.71251" transform="matrix(1 0 0 -1 84.8131 45.2626)" fill="#B0B2B8"/>
<circle r="2.71251" transform="matrix(1 0 0 -1 101.088 45.2626)" fill="#B0B2B8"/>
<circle r="2.71251" transform="matrix(1 0 0 -1 117.361 45.2626)" fill="#B0B2B8"/>
<circle r="2.71251" transform="matrix(1 0 0 -1 133.638 45.2626)" fill="#B0B2B8"/>
<circle r="2.71251" transform="matrix(1 0 0 -1 149.912 45.2626)" fill="#B0B2B8"/>
<circle r="2.71251" transform="matrix(1 0 0 -1 166.188 45.2626)" fill="#B0B2B8"/>
<circle r="2.71251" transform="matrix(1 0 0 -1 182.463 45.2626)" fill="#B0B2B8"/>
<circle r="2.71251" transform="matrix(1 0 0 -1 198.738 45.2626)" fill="#B0B2B8"/>
<circle r="2.71251" transform="matrix(1 0 0 -1 215.013 45.2626)" fill="#B0B2B8"/>
<circle r="2.71251" transform="matrix(1 0 0 -1 231.287 45.2626)" fill="#B0B2B8"/>
<circle r="2.71251" transform="matrix(1 0 0 -1 19.712 28.9872)" fill="#B0B2B8"/>
<circle r="2.71251" transform="matrix(1 0 0 -1 35.9859 28.9872)" fill="#B0B2B8"/>
<circle r="2.71251" transform="matrix(1 0 0 -1 52.2628 28.9872)" fill="#B0B2B8"/>
<circle r="2.71251" transform="matrix(1 0 0 -1 68.5367 28.9872)" fill="#B0B2B8"/>
<circle r="2.71251" transform="matrix(1 0 0 -1 84.8131 28.9872)" fill="#B0B2B8"/>
<circle r="2.71251" transform="matrix(1 0 0 -1 101.088 28.9872)" fill="#B0B2B8"/>
<circle r="2.71251" transform="matrix(1 0 0 -1 117.361 28.9872)" fill="#B0B2B8"/>
<circle r="2.71251" transform="matrix(1 0 0 -1 133.638 28.9872)" fill="#B0B2B8"/>
<circle r="2.71251" transform="matrix(1 0 0 -1 149.912 28.9872)" fill="#B0B2B8"/>
<circle r="2.71251" transform="matrix(1 0 0 -1 166.188 28.9872)" fill="#B0B2B8"/>
<circle r="2.71251" transform="matrix(1 0 0 -1 182.463 28.9872)" fill="#B0B2B8"/>
<circle r="2.71251" transform="matrix(1 0 0 -1 198.738 28.9872)" fill="#B0B2B8"/>
<circle r="2.71251" transform="matrix(1 0 0 -1 215.013 28.9872)" fill="#B0B2B8"/>
<circle r="2.71251" transform="matrix(1 0 0 -1 231.287 28.9872)" fill="#B0B2B8"/>
<circle r="2.71251" transform="matrix(1 0 0 -1 19.712 12.7125)" fill="#B0B2B8"/>
<circle r="2.71251" transform="matrix(1 0 0 -1 35.9859 12.7125)" fill="#B0B2B8"/>
<circle r="2.71251" transform="matrix(1 0 0 -1 52.2628 12.7125)" fill="#B0B2B8"/>
<circle r="2.71251" transform="matrix(1 0 0 -1 68.5367 12.7125)" fill="#B0B2B8"/>
<circle r="2.71251" transform="matrix(1 0 0 -1 84.8131 12.7125)" fill="#B0B2B8"/>
<circle r="2.71251" transform="matrix(1 0 0 -1 101.088 12.7125)" fill="#B0B2B8"/>
<circle r="2.71251" transform="matrix(1 0 0 -1 117.361 12.7125)" fill="#B0B2B8"/>
<circle r="2.71251" transform="matrix(1 0 0 -1 133.638 12.7125)" fill="#B0B2B8"/>
<circle r="2.71251" transform="matrix(1 0 0 -1 149.912 12.7125)" fill="#B0B2B8"/>
<circle r="2.71251" transform="matrix(1 0 0 -1 166.188 12.7125)" fill="#B0B2B8"/>
<circle r="2.71251" transform="matrix(1 0 0 -1 182.463 12.7125)" fill="#B0B2B8"/>
<circle r="2.71251" transform="matrix(1 0 0 -1 198.738 12.7125)" fill="#B0B2B8"/>
<circle r="2.71251" transform="matrix(1 0 0 -1 215.013 12.7125)" fill="#B0B2B8"/>
<circle r="2.71251" transform="matrix(1 0 0 -1 231.287 12.7125)" fill="#B0B2B8"/>
</svg>
