<svg width="252" height="259" viewBox="0 0 252 259" fill="none" xmlns="http://www.w3.org/2000/svg">
<rect width="250" height="259" rx="15" fill="#338E8E"/>
<path d="M0 201.656H251.077V244C251.077 252.284 244.361 259 236.077 259H15C6.71571 259 0 252.284 0 244V201.656Z" fill="white"/>
<path d="M49.296 224H51.632V212.976H49.296V224ZM53.9459 224H56.1699V212.464H53.9459V224ZM58.2115 224H60.4355V212.464H58.2115V224ZM67.2931 220.48C67.2931 221.52 66.7171 222 65.9491 222C65.2931 222 64.6211 221.584 64.6211 220.512V216.528H62.3971V220.992C62.3971 223.04 63.6131 224.16 65.3571 224.16C66.1091 224.16 66.9091 223.696 67.2931 222.976V224H69.5171V216.528H67.2931V220.48ZM79.8269 218.528C80.5309 218.528 81.0589 219.072 81.0589 220.016V224H83.2669V219.76C83.2669 217.536 82.1949 216.368 80.3869 216.368C79.4429 216.368 78.6909 216.816 78.1469 217.696C77.7309 216.816 76.9309 216.384 75.7469 216.384C74.9149 216.384 74.1309 216.848 73.7949 217.616V216.528H71.5709V224H73.7949V220.048C73.7949 218.976 74.3389 218.528 75.0909 218.528C75.7789 218.528 76.3069 219.072 76.3229 219.968V224H78.5469V220.048C78.5469 219.024 79.0589 218.528 79.8269 218.528ZM85.2271 216.528V224H87.4351V216.528H85.2271ZM86.3311 212.464C85.5631 212.464 84.9391 213.04 84.9391 213.76C84.9391 214.48 85.5631 215.072 86.3311 215.072C87.0831 215.072 87.6911 214.48 87.6911 213.76C87.6911 213.04 87.0831 212.464 86.3311 212.464ZM91.7011 220.048C91.7011 219.04 92.1651 218.528 93.0771 218.528C93.8611 218.528 94.3731 219.056 94.3731 220.016V224H96.5971V219.536C96.5971 217.44 95.5891 216.368 93.8611 216.368C92.9811 216.368 92.1011 216.864 91.7011 217.616V216.528H89.4771V224H91.7011V220.048ZM106.315 224V216.528H104.107V217.36C103.595 216.64 102.635 216.368 101.931 216.368C100.923 216.368 100.043 216.736 99.2749 217.456C98.5069 218.176 98.1229 219.104 98.1229 220.256C98.1229 221.408 98.5069 222.352 99.2749 223.072C100.043 223.792 100.923 224.144 101.931 224.144C102.283 224.144 102.683 224.064 103.115 223.888C103.563 223.712 103.899 223.472 104.107 223.152V224H106.315ZM102.299 222.032C101.803 222.032 101.371 221.872 100.987 221.536C100.619 221.2 100.427 220.768 100.427 220.256C100.427 219.744 100.619 219.328 100.987 218.992C101.371 218.656 101.803 218.48 102.299 218.48C103.259 218.48 104.107 219.184 104.107 220.256C104.107 221.328 103.259 222.032 102.299 222.032ZM111.28 213.664H109.072V216.528H107.712V218.288H109.072V224H111.28V218.288H112.848V216.528H111.28V213.664ZM114.212 216.528V224H116.42V216.528H114.212ZM115.316 212.464C114.548 212.464 113.924 213.04 113.924 213.76C113.924 214.48 114.548 215.072 115.316 215.072C116.068 215.072 116.676 214.48 116.676 213.76C116.676 213.04 116.068 212.464 115.316 212.464ZM120.686 220.048C120.686 219.04 121.15 218.528 122.062 218.528C122.846 218.528 123.358 219.056 123.358 220.016V224H125.582V219.536C125.582 217.44 124.574 216.368 122.846 216.368C121.966 216.368 121.086 216.864 120.686 217.616V216.528H118.462V224H120.686V220.048ZM133.027 220.24C133.027 220.768 132.851 221.2 132.483 221.552C132.115 221.888 131.699 222.064 131.219 222.064C130.243 222.064 129.427 221.328 129.427 220.24C129.427 219.216 130.243 218.48 131.219 218.48C132.195 218.48 133.027 219.168 133.027 220.24ZM127.331 225.408C127.971 226.816 129.363 227.728 131.011 227.728C133.715 227.728 135.235 226.112 135.235 222.96V216.528H133.075V217.456C132.707 216.8 131.795 216.368 130.835 216.368C129.827 216.368 128.963 216.736 128.211 217.472C127.475 218.192 127.107 219.136 127.107 220.288C127.107 221.424 127.475 222.352 128.211 223.072C128.963 223.792 129.827 224.16 130.835 224.16C131.795 224.16 132.739 223.728 133.075 223.072C133.187 224.848 132.499 225.728 131.011 225.728C130.243 225.728 129.379 225.216 129.123 224.528L127.331 225.408ZM148.588 224V221.936H143.804V219.584H147.868V217.552H143.804V215.04H148.444V212.976H141.468V224H148.588ZM158.53 218.528C159.234 218.528 159.762 219.072 159.762 220.016V224H161.97V219.76C161.97 217.536 160.898 216.368 159.09 216.368C158.146 216.368 157.394 216.816 156.85 217.696C156.434 216.816 155.634 216.384 154.45 216.384C153.618 216.384 152.834 216.848 152.498 217.616V216.528H150.274V224H152.498V220.048C152.498 218.976 153.042 218.528 153.794 218.528C154.482 218.528 155.01 219.072 155.026 219.968V224H157.25V220.048C157.25 219.024 157.762 218.528 158.53 218.528ZM169.178 221.536C168.81 222 168.266 222.24 167.546 222.24C166.666 222.24 165.818 221.808 165.706 220.992H171.178C171.194 220.736 171.21 220.512 171.21 220.304C171.21 219.136 170.842 218.192 170.106 217.472C169.386 216.736 168.474 216.368 167.386 216.368C166.282 216.368 165.354 216.72 164.602 217.44C163.85 218.16 163.482 219.088 163.482 220.24C163.482 221.392 163.85 222.336 164.602 223.072C165.354 223.792 166.282 224.16 167.386 224.16C168.97 224.16 170.106 223.648 170.794 222.64L169.178 221.536ZM165.738 219.6C166.09 217.888 168.746 217.904 168.97 219.6H165.738ZM174.951 221.392C174.951 219.408 175.575 218.416 176.807 218.416C177.255 218.416 177.639 218.496 177.943 218.64L178.343 216.64C177.975 216.464 177.559 216.368 177.063 216.368C176.215 216.368 175.319 217.04 174.951 218.336V216.528H172.727V224H174.951V221.392ZM187.112 224V216.528H184.904V217.36C184.392 216.64 183.432 216.368 182.728 216.368C181.72 216.368 180.84 216.736 180.072 217.456C179.304 218.176 178.92 219.104 178.92 220.256C178.92 221.408 179.304 222.352 180.072 223.072C180.84 223.792 181.72 224.144 182.728 224.144C183.08 224.144 183.48 224.064 183.912 223.888C184.36 223.712 184.696 223.472 184.904 223.152V224H187.112ZM183.096 222.032C182.6 222.032 182.168 221.872 181.784 221.536C181.416 221.2 181.224 220.768 181.224 220.256C181.224 219.744 181.416 219.328 181.784 218.992C182.168 218.656 182.6 218.48 183.096 218.48C184.056 218.48 184.904 219.184 184.904 220.256C184.904 221.328 184.056 222.032 183.096 222.032ZM189.165 224H191.389V212.464H189.165V224ZM198.758 220.24C198.758 221.28 197.99 222.048 197.03 222.048C196.07 222.048 195.302 221.328 195.302 220.24C195.302 219.2 196.07 218.464 197.03 218.464C197.99 218.464 198.758 219.152 198.758 220.24ZM201.014 212.464H198.806V217.44C198.438 216.784 197.574 216.368 196.614 216.368C195.622 216.368 194.774 216.736 194.054 217.456C193.35 218.176 192.998 219.12 192.998 220.288C192.998 221.424 193.35 222.368 194.054 223.088C194.774 223.808 195.622 224.16 196.614 224.16C197.574 224.16 198.438 223.76 198.806 223.072V224H201.014V212.464Z" fill="#202538"/>
<path opacity="0.6" d="M98.26 247H99.548L100.262 244.676H101.872L101.172 247H102.474L103.188 244.676H104.728L105.078 243.43H103.538L104.238 241.036H105.792L106.128 239.79H104.588L105.302 237.354H103.986L103.272 239.79H101.676L102.376 237.354H101.046L100.346 239.79H98.82L98.484 241.036H99.982L99.296 243.43H97.77L97.434 244.676H98.96L98.26 247ZM100.612 243.43L101.312 241.036H102.922L102.208 243.43H100.612ZM111.625 242.072C112.367 241.722 112.815 241.022 112.815 240.21C112.829 238.684 111.653 237.718 110.043 237.718C108.909 237.718 107.957 238.236 107.369 239.02L108.335 240.014C108.685 239.524 109.301 239.216 109.903 239.216C110.645 239.216 111.149 239.636 111.177 240.266C111.205 240.98 110.603 241.526 109.623 241.526H108.979V242.8H109.875C110.883 242.8 111.597 243.402 111.597 244.27C111.597 245.082 110.883 245.642 109.875 245.642C109.161 245.642 108.559 245.236 108.125 244.55L106.949 245.404C107.565 246.51 108.629 247.126 109.945 247.126C111.877 247.126 113.235 246.006 113.235 244.326C113.235 243.248 112.591 242.408 111.625 242.072ZM118.98 242.072C119.722 241.722 120.17 241.022 120.17 240.21C120.184 238.684 119.008 237.718 117.398 237.718C116.264 237.718 115.312 238.236 114.724 239.02L115.69 240.014C116.04 239.524 116.656 239.216 117.258 239.216C118 239.216 118.504 239.636 118.532 240.266C118.56 240.98 117.958 241.526 116.978 241.526H116.334V242.8H117.23C118.238 242.8 118.952 243.402 118.952 244.27C118.952 245.082 118.238 245.642 117.23 245.642C116.516 245.642 115.914 245.236 115.48 244.55L114.304 245.404C114.92 246.51 115.984 247.126 117.3 247.126C119.232 247.126 120.59 246.006 120.59 244.326C120.59 243.248 119.946 242.408 118.98 242.072ZM127.19 241.792C127.764 241.498 128.198 240.854 128.198 240.042C128.198 238.684 127.008 237.718 125.412 237.718C123.816 237.718 122.626 238.684 122.626 240.042C122.626 240.854 123.06 241.498 123.634 241.792C122.612 242.142 121.898 243.094 121.898 244.27C121.898 245.978 123.424 247.14 125.412 247.14C127.4 247.14 128.926 245.978 128.926 244.256C128.926 243.094 128.212 242.128 127.19 241.792ZM125.412 239.132C126.084 239.132 126.588 239.622 126.588 240.21C126.588 240.798 126.084 241.26 125.412 241.26C124.754 241.26 124.236 240.798 124.236 240.21C124.236 239.622 124.754 239.132 125.412 239.132ZM125.412 245.656C124.362 245.656 123.578 244.998 123.578 244.116C123.578 243.206 124.376 242.534 125.412 242.534C126.434 242.534 127.232 243.206 127.232 244.116C127.232 244.998 126.49 245.656 125.412 245.656ZM132.465 245.474V243.038H136.161V241.484H132.465V238.88H136.693V237.354H130.771V247H136.833V245.474H132.465ZM143.459 241.792C144.033 241.498 144.467 240.854 144.467 240.042C144.467 238.684 143.277 237.718 141.681 237.718C140.085 237.718 138.895 238.684 138.895 240.042C138.895 240.854 139.329 241.498 139.903 241.792C138.881 242.142 138.167 243.094 138.167 244.27C138.167 245.978 139.693 247.14 141.681 247.14C143.669 247.14 145.195 245.978 145.195 244.256C145.195 243.094 144.481 242.128 143.459 241.792ZM141.681 239.132C142.353 239.132 142.857 239.622 142.857 240.21C142.857 240.798 142.353 241.26 141.681 241.26C141.023 241.26 140.505 240.798 140.505 240.21C140.505 239.622 141.023 239.132 141.681 239.132ZM141.681 245.656C140.631 245.656 139.847 244.998 139.847 244.116C139.847 243.206 140.645 242.534 141.681 242.534C142.703 242.534 143.501 243.206 143.501 244.116C143.501 244.998 142.759 245.656 141.681 245.656ZM148.735 245.474V243.038H152.431V241.484H148.735V238.88H152.963V237.354H147.041V247H153.103V245.474H148.735Z" fill="#202538"/>
<circle r="2.71251" transform="matrix(1 0 0 -1 19.712 191.738)" fill="#379A9A"/>
<circle r="2.71251" transform="matrix(1 0 0 -1 35.9859 191.738)" fill="#379A9A"/>
<circle r="2.71251" transform="matrix(1 0 0 -1 52.2628 191.738)" fill="#379A9A"/>
<circle r="2.71251" transform="matrix(1 0 0 -1 68.5367 191.738)" fill="#379A9A"/>
<circle r="2.71251" transform="matrix(1 0 0 -1 84.8131 191.738)" fill="#379A9A"/>
<circle r="2.71251" transform="matrix(1 0 0 -1 101.088 191.738)" fill="#379A9A"/>
<circle r="2.71251" transform="matrix(1 0 0 -1 117.361 191.738)" fill="#379A9A"/>
<circle r="2.71251" transform="matrix(1 0 0 -1 133.638 191.738)" fill="#379A9A"/>
<circle r="2.71251" transform="matrix(1 0 0 -1 149.912 191.738)" fill="#379A9A"/>
<circle r="2.71251" transform="matrix(1 0 0 -1 166.188 191.738)" fill="#379A9A"/>
<circle r="2.71251" transform="matrix(1 0 0 -1 182.463 191.738)" fill="#379A9A"/>
<circle r="2.71251" transform="matrix(1 0 0 -1 198.738 191.738)" fill="#379A9A"/>
<circle r="2.71251" transform="matrix(1 0 0 -1 215.013 191.738)" fill="#379A9A"/>
<circle r="2.71251" transform="matrix(1 0 0 -1 231.287 191.738)" fill="#379A9A"/>
<circle r="2.71251" transform="matrix(1 0 0 -1 19.712 175.463)" fill="#379A9A"/>
<circle r="2.71251" transform="matrix(1 0 0 -1 35.9859 175.463)" fill="#379A9A"/>
<circle r="2.71251" transform="matrix(1 0 0 -1 52.2628 175.463)" fill="#379A9A"/>
<circle r="2.71251" transform="matrix(1 0 0 -1 68.5367 175.463)" fill="#379A9A"/>
<circle r="2.71251" transform="matrix(1 0 0 -1 84.8131 175.463)" fill="#379A9A"/>
<circle r="2.71251" transform="matrix(1 0 0 -1 101.088 175.463)" fill="#379A9A"/>
<circle r="2.71251" transform="matrix(1 0 0 -1 117.361 175.463)" fill="#379A9A"/>
<circle r="2.71251" transform="matrix(1 0 0 -1 133.638 175.463)" fill="#379A9A"/>
<circle r="2.71251" transform="matrix(1 0 0 -1 149.912 175.463)" fill="#379A9A"/>
<circle r="2.71251" transform="matrix(1 0 0 -1 166.188 175.463)" fill="#379A9A"/>
<circle r="2.71251" transform="matrix(1 0 0 -1 182.463 175.463)" fill="#379A9A"/>
<circle r="2.71251" transform="matrix(1 0 0 -1 198.738 175.463)" fill="#379A9A"/>
<circle r="2.71251" transform="matrix(1 0 0 -1 215.013 175.463)" fill="#379A9A"/>
<circle r="2.71251" transform="matrix(1 0 0 -1 231.287 175.463)" fill="#379A9A"/>
<circle r="2.71251" transform="matrix(1 0 0 -1 19.712 159.187)" fill="#379A9A"/>
<circle r="2.71251" transform="matrix(1 0 0 -1 35.9859 159.187)" fill="#379A9A"/>
<circle r="2.71251" transform="matrix(1 0 0 -1 52.2628 159.187)" fill="#379A9A"/>
<circle r="2.71251" transform="matrix(1 0 0 -1 68.5367 159.187)" fill="#379A9A"/>
<circle r="2.71251" transform="matrix(1 0 0 -1 84.8131 159.187)" fill="#379A9A"/>
<circle r="2.71251" transform="matrix(1 0 0 -1 101.088 159.187)" fill="#379A9A"/>
<circle r="2.71251" transform="matrix(1 0 0 -1 117.361 159.187)" fill="#379A9A"/>
<circle r="2.71251" transform="matrix(1 0 0 -1 133.638 159.187)" fill="#379A9A"/>
<circle r="2.71251" transform="matrix(1 0 0 -1 149.912 159.187)" fill="#379A9A"/>
<circle r="2.71251" transform="matrix(1 0 0 -1 166.188 159.187)" fill="#379A9A"/>
<circle r="2.71251" transform="matrix(1 0 0 -1 182.463 159.187)" fill="#379A9A"/>
<circle r="2.71251" transform="matrix(1 0 0 -1 198.738 159.187)" fill="#379A9A"/>
<circle r="2.71251" transform="matrix(1 0 0 -1 215.013 159.187)" fill="#379A9A"/>
<circle r="2.71251" transform="matrix(1 0 0 -1 231.287 159.187)" fill="#379A9A"/>
<circle r="2.71251" transform="matrix(1 0 0 -1 19.712 142.913)" fill="#379A9A"/>
<circle r="2.71251" transform="matrix(1 0 0 -1 35.9859 142.913)" fill="#379A9A"/>
<circle r="2.71251" transform="matrix(1 0 0 -1 52.2628 142.913)" fill="#379A9A"/>
<circle r="2.71251" transform="matrix(1 0 0 -1 68.5367 142.913)" fill="#379A9A"/>
<circle r="2.71251" transform="matrix(1 0 0 -1 84.8131 142.913)" fill="#379A9A"/>
<circle r="2.71251" transform="matrix(1 0 0 -1 101.088 142.913)" fill="#379A9A"/>
<circle r="2.71251" transform="matrix(1 0 0 -1 117.361 142.913)" fill="#379A9A"/>
<circle r="2.71251" transform="matrix(1 0 0 -1 133.638 142.913)" fill="#379A9A"/>
<circle r="2.71251" transform="matrix(1 0 0 -1 149.912 142.913)" fill="#379A9A"/>
<circle r="2.71251" transform="matrix(1 0 0 -1 166.188 142.913)" fill="#379A9A"/>
<circle r="2.71251" transform="matrix(1 0 0 -1 182.463 142.913)" fill="#379A9A"/>
<circle r="2.71251" transform="matrix(1 0 0 -1 198.738 142.913)" fill="#379A9A"/>
<circle r="2.71251" transform="matrix(1 0 0 -1 215.013 142.913)" fill="#379A9A"/>
<circle r="2.71251" transform="matrix(1 0 0 -1 231.287 142.913)" fill="#379A9A"/>
<circle r="2.71251" transform="matrix(1 0 0 -1 19.712 126.638)" fill="#379A9A"/>
<circle r="2.71251" transform="matrix(1 0 0 -1 35.9859 126.638)" fill="#379A9A"/>
<circle r="2.71251" transform="matrix(1 0 0 -1 52.2628 126.638)" fill="#379A9A"/>
<circle r="2.71251" transform="matrix(1 0 0 -1 68.5367 126.638)" fill="#379A9A"/>
<circle r="2.71251" transform="matrix(1 0 0 -1 84.8131 126.638)" fill="#379A9A"/>
<circle r="2.71251" transform="matrix(1 0 0 -1 101.088 126.638)" fill="#379A9A"/>
<circle r="2.71251" transform="matrix(1 0 0 -1 117.361 126.638)" fill="#379A9A"/>
<circle r="2.71251" transform="matrix(1 0 0 -1 133.638 126.638)" fill="#379A9A"/>
<circle r="2.71251" transform="matrix(1 0 0 -1 149.912 126.638)" fill="#379A9A"/>
<circle r="2.71251" transform="matrix(1 0 0 -1 166.188 126.638)" fill="#379A9A"/>
<circle r="2.71251" transform="matrix(1 0 0 -1 182.463 126.638)" fill="#379A9A"/>
<circle r="2.71251" transform="matrix(1 0 0 -1 198.738 126.638)" fill="#379A9A"/>
<circle r="2.71251" transform="matrix(1 0 0 -1 215.013 126.638)" fill="#379A9A"/>
<circle r="2.71251" transform="matrix(1 0 0 -1 231.287 126.638)" fill="#379A9A"/>
<circle r="2.71251" transform="matrix(1 0 0 -1 19.712 110.363)" fill="#379A9A"/>
<circle r="2.71251" transform="matrix(1 0 0 -1 35.9859 110.363)" fill="#379A9A"/>
<circle r="2.71251" transform="matrix(1 0 0 -1 52.2628 110.363)" fill="#379A9A"/>
<circle r="2.71251" transform="matrix(1 0 0 -1 68.5367 110.363)" fill="#379A9A"/>
<circle r="2.71251" transform="matrix(1 0 0 -1 84.8131 110.363)" fill="#379A9A"/>
<circle r="2.71251" transform="matrix(1 0 0 -1 101.088 110.363)" fill="#379A9A"/>
<circle r="2.71251" transform="matrix(1 0 0 -1 117.361 110.363)" fill="#379A9A"/>
<circle r="2.71251" transform="matrix(1 0 0 -1 133.638 110.363)" fill="#379A9A"/>
<circle r="2.71251" transform="matrix(1 0 0 -1 149.912 110.363)" fill="#379A9A"/>
<circle r="2.71251" transform="matrix(1 0 0 -1 166.188 110.363)" fill="#379A9A"/>
<circle r="2.71251" transform="matrix(1 0 0 -1 182.463 110.363)" fill="#379A9A"/>
<circle r="2.71251" transform="matrix(1 0 0 -1 198.738 110.363)" fill="#379A9A"/>
<circle r="2.71251" transform="matrix(1 0 0 -1 215.013 110.363)" fill="#379A9A"/>
<circle r="2.71251" transform="matrix(1 0 0 -1 231.287 110.363)" fill="#379A9A"/>
<circle r="2.71251" transform="matrix(1 0 0 -1 19.712 94.0873)" fill="#379A9A"/>
<circle r="2.71251" transform="matrix(1 0 0 -1 35.9859 94.0873)" fill="#379A9A"/>
<circle r="2.71251" transform="matrix(1 0 0 -1 52.2628 94.0873)" fill="#379A9A"/>
<circle r="2.71251" transform="matrix(1 0 0 -1 68.5367 94.0873)" fill="#379A9A"/>
<circle r="2.71251" transform="matrix(1 0 0 -1 84.8131 94.0873)" fill="#379A9A"/>
<circle r="2.71251" transform="matrix(1 0 0 -1 101.088 94.0873)" fill="#379A9A"/>
<circle r="2.71251" transform="matrix(1 0 0 -1 117.361 94.0873)" fill="#379A9A"/>
<circle r="2.71251" transform="matrix(1 0 0 -1 133.638 94.0873)" fill="#379A9A"/>
<circle r="2.71251" transform="matrix(1 0 0 -1 149.912 94.0873)" fill="#379A9A"/>
<circle r="2.71251" transform="matrix(1 0 0 -1 166.188 94.0873)" fill="#379A9A"/>
<circle r="2.71251" transform="matrix(1 0 0 -1 182.463 94.0873)" fill="#379A9A"/>
<circle r="2.71251" transform="matrix(1 0 0 -1 198.738 94.0873)" fill="#379A9A"/>
<circle r="2.71251" transform="matrix(1 0 0 -1 215.013 94.0873)" fill="#379A9A"/>
<circle r="2.71251" transform="matrix(1 0 0 -1 231.287 94.0873)" fill="#379A9A"/>
<circle r="2.71251" transform="matrix(1 0 0 -1 19.712 77.8126)" fill="#379A9A"/>
<circle r="2.71251" transform="matrix(1 0 0 -1 35.9859 77.8126)" fill="#379A9A"/>
<circle r="2.71251" transform="matrix(1 0 0 -1 52.2628 77.8126)" fill="#379A9A"/>
<circle r="2.71251" transform="matrix(1 0 0 -1 68.5367 77.8126)" fill="#379A9A"/>
<circle r="2.71251" transform="matrix(1 0 0 -1 84.8131 77.8126)" fill="#379A9A"/>
<circle r="2.71251" transform="matrix(1 0 0 -1 101.088 77.8126)" fill="#379A9A"/>
<circle r="2.71251" transform="matrix(1 0 0 -1 117.361 77.8126)" fill="#379A9A"/>
<circle r="2.71251" transform="matrix(1 0 0 -1 133.638 77.8126)" fill="#379A9A"/>
<circle r="2.71251" transform="matrix(1 0 0 -1 149.912 77.8126)" fill="#379A9A"/>
<circle r="2.71251" transform="matrix(1 0 0 -1 166.188 77.8126)" fill="#379A9A"/>
<circle r="2.71251" transform="matrix(1 0 0 -1 182.463 77.8126)" fill="#379A9A"/>
<circle r="2.71251" transform="matrix(1 0 0 -1 198.738 77.8126)" fill="#379A9A"/>
<circle r="2.71251" transform="matrix(1 0 0 -1 215.013 77.8126)" fill="#379A9A"/>
<circle r="2.71251" transform="matrix(1 0 0 -1 231.287 77.8126)" fill="#379A9A"/>
<circle r="2.71251" transform="matrix(1 0 0 -1 19.712 61.5372)" fill="#379A9A"/>
<circle r="2.71251" transform="matrix(1 0 0 -1 35.9859 61.5372)" fill="#379A9A"/>
<circle r="2.71251" transform="matrix(1 0 0 -1 52.2628 61.5372)" fill="#379A9A"/>
<circle r="2.71251" transform="matrix(1 0 0 -1 68.5367 61.5372)" fill="#379A9A"/>
<circle r="2.71251" transform="matrix(1 0 0 -1 84.8131 61.5372)" fill="#379A9A"/>
<circle r="2.71251" transform="matrix(1 0 0 -1 101.088 61.5372)" fill="#379A9A"/>
<circle r="2.71251" transform="matrix(1 0 0 -1 117.361 61.5372)" fill="#379A9A"/>
<circle r="2.71251" transform="matrix(1 0 0 -1 133.638 61.5372)" fill="#379A9A"/>
<circle r="2.71251" transform="matrix(1 0 0 -1 149.912 61.5372)" fill="#379A9A"/>
<circle r="2.71251" transform="matrix(1 0 0 -1 166.188 61.5372)" fill="#379A9A"/>
<circle r="2.71251" transform="matrix(1 0 0 -1 182.463 61.5372)" fill="#379A9A"/>
<circle r="2.71251" transform="matrix(1 0 0 -1 198.738 61.5372)" fill="#379A9A"/>
<circle r="2.71251" transform="matrix(1 0 0 -1 215.013 61.5372)" fill="#379A9A"/>
<circle r="2.71251" transform="matrix(1 0 0 -1 231.287 61.5372)" fill="#379A9A"/>
<circle r="2.71251" transform="matrix(1 0 0 -1 19.712 45.2626)" fill="#379A9A"/>
<circle r="2.71251" transform="matrix(1 0 0 -1 35.9859 45.2626)" fill="#379A9A"/>
<circle r="2.71251" transform="matrix(1 0 0 -1 52.2628 45.2626)" fill="#379A9A"/>
<circle r="2.71251" transform="matrix(1 0 0 -1 68.5367 45.2626)" fill="#379A9A"/>
<circle r="2.71251" transform="matrix(1 0 0 -1 84.8131 45.2626)" fill="#379A9A"/>
<circle r="2.71251" transform="matrix(1 0 0 -1 101.088 45.2626)" fill="#379A9A"/>
<circle r="2.71251" transform="matrix(1 0 0 -1 117.361 45.2626)" fill="#379A9A"/>
<circle r="2.71251" transform="matrix(1 0 0 -1 133.638 45.2626)" fill="#379A9A"/>
<circle r="2.71251" transform="matrix(1 0 0 -1 149.912 45.2626)" fill="#379A9A"/>
<circle r="2.71251" transform="matrix(1 0 0 -1 166.188 45.2626)" fill="#379A9A"/>
<circle r="2.71251" transform="matrix(1 0 0 -1 182.463 45.2626)" fill="#379A9A"/>
<circle r="2.71251" transform="matrix(1 0 0 -1 198.738 45.2626)" fill="#379A9A"/>
<circle r="2.71251" transform="matrix(1 0 0 -1 215.013 45.2626)" fill="#379A9A"/>
<circle r="2.71251" transform="matrix(1 0 0 -1 231.287 45.2626)" fill="#379A9A"/>
<circle r="2.71251" transform="matrix(1 0 0 -1 19.712 28.9872)" fill="#379A9A"/>
<circle r="2.71251" transform="matrix(1 0 0 -1 35.9859 28.9872)" fill="#379A9A"/>
<circle r="2.71251" transform="matrix(1 0 0 -1 52.2628 28.9872)" fill="#379A9A"/>
<circle r="2.71251" transform="matrix(1 0 0 -1 68.5367 28.9872)" fill="#379A9A"/>
<circle r="2.71251" transform="matrix(1 0 0 -1 84.8131 28.9872)" fill="#379A9A"/>
<circle r="2.71251" transform="matrix(1 0 0 -1 101.088 28.9872)" fill="#379A9A"/>
<circle r="2.71251" transform="matrix(1 0 0 -1 117.361 28.9872)" fill="#379A9A"/>
<circle r="2.71251" transform="matrix(1 0 0 -1 133.638 28.9872)" fill="#379A9A"/>
<circle r="2.71251" transform="matrix(1 0 0 -1 149.912 28.9872)" fill="#379A9A"/>
<circle r="2.71251" transform="matrix(1 0 0 -1 166.188 28.9872)" fill="#379A9A"/>
<circle r="2.71251" transform="matrix(1 0 0 -1 182.463 28.9872)" fill="#379A9A"/>
<circle r="2.71251" transform="matrix(1 0 0 -1 198.738 28.9872)" fill="#379A9A"/>
<circle r="2.71251" transform="matrix(1 0 0 -1 215.013 28.9872)" fill="#379A9A"/>
<circle r="2.71251" transform="matrix(1 0 0 -1 231.287 28.9872)" fill="#379A9A"/>
<circle r="2.71251" transform="matrix(1 0 0 -1 19.712 12.7125)" fill="#379A9A"/>
<circle r="2.71251" transform="matrix(1 0 0 -1 35.9859 12.7125)" fill="#379A9A"/>
<circle r="2.71251" transform="matrix(1 0 0 -1 52.2628 12.7125)" fill="#379A9A"/>
<circle r="2.71251" transform="matrix(1 0 0 -1 68.5367 12.7125)" fill="#379A9A"/>
<circle r="2.71251" transform="matrix(1 0 0 -1 84.8131 12.7125)" fill="#379A9A"/>
<circle r="2.71251" transform="matrix(1 0 0 -1 101.088 12.7125)" fill="#379A9A"/>
<circle r="2.71251" transform="matrix(1 0 0 -1 117.361 12.7125)" fill="#379A9A"/>
<circle r="2.71251" transform="matrix(1 0 0 -1 133.638 12.7125)" fill="#379A9A"/>
<circle r="2.71251" transform="matrix(1 0 0 -1 149.912 12.7125)" fill="#379A9A"/>
<circle r="2.71251" transform="matrix(1 0 0 -1 166.188 12.7125)" fill="#379A9A"/>
<circle r="2.71251" transform="matrix(1 0 0 -1 182.463 12.7125)" fill="#379A9A"/>
<circle r="2.71251" transform="matrix(1 0 0 -1 198.738 12.7125)" fill="#379A9A"/>
<circle r="2.71251" transform="matrix(1 0 0 -1 215.013 12.7125)" fill="#379A9A"/>
<circle r="2.71251" transform="matrix(1 0 0 -1 231.287 12.7125)" fill="#379A9A"/>
</svg>
