<svg width="252" height="259" viewBox="0 0 252 259" fill="none" xmlns="http://www.w3.org/2000/svg">
<rect width="250" height="259" rx="15" fill="#2DB270"/>
<path d="M0 201.656H251.077V244C251.077 252.284 244.361 259 236.077 259H15C6.71571 259 0 252.284 0 244V201.656Z" fill="white"/>
<path d="M57.984 212.976H56.048L54.688 224H57.04L57.824 217.392L60.416 222.736H62.224L64.8 217.392L65.568 224H67.92L66.576 212.976H64.608L61.312 220.08L57.984 212.976ZM74.772 221.536C74.404 222 73.86 222.24 73.14 222.24C72.26 222.24 71.412 221.808 71.3 220.992H76.772C76.788 220.736 76.804 220.512 76.804 220.304C76.804 219.136 76.436 218.192 75.7 217.472C74.98 216.736 74.068 216.368 72.98 216.368C71.876 216.368 70.948 216.72 70.196 217.44C69.444 218.16 69.076 219.088 69.076 220.24C69.076 221.392 69.444 222.336 70.196 223.072C70.948 223.792 71.876 224.16 72.98 224.16C74.564 224.16 75.7 223.648 76.388 222.64L74.772 221.536ZM71.332 219.6C71.684 217.888 74.34 217.904 74.564 219.6H71.332ZM83.6489 220.24C83.6489 221.28 82.8809 222.048 81.9209 222.048C80.9609 222.048 80.1929 221.328 80.1929 220.24C80.1929 219.2 80.9609 218.464 81.9209 218.464C82.8809 218.464 83.6489 219.152 83.6489 220.24ZM85.9049 212.464H83.6969V217.44C83.3289 216.784 82.4649 216.368 81.5049 216.368C80.5129 216.368 79.6649 216.736 78.9449 217.456C78.2409 218.176 77.8889 219.12 77.8889 220.288C77.8889 221.424 78.2409 222.368 78.9449 223.088C79.6649 223.808 80.5129 224.16 81.5049 224.16C82.4649 224.16 83.3289 223.76 83.6969 223.072V224H85.9049V212.464ZM87.9459 216.528V224H90.1539V216.528H87.9459ZM89.0499 212.464C88.2819 212.464 87.6579 213.04 87.6579 213.76C87.6579 214.48 88.2819 215.072 89.0499 215.072C89.8019 215.072 90.4099 214.48 90.4099 213.76C90.4099 213.04 89.8019 212.464 89.0499 212.464ZM97.0119 220.48C97.0119 221.52 96.4359 222 95.6679 222C95.0119 222 94.3399 221.584 94.3399 220.512V216.528H92.1159V220.992C92.1159 223.04 93.3319 224.16 95.0759 224.16C95.8279 224.16 96.6279 223.696 97.0119 222.976V224H99.2359V216.528H97.0119V220.48ZM109.546 218.528C110.25 218.528 110.778 219.072 110.778 220.016V224H112.986V219.76C112.986 217.536 111.914 216.368 110.106 216.368C109.162 216.368 108.41 216.816 107.866 217.696C107.45 216.816 106.65 216.384 105.466 216.384C104.634 216.384 103.85 216.848 103.514 217.616V216.528H101.29V224H103.514V220.048C103.514 218.976 104.058 218.528 104.81 218.528C105.498 218.528 106.026 219.072 106.042 219.968V224H108.266V220.048C108.266 219.024 108.778 218.528 109.546 218.528ZM118.532 220.768C118.532 221.776 118.9 222.592 119.636 223.232C120.372 223.856 121.332 224.176 122.532 224.176C123.892 224.176 125.108 223.76 125.892 222.752C126.292 222.24 126.484 221.632 126.5 220.944C126.548 219.328 125.54 218.208 123.476 217.616L122.164 217.2C121.38 216.976 120.98 216.608 120.98 216.08C120.98 215.44 121.572 214.976 122.404 214.976C123.316 214.976 123.828 215.472 123.828 216.224H126.164C126.164 215.184 125.812 214.368 125.108 213.76C124.42 213.152 123.524 212.848 122.436 212.848C121.364 212.848 120.452 213.152 119.732 213.776C119.012 214.384 118.644 215.168 118.644 216.144C118.644 217.664 119.588 218.72 121.492 219.312L122.82 219.68C123.86 219.984 124.164 220.368 124.148 220.928C124.132 221.632 123.492 222.096 122.532 222.096C121.524 222.096 120.932 221.52 120.884 220.768H118.532ZM133.413 221.536C133.045 222 132.501 222.24 131.781 222.24C130.901 222.24 130.053 221.808 129.941 220.992H135.413C135.429 220.736 135.445 220.512 135.445 220.304C135.445 219.136 135.077 218.192 134.341 217.472C133.621 216.736 132.709 216.368 131.621 216.368C130.517 216.368 129.589 216.72 128.837 217.44C128.085 218.16 127.717 219.088 127.717 220.24C127.717 221.392 128.085 222.336 128.837 223.072C129.589 223.792 130.517 224.16 131.621 224.16C133.205 224.16 134.341 223.648 135.029 222.64L133.413 221.536ZM129.973 219.6C130.325 217.888 132.981 217.904 133.205 219.6H129.973ZM144.706 224V216.528H142.498V217.36C141.986 216.64 141.026 216.368 140.322 216.368C139.314 216.368 138.434 216.736 137.666 217.456C136.898 218.176 136.514 219.104 136.514 220.256C136.514 221.408 136.898 222.352 137.666 223.072C138.434 223.792 139.314 224.144 140.322 224.144C140.674 224.144 141.074 224.064 141.506 223.888C141.954 223.712 142.29 223.472 142.498 223.152V224H144.706ZM140.69 222.032C140.194 222.032 139.762 221.872 139.378 221.536C139.01 221.2 138.818 220.768 138.818 220.256C138.818 219.744 139.01 219.328 139.378 218.992C139.762 218.656 140.194 218.48 140.69 218.48C141.65 218.48 142.498 219.184 142.498 220.256C142.498 221.328 141.65 222.032 140.69 222.032ZM160.089 214.656C159.113 213.52 157.609 212.848 155.945 212.848C154.361 212.848 153.033 213.408 151.929 214.512C150.841 215.616 150.297 216.944 150.297 218.512C150.297 220.064 150.841 221.408 151.929 222.512C153.033 223.616 154.361 224.16 155.945 224.16C157.593 224.16 158.905 223.664 159.865 222.688C160.841 221.696 161.321 220.208 161.321 218.208H155.657V220.112H158.617C158.601 220.672 158.313 221.12 157.753 221.488C157.193 221.84 156.585 222.016 155.945 222.016C155.033 222.016 154.249 221.68 153.609 220.992C152.969 220.304 152.649 219.472 152.649 218.512C152.649 217.552 152.969 216.736 153.593 216.048C154.233 215.36 155.017 215.024 155.945 215.024C156.889 215.024 157.705 215.392 158.361 216.144L160.089 214.656ZM164.982 221.392C164.982 219.408 165.606 218.416 166.838 218.416C167.286 218.416 167.67 218.496 167.974 218.64L168.374 216.64C168.006 216.464 167.59 216.368 167.094 216.368C166.246 216.368 165.35 217.04 164.982 218.336V216.528H162.758V224H164.982V221.392ZM174.647 221.536C174.279 222 173.735 222.24 173.015 222.24C172.135 222.24 171.287 221.808 171.175 220.992H176.647C176.663 220.736 176.679 220.512 176.679 220.304C176.679 219.136 176.311 218.192 175.575 217.472C174.855 216.736 173.943 216.368 172.855 216.368C171.751 216.368 170.823 216.72 170.071 217.44C169.319 218.16 168.951 219.088 168.951 220.24C168.951 221.392 169.319 222.336 170.071 223.072C170.823 223.792 171.751 224.16 172.855 224.16C174.439 224.16 175.575 223.648 176.263 222.64L174.647 221.536ZM171.207 219.6C171.559 217.888 174.215 217.904 174.439 219.6H171.207ZM183.444 221.536C183.076 222 182.532 222.24 181.812 222.24C180.932 222.24 180.084 221.808 179.972 220.992H185.444C185.46 220.736 185.476 220.512 185.476 220.304C185.476 219.136 185.108 218.192 184.372 217.472C183.652 216.736 182.74 216.368 181.652 216.368C180.548 216.368 179.62 216.72 178.868 217.44C178.116 218.16 177.748 219.088 177.748 220.24C177.748 221.392 178.116 222.336 178.868 223.072C179.62 223.792 180.548 224.16 181.652 224.16C183.236 224.16 184.372 223.648 185.06 222.64L183.444 221.536ZM180.004 219.6C180.356 217.888 183.012 217.904 183.236 219.6H180.004ZM189.217 220.048C189.217 219.04 189.681 218.528 190.593 218.528C191.377 218.528 191.889 219.056 191.889 220.016V224H194.113V219.536C194.113 217.44 193.105 216.368 191.377 216.368C190.497 216.368 189.617 216.864 189.217 217.616V216.528H186.993V224H189.217V220.048Z" fill="#202538"/>
<path opacity="0.6" d="M97.26 247H98.548L99.262 244.676H100.872L100.172 247H101.474L102.188 244.676H103.728L104.078 243.43H102.538L103.238 241.036H104.792L105.128 239.79H103.588L104.302 237.354H102.986L102.272 239.79H100.676L101.376 237.354H100.046L99.346 239.79H97.82L97.484 241.036H98.982L98.296 243.43H96.77L96.434 244.676H97.96L97.26 247ZM99.612 243.43L100.312 241.036H101.922L101.208 243.43H99.612ZM108.833 245.474L111.115 242.814C111.703 242.128 112.137 241.274 112.137 240.476C112.137 238.824 110.975 237.718 109.183 237.718C107.447 237.718 106.369 238.768 106.159 240.308L107.629 240.588C107.713 239.776 108.259 239.23 109.127 239.23C109.953 239.23 110.499 239.72 110.499 240.448C110.499 240.812 110.205 241.372 109.743 241.932L106.229 246.174V247H112.263V245.474H108.833ZM114.226 247H118.006C120.764 247 122.374 244.928 122.374 242.198C122.374 239.454 120.764 237.354 118.006 237.354H114.226V247ZM115.934 245.474V238.88H118.006C119.756 238.88 120.652 240.392 120.652 242.198C120.652 243.99 119.756 245.474 118.006 245.474H115.934ZM129.511 241.848C130.491 241.498 130.771 240.588 130.771 239.832C130.771 238.362 129.707 237.354 128.027 237.354H124.275V247H128.321C130.323 247 131.289 245.614 131.289 244.256C131.289 243.192 130.687 242.086 129.511 241.848ZM127.957 238.88C128.699 238.88 129.063 239.398 129.063 240.07C129.063 240.77 128.671 241.246 127.957 241.246H125.983V238.88H127.957ZM128.055 245.474H125.983V242.688H128.097C129.119 242.688 129.567 243.402 129.567 244.088C129.567 244.816 129.049 245.474 128.055 245.474ZM135.206 245.474L137.488 242.814C138.076 242.128 138.51 241.274 138.51 240.476C138.51 238.824 137.348 237.718 135.556 237.718C133.82 237.718 132.742 238.768 132.532 240.308L134.002 240.588C134.086 239.776 134.632 239.23 135.5 239.23C136.326 239.23 136.872 239.72 136.872 240.448C136.872 240.812 136.578 241.372 136.116 241.932L132.602 246.174V247H138.636V245.474H135.206ZM139.969 237.83V239.356H143.931L140.151 247H142.041L146.465 237.984V237.83H139.969ZM150.621 247.14C153.267 247.14 153.981 245.04 153.981 242.436C153.981 239.818 153.267 237.718 150.621 237.718C147.961 237.718 147.233 239.818 147.233 242.436C147.233 245.04 147.961 247.14 150.621 247.14ZM150.621 245.628C149.249 245.628 148.871 244.186 148.871 242.436C148.871 240.672 149.249 239.23 150.621 239.23C151.979 239.23 152.343 240.672 152.343 242.436C152.343 244.186 151.979 245.628 150.621 245.628Z" fill="#202538"/>
<circle r="2.71251" transform="matrix(1 0 0 -1 19.712 191.738)" fill="#34BF7A"/>
<circle r="2.71251" transform="matrix(1 0 0 -1 35.9859 191.738)" fill="#34BF7A"/>
<circle r="2.71251" transform="matrix(1 0 0 -1 52.2628 191.738)" fill="#34BF7A"/>
<circle r="2.71251" transform="matrix(1 0 0 -1 68.5367 191.738)" fill="#34BF7A"/>
<circle r="2.71251" transform="matrix(1 0 0 -1 84.8131 191.738)" fill="#34BF7A"/>
<circle r="2.71251" transform="matrix(1 0 0 -1 101.088 191.738)" fill="#34BF7A"/>
<circle r="2.71251" transform="matrix(1 0 0 -1 117.361 191.738)" fill="#34BF7A"/>
<circle r="2.71251" transform="matrix(1 0 0 -1 133.638 191.738)" fill="#34BF7A"/>
<circle r="2.71251" transform="matrix(1 0 0 -1 149.912 191.738)" fill="#34BF7A"/>
<circle r="2.71251" transform="matrix(1 0 0 -1 166.188 191.738)" fill="#34BF7A"/>
<circle r="2.71251" transform="matrix(1 0 0 -1 182.463 191.738)" fill="#34BF7A"/>
<circle r="2.71251" transform="matrix(1 0 0 -1 198.738 191.738)" fill="#34BF7A"/>
<circle r="2.71251" transform="matrix(1 0 0 -1 215.013 191.738)" fill="#34BF7A"/>
<circle r="2.71251" transform="matrix(1 0 0 -1 231.287 191.738)" fill="#34BF7A"/>
<circle r="2.71251" transform="matrix(1 0 0 -1 19.712 175.463)" fill="#34BF7A"/>
<circle r="2.71251" transform="matrix(1 0 0 -1 35.9859 175.463)" fill="#34BF7A"/>
<circle r="2.71251" transform="matrix(1 0 0 -1 52.2628 175.463)" fill="#34BF7A"/>
<circle r="2.71251" transform="matrix(1 0 0 -1 68.5367 175.463)" fill="#34BF7A"/>
<circle r="2.71251" transform="matrix(1 0 0 -1 84.8131 175.463)" fill="#34BF7A"/>
<circle r="2.71251" transform="matrix(1 0 0 -1 101.088 175.463)" fill="#34BF7A"/>
<circle r="2.71251" transform="matrix(1 0 0 -1 117.361 175.463)" fill="#34BF7A"/>
<circle r="2.71251" transform="matrix(1 0 0 -1 133.638 175.463)" fill="#34BF7A"/>
<circle r="2.71251" transform="matrix(1 0 0 -1 149.912 175.463)" fill="#34BF7A"/>
<circle r="2.71251" transform="matrix(1 0 0 -1 166.188 175.463)" fill="#34BF7A"/>
<circle r="2.71251" transform="matrix(1 0 0 -1 182.463 175.463)" fill="#34BF7A"/>
<circle r="2.71251" transform="matrix(1 0 0 -1 198.738 175.463)" fill="#34BF7A"/>
<circle r="2.71251" transform="matrix(1 0 0 -1 215.013 175.463)" fill="#34BF7A"/>
<circle r="2.71251" transform="matrix(1 0 0 -1 231.287 175.463)" fill="#34BF7A"/>
<circle r="2.71251" transform="matrix(1 0 0 -1 19.712 159.187)" fill="#34BF7A"/>
<circle r="2.71251" transform="matrix(1 0 0 -1 35.9859 159.187)" fill="#34BF7A"/>
<circle r="2.71251" transform="matrix(1 0 0 -1 52.2628 159.187)" fill="#34BF7A"/>
<circle r="2.71251" transform="matrix(1 0 0 -1 68.5367 159.187)" fill="#34BF7A"/>
<circle r="2.71251" transform="matrix(1 0 0 -1 84.8131 159.187)" fill="#34BF7A"/>
<circle r="2.71251" transform="matrix(1 0 0 -1 101.088 159.187)" fill="#34BF7A"/>
<circle r="2.71251" transform="matrix(1 0 0 -1 117.361 159.187)" fill="#34BF7A"/>
<circle r="2.71251" transform="matrix(1 0 0 -1 133.638 159.187)" fill="#34BF7A"/>
<circle r="2.71251" transform="matrix(1 0 0 -1 149.912 159.187)" fill="#34BF7A"/>
<circle r="2.71251" transform="matrix(1 0 0 -1 166.188 159.187)" fill="#34BF7A"/>
<circle r="2.71251" transform="matrix(1 0 0 -1 182.463 159.187)" fill="#34BF7A"/>
<circle r="2.71251" transform="matrix(1 0 0 -1 198.738 159.187)" fill="#34BF7A"/>
<circle r="2.71251" transform="matrix(1 0 0 -1 215.013 159.187)" fill="#34BF7A"/>
<circle r="2.71251" transform="matrix(1 0 0 -1 231.287 159.187)" fill="#34BF7A"/>
<circle r="2.71251" transform="matrix(1 0 0 -1 19.712 142.913)" fill="#34BF7A"/>
<circle r="2.71251" transform="matrix(1 0 0 -1 35.9859 142.913)" fill="#34BF7A"/>
<circle r="2.71251" transform="matrix(1 0 0 -1 52.2628 142.913)" fill="#34BF7A"/>
<circle r="2.71251" transform="matrix(1 0 0 -1 68.5367 142.913)" fill="#34BF7A"/>
<circle r="2.71251" transform="matrix(1 0 0 -1 84.8131 142.913)" fill="#34BF7A"/>
<circle r="2.71251" transform="matrix(1 0 0 -1 101.088 142.913)" fill="#34BF7A"/>
<circle r="2.71251" transform="matrix(1 0 0 -1 117.361 142.913)" fill="#34BF7A"/>
<circle r="2.71251" transform="matrix(1 0 0 -1 133.638 142.913)" fill="#34BF7A"/>
<circle r="2.71251" transform="matrix(1 0 0 -1 149.912 142.913)" fill="#34BF7A"/>
<circle r="2.71251" transform="matrix(1 0 0 -1 166.188 142.913)" fill="#34BF7A"/>
<circle r="2.71251" transform="matrix(1 0 0 -1 182.463 142.913)" fill="#34BF7A"/>
<circle r="2.71251" transform="matrix(1 0 0 -1 198.738 142.913)" fill="#34BF7A"/>
<circle r="2.71251" transform="matrix(1 0 0 -1 215.013 142.913)" fill="#34BF7A"/>
<circle r="2.71251" transform="matrix(1 0 0 -1 231.287 142.913)" fill="#34BF7A"/>
<circle r="2.71251" transform="matrix(1 0 0 -1 19.712 126.638)" fill="#34BF7A"/>
<circle r="2.71251" transform="matrix(1 0 0 -1 35.9859 126.638)" fill="#34BF7A"/>
<circle r="2.71251" transform="matrix(1 0 0 -1 52.2628 126.638)" fill="#34BF7A"/>
<circle r="2.71251" transform="matrix(1 0 0 -1 68.5367 126.638)" fill="#34BF7A"/>
<circle r="2.71251" transform="matrix(1 0 0 -1 84.8131 126.638)" fill="#34BF7A"/>
<circle r="2.71251" transform="matrix(1 0 0 -1 101.088 126.638)" fill="#34BF7A"/>
<circle r="2.71251" transform="matrix(1 0 0 -1 117.361 126.638)" fill="#34BF7A"/>
<circle r="2.71251" transform="matrix(1 0 0 -1 133.638 126.638)" fill="#34BF7A"/>
<circle r="2.71251" transform="matrix(1 0 0 -1 149.912 126.638)" fill="#34BF7A"/>
<circle r="2.71251" transform="matrix(1 0 0 -1 166.188 126.638)" fill="#34BF7A"/>
<circle r="2.71251" transform="matrix(1 0 0 -1 182.463 126.638)" fill="#34BF7A"/>
<circle r="2.71251" transform="matrix(1 0 0 -1 198.738 126.638)" fill="#34BF7A"/>
<circle r="2.71251" transform="matrix(1 0 0 -1 215.013 126.638)" fill="#34BF7A"/>
<circle r="2.71251" transform="matrix(1 0 0 -1 231.287 126.638)" fill="#34BF7A"/>
<circle r="2.71251" transform="matrix(1 0 0 -1 19.712 110.363)" fill="#34BF7A"/>
<circle r="2.71251" transform="matrix(1 0 0 -1 35.9859 110.363)" fill="#34BF7A"/>
<circle r="2.71251" transform="matrix(1 0 0 -1 52.2628 110.363)" fill="#34BF7A"/>
<circle r="2.71251" transform="matrix(1 0 0 -1 68.5367 110.363)" fill="#34BF7A"/>
<circle r="2.71251" transform="matrix(1 0 0 -1 84.8131 110.363)" fill="#34BF7A"/>
<circle r="2.71251" transform="matrix(1 0 0 -1 101.088 110.363)" fill="#34BF7A"/>
<circle r="2.71251" transform="matrix(1 0 0 -1 117.361 110.363)" fill="#34BF7A"/>
<circle r="2.71251" transform="matrix(1 0 0 -1 133.638 110.363)" fill="#34BF7A"/>
<circle r="2.71251" transform="matrix(1 0 0 -1 149.912 110.363)" fill="#34BF7A"/>
<circle r="2.71251" transform="matrix(1 0 0 -1 166.188 110.363)" fill="#34BF7A"/>
<circle r="2.71251" transform="matrix(1 0 0 -1 182.463 110.363)" fill="#34BF7A"/>
<circle r="2.71251" transform="matrix(1 0 0 -1 198.738 110.363)" fill="#34BF7A"/>
<circle r="2.71251" transform="matrix(1 0 0 -1 215.013 110.363)" fill="#34BF7A"/>
<circle r="2.71251" transform="matrix(1 0 0 -1 231.287 110.363)" fill="#34BF7A"/>
<circle r="2.71251" transform="matrix(1 0 0 -1 19.712 94.0873)" fill="#34BF7A"/>
<circle r="2.71251" transform="matrix(1 0 0 -1 35.9859 94.0873)" fill="#34BF7A"/>
<circle r="2.71251" transform="matrix(1 0 0 -1 52.2628 94.0873)" fill="#34BF7A"/>
<circle r="2.71251" transform="matrix(1 0 0 -1 68.5367 94.0873)" fill="#34BF7A"/>
<circle r="2.71251" transform="matrix(1 0 0 -1 84.8131 94.0873)" fill="#34BF7A"/>
<circle r="2.71251" transform="matrix(1 0 0 -1 101.088 94.0873)" fill="#34BF7A"/>
<circle r="2.71251" transform="matrix(1 0 0 -1 117.361 94.0873)" fill="#34BF7A"/>
<circle r="2.71251" transform="matrix(1 0 0 -1 133.638 94.0873)" fill="#34BF7A"/>
<circle r="2.71251" transform="matrix(1 0 0 -1 149.912 94.0873)" fill="#34BF7A"/>
<circle r="2.71251" transform="matrix(1 0 0 -1 166.188 94.0873)" fill="#34BF7A"/>
<circle r="2.71251" transform="matrix(1 0 0 -1 182.463 94.0873)" fill="#34BF7A"/>
<circle r="2.71251" transform="matrix(1 0 0 -1 198.738 94.0873)" fill="#34BF7A"/>
<circle r="2.71251" transform="matrix(1 0 0 -1 215.013 94.0873)" fill="#34BF7A"/>
<circle r="2.71251" transform="matrix(1 0 0 -1 231.287 94.0873)" fill="#34BF7A"/>
<circle r="2.71251" transform="matrix(1 0 0 -1 19.712 77.8126)" fill="#34BF7A"/>
<circle r="2.71251" transform="matrix(1 0 0 -1 35.9859 77.8126)" fill="#34BF7A"/>
<circle r="2.71251" transform="matrix(1 0 0 -1 52.2628 77.8126)" fill="#34BF7A"/>
<circle r="2.71251" transform="matrix(1 0 0 -1 68.5367 77.8126)" fill="#34BF7A"/>
<circle r="2.71251" transform="matrix(1 0 0 -1 84.8131 77.8126)" fill="#34BF7A"/>
<circle r="2.71251" transform="matrix(1 0 0 -1 101.088 77.8126)" fill="#34BF7A"/>
<circle r="2.71251" transform="matrix(1 0 0 -1 117.361 77.8126)" fill="#34BF7A"/>
<circle r="2.71251" transform="matrix(1 0 0 -1 133.638 77.8126)" fill="#34BF7A"/>
<circle r="2.71251" transform="matrix(1 0 0 -1 149.912 77.8126)" fill="#34BF7A"/>
<circle r="2.71251" transform="matrix(1 0 0 -1 166.188 77.8126)" fill="#34BF7A"/>
<circle r="2.71251" transform="matrix(1 0 0 -1 182.463 77.8126)" fill="#34BF7A"/>
<circle r="2.71251" transform="matrix(1 0 0 -1 198.738 77.8126)" fill="#34BF7A"/>
<circle r="2.71251" transform="matrix(1 0 0 -1 215.013 77.8126)" fill="#34BF7A"/>
<circle r="2.71251" transform="matrix(1 0 0 -1 231.287 77.8126)" fill="#34BF7A"/>
<circle r="2.71251" transform="matrix(1 0 0 -1 19.712 61.5372)" fill="#34BF7A"/>
<circle r="2.71251" transform="matrix(1 0 0 -1 35.9859 61.5372)" fill="#34BF7A"/>
<circle r="2.71251" transform="matrix(1 0 0 -1 52.2628 61.5372)" fill="#34BF7A"/>
<circle r="2.71251" transform="matrix(1 0 0 -1 68.5367 61.5372)" fill="#34BF7A"/>
<circle r="2.71251" transform="matrix(1 0 0 -1 84.8131 61.5372)" fill="#34BF7A"/>
<circle r="2.71251" transform="matrix(1 0 0 -1 101.088 61.5372)" fill="#34BF7A"/>
<circle r="2.71251" transform="matrix(1 0 0 -1 117.361 61.5372)" fill="#34BF7A"/>
<circle r="2.71251" transform="matrix(1 0 0 -1 133.638 61.5372)" fill="#34BF7A"/>
<circle r="2.71251" transform="matrix(1 0 0 -1 149.912 61.5372)" fill="#34BF7A"/>
<circle r="2.71251" transform="matrix(1 0 0 -1 166.188 61.5372)" fill="#34BF7A"/>
<circle r="2.71251" transform="matrix(1 0 0 -1 182.463 61.5372)" fill="#34BF7A"/>
<circle r="2.71251" transform="matrix(1 0 0 -1 198.738 61.5372)" fill="#34BF7A"/>
<circle r="2.71251" transform="matrix(1 0 0 -1 215.013 61.5372)" fill="#34BF7A"/>
<circle r="2.71251" transform="matrix(1 0 0 -1 231.287 61.5372)" fill="#34BF7A"/>
<circle r="2.71251" transform="matrix(1 0 0 -1 19.712 45.2626)" fill="#34BF7A"/>
<circle r="2.71251" transform="matrix(1 0 0 -1 35.9859 45.2626)" fill="#34BF7A"/>
<circle r="2.71251" transform="matrix(1 0 0 -1 52.2628 45.2626)" fill="#34BF7A"/>
<circle r="2.71251" transform="matrix(1 0 0 -1 68.5367 45.2626)" fill="#34BF7A"/>
<circle r="2.71251" transform="matrix(1 0 0 -1 84.8131 45.2626)" fill="#34BF7A"/>
<circle r="2.71251" transform="matrix(1 0 0 -1 101.088 45.2626)" fill="#34BF7A"/>
<circle r="2.71251" transform="matrix(1 0 0 -1 117.361 45.2626)" fill="#34BF7A"/>
<circle r="2.71251" transform="matrix(1 0 0 -1 133.638 45.2626)" fill="#34BF7A"/>
<circle r="2.71251" transform="matrix(1 0 0 -1 149.912 45.2626)" fill="#34BF7A"/>
<circle r="2.71251" transform="matrix(1 0 0 -1 166.188 45.2626)" fill="#34BF7A"/>
<circle r="2.71251" transform="matrix(1 0 0 -1 182.463 45.2626)" fill="#34BF7A"/>
<circle r="2.71251" transform="matrix(1 0 0 -1 198.738 45.2626)" fill="#34BF7A"/>
<circle r="2.71251" transform="matrix(1 0 0 -1 215.013 45.2626)" fill="#34BF7A"/>
<circle r="2.71251" transform="matrix(1 0 0 -1 231.287 45.2626)" fill="#34BF7A"/>
<circle r="2.71251" transform="matrix(1 0 0 -1 19.712 28.9872)" fill="#34BF7A"/>
<circle r="2.71251" transform="matrix(1 0 0 -1 35.9859 28.9872)" fill="#34BF7A"/>
<circle r="2.71251" transform="matrix(1 0 0 -1 52.2628 28.9872)" fill="#34BF7A"/>
<circle r="2.71251" transform="matrix(1 0 0 -1 68.5367 28.9872)" fill="#34BF7A"/>
<circle r="2.71251" transform="matrix(1 0 0 -1 84.8131 28.9872)" fill="#34BF7A"/>
<circle r="2.71251" transform="matrix(1 0 0 -1 101.088 28.9872)" fill="#34BF7A"/>
<circle r="2.71251" transform="matrix(1 0 0 -1 117.361 28.9872)" fill="#34BF7A"/>
<circle r="2.71251" transform="matrix(1 0 0 -1 133.638 28.9872)" fill="#34BF7A"/>
<circle r="2.71251" transform="matrix(1 0 0 -1 149.912 28.9872)" fill="#34BF7A"/>
<circle r="2.71251" transform="matrix(1 0 0 -1 166.188 28.9872)" fill="#34BF7A"/>
<circle r="2.71251" transform="matrix(1 0 0 -1 182.463 28.9872)" fill="#34BF7A"/>
<circle r="2.71251" transform="matrix(1 0 0 -1 198.738 28.9872)" fill="#34BF7A"/>
<circle r="2.71251" transform="matrix(1 0 0 -1 215.013 28.9872)" fill="#34BF7A"/>
<circle r="2.71251" transform="matrix(1 0 0 -1 231.287 28.9872)" fill="#34BF7A"/>
<circle r="2.71251" transform="matrix(1 0 0 -1 19.712 12.7125)" fill="#34BF7A"/>
<circle r="2.71251" transform="matrix(1 0 0 -1 35.9859 12.7125)" fill="#34BF7A"/>
<circle r="2.71251" transform="matrix(1 0 0 -1 52.2628 12.7125)" fill="#34BF7A"/>
<circle r="2.71251" transform="matrix(1 0 0 -1 68.5367 12.7125)" fill="#34BF7A"/>
<circle r="2.71251" transform="matrix(1 0 0 -1 84.8131 12.7125)" fill="#34BF7A"/>
<circle r="2.71251" transform="matrix(1 0 0 -1 101.088 12.7125)" fill="#34BF7A"/>
<circle r="2.71251" transform="matrix(1 0 0 -1 117.361 12.7125)" fill="#34BF7A"/>
<circle r="2.71251" transform="matrix(1 0 0 -1 133.638 12.7125)" fill="#34BF7A"/>
<circle r="2.71251" transform="matrix(1 0 0 -1 149.912 12.7125)" fill="#34BF7A"/>
<circle r="2.71251" transform="matrix(1 0 0 -1 166.188 12.7125)" fill="#34BF7A"/>
<circle r="2.71251" transform="matrix(1 0 0 -1 182.463 12.7125)" fill="#34BF7A"/>
<circle r="2.71251" transform="matrix(1 0 0 -1 198.738 12.7125)" fill="#34BF7A"/>
<circle r="2.71251" transform="matrix(1 0 0 -1 215.013 12.7125)" fill="#34BF7A"/>
<circle r="2.71251" transform="matrix(1 0 0 -1 231.287 12.7125)" fill="#34BF7A"/>
</svg>
