<svg width="252" height="259" viewBox="0 0 252 259" fill="none" xmlns="http://www.w3.org/2000/svg">
<rect width="250" height="259" rx="15" fill="#1E7979"/>
<path d="M0 201.656H251.077V244C251.077 252.284 244.361 259 236.077 259H15C6.71571 259 0 252.284 0 244V201.656Z" fill="white"/>
<path d="M79.984 212.976H78.048L76.688 224H79.04L79.824 217.392L82.416 222.736H84.224L86.8 217.392L87.568 224H89.92L88.576 212.976H86.608L83.312 220.08L79.984 212.976ZM96.1811 216.528L94.5171 220.768L92.8691 216.528H90.5011L93.3811 223.232L91.5891 227.664H93.9411L98.5491 216.528H96.1811ZM101.857 221.392C101.857 219.408 102.481 218.416 103.713 218.416C104.161 218.416 104.545 218.496 104.849 218.64L105.249 216.64C104.881 216.464 104.465 216.368 103.969 216.368C103.121 216.368 102.225 217.04 101.857 218.336V216.528H99.6334V224H101.857V221.392ZM109.311 213.664H107.103V216.528H105.743V218.288H107.103V224H109.311V218.288H110.879V216.528H109.311V213.664ZM112.243 224H114.467V212.464H112.243V224ZM121.756 221.536C121.388 222 120.844 222.24 120.124 222.24C119.244 222.24 118.396 221.808 118.284 220.992H123.756C123.772 220.736 123.788 220.512 123.788 220.304C123.788 219.136 123.42 218.192 122.684 217.472C121.964 216.736 121.052 216.368 119.964 216.368C118.86 216.368 117.932 216.72 117.18 217.44C116.428 218.16 116.06 219.088 116.06 220.24C116.06 221.392 116.428 222.336 117.18 223.072C117.932 223.792 118.86 224.16 119.964 224.16C121.548 224.16 122.684 223.648 123.372 222.64L121.756 221.536ZM118.316 219.6C118.668 217.888 121.324 217.904 121.548 219.6H118.316ZM138.636 214.656C137.66 213.52 136.156 212.848 134.492 212.848C132.908 212.848 131.58 213.408 130.476 214.512C129.388 215.616 128.844 216.944 128.844 218.512C128.844 220.064 129.388 221.408 130.476 222.512C131.58 223.616 132.908 224.16 134.492 224.16C136.14 224.16 137.452 223.664 138.412 222.688C139.388 221.696 139.868 220.208 139.868 218.208H134.204V220.112H137.164C137.148 220.672 136.86 221.12 136.3 221.488C135.74 221.84 135.132 222.016 134.492 222.016C133.58 222.016 132.796 221.68 132.156 220.992C131.516 220.304 131.196 219.472 131.196 218.512C131.196 217.552 131.516 216.736 132.14 216.048C132.78 215.36 133.564 215.024 134.492 215.024C135.436 215.024 136.252 215.392 136.908 216.144L138.636 214.656ZM143.529 221.392C143.529 219.408 144.153 218.416 145.385 218.416C145.833 218.416 146.217 218.496 146.521 218.64L146.921 216.64C146.553 216.464 146.137 216.368 145.641 216.368C144.793 216.368 143.897 217.04 143.529 218.336V216.528H141.305V224H143.529V221.392ZM153.194 221.536C152.826 222 152.282 222.24 151.562 222.24C150.682 222.24 149.834 221.808 149.722 220.992H155.194C155.21 220.736 155.226 220.512 155.226 220.304C155.226 219.136 154.858 218.192 154.122 217.472C153.402 216.736 152.49 216.368 151.402 216.368C150.298 216.368 149.37 216.72 148.618 217.44C147.866 218.16 147.498 219.088 147.498 220.24C147.498 221.392 147.866 222.336 148.618 223.072C149.37 223.792 150.298 224.16 151.402 224.16C152.986 224.16 154.122 223.648 154.81 222.64L153.194 221.536ZM149.754 219.6C150.106 217.888 152.762 217.904 152.986 219.6H149.754ZM161.991 221.536C161.623 222 161.079 222.24 160.359 222.24C159.479 222.24 158.631 221.808 158.519 220.992H163.991C164.007 220.736 164.023 220.512 164.023 220.304C164.023 219.136 163.655 218.192 162.919 217.472C162.199 216.736 161.287 216.368 160.199 216.368C159.095 216.368 158.167 216.72 157.415 217.44C156.663 218.16 156.295 219.088 156.295 220.24C156.295 221.392 156.663 222.336 157.415 223.072C158.167 223.792 159.095 224.16 160.199 224.16C161.783 224.16 162.919 223.648 163.607 222.64L161.991 221.536ZM158.551 219.6C158.903 217.888 161.559 217.904 161.783 219.6H158.551ZM167.764 220.048C167.764 219.04 168.228 218.528 169.14 218.528C169.924 218.528 170.436 219.056 170.436 220.016V224H172.66V219.536C172.66 217.44 171.652 216.368 169.924 216.368C169.044 216.368 168.164 216.864 167.764 217.616V216.528H165.54V224H167.764V220.048Z" fill="#202538"/>
<path opacity="0.6" d="M99.26 247H100.548L101.262 244.676H102.872L102.172 247H103.474L104.188 244.676H105.728L106.078 243.43H104.538L105.238 241.036H106.792L107.128 239.79H105.588L106.302 237.354H104.986L104.272 239.79H102.676L103.376 237.354H102.046L101.346 239.79H99.82L99.484 241.036H100.982L100.296 243.43H98.77L98.434 244.676H99.96L99.26 247ZM101.612 243.43L102.312 241.036H103.922L103.208 243.43H101.612ZM111.491 237.718L107.935 239.244V240.756L109.993 239.944V247H111.603V237.718H111.491ZM115.76 245.474V243.038H119.456V241.484H115.76V238.88H119.988V237.354H114.066V247H120.128V245.474H115.76ZM121.434 237.83V239.356H125.396L121.616 247H123.506L127.93 237.984V237.83H121.434ZM132.097 237.718C130.067 237.718 128.765 239.09 128.765 240.784C128.765 242.38 130.011 243.752 131.873 243.752C132.797 243.752 133.483 243.388 133.931 242.856C133.903 244.438 132.993 245.628 131.761 245.628C131.145 245.628 130.529 245.32 130.221 244.606L128.863 245.306C129.451 246.636 130.627 247.14 131.761 247.14C134.449 247.14 135.611 244.648 135.611 242.142C135.611 239.552 134.281 237.718 132.097 237.718ZM132.027 242.338C131.089 242.31 130.403 241.666 130.403 240.798C130.403 239.902 131.131 239.244 132.125 239.244C133.105 239.258 133.819 239.93 133.819 240.84C133.791 241.708 133.035 242.338 132.027 242.338ZM136.829 237.83V239.356H140.791L137.011 247H138.901L143.325 237.984V237.83H136.829ZM147.491 237.718C145.461 237.718 144.159 239.09 144.159 240.784C144.159 242.38 145.405 243.752 147.267 243.752C148.191 243.752 148.877 243.388 149.325 242.856C149.297 244.438 148.387 245.628 147.155 245.628C146.539 245.628 145.923 245.32 145.615 244.606L144.257 245.306C144.845 246.636 146.021 247.14 147.155 247.14C149.843 247.14 151.005 244.648 151.005 242.142C151.005 239.552 149.675 237.718 147.491 237.718ZM147.421 242.338C146.483 242.31 145.797 241.666 145.797 240.798C145.797 239.902 146.525 239.244 147.519 239.244C148.499 239.258 149.213 239.93 149.213 240.84C149.185 241.708 148.429 242.338 147.421 242.338Z" fill="#202538"/>
<circle r="2.71251" transform="matrix(1 0 0 -1 19.712 191.738)" fill="#218484"/>
<circle r="2.71251" transform="matrix(1 0 0 -1 35.9859 191.738)" fill="#218484"/>
<circle r="2.71251" transform="matrix(1 0 0 -1 52.2628 191.738)" fill="#218484"/>
<circle r="2.71251" transform="matrix(1 0 0 -1 68.5367 191.738)" fill="#218484"/>
<circle r="2.71251" transform="matrix(1 0 0 -1 84.8131 191.738)" fill="#218484"/>
<circle r="2.71251" transform="matrix(1 0 0 -1 101.088 191.738)" fill="#218484"/>
<circle r="2.71251" transform="matrix(1 0 0 -1 117.361 191.738)" fill="#218484"/>
<circle r="2.71251" transform="matrix(1 0 0 -1 133.638 191.738)" fill="#218484"/>
<circle r="2.71251" transform="matrix(1 0 0 -1 149.912 191.738)" fill="#218484"/>
<circle r="2.71251" transform="matrix(1 0 0 -1 166.188 191.738)" fill="#218484"/>
<circle r="2.71251" transform="matrix(1 0 0 -1 182.463 191.738)" fill="#218484"/>
<circle r="2.71251" transform="matrix(1 0 0 -1 198.738 191.738)" fill="#218484"/>
<circle r="2.71251" transform="matrix(1 0 0 -1 215.013 191.738)" fill="#218484"/>
<circle r="2.71251" transform="matrix(1 0 0 -1 231.287 191.738)" fill="#218484"/>
<circle r="2.71251" transform="matrix(1 0 0 -1 19.712 175.463)" fill="#218484"/>
<circle r="2.71251" transform="matrix(1 0 0 -1 35.9859 175.463)" fill="#218484"/>
<circle r="2.71251" transform="matrix(1 0 0 -1 52.2628 175.463)" fill="#218484"/>
<circle r="2.71251" transform="matrix(1 0 0 -1 68.5367 175.463)" fill="#218484"/>
<circle r="2.71251" transform="matrix(1 0 0 -1 84.8131 175.463)" fill="#218484"/>
<circle r="2.71251" transform="matrix(1 0 0 -1 101.088 175.463)" fill="#218484"/>
<circle r="2.71251" transform="matrix(1 0 0 -1 117.361 175.463)" fill="#218484"/>
<circle r="2.71251" transform="matrix(1 0 0 -1 133.638 175.463)" fill="#218484"/>
<circle r="2.71251" transform="matrix(1 0 0 -1 149.912 175.463)" fill="#218484"/>
<circle r="2.71251" transform="matrix(1 0 0 -1 166.188 175.463)" fill="#218484"/>
<circle r="2.71251" transform="matrix(1 0 0 -1 182.463 175.463)" fill="#218484"/>
<circle r="2.71251" transform="matrix(1 0 0 -1 198.738 175.463)" fill="#218484"/>
<circle r="2.71251" transform="matrix(1 0 0 -1 215.013 175.463)" fill="#218484"/>
<circle r="2.71251" transform="matrix(1 0 0 -1 231.287 175.463)" fill="#218484"/>
<circle r="2.71251" transform="matrix(1 0 0 -1 19.712 159.187)" fill="#218484"/>
<circle r="2.71251" transform="matrix(1 0 0 -1 35.9859 159.187)" fill="#218484"/>
<circle r="2.71251" transform="matrix(1 0 0 -1 52.2628 159.187)" fill="#218484"/>
<circle r="2.71251" transform="matrix(1 0 0 -1 68.5367 159.187)" fill="#218484"/>
<circle r="2.71251" transform="matrix(1 0 0 -1 84.8131 159.187)" fill="#218484"/>
<circle r="2.71251" transform="matrix(1 0 0 -1 101.088 159.187)" fill="#218484"/>
<circle r="2.71251" transform="matrix(1 0 0 -1 117.361 159.187)" fill="#218484"/>
<circle r="2.71251" transform="matrix(1 0 0 -1 133.638 159.187)" fill="#218484"/>
<circle r="2.71251" transform="matrix(1 0 0 -1 149.912 159.187)" fill="#218484"/>
<circle r="2.71251" transform="matrix(1 0 0 -1 166.188 159.187)" fill="#218484"/>
<circle r="2.71251" transform="matrix(1 0 0 -1 182.463 159.187)" fill="#218484"/>
<circle r="2.71251" transform="matrix(1 0 0 -1 198.738 159.187)" fill="#218484"/>
<circle r="2.71251" transform="matrix(1 0 0 -1 215.013 159.187)" fill="#218484"/>
<circle r="2.71251" transform="matrix(1 0 0 -1 231.287 159.187)" fill="#218484"/>
<circle r="2.71251" transform="matrix(1 0 0 -1 19.712 142.913)" fill="#218484"/>
<circle r="2.71251" transform="matrix(1 0 0 -1 35.9859 142.913)" fill="#218484"/>
<circle r="2.71251" transform="matrix(1 0 0 -1 52.2628 142.913)" fill="#218484"/>
<circle r="2.71251" transform="matrix(1 0 0 -1 68.5367 142.913)" fill="#218484"/>
<circle r="2.71251" transform="matrix(1 0 0 -1 84.8131 142.913)" fill="#218484"/>
<circle r="2.71251" transform="matrix(1 0 0 -1 101.088 142.913)" fill="#218484"/>
<circle r="2.71251" transform="matrix(1 0 0 -1 117.361 142.913)" fill="#218484"/>
<circle r="2.71251" transform="matrix(1 0 0 -1 133.638 142.913)" fill="#218484"/>
<circle r="2.71251" transform="matrix(1 0 0 -1 149.912 142.913)" fill="#218484"/>
<circle r="2.71251" transform="matrix(1 0 0 -1 166.188 142.913)" fill="#218484"/>
<circle r="2.71251" transform="matrix(1 0 0 -1 182.463 142.913)" fill="#218484"/>
<circle r="2.71251" transform="matrix(1 0 0 -1 198.738 142.913)" fill="#218484"/>
<circle r="2.71251" transform="matrix(1 0 0 -1 215.013 142.913)" fill="#218484"/>
<circle r="2.71251" transform="matrix(1 0 0 -1 231.287 142.913)" fill="#218484"/>
<circle r="2.71251" transform="matrix(1 0 0 -1 19.712 126.638)" fill="#218484"/>
<circle r="2.71251" transform="matrix(1 0 0 -1 35.9859 126.638)" fill="#218484"/>
<circle r="2.71251" transform="matrix(1 0 0 -1 52.2628 126.638)" fill="#218484"/>
<circle r="2.71251" transform="matrix(1 0 0 -1 68.5367 126.638)" fill="#218484"/>
<circle r="2.71251" transform="matrix(1 0 0 -1 84.8131 126.638)" fill="#218484"/>
<circle r="2.71251" transform="matrix(1 0 0 -1 101.088 126.638)" fill="#218484"/>
<circle r="2.71251" transform="matrix(1 0 0 -1 117.361 126.638)" fill="#218484"/>
<circle r="2.71251" transform="matrix(1 0 0 -1 133.638 126.638)" fill="#218484"/>
<circle r="2.71251" transform="matrix(1 0 0 -1 149.912 126.638)" fill="#218484"/>
<circle r="2.71251" transform="matrix(1 0 0 -1 166.188 126.638)" fill="#218484"/>
<circle r="2.71251" transform="matrix(1 0 0 -1 182.463 126.638)" fill="#218484"/>
<circle r="2.71251" transform="matrix(1 0 0 -1 198.738 126.638)" fill="#218484"/>
<circle r="2.71251" transform="matrix(1 0 0 -1 215.013 126.638)" fill="#218484"/>
<circle r="2.71251" transform="matrix(1 0 0 -1 231.287 126.638)" fill="#218484"/>
<circle r="2.71251" transform="matrix(1 0 0 -1 19.712 110.363)" fill="#218484"/>
<circle r="2.71251" transform="matrix(1 0 0 -1 35.9859 110.363)" fill="#218484"/>
<circle r="2.71251" transform="matrix(1 0 0 -1 52.2628 110.363)" fill="#218484"/>
<circle r="2.71251" transform="matrix(1 0 0 -1 68.5367 110.363)" fill="#218484"/>
<circle r="2.71251" transform="matrix(1 0 0 -1 84.8131 110.363)" fill="#218484"/>
<circle r="2.71251" transform="matrix(1 0 0 -1 101.088 110.363)" fill="#218484"/>
<circle r="2.71251" transform="matrix(1 0 0 -1 117.361 110.363)" fill="#218484"/>
<circle r="2.71251" transform="matrix(1 0 0 -1 133.638 110.363)" fill="#218484"/>
<circle r="2.71251" transform="matrix(1 0 0 -1 149.912 110.363)" fill="#218484"/>
<circle r="2.71251" transform="matrix(1 0 0 -1 166.188 110.363)" fill="#218484"/>
<circle r="2.71251" transform="matrix(1 0 0 -1 182.463 110.363)" fill="#218484"/>
<circle r="2.71251" transform="matrix(1 0 0 -1 198.738 110.363)" fill="#218484"/>
<circle r="2.71251" transform="matrix(1 0 0 -1 215.013 110.363)" fill="#218484"/>
<circle r="2.71251" transform="matrix(1 0 0 -1 231.287 110.363)" fill="#218484"/>
<circle r="2.71251" transform="matrix(1 0 0 -1 19.712 94.0873)" fill="#218484"/>
<circle r="2.71251" transform="matrix(1 0 0 -1 35.9859 94.0873)" fill="#218484"/>
<circle r="2.71251" transform="matrix(1 0 0 -1 52.2628 94.0873)" fill="#218484"/>
<circle r="2.71251" transform="matrix(1 0 0 -1 68.5367 94.0873)" fill="#218484"/>
<circle r="2.71251" transform="matrix(1 0 0 -1 84.8131 94.0873)" fill="#218484"/>
<circle r="2.71251" transform="matrix(1 0 0 -1 101.088 94.0873)" fill="#218484"/>
<circle r="2.71251" transform="matrix(1 0 0 -1 117.361 94.0873)" fill="#218484"/>
<circle r="2.71251" transform="matrix(1 0 0 -1 133.638 94.0873)" fill="#218484"/>
<circle r="2.71251" transform="matrix(1 0 0 -1 149.912 94.0873)" fill="#218484"/>
<circle r="2.71251" transform="matrix(1 0 0 -1 166.188 94.0873)" fill="#218484"/>
<circle r="2.71251" transform="matrix(1 0 0 -1 182.463 94.0873)" fill="#218484"/>
<circle r="2.71251" transform="matrix(1 0 0 -1 198.738 94.0873)" fill="#218484"/>
<circle r="2.71251" transform="matrix(1 0 0 -1 215.013 94.0873)" fill="#218484"/>
<circle r="2.71251" transform="matrix(1 0 0 -1 231.287 94.0873)" fill="#218484"/>
<circle r="2.71251" transform="matrix(1 0 0 -1 19.712 77.8126)" fill="#218484"/>
<circle r="2.71251" transform="matrix(1 0 0 -1 35.9859 77.8126)" fill="#218484"/>
<circle r="2.71251" transform="matrix(1 0 0 -1 52.2628 77.8126)" fill="#218484"/>
<circle r="2.71251" transform="matrix(1 0 0 -1 68.5367 77.8126)" fill="#218484"/>
<circle r="2.71251" transform="matrix(1 0 0 -1 84.8131 77.8126)" fill="#218484"/>
<circle r="2.71251" transform="matrix(1 0 0 -1 101.088 77.8126)" fill="#218484"/>
<circle r="2.71251" transform="matrix(1 0 0 -1 117.361 77.8126)" fill="#218484"/>
<circle r="2.71251" transform="matrix(1 0 0 -1 133.638 77.8126)" fill="#218484"/>
<circle r="2.71251" transform="matrix(1 0 0 -1 149.912 77.8126)" fill="#218484"/>
<circle r="2.71251" transform="matrix(1 0 0 -1 166.188 77.8126)" fill="#218484"/>
<circle r="2.71251" transform="matrix(1 0 0 -1 182.463 77.8126)" fill="#218484"/>
<circle r="2.71251" transform="matrix(1 0 0 -1 198.738 77.8126)" fill="#218484"/>
<circle r="2.71251" transform="matrix(1 0 0 -1 215.013 77.8126)" fill="#218484"/>
<circle r="2.71251" transform="matrix(1 0 0 -1 231.287 77.8126)" fill="#218484"/>
<circle r="2.71251" transform="matrix(1 0 0 -1 19.712 61.5372)" fill="#218484"/>
<circle r="2.71251" transform="matrix(1 0 0 -1 35.9859 61.5372)" fill="#218484"/>
<circle r="2.71251" transform="matrix(1 0 0 -1 52.2628 61.5372)" fill="#218484"/>
<circle r="2.71251" transform="matrix(1 0 0 -1 68.5367 61.5372)" fill="#218484"/>
<circle r="2.71251" transform="matrix(1 0 0 -1 84.8131 61.5372)" fill="#218484"/>
<circle r="2.71251" transform="matrix(1 0 0 -1 101.088 61.5372)" fill="#218484"/>
<circle r="2.71251" transform="matrix(1 0 0 -1 117.361 61.5372)" fill="#218484"/>
<circle r="2.71251" transform="matrix(1 0 0 -1 133.638 61.5372)" fill="#218484"/>
<circle r="2.71251" transform="matrix(1 0 0 -1 149.912 61.5372)" fill="#218484"/>
<circle r="2.71251" transform="matrix(1 0 0 -1 166.188 61.5372)" fill="#218484"/>
<circle r="2.71251" transform="matrix(1 0 0 -1 182.463 61.5372)" fill="#218484"/>
<circle r="2.71251" transform="matrix(1 0 0 -1 198.738 61.5372)" fill="#218484"/>
<circle r="2.71251" transform="matrix(1 0 0 -1 215.013 61.5372)" fill="#218484"/>
<circle r="2.71251" transform="matrix(1 0 0 -1 231.287 61.5372)" fill="#218484"/>
<circle r="2.71251" transform="matrix(1 0 0 -1 19.712 45.2626)" fill="#218484"/>
<circle r="2.71251" transform="matrix(1 0 0 -1 35.9859 45.2626)" fill="#218484"/>
<circle r="2.71251" transform="matrix(1 0 0 -1 52.2628 45.2626)" fill="#218484"/>
<circle r="2.71251" transform="matrix(1 0 0 -1 68.5367 45.2626)" fill="#218484"/>
<circle r="2.71251" transform="matrix(1 0 0 -1 84.8131 45.2626)" fill="#218484"/>
<circle r="2.71251" transform="matrix(1 0 0 -1 101.088 45.2626)" fill="#218484"/>
<circle r="2.71251" transform="matrix(1 0 0 -1 117.361 45.2626)" fill="#218484"/>
<circle r="2.71251" transform="matrix(1 0 0 -1 133.638 45.2626)" fill="#218484"/>
<circle r="2.71251" transform="matrix(1 0 0 -1 149.912 45.2626)" fill="#218484"/>
<circle r="2.71251" transform="matrix(1 0 0 -1 166.188 45.2626)" fill="#218484"/>
<circle r="2.71251" transform="matrix(1 0 0 -1 182.463 45.2626)" fill="#218484"/>
<circle r="2.71251" transform="matrix(1 0 0 -1 198.738 45.2626)" fill="#218484"/>
<circle r="2.71251" transform="matrix(1 0 0 -1 215.013 45.2626)" fill="#218484"/>
<circle r="2.71251" transform="matrix(1 0 0 -1 231.287 45.2626)" fill="#218484"/>
<circle r="2.71251" transform="matrix(1 0 0 -1 19.712 28.9872)" fill="#218484"/>
<circle r="2.71251" transform="matrix(1 0 0 -1 35.9859 28.9872)" fill="#218484"/>
<circle r="2.71251" transform="matrix(1 0 0 -1 52.2628 28.9872)" fill="#218484"/>
<circle r="2.71251" transform="matrix(1 0 0 -1 68.5367 28.9872)" fill="#218484"/>
<circle r="2.71251" transform="matrix(1 0 0 -1 84.8131 28.9872)" fill="#218484"/>
<circle r="2.71251" transform="matrix(1 0 0 -1 101.088 28.9872)" fill="#218484"/>
<circle r="2.71251" transform="matrix(1 0 0 -1 117.361 28.9872)" fill="#218484"/>
<circle r="2.71251" transform="matrix(1 0 0 -1 133.638 28.9872)" fill="#218484"/>
<circle r="2.71251" transform="matrix(1 0 0 -1 149.912 28.9872)" fill="#218484"/>
<circle r="2.71251" transform="matrix(1 0 0 -1 166.188 28.9872)" fill="#218484"/>
<circle r="2.71251" transform="matrix(1 0 0 -1 182.463 28.9872)" fill="#218484"/>
<circle r="2.71251" transform="matrix(1 0 0 -1 198.738 28.9872)" fill="#218484"/>
<circle r="2.71251" transform="matrix(1 0 0 -1 215.013 28.9872)" fill="#218484"/>
<circle r="2.71251" transform="matrix(1 0 0 -1 231.287 28.9872)" fill="#218484"/>
<circle r="2.71251" transform="matrix(1 0 0 -1 19.712 12.7125)" fill="#218484"/>
<circle r="2.71251" transform="matrix(1 0 0 -1 35.9859 12.7125)" fill="#218484"/>
<circle r="2.71251" transform="matrix(1 0 0 -1 52.2628 12.7125)" fill="#218484"/>
<circle r="2.71251" transform="matrix(1 0 0 -1 68.5367 12.7125)" fill="#218484"/>
<circle r="2.71251" transform="matrix(1 0 0 -1 84.8131 12.7125)" fill="#218484"/>
<circle r="2.71251" transform="matrix(1 0 0 -1 101.088 12.7125)" fill="#218484"/>
<circle r="2.71251" transform="matrix(1 0 0 -1 117.361 12.7125)" fill="#218484"/>
<circle r="2.71251" transform="matrix(1 0 0 -1 133.638 12.7125)" fill="#218484"/>
<circle r="2.71251" transform="matrix(1 0 0 -1 149.912 12.7125)" fill="#218484"/>
<circle r="2.71251" transform="matrix(1 0 0 -1 166.188 12.7125)" fill="#218484"/>
<circle r="2.71251" transform="matrix(1 0 0 -1 182.463 12.7125)" fill="#218484"/>
<circle r="2.71251" transform="matrix(1 0 0 -1 198.738 12.7125)" fill="#218484"/>
<circle r="2.71251" transform="matrix(1 0 0 -1 215.013 12.7125)" fill="#218484"/>
<circle r="2.71251" transform="matrix(1 0 0 -1 231.287 12.7125)" fill="#218484"/>
</svg>
