<svg width="252" height="259" viewBox="0 0 252 259" fill="none" xmlns="http://www.w3.org/2000/svg">
<rect width="250" height="259" rx="15" fill="#696F7B"/>
<path d="M0 201.656H251.077V244C251.077 252.284 244.361 259 236.077 259H15C6.71571 259 0 252.284 0 244V201.656Z" fill="white"/>
<path d="M109.216 212.976V219.568L105.44 212.976H103.296V224H105.632V217.328L109.472 224H111.568V212.976H109.216ZM113.883 216.528V224H116.091V216.528H113.883ZM114.987 212.464C114.219 212.464 113.595 213.04 113.595 213.76C113.595 214.48 114.219 215.072 114.987 215.072C115.739 215.072 116.347 214.48 116.347 213.76C116.347 213.04 115.739 212.464 114.987 212.464ZM121.749 216.368C120.645 216.368 119.685 216.736 118.885 217.456C118.085 218.176 117.685 219.104 117.685 220.24C117.685 221.376 118.085 222.32 118.885 223.056C119.685 223.792 120.645 224.16 121.749 224.16C123.093 224.16 124.293 223.568 124.997 222.56L123.189 221.28C122.869 221.776 122.389 222.032 121.749 222.032C121.253 222.032 120.821 221.872 120.453 221.536C120.085 221.2 119.893 220.768 119.893 220.24C119.893 219.728 120.085 219.312 120.453 218.992C120.821 218.656 121.253 218.496 121.749 218.496C122.389 218.496 122.869 218.752 123.189 219.248L124.997 217.952C124.277 216.944 123.077 216.368 121.749 216.368ZM131.244 224H133.98L130.252 219.824L133.356 216.528H130.524L128.748 218.576V212.464H126.54V224H128.748V221.04L131.244 224ZM139.725 221.536C139.357 222 138.813 222.24 138.093 222.24C137.213 222.24 136.365 221.808 136.253 220.992H141.725C141.741 220.736 141.757 220.512 141.757 220.304C141.757 219.136 141.389 218.192 140.653 217.472C139.933 216.736 139.021 216.368 137.933 216.368C136.829 216.368 135.901 216.72 135.149 217.44C134.397 218.16 134.029 219.088 134.029 220.24C134.029 221.392 134.397 222.336 135.149 223.072C135.901 223.792 136.829 224.16 137.933 224.16C139.517 224.16 140.653 223.648 141.341 222.64L139.725 221.536ZM136.285 219.6C136.637 217.888 139.293 217.904 139.517 219.6H136.285ZM143.274 224H145.498V212.464H143.274V224Z" fill="#202538"/>
<path opacity="0.6" d="M97.26 247H98.548L99.262 244.676H100.872L100.172 247H101.474L102.188 244.676H103.728L104.078 243.43H102.538L103.238 241.036H104.792L105.128 239.79H103.588L104.302 237.354H102.986L102.272 239.79H100.676L101.376 237.354H100.046L99.346 239.79H97.82L97.484 241.036H98.982L98.296 243.43H96.77L96.434 244.676H97.96L97.26 247ZM99.612 243.43L100.312 241.036H101.922L101.208 243.43H99.612ZM110.009 241.092C109.085 241.092 108.385 241.498 107.951 242.03C107.965 240.434 108.861 239.23 110.107 239.23C110.737 239.23 111.339 239.538 111.661 240.238L113.019 239.552C112.431 238.222 111.255 237.718 110.107 237.718C107.419 237.718 106.271 240.21 106.271 242.716C106.271 245.516 107.601 247.14 109.785 247.14C111.801 247.14 113.117 245.768 113.117 244.074C113.117 242.478 111.871 241.092 110.009 241.092ZM109.743 245.614C108.763 245.6 108.063 244.928 108.063 244.018C108.091 243.136 108.833 242.506 109.841 242.506C110.779 242.534 111.465 243.192 111.465 244.06C111.465 244.956 110.751 245.614 109.743 245.614ZM117.86 237.718C115.83 237.718 114.528 239.09 114.528 240.784C114.528 242.38 115.774 243.752 117.636 243.752C118.56 243.752 119.246 243.388 119.694 242.856C119.666 244.438 118.756 245.628 117.524 245.628C116.908 245.628 116.292 245.32 115.984 244.606L114.626 245.306C115.214 246.636 116.39 247.14 117.524 247.14C120.212 247.14 121.374 244.648 121.374 242.142C121.374 239.552 120.044 237.718 117.86 237.718ZM117.79 242.338C116.852 242.31 116.166 241.666 116.166 240.798C116.166 239.902 116.894 239.244 117.888 239.244C118.868 239.258 119.582 239.93 119.582 240.84C119.554 241.708 118.798 242.338 117.79 242.338ZM126.524 241.092C125.6 241.092 124.9 241.498 124.466 242.03C124.48 240.434 125.376 239.23 126.622 239.23C127.252 239.23 127.854 239.538 128.176 240.238L129.534 239.552C128.946 238.222 127.77 237.718 126.622 237.718C123.934 237.718 122.786 240.21 122.786 242.716C122.786 245.516 124.116 247.14 126.3 247.14C128.316 247.14 129.632 245.768 129.632 244.074C129.632 242.478 128.386 241.092 126.524 241.092ZM126.258 245.614C125.278 245.6 124.578 244.928 124.578 244.018C124.606 243.136 125.348 242.506 126.356 242.506C127.294 242.534 127.98 243.192 127.98 244.06C127.98 244.956 127.266 245.614 126.258 245.614ZM137.414 238.88V237.354H131.562V247H133.27V243.024H136.546V241.498H133.27V238.88H137.414ZM138.452 237.83V239.356H142.414L138.634 247H140.524L144.948 237.984V237.83H138.452ZM151.536 241.848C152.516 241.498 152.796 240.588 152.796 239.832C152.796 238.362 151.732 237.354 150.052 237.354H146.3V247H150.346C152.348 247 153.314 245.614 153.314 244.256C153.314 243.192 152.712 242.086 151.536 241.848ZM149.982 238.88C150.724 238.88 151.088 239.398 151.088 240.07C151.088 240.77 150.696 241.246 149.982 241.246H148.008V238.88H149.982ZM150.08 245.474H148.008V242.688H150.122C151.144 242.688 151.592 243.402 151.592 244.088C151.592 244.816 151.074 245.474 150.08 245.474Z" fill="#202538"/>
<circle r="2.71251" transform="matrix(1 0 0 -1 19.712 191.738)" fill="#737A87"/>
<circle r="2.71251" transform="matrix(1 0 0 -1 35.9859 191.738)" fill="#737A87"/>
<circle r="2.71251" transform="matrix(1 0 0 -1 52.2628 191.738)" fill="#737A87"/>
<circle r="2.71251" transform="matrix(1 0 0 -1 68.5367 191.738)" fill="#737A87"/>
<circle r="2.71251" transform="matrix(1 0 0 -1 84.8131 191.738)" fill="#737A87"/>
<circle r="2.71251" transform="matrix(1 0 0 -1 101.088 191.738)" fill="#737A87"/>
<circle r="2.71251" transform="matrix(1 0 0 -1 117.361 191.738)" fill="#737A87"/>
<circle r="2.71251" transform="matrix(1 0 0 -1 133.638 191.738)" fill="#737A87"/>
<circle r="2.71251" transform="matrix(1 0 0 -1 149.912 191.738)" fill="#737A87"/>
<circle r="2.71251" transform="matrix(1 0 0 -1 166.188 191.738)" fill="#737A87"/>
<circle r="2.71251" transform="matrix(1 0 0 -1 182.463 191.738)" fill="#737A87"/>
<circle r="2.71251" transform="matrix(1 0 0 -1 198.738 191.738)" fill="#737A87"/>
<circle r="2.71251" transform="matrix(1 0 0 -1 215.013 191.738)" fill="#737A87"/>
<circle r="2.71251" transform="matrix(1 0 0 -1 231.287 191.738)" fill="#737A87"/>
<circle r="2.71251" transform="matrix(1 0 0 -1 19.712 175.463)" fill="#737A87"/>
<circle r="2.71251" transform="matrix(1 0 0 -1 35.9859 175.463)" fill="#737A87"/>
<circle r="2.71251" transform="matrix(1 0 0 -1 52.2628 175.463)" fill="#737A87"/>
<circle r="2.71251" transform="matrix(1 0 0 -1 68.5367 175.463)" fill="#737A87"/>
<circle r="2.71251" transform="matrix(1 0 0 -1 84.8131 175.463)" fill="#737A87"/>
<circle r="2.71251" transform="matrix(1 0 0 -1 101.088 175.463)" fill="#737A87"/>
<circle r="2.71251" transform="matrix(1 0 0 -1 117.361 175.463)" fill="#737A87"/>
<circle r="2.71251" transform="matrix(1 0 0 -1 133.638 175.463)" fill="#737A87"/>
<circle r="2.71251" transform="matrix(1 0 0 -1 149.912 175.463)" fill="#737A87"/>
<circle r="2.71251" transform="matrix(1 0 0 -1 166.188 175.463)" fill="#737A87"/>
<circle r="2.71251" transform="matrix(1 0 0 -1 182.463 175.463)" fill="#737A87"/>
<circle r="2.71251" transform="matrix(1 0 0 -1 198.738 175.463)" fill="#737A87"/>
<circle r="2.71251" transform="matrix(1 0 0 -1 215.013 175.463)" fill="#737A87"/>
<circle r="2.71251" transform="matrix(1 0 0 -1 231.287 175.463)" fill="#737A87"/>
<circle r="2.71251" transform="matrix(1 0 0 -1 19.712 159.187)" fill="#737A87"/>
<circle r="2.71251" transform="matrix(1 0 0 -1 35.9859 159.187)" fill="#737A87"/>
<circle r="2.71251" transform="matrix(1 0 0 -1 52.2628 159.187)" fill="#737A87"/>
<circle r="2.71251" transform="matrix(1 0 0 -1 68.5367 159.187)" fill="#737A87"/>
<circle r="2.71251" transform="matrix(1 0 0 -1 84.8131 159.187)" fill="#737A87"/>
<circle r="2.71251" transform="matrix(1 0 0 -1 101.088 159.187)" fill="#737A87"/>
<circle r="2.71251" transform="matrix(1 0 0 -1 117.361 159.187)" fill="#737A87"/>
<circle r="2.71251" transform="matrix(1 0 0 -1 133.638 159.187)" fill="#737A87"/>
<circle r="2.71251" transform="matrix(1 0 0 -1 149.912 159.187)" fill="#737A87"/>
<circle r="2.71251" transform="matrix(1 0 0 -1 166.188 159.187)" fill="#737A87"/>
<circle r="2.71251" transform="matrix(1 0 0 -1 182.463 159.187)" fill="#737A87"/>
<circle r="2.71251" transform="matrix(1 0 0 -1 198.738 159.187)" fill="#737A87"/>
<circle r="2.71251" transform="matrix(1 0 0 -1 215.013 159.187)" fill="#737A87"/>
<circle r="2.71251" transform="matrix(1 0 0 -1 231.287 159.187)" fill="#737A87"/>
<circle r="2.71251" transform="matrix(1 0 0 -1 19.712 142.913)" fill="#737A87"/>
<circle r="2.71251" transform="matrix(1 0 0 -1 35.9859 142.913)" fill="#737A87"/>
<circle r="2.71251" transform="matrix(1 0 0 -1 52.2628 142.913)" fill="#737A87"/>
<circle r="2.71251" transform="matrix(1 0 0 -1 68.5367 142.913)" fill="#737A87"/>
<circle r="2.71251" transform="matrix(1 0 0 -1 84.8131 142.913)" fill="#737A87"/>
<circle r="2.71251" transform="matrix(1 0 0 -1 101.088 142.913)" fill="#737A87"/>
<circle r="2.71251" transform="matrix(1 0 0 -1 117.361 142.913)" fill="#737A87"/>
<circle r="2.71251" transform="matrix(1 0 0 -1 133.638 142.913)" fill="#737A87"/>
<circle r="2.71251" transform="matrix(1 0 0 -1 149.912 142.913)" fill="#737A87"/>
<circle r="2.71251" transform="matrix(1 0 0 -1 166.188 142.913)" fill="#737A87"/>
<circle r="2.71251" transform="matrix(1 0 0 -1 182.463 142.913)" fill="#737A87"/>
<circle r="2.71251" transform="matrix(1 0 0 -1 198.738 142.913)" fill="#737A87"/>
<circle r="2.71251" transform="matrix(1 0 0 -1 215.013 142.913)" fill="#737A87"/>
<circle r="2.71251" transform="matrix(1 0 0 -1 231.287 142.913)" fill="#737A87"/>
<circle r="2.71251" transform="matrix(1 0 0 -1 19.712 126.638)" fill="#737A87"/>
<circle r="2.71251" transform="matrix(1 0 0 -1 35.9859 126.638)" fill="#737A87"/>
<circle r="2.71251" transform="matrix(1 0 0 -1 52.2628 126.638)" fill="#737A87"/>
<circle r="2.71251" transform="matrix(1 0 0 -1 68.5367 126.638)" fill="#737A87"/>
<circle r="2.71251" transform="matrix(1 0 0 -1 84.8131 126.638)" fill="#737A87"/>
<circle r="2.71251" transform="matrix(1 0 0 -1 101.088 126.638)" fill="#737A87"/>
<circle r="2.71251" transform="matrix(1 0 0 -1 117.361 126.638)" fill="#737A87"/>
<circle r="2.71251" transform="matrix(1 0 0 -1 133.638 126.638)" fill="#737A87"/>
<circle r="2.71251" transform="matrix(1 0 0 -1 149.912 126.638)" fill="#737A87"/>
<circle r="2.71251" transform="matrix(1 0 0 -1 166.188 126.638)" fill="#737A87"/>
<circle r="2.71251" transform="matrix(1 0 0 -1 182.463 126.638)" fill="#737A87"/>
<circle r="2.71251" transform="matrix(1 0 0 -1 198.738 126.638)" fill="#737A87"/>
<circle r="2.71251" transform="matrix(1 0 0 -1 215.013 126.638)" fill="#737A87"/>
<circle r="2.71251" transform="matrix(1 0 0 -1 231.287 126.638)" fill="#737A87"/>
<circle r="2.71251" transform="matrix(1 0 0 -1 19.712 110.363)" fill="#737A87"/>
<circle r="2.71251" transform="matrix(1 0 0 -1 35.9859 110.363)" fill="#737A87"/>
<circle r="2.71251" transform="matrix(1 0 0 -1 52.2628 110.363)" fill="#737A87"/>
<circle r="2.71251" transform="matrix(1 0 0 -1 68.5367 110.363)" fill="#737A87"/>
<circle r="2.71251" transform="matrix(1 0 0 -1 84.8131 110.363)" fill="#737A87"/>
<circle r="2.71251" transform="matrix(1 0 0 -1 101.088 110.363)" fill="#737A87"/>
<circle r="2.71251" transform="matrix(1 0 0 -1 117.361 110.363)" fill="#737A87"/>
<circle r="2.71251" transform="matrix(1 0 0 -1 133.638 110.363)" fill="#737A87"/>
<circle r="2.71251" transform="matrix(1 0 0 -1 149.912 110.363)" fill="#737A87"/>
<circle r="2.71251" transform="matrix(1 0 0 -1 166.188 110.363)" fill="#737A87"/>
<circle r="2.71251" transform="matrix(1 0 0 -1 182.463 110.363)" fill="#737A87"/>
<circle r="2.71251" transform="matrix(1 0 0 -1 198.738 110.363)" fill="#737A87"/>
<circle r="2.71251" transform="matrix(1 0 0 -1 215.013 110.363)" fill="#737A87"/>
<circle r="2.71251" transform="matrix(1 0 0 -1 231.287 110.363)" fill="#737A87"/>
<circle r="2.71251" transform="matrix(1 0 0 -1 19.712 94.0873)" fill="#737A87"/>
<circle r="2.71251" transform="matrix(1 0 0 -1 35.9859 94.0873)" fill="#737A87"/>
<circle r="2.71251" transform="matrix(1 0 0 -1 52.2628 94.0873)" fill="#737A87"/>
<circle r="2.71251" transform="matrix(1 0 0 -1 68.5367 94.0873)" fill="#737A87"/>
<circle r="2.71251" transform="matrix(1 0 0 -1 84.8131 94.0873)" fill="#737A87"/>
<circle r="2.71251" transform="matrix(1 0 0 -1 101.088 94.0873)" fill="#737A87"/>
<circle r="2.71251" transform="matrix(1 0 0 -1 117.361 94.0873)" fill="#737A87"/>
<circle r="2.71251" transform="matrix(1 0 0 -1 133.638 94.0873)" fill="#737A87"/>
<circle r="2.71251" transform="matrix(1 0 0 -1 149.912 94.0873)" fill="#737A87"/>
<circle r="2.71251" transform="matrix(1 0 0 -1 166.188 94.0873)" fill="#737A87"/>
<circle r="2.71251" transform="matrix(1 0 0 -1 182.463 94.0873)" fill="#737A87"/>
<circle r="2.71251" transform="matrix(1 0 0 -1 198.738 94.0873)" fill="#737A87"/>
<circle r="2.71251" transform="matrix(1 0 0 -1 215.013 94.0873)" fill="#737A87"/>
<circle r="2.71251" transform="matrix(1 0 0 -1 231.287 94.0873)" fill="#737A87"/>
<circle r="2.71251" transform="matrix(1 0 0 -1 19.712 77.8126)" fill="#737A87"/>
<circle r="2.71251" transform="matrix(1 0 0 -1 35.9859 77.8126)" fill="#737A87"/>
<circle r="2.71251" transform="matrix(1 0 0 -1 52.2628 77.8126)" fill="#737A87"/>
<circle r="2.71251" transform="matrix(1 0 0 -1 68.5367 77.8126)" fill="#737A87"/>
<circle r="2.71251" transform="matrix(1 0 0 -1 84.8131 77.8126)" fill="#737A87"/>
<circle r="2.71251" transform="matrix(1 0 0 -1 101.088 77.8126)" fill="#737A87"/>
<circle r="2.71251" transform="matrix(1 0 0 -1 117.361 77.8126)" fill="#737A87"/>
<circle r="2.71251" transform="matrix(1 0 0 -1 133.638 77.8126)" fill="#737A87"/>
<circle r="2.71251" transform="matrix(1 0 0 -1 149.912 77.8126)" fill="#737A87"/>
<circle r="2.71251" transform="matrix(1 0 0 -1 166.188 77.8126)" fill="#737A87"/>
<circle r="2.71251" transform="matrix(1 0 0 -1 182.463 77.8126)" fill="#737A87"/>
<circle r="2.71251" transform="matrix(1 0 0 -1 198.738 77.8126)" fill="#737A87"/>
<circle r="2.71251" transform="matrix(1 0 0 -1 215.013 77.8126)" fill="#737A87"/>
<circle r="2.71251" transform="matrix(1 0 0 -1 231.287 77.8126)" fill="#737A87"/>
<circle r="2.71251" transform="matrix(1 0 0 -1 19.712 61.5372)" fill="#737A87"/>
<circle r="2.71251" transform="matrix(1 0 0 -1 35.9859 61.5372)" fill="#737A87"/>
<circle r="2.71251" transform="matrix(1 0 0 -1 52.2628 61.5372)" fill="#737A87"/>
<circle r="2.71251" transform="matrix(1 0 0 -1 68.5367 61.5372)" fill="#737A87"/>
<circle r="2.71251" transform="matrix(1 0 0 -1 84.8131 61.5372)" fill="#737A87"/>
<circle r="2.71251" transform="matrix(1 0 0 -1 101.088 61.5372)" fill="#737A87"/>
<circle r="2.71251" transform="matrix(1 0 0 -1 117.361 61.5372)" fill="#737A87"/>
<circle r="2.71251" transform="matrix(1 0 0 -1 133.638 61.5372)" fill="#737A87"/>
<circle r="2.71251" transform="matrix(1 0 0 -1 149.912 61.5372)" fill="#737A87"/>
<circle r="2.71251" transform="matrix(1 0 0 -1 166.188 61.5372)" fill="#737A87"/>
<circle r="2.71251" transform="matrix(1 0 0 -1 182.463 61.5372)" fill="#737A87"/>
<circle r="2.71251" transform="matrix(1 0 0 -1 198.738 61.5372)" fill="#737A87"/>
<circle r="2.71251" transform="matrix(1 0 0 -1 215.013 61.5372)" fill="#737A87"/>
<circle r="2.71251" transform="matrix(1 0 0 -1 231.287 61.5372)" fill="#737A87"/>
<circle r="2.71251" transform="matrix(1 0 0 -1 19.712 45.2626)" fill="#737A87"/>
<circle r="2.71251" transform="matrix(1 0 0 -1 35.9859 45.2626)" fill="#737A87"/>
<circle r="2.71251" transform="matrix(1 0 0 -1 52.2628 45.2626)" fill="#737A87"/>
<circle r="2.71251" transform="matrix(1 0 0 -1 68.5367 45.2626)" fill="#737A87"/>
<circle r="2.71251" transform="matrix(1 0 0 -1 84.8131 45.2626)" fill="#737A87"/>
<circle r="2.71251" transform="matrix(1 0 0 -1 101.088 45.2626)" fill="#737A87"/>
<circle r="2.71251" transform="matrix(1 0 0 -1 117.361 45.2626)" fill="#737A87"/>
<circle r="2.71251" transform="matrix(1 0 0 -1 133.638 45.2626)" fill="#737A87"/>
<circle r="2.71251" transform="matrix(1 0 0 -1 149.912 45.2626)" fill="#737A87"/>
<circle r="2.71251" transform="matrix(1 0 0 -1 166.188 45.2626)" fill="#737A87"/>
<circle r="2.71251" transform="matrix(1 0 0 -1 182.463 45.2626)" fill="#737A87"/>
<circle r="2.71251" transform="matrix(1 0 0 -1 198.738 45.2626)" fill="#737A87"/>
<circle r="2.71251" transform="matrix(1 0 0 -1 215.013 45.2626)" fill="#737A87"/>
<circle r="2.71251" transform="matrix(1 0 0 -1 231.287 45.2626)" fill="#737A87"/>
<circle r="2.71251" transform="matrix(1 0 0 -1 19.712 28.9872)" fill="#737A87"/>
<circle r="2.71251" transform="matrix(1 0 0 -1 35.9859 28.9872)" fill="#737A87"/>
<circle r="2.71251" transform="matrix(1 0 0 -1 52.2628 28.9872)" fill="#737A87"/>
<circle r="2.71251" transform="matrix(1 0 0 -1 68.5367 28.9872)" fill="#737A87"/>
<circle r="2.71251" transform="matrix(1 0 0 -1 84.8131 28.9872)" fill="#737A87"/>
<circle r="2.71251" transform="matrix(1 0 0 -1 101.088 28.9872)" fill="#737A87"/>
<circle r="2.71251" transform="matrix(1 0 0 -1 117.361 28.9872)" fill="#737A87"/>
<circle r="2.71251" transform="matrix(1 0 0 -1 133.638 28.9872)" fill="#737A87"/>
<circle r="2.71251" transform="matrix(1 0 0 -1 149.912 28.9872)" fill="#737A87"/>
<circle r="2.71251" transform="matrix(1 0 0 -1 166.188 28.9872)" fill="#737A87"/>
<circle r="2.71251" transform="matrix(1 0 0 -1 182.463 28.9872)" fill="#737A87"/>
<circle r="2.71251" transform="matrix(1 0 0 -1 198.738 28.9872)" fill="#737A87"/>
<circle r="2.71251" transform="matrix(1 0 0 -1 215.013 28.9872)" fill="#737A87"/>
<circle r="2.71251" transform="matrix(1 0 0 -1 231.287 28.9872)" fill="#737A87"/>
<circle r="2.71251" transform="matrix(1 0 0 -1 19.712 12.7125)" fill="#737A87"/>
<circle r="2.71251" transform="matrix(1 0 0 -1 35.9859 12.7125)" fill="#737A87"/>
<circle r="2.71251" transform="matrix(1 0 0 -1 52.2628 12.7125)" fill="#737A87"/>
<circle r="2.71251" transform="matrix(1 0 0 -1 68.5367 12.7125)" fill="#737A87"/>
<circle r="2.71251" transform="matrix(1 0 0 -1 84.8131 12.7125)" fill="#737A87"/>
<circle r="2.71251" transform="matrix(1 0 0 -1 101.088 12.7125)" fill="#737A87"/>
<circle r="2.71251" transform="matrix(1 0 0 -1 117.361 12.7125)" fill="#737A87"/>
<circle r="2.71251" transform="matrix(1 0 0 -1 133.638 12.7125)" fill="#737A87"/>
<circle r="2.71251" transform="matrix(1 0 0 -1 149.912 12.7125)" fill="#737A87"/>
<circle r="2.71251" transform="matrix(1 0 0 -1 166.188 12.7125)" fill="#737A87"/>
<circle r="2.71251" transform="matrix(1 0 0 -1 182.463 12.7125)" fill="#737A87"/>
<circle r="2.71251" transform="matrix(1 0 0 -1 198.738 12.7125)" fill="#737A87"/>
<circle r="2.71251" transform="matrix(1 0 0 -1 215.013 12.7125)" fill="#737A87"/>
<circle r="2.71251" transform="matrix(1 0 0 -1 231.287 12.7125)" fill="#737A87"/>
</svg>
