<svg width="13" height="359" viewBox="0 0 13 359" fill="none" xmlns="http://www.w3.org/2000/svg">
<path d="M3.12755 354.336C3.12755 353.52 3.91155 353.008 4.67955 353.008C5.46355 353.008 6.23155 353.552 6.23155 354.4L6.23155 356.464L3.12755 356.464L3.12755 354.336ZM12.0875 356.464L8.27955 356.464L8.27955 354.288C8.27955 353.104 7.92755 352.208 7.22355 351.584C6.51955 350.96 5.67155 350.656 4.67955 350.656C3.68755 350.656 2.83955 350.96 2.13555 351.584C1.41555 352.208 1.06355 353.104 1.06355 354.288L1.06355 358.816L12.0875 358.816L12.0875 356.464Z" fill="#AAAAAA"/>
<path d="M5.55955 339.532L5.55955 343.452L1.06355 343.452L1.06355 345.788L12.0875 345.788L12.0875 343.452L7.65555 343.452L7.65555 339.532L12.0875 339.532L12.0875 337.164L1.06355 337.164L1.06355 339.532L5.55955 339.532Z" fill="#AAAAAA"/>
<path d="M3.60755 327.401L7.44755 326.233L7.44755 328.521L3.60755 327.401ZM12.0875 324.505L12.0875 322.041L1.06355 326.121L1.06355 328.665L12.0875 332.761L12.0875 330.265L9.47955 329.289L9.47955 325.481L12.0875 324.505Z" fill="#AAAAAA"/>
<path d="M8.85555 318.214C9.86355 318.214 10.6795 317.846 11.3195 317.11C11.9435 316.374 12.2635 315.414 12.2635 314.214C12.2635 312.854 11.8475 311.638 10.8395 310.854C10.3275 310.454 9.71955 310.262 9.03155 310.246C7.41555 310.198 6.29554 311.206 5.70354 313.27L5.28755 314.582C5.06355 315.366 4.69555 315.766 4.16754 315.766C3.52755 315.766 3.06355 315.174 3.06355 314.342C3.06355 313.43 3.55954 312.918 4.31154 312.918L4.31154 310.582C3.27155 310.582 2.45554 310.934 1.84754 311.638C1.23954 312.326 0.935545 313.222 0.935545 314.31C0.935545 315.382 1.23954 316.294 1.86354 317.014C2.47155 317.734 3.25554 318.102 4.23155 318.102C5.75155 318.102 6.80755 317.158 7.39955 315.254L7.76755 313.926C8.07155 312.886 8.45554 312.582 9.01554 312.598C9.71954 312.614 10.1835 313.254 10.1835 314.214C10.1835 315.222 9.60755 315.814 8.85555 315.862L8.85555 318.214Z" fill="#AAAAAA"/>
<path d="M12.0875 297.989L10.0235 297.989L10.0235 302.773L7.67154 302.773L7.67154 298.709L5.63954 298.709L5.63954 302.773L3.12754 302.773L3.12754 298.133L1.06354 298.133L1.06354 305.109L12.0875 305.109L12.0875 297.989Z" fill="#AAAAAA"/>
<path d="M3.12754 281.184C3.12754 280.368 3.91154 279.856 4.67954 279.856C5.46354 279.856 6.23154 280.4 6.23154 281.248L6.23154 283.232L3.12754 283.232L3.12754 281.184ZM8.18354 280.16C7.79954 278.368 6.35954 277.408 4.67954 277.408C3.68754 277.408 2.83954 277.728 2.13554 278.368C1.41554 278.992 1.06354 279.904 1.06354 281.072L1.06354 285.584L12.0875 285.584L12.0875 283.232L8.27954 283.232L8.27954 282.704L12.0875 280.24L12.0875 277.424L8.18354 280.16Z" fill="#AAAAAA"/>
<path d="M6.59954 263.989C7.51154 263.989 8.29554 264.309 8.95154 264.949C9.60754 265.573 9.92754 266.341 9.92754 267.253C9.92754 268.165 9.60754 268.933 8.96754 269.557C8.31154 270.181 7.52754 270.501 6.59954 270.501C5.67154 270.501 4.88754 270.181 4.23154 269.557C3.57554 268.933 3.25554 268.165 3.25554 267.253C3.25554 266.341 3.57554 265.573 4.23154 264.949C4.88754 264.309 5.67154 263.989 6.59954 263.989ZM6.59954 272.837C8.15154 272.837 9.49554 272.293 10.5995 271.221C11.7035 270.133 12.2475 268.805 12.2475 267.253C12.2475 265.701 11.7035 264.373 10.5995 263.285C9.49554 262.197 8.15154 261.653 6.59954 261.653C5.03154 261.653 3.70354 262.197 2.59954 263.285C1.49554 264.357 0.935543 265.685 0.935543 267.253C0.935543 268.805 1.49554 270.133 2.59954 271.221C3.70354 272.293 5.03154 272.837 6.59954 272.837Z" fill="#AAAAAA"/>
<path d="M4.13554 248.817C2.26354 248.817 1.06354 250.097 1.06354 252.081L1.06354 256.497L12.0875 256.497L12.0875 251.761C12.0875 250.689 11.7675 249.841 11.1115 249.201C10.4555 248.561 9.65554 248.241 8.71154 248.241C8.19954 248.241 7.70354 248.417 7.20754 248.785C6.71154 249.137 6.37554 249.649 6.19954 250.321C5.79954 249.281 4.96754 248.817 4.13554 248.817ZM3.12754 254.145L3.12754 252.321C3.12754 251.633 3.57554 251.281 4.27954 251.281C4.93554 251.281 5.41554 251.713 5.41554 252.305L5.41554 254.145L3.12754 254.145ZM7.35154 251.937C7.35154 251.169 7.97554 250.705 8.66354 250.705C9.38354 250.705 10.0235 251.137 10.0235 251.889L10.0235 254.145L7.35154 254.145L7.35154 251.937Z" fill="#AAAAAA"/>
<path d="M6.59954 234.901C7.51154 234.901 8.29554 235.221 8.95154 235.861C9.60754 236.485 9.92754 237.253 9.92754 238.165C9.92754 239.077 9.60754 239.845 8.96754 240.469C8.31154 241.093 7.52754 241.413 6.59954 241.413C5.67154 241.413 4.88754 241.093 4.23154 240.469C3.57554 239.845 3.25554 239.077 3.25554 238.165C3.25554 237.253 3.57554 236.485 4.23154 235.861C4.88754 235.221 5.67154 234.901 6.59954 234.901ZM6.59954 243.749C8.15154 243.749 9.49554 243.205 10.5995 242.133C11.7035 241.045 12.2475 239.717 12.2475 238.165C12.2475 236.613 11.7035 235.285 10.5995 234.197C9.49554 233.109 8.15154 232.565 6.59954 232.565C5.03154 232.565 3.70354 233.109 2.59954 234.197C1.49554 235.269 0.935542 236.597 0.935542 238.165C0.935542 239.717 1.49554 241.045 2.59954 242.133C3.70354 243.205 5.03154 243.749 6.59954 243.749Z" fill="#AAAAAA"/>
<path d="M3.17554 225.531L12.0875 225.531L12.0875 223.163L3.17554 223.163L3.17554 220.187L1.06354 220.187L1.06354 228.507L3.17554 228.507L3.17554 225.531Z" fill="#AAAAAA"/>
<path d="M12.0875 215.241L12.0875 212.905L1.06354 212.905L1.06354 215.241L12.0875 215.241Z" fill="#AAAAAA"/>
<path d="M8.51954 199.471C9.43154 200.095 10.0395 201.087 10.0395 202.223C10.0395 203.135 9.70354 203.887 9.04754 204.495C8.37554 205.103 7.55954 205.407 6.59954 205.407C5.62354 205.407 4.80754 205.103 4.15154 204.495C3.47954 203.887 3.14354 203.135 3.14354 202.223C3.14354 201.087 3.62354 200.191 4.58354 199.535L3.27154 197.631C1.84754 198.607 0.93554 200.303 0.93554 202.223C0.93554 203.791 1.47954 205.103 2.58354 206.175C3.68754 207.231 5.01554 207.759 6.59954 207.759C8.16754 207.759 9.49554 207.231 10.5995 206.175C11.7035 205.103 12.2475 203.791 12.2475 202.223C12.2475 200.255 11.3195 198.559 9.83154 197.583L8.51954 199.471Z" fill="#AAAAAA"/>
<path d="M8.85554 193.323C9.86354 193.323 10.6795 192.955 11.3195 192.219C11.9435 191.483 12.2635 190.523 12.2635 189.323C12.2635 187.963 11.8475 186.747 10.8395 185.963C10.3275 185.563 9.71954 185.371 9.03154 185.355C7.41554 185.307 6.29554 186.315 5.70354 188.379L5.28754 189.691C5.06354 190.475 4.69554 190.875 4.16754 190.875C3.52754 190.875 3.06354 190.283 3.06354 189.451C3.06354 188.539 3.55954 188.027 4.31154 188.027L4.31154 185.691C3.27154 185.691 2.45554 186.043 1.84754 186.747C1.23954 187.435 0.935539 188.331 0.935539 189.419C0.93554 190.491 1.23954 191.403 1.86354 192.123C2.47154 192.843 3.25554 193.211 4.23154 193.211C5.75154 193.211 6.80754 192.267 7.39954 190.363L7.76754 189.035C8.07154 187.995 8.45554 187.691 9.01554 187.707C9.71954 187.723 10.1835 188.363 10.1835 189.323C10.1835 190.331 9.60754 190.923 8.85554 190.971L8.85554 193.323Z" fill="#AAAAAA"/>
<path d="M9.03154 167.785L7.27154 167.785L7.27154 173.433L9.03154 173.433L9.03154 167.785Z" fill="#AAAAAA"/>
<path d="M8.15154 149.133C8.69554 149.133 9.14354 149.325 9.51154 149.709C9.86354 150.077 10.0395 150.525 10.0395 151.037C10.0395 151.549 9.86354 151.997 9.51154 152.381C9.15954 152.749 8.71154 152.941 8.15154 152.941L1.06354 152.941L1.06354 155.325L8.15154 155.325C9.36754 155.325 10.3595 154.909 11.1115 154.061C11.8635 153.213 12.2475 152.205 12.2475 151.037C12.2475 149.869 11.8635 148.861 11.1115 148.029C10.3595 147.197 9.36754 146.781 8.15154 146.781L1.06354 146.781L1.06354 149.133L8.15154 149.133Z" fill="#AAAAAA"/>
<path d="M8.85554 141.698C9.86354 141.698 10.6795 141.33 11.3195 140.594C11.9435 139.858 12.2635 138.898 12.2635 137.698C12.2635 136.338 11.8475 135.122 10.8395 134.338C10.3275 133.938 9.71954 133.746 9.03154 133.73C7.41554 133.682 6.29554 134.69 5.70354 136.754L5.28754 138.066C5.06354 138.85 4.69554 139.25 4.16754 139.25C3.52754 139.25 3.06354 138.658 3.06354 137.826C3.06354 136.914 3.55954 136.402 4.31154 136.402L4.31154 134.066C3.27154 134.066 2.45554 134.418 1.84754 135.122C1.23954 135.81 0.935537 136.706 0.935537 137.794C0.935537 138.866 1.23954 139.778 1.86354 140.498C2.47154 141.218 3.25554 141.586 4.23154 141.586C5.75154 141.586 6.80754 140.642 7.39954 138.738L7.76754 137.41C8.07154 136.37 8.45554 136.066 9.01554 136.082C9.71954 136.098 10.1835 136.738 10.1835 137.698C10.1835 138.706 9.60754 139.298 8.85554 139.346L8.85554 141.698Z" fill="#AAAAAA"/>
<path d="M12.0875 121.474L10.0235 121.474L10.0235 126.258L7.67154 126.258L7.67154 122.194L5.63954 122.194L5.63954 126.258L3.12754 126.258L3.12754 121.618L1.06354 121.618L1.06354 128.594L12.0875 128.594L12.0875 121.474Z" fill="#AAAAAA"/>
<path d="M3.12754 111.775C3.12754 110.959 3.91154 110.447 4.67954 110.447C5.46354 110.447 6.23154 110.991 6.23154 111.839L6.23154 113.823L3.12754 113.823L3.12754 111.775ZM8.18354 110.751C7.79954 108.959 6.35954 107.999 4.67954 107.999C3.68754 107.999 2.83954 108.319 2.13554 108.959C1.41554 109.583 1.06354 110.495 1.06354 111.663L1.06354 116.175L12.0875 116.175L12.0875 113.823L8.27954 113.823L8.27954 113.295L12.0875 110.831L12.0875 108.015L8.18354 110.751Z" fill="#AAAAAA"/>
<path d="M12.0875 95.6813L12.0875 93.3453L1.06354 93.3453L1.06354 95.6813L12.0875 95.6813Z" fill="#AAAAAA"/>
<path d="M1.06354 81.6394L7.65554 81.6394L1.06354 85.4154L1.06354 87.5594L12.0875 87.5594L12.0875 85.2234L5.41553 85.2234L12.0875 81.3834L12.0875 79.2874L1.06353 79.2874L1.06354 81.6394Z" fill="#AAAAAA"/>
<path d="M3.17553 71.372L12.0875 71.372L12.0875 69.0041L3.17553 69.0041L3.17553 66.028L1.06353 66.028L1.06353 74.3481L3.17553 74.3481L3.17553 71.372Z" fill="#AAAAAA"/>
<path d="M12.0875 53.9613L10.0235 53.9613L10.0235 58.7453L7.67153 58.7453L7.67153 54.6813L5.63953 54.6813L5.63953 58.7453L3.12753 58.7453L3.12753 54.1053L1.06353 54.1053L1.06353 61.0813L12.0875 61.0813L12.0875 53.9613Z" fill="#AAAAAA"/>
<path d="M3.12753 44.2625C3.12753 43.4465 3.91153 42.9345 4.67953 42.9345C5.46353 42.9345 6.23153 43.4785 6.23153 44.3265L6.23153 46.3105L3.12753 46.3105L3.12753 44.2625ZM8.18353 43.2385C7.79953 41.4465 6.35953 40.4865 4.67953 40.4865C3.68753 40.4865 2.83953 40.8065 2.13553 41.4465C1.41553 42.0705 1.06353 42.9825 1.06353 44.1505L1.06353 48.6625L12.0875 48.6625L12.0875 46.3105L8.27953 46.3105L8.27953 45.7825L12.0875 43.3185L12.0875 40.5025L8.18353 43.2385Z" fill="#AAAAAA"/>
<path d="M3.60753 31.307L7.44753 30.139L7.44753 32.427L3.60753 31.307ZM12.0875 28.411L12.0875 25.9471L1.06353 30.027L1.06353 32.571L12.0875 36.6671L12.0875 34.1711L9.47953 33.195L9.47953 29.3871L12.0875 28.411Z" fill="#AAAAAA"/>
<path d="M8.51953 14.0677C9.43153 14.6917 10.0395 15.6837 10.0395 16.8197C10.0395 17.7317 9.70353 18.4836 9.04753 19.0916C8.37553 19.6996 7.55953 20.0037 6.59953 20.0037C5.62353 20.0037 4.80753 19.6996 4.15153 19.0916C3.47953 18.4836 3.14353 17.7317 3.14353 16.8197C3.14353 15.6837 3.62353 14.7877 4.58353 14.1317L3.27153 12.2277C1.84753 13.2037 0.935532 14.8997 0.935532 16.8197C0.935532 18.3877 1.47953 19.6997 2.58353 20.7717C3.68753 21.8277 5.01553 22.3557 6.59953 22.3557C8.16753 22.3557 9.49553 21.8277 10.5995 20.7717C11.7035 19.6997 12.2475 18.3877 12.2475 16.8197C12.2475 14.8517 11.3195 13.1557 9.83153 12.1797L8.51953 14.0677Z" fill="#AAAAAA"/>
<path d="M12.0875 0.20816L10.0235 0.20816L10.0235 4.99219L7.67153 4.99219L7.67153 0.928161L5.63953 0.928161L5.63953 4.99219L3.12753 4.99219L3.12753 0.352173L1.06353 0.352173L1.06353 7.32819L12.0875 7.32819L12.0875 0.20816Z" fill="#AAAAAA"/>
</svg>
