<svg width="252" height="260" viewBox="0 0 252 260" fill="none" xmlns="http://www.w3.org/2000/svg">
<rect width="250" height="259" rx="15" fill="#F37B33"/>
<path d="M0 202H251.077V244.344C251.077 252.629 244.361 259.344 236.077 259.344H15C6.71571 259.344 0 252.629 0 244.344V202Z" fill="white"/>
<path d="M65.776 215.04C66.592 215.04 67.104 215.824 67.104 216.592C67.104 217.376 66.56 218.144 65.712 218.144H63.648V215.04H65.776ZM63.648 224V220.192H65.824C67.008 220.192 67.904 219.84 68.528 219.136C69.152 218.432 69.456 217.584 69.456 216.592C69.456 215.6 69.152 214.752 68.528 214.048C67.904 213.328 67.008 212.976 65.824 212.976H61.296V224H63.648ZM72.9824 221.392C72.9824 219.408 73.6064 218.416 74.8384 218.416C75.2864 218.416 75.6704 218.496 75.9744 218.64L76.3744 216.64C76.0064 216.464 75.5904 216.368 75.0944 216.368C74.2464 216.368 73.3504 217.04 72.9824 218.336V216.528H70.7584V224H72.9824V221.392ZM77.524 216.528V224H79.732V216.528H77.524ZM78.628 212.464C77.86 212.464 77.236 213.04 77.236 213.76C77.236 214.48 77.86 215.072 78.628 215.072C79.38 215.072 79.988 214.48 79.988 213.76C79.988 213.04 79.38 212.464 78.628 212.464ZM83.998 220.048C83.998 219.04 84.462 218.528 85.374 218.528C86.158 218.528 86.67 219.056 86.67 220.016V224H88.894V219.536C88.894 217.44 87.886 216.368 86.158 216.368C85.278 216.368 84.398 216.864 83.998 217.616V216.528H81.774V224H83.998V220.048ZM94.4838 216.368C93.3798 216.368 92.4198 216.736 91.6198 217.456C90.8198 218.176 90.4198 219.104 90.4198 220.24C90.4198 221.376 90.8198 222.32 91.6198 223.056C92.4198 223.792 93.3798 224.16 94.4838 224.16C95.8278 224.16 97.0278 223.568 97.7318 222.56L95.9238 221.28C95.6038 221.776 95.1238 222.032 94.4838 222.032C93.9878 222.032 93.5558 221.872 93.1878 221.536C92.8198 221.2 92.6278 220.768 92.6278 220.24C92.6278 219.728 92.8198 219.312 93.1878 218.992C93.5558 218.656 93.9878 218.496 94.4838 218.496C95.1238 218.496 95.6038 218.752 95.9238 219.248L97.7318 217.952C97.0118 216.944 95.8118 216.368 94.4838 216.368ZM104.428 221.536C104.06 222 103.516 222.24 102.796 222.24C101.916 222.24 101.068 221.808 100.956 220.992H106.428C106.444 220.736 106.46 220.512 106.46 220.304C106.46 219.136 106.092 218.192 105.356 217.472C104.636 216.736 103.724 216.368 102.636 216.368C101.532 216.368 100.604 216.72 99.8523 217.44C99.1003 218.16 98.7323 219.088 98.7323 220.24C98.7323 221.392 99.1003 222.336 99.8523 223.072C100.604 223.792 101.532 224.16 102.636 224.16C104.22 224.16 105.356 223.648 106.044 222.64L104.428 221.536ZM100.988 219.6C101.34 217.888 103.996 217.904 104.22 219.6H100.988ZM110.827 213.664H108.619V216.528H107.259V218.288H108.619V224H110.827V218.288H112.395V216.528H110.827V213.664ZM117.073 221.952C116.129 221.952 115.393 221.264 115.393 220.24C115.393 219.264 116.129 218.544 117.073 218.544C118.017 218.544 118.769 219.264 118.769 220.24C118.769 221.264 118.033 221.952 117.073 221.952ZM119.825 223.056C120.577 222.336 120.961 221.392 120.961 220.24C120.961 219.088 120.577 218.16 119.825 217.44C119.073 216.72 118.161 216.368 117.073 216.368C115.985 216.368 115.073 216.72 114.321 217.44C113.569 218.16 113.201 219.088 113.201 220.24C113.201 221.392 113.569 222.336 114.321 223.056C115.073 223.776 115.985 224.128 117.073 224.128C118.161 224.128 119.073 223.776 119.825 223.056ZM124.779 220.048C124.779 219.04 125.243 218.528 126.155 218.528C126.939 218.528 127.451 219.056 127.451 220.016V224H129.675V219.536C129.675 217.44 128.667 216.368 126.939 216.368C126.059 216.368 125.179 216.864 124.779 217.616V216.528H122.555V224H124.779V220.048ZM144.035 218.512C144.035 219.424 143.715 220.208 143.075 220.864C142.451 221.52 141.683 221.84 140.771 221.84C139.859 221.84 139.091 221.52 138.467 220.88C137.843 220.224 137.523 219.44 137.523 218.512C137.523 217.584 137.843 216.8 138.467 216.144C139.091 215.488 139.859 215.168 140.771 215.168C141.683 215.168 142.451 215.488 143.075 216.144C143.715 216.8 144.035 217.584 144.035 218.512ZM135.187 218.512C135.187 220.064 135.731 221.408 136.803 222.512C137.891 223.616 139.219 224.16 140.771 224.16C142.323 224.16 143.651 223.616 144.739 222.512C145.827 221.408 146.371 220.064 146.371 218.512C146.371 216.944 145.827 215.616 144.739 214.512C143.667 213.408 142.339 212.848 140.771 212.848C139.219 212.848 137.891 213.408 136.803 214.512C135.731 215.616 135.187 216.944 135.187 218.512ZM150.186 221.392C150.186 219.408 150.81 218.416 152.042 218.416C152.49 218.416 152.874 218.496 153.178 218.64L153.578 216.64C153.21 216.464 152.794 216.368 152.298 216.368C151.45 216.368 150.554 217.04 150.186 218.336V216.528H147.962V224H150.186V221.392ZM162.346 224V216.528H160.138V217.36C159.626 216.64 158.666 216.368 157.962 216.368C156.954 216.368 156.074 216.736 155.306 217.456C154.538 218.176 154.154 219.104 154.154 220.256C154.154 221.408 154.538 222.352 155.306 223.072C156.074 223.792 156.954 224.144 157.962 224.144C158.314 224.144 158.714 224.064 159.146 223.888C159.594 223.712 159.93 223.472 160.138 223.152V224H162.346ZM158.33 222.032C157.834 222.032 157.402 221.872 157.018 221.536C156.65 221.2 156.458 220.768 156.458 220.256C156.458 219.744 156.65 219.328 157.018 218.992C157.402 218.656 157.834 218.48 158.33 218.48C159.29 218.48 160.138 219.184 160.138 220.256C160.138 221.328 159.29 222.032 158.33 222.032ZM166.623 220.048C166.623 219.04 167.087 218.528 167.999 218.528C168.783 218.528 169.295 219.056 169.295 220.016V224H171.519V219.536C171.519 217.44 170.511 216.368 168.783 216.368C167.903 216.368 167.023 216.864 166.623 217.616V216.528H164.399V224H166.623V220.048ZM178.965 220.24C178.965 220.768 178.789 221.2 178.421 221.552C178.053 221.888 177.637 222.064 177.157 222.064C176.181 222.064 175.365 221.328 175.365 220.24C175.365 219.216 176.181 218.48 177.157 218.48C178.133 218.48 178.965 219.168 178.965 220.24ZM173.269 225.408C173.909 226.816 175.301 227.728 176.949 227.728C179.653 227.728 181.173 226.112 181.173 222.96V216.528H179.013V217.456C178.645 216.8 177.733 216.368 176.773 216.368C175.765 216.368 174.901 216.736 174.149 217.472C173.413 218.192 173.045 219.136 173.045 220.288C173.045 221.424 173.413 222.352 174.149 223.072C174.901 223.792 175.765 224.16 176.773 224.16C177.733 224.16 178.677 223.728 179.013 223.072C179.125 224.848 178.437 225.728 176.949 225.728C176.181 225.728 175.317 225.216 175.061 224.528L173.269 225.408ZM188.475 221.536C188.107 222 187.563 222.24 186.843 222.24C185.963 222.24 185.115 221.808 185.003 220.992H190.475C190.491 220.736 190.507 220.512 190.507 220.304C190.507 219.136 190.139 218.192 189.403 217.472C188.683 216.736 187.771 216.368 186.683 216.368C185.579 216.368 184.651 216.72 183.899 217.44C183.147 218.16 182.779 219.088 182.779 220.24C182.779 221.392 183.147 222.336 183.899 223.072C184.651 223.792 185.579 224.16 186.683 224.16C188.267 224.16 189.403 223.648 190.091 222.64L188.475 221.536ZM185.035 219.6C185.387 217.888 188.043 217.904 188.267 219.6H185.035Z" fill="#202538"/>
<path opacity="0.6" d="M99.26 247.344H100.548L101.262 245.02H102.872L102.172 247.344H103.474L104.188 245.02H105.728L106.078 243.774H104.538L105.238 241.38H106.792L107.128 240.134H105.588L106.302 237.698H104.986L104.272 240.134H102.676L103.376 237.698H102.046L101.346 240.134H99.82L99.484 241.38H100.982L100.296 243.774H98.77L98.434 245.02H99.96L99.26 247.344ZM101.612 243.774L102.312 241.38H103.922L103.208 243.774H101.612ZM114.641 239.224V237.698H108.789V247.344H110.497V243.368H113.773V241.842H110.497V239.224H114.641ZM120.062 242.416C120.804 242.066 121.252 241.366 121.252 240.554C121.266 239.028 120.09 238.062 118.48 238.062C117.346 238.062 116.394 238.58 115.806 239.364L116.772 240.358C117.122 239.868 117.738 239.56 118.34 239.56C119.082 239.56 119.586 239.98 119.614 240.61C119.642 241.324 119.04 241.87 118.06 241.87H117.416V243.144H118.312C119.32 243.144 120.034 243.746 120.034 244.614C120.034 245.426 119.32 245.986 118.312 245.986C117.598 245.986 116.996 245.58 116.562 244.894L115.386 245.748C116.002 246.854 117.066 247.47 118.382 247.47C120.314 247.47 121.672 246.35 121.672 244.67C121.672 243.592 121.028 242.752 120.062 242.416ZM122.952 238.174V239.7H126.914L123.134 247.344H125.024L129.448 238.328V238.174H122.952ZM136.036 242.192C137.016 241.842 137.296 240.932 137.296 240.176C137.296 238.706 136.232 237.698 134.552 237.698H130.8V247.344H134.846C136.848 247.344 137.814 245.958 137.814 244.6C137.814 243.536 137.212 242.43 136.036 242.192ZM134.482 239.224C135.224 239.224 135.588 239.742 135.588 240.414C135.588 241.114 135.196 241.59 134.482 241.59H132.508V239.224H134.482ZM134.58 245.818H132.508V243.032H134.622C135.644 243.032 136.092 243.746 136.092 244.432C136.092 245.16 135.574 245.818 134.58 245.818ZM143.523 242.416C144.265 242.066 144.713 241.366 144.713 240.554C144.727 239.028 143.551 238.062 141.941 238.062C140.807 238.062 139.855 238.58 139.267 239.364L140.233 240.358C140.583 239.868 141.199 239.56 141.801 239.56C142.543 239.56 143.047 239.98 143.075 240.61C143.103 241.324 142.501 241.87 141.521 241.87H140.877V243.144H141.773C142.781 243.144 143.495 243.746 143.495 244.614C143.495 245.426 142.781 245.986 141.773 245.986C141.059 245.986 140.457 245.58 140.023 244.894L138.847 245.748C139.463 246.854 140.527 247.47 141.843 247.47C143.775 247.47 145.133 246.35 145.133 244.67C145.133 243.592 144.489 242.752 143.523 242.416ZM150.879 242.416C151.621 242.066 152.069 241.366 152.069 240.554C152.083 239.028 150.907 238.062 149.297 238.062C148.163 238.062 147.211 238.58 146.623 239.364L147.589 240.358C147.939 239.868 148.555 239.56 149.157 239.56C149.899 239.56 150.403 239.98 150.431 240.61C150.459 241.324 149.857 241.87 148.877 241.87H148.233V243.144H149.129C150.137 243.144 150.851 243.746 150.851 244.614C150.851 245.426 150.137 245.986 149.129 245.986C148.415 245.986 147.813 245.58 147.379 244.894L146.203 245.748C146.819 246.854 147.883 247.47 149.199 247.47C151.131 247.47 152.489 246.35 152.489 244.67C152.489 243.592 151.845 242.752 150.879 242.416Z" fill="#202538"/>
<circle r="2.71251" transform="matrix(1 0 0 -1 19.712 191.738)" fill="#FE8842"/>
<circle r="2.71251" transform="matrix(1 0 0 -1 35.9859 191.738)" fill="#FE8842"/>
<circle r="2.71251" transform="matrix(1 0 0 -1 52.2628 191.738)" fill="#FE8842"/>
<circle r="2.71251" transform="matrix(1 0 0 -1 68.5367 191.738)" fill="#FE8842"/>
<circle r="2.71251" transform="matrix(1 0 0 -1 84.8131 191.738)" fill="#FE8842"/>
<circle r="2.71251" transform="matrix(1 0 0 -1 101.088 191.738)" fill="#FE8842"/>
<circle r="2.71251" transform="matrix(1 0 0 -1 117.361 191.738)" fill="#FE8842"/>
<circle r="2.71251" transform="matrix(1 0 0 -1 133.638 191.738)" fill="#FE8842"/>
<circle r="2.71251" transform="matrix(1 0 0 -1 149.912 191.738)" fill="#FE8842"/>
<circle r="2.71251" transform="matrix(1 0 0 -1 166.188 191.738)" fill="#FE8842"/>
<circle r="2.71251" transform="matrix(1 0 0 -1 182.463 191.738)" fill="#FE8842"/>
<circle r="2.71251" transform="matrix(1 0 0 -1 198.738 191.738)" fill="#FE8842"/>
<circle r="2.71251" transform="matrix(1 0 0 -1 215.013 191.738)" fill="#FE8842"/>
<circle r="2.71251" transform="matrix(1 0 0 -1 231.287 191.738)" fill="#FE8842"/>
<circle r="2.71251" transform="matrix(1 0 0 -1 19.712 175.463)" fill="#FE8842"/>
<circle r="2.71251" transform="matrix(1 0 0 -1 35.9859 175.463)" fill="#FE8842"/>
<circle r="2.71251" transform="matrix(1 0 0 -1 52.2628 175.463)" fill="#FE8842"/>
<circle r="2.71251" transform="matrix(1 0 0 -1 68.5367 175.463)" fill="#FE8842"/>
<circle r="2.71251" transform="matrix(1 0 0 -1 84.8131 175.463)" fill="#FE8842"/>
<circle r="2.71251" transform="matrix(1 0 0 -1 101.088 175.463)" fill="#FE8842"/>
<circle r="2.71251" transform="matrix(1 0 0 -1 117.361 175.463)" fill="#FE8842"/>
<circle r="2.71251" transform="matrix(1 0 0 -1 133.638 175.463)" fill="#FE8842"/>
<circle r="2.71251" transform="matrix(1 0 0 -1 149.912 175.463)" fill="#FE8842"/>
<circle r="2.71251" transform="matrix(1 0 0 -1 166.188 175.463)" fill="#FE8842"/>
<circle r="2.71251" transform="matrix(1 0 0 -1 182.463 175.463)" fill="#FE8842"/>
<circle r="2.71251" transform="matrix(1 0 0 -1 198.738 175.463)" fill="#FE8842"/>
<circle r="2.71251" transform="matrix(1 0 0 -1 215.013 175.463)" fill="#FE8842"/>
<circle r="2.71251" transform="matrix(1 0 0 -1 231.287 175.463)" fill="#FE8842"/>
<circle r="2.71251" transform="matrix(1 0 0 -1 19.712 159.187)" fill="#FE8842"/>
<circle r="2.71251" transform="matrix(1 0 0 -1 35.9859 159.187)" fill="#FE8842"/>
<circle r="2.71251" transform="matrix(1 0 0 -1 52.2628 159.187)" fill="#FE8842"/>
<circle r="2.71251" transform="matrix(1 0 0 -1 68.5367 159.187)" fill="#FE8842"/>
<circle r="2.71251" transform="matrix(1 0 0 -1 84.8131 159.187)" fill="#FE8842"/>
<circle r="2.71251" transform="matrix(1 0 0 -1 101.088 159.187)" fill="#FE8842"/>
<circle r="2.71251" transform="matrix(1 0 0 -1 117.361 159.187)" fill="#FE8842"/>
<circle r="2.71251" transform="matrix(1 0 0 -1 133.638 159.187)" fill="#FE8842"/>
<circle r="2.71251" transform="matrix(1 0 0 -1 149.912 159.187)" fill="#FE8842"/>
<circle r="2.71251" transform="matrix(1 0 0 -1 166.188 159.187)" fill="#FE8842"/>
<circle r="2.71251" transform="matrix(1 0 0 -1 182.463 159.187)" fill="#FE8842"/>
<circle r="2.71251" transform="matrix(1 0 0 -1 198.738 159.187)" fill="#FE8842"/>
<circle r="2.71251" transform="matrix(1 0 0 -1 215.013 159.187)" fill="#FE8842"/>
<circle r="2.71251" transform="matrix(1 0 0 -1 231.287 159.187)" fill="#FE8842"/>
<circle r="2.71251" transform="matrix(1 0 0 -1 19.712 142.913)" fill="#FE8842"/>
<circle r="2.71251" transform="matrix(1 0 0 -1 35.9859 142.913)" fill="#FE8842"/>
<circle r="2.71251" transform="matrix(1 0 0 -1 52.2628 142.913)" fill="#FE8842"/>
<circle r="2.71251" transform="matrix(1 0 0 -1 68.5367 142.913)" fill="#FE8842"/>
<circle r="2.71251" transform="matrix(1 0 0 -1 84.8131 142.913)" fill="#FE8842"/>
<circle r="2.71251" transform="matrix(1 0 0 -1 101.088 142.913)" fill="#FE8842"/>
<circle r="2.71251" transform="matrix(1 0 0 -1 117.361 142.913)" fill="#FE8842"/>
<circle r="2.71251" transform="matrix(1 0 0 -1 133.638 142.913)" fill="#FE8842"/>
<circle r="2.71251" transform="matrix(1 0 0 -1 149.912 142.913)" fill="#FE8842"/>
<circle r="2.71251" transform="matrix(1 0 0 -1 166.188 142.913)" fill="#FE8842"/>
<circle r="2.71251" transform="matrix(1 0 0 -1 182.463 142.913)" fill="#FE8842"/>
<circle r="2.71251" transform="matrix(1 0 0 -1 198.738 142.913)" fill="#FE8842"/>
<circle r="2.71251" transform="matrix(1 0 0 -1 215.013 142.913)" fill="#FE8842"/>
<circle r="2.71251" transform="matrix(1 0 0 -1 231.287 142.913)" fill="#FE8842"/>
<circle r="2.71251" transform="matrix(1 0 0 -1 19.712 126.638)" fill="#FE8842"/>
<circle r="2.71251" transform="matrix(1 0 0 -1 35.9859 126.638)" fill="#FE8842"/>
<circle r="2.71251" transform="matrix(1 0 0 -1 52.2628 126.638)" fill="#FE8842"/>
<circle r="2.71251" transform="matrix(1 0 0 -1 68.5367 126.638)" fill="#FE8842"/>
<circle r="2.71251" transform="matrix(1 0 0 -1 84.8131 126.638)" fill="#FE8842"/>
<circle r="2.71251" transform="matrix(1 0 0 -1 101.088 126.638)" fill="#FE8842"/>
<circle r="2.71251" transform="matrix(1 0 0 -1 117.361 126.638)" fill="#FE8842"/>
<circle r="2.71251" transform="matrix(1 0 0 -1 133.638 126.638)" fill="#FE8842"/>
<circle r="2.71251" transform="matrix(1 0 0 -1 149.912 126.638)" fill="#FE8842"/>
<circle r="2.71251" transform="matrix(1 0 0 -1 166.188 126.638)" fill="#FE8842"/>
<circle r="2.71251" transform="matrix(1 0 0 -1 182.463 126.638)" fill="#FE8842"/>
<circle r="2.71251" transform="matrix(1 0 0 -1 198.738 126.638)" fill="#FE8842"/>
<circle r="2.71251" transform="matrix(1 0 0 -1 215.013 126.638)" fill="#FE8842"/>
<circle r="2.71251" transform="matrix(1 0 0 -1 231.287 126.638)" fill="#FE8842"/>
<circle r="2.71251" transform="matrix(1 0 0 -1 19.712 110.363)" fill="#FE8842"/>
<circle r="2.71251" transform="matrix(1 0 0 -1 35.9859 110.363)" fill="#FE8842"/>
<circle r="2.71251" transform="matrix(1 0 0 -1 52.2628 110.363)" fill="#FE8842"/>
<circle r="2.71251" transform="matrix(1 0 0 -1 68.5367 110.363)" fill="#FE8842"/>
<circle r="2.71251" transform="matrix(1 0 0 -1 84.8131 110.363)" fill="#FE8842"/>
<circle r="2.71251" transform="matrix(1 0 0 -1 101.088 110.363)" fill="#FE8842"/>
<circle r="2.71251" transform="matrix(1 0 0 -1 117.361 110.363)" fill="#FE8842"/>
<circle r="2.71251" transform="matrix(1 0 0 -1 133.638 110.363)" fill="#FE8842"/>
<circle r="2.71251" transform="matrix(1 0 0 -1 149.912 110.363)" fill="#FE8842"/>
<circle r="2.71251" transform="matrix(1 0 0 -1 166.188 110.363)" fill="#FE8842"/>
<circle r="2.71251" transform="matrix(1 0 0 -1 182.463 110.363)" fill="#FE8842"/>
<circle r="2.71251" transform="matrix(1 0 0 -1 198.738 110.363)" fill="#FE8842"/>
<circle r="2.71251" transform="matrix(1 0 0 -1 215.013 110.363)" fill="#FE8842"/>
<circle r="2.71251" transform="matrix(1 0 0 -1 231.287 110.363)" fill="#FE8842"/>
<circle r="2.71251" transform="matrix(1 0 0 -1 19.712 94.0873)" fill="#FE8842"/>
<circle r="2.71251" transform="matrix(1 0 0 -1 35.9859 94.0873)" fill="#FE8842"/>
<circle r="2.71251" transform="matrix(1 0 0 -1 52.2628 94.0873)" fill="#FE8842"/>
<circle r="2.71251" transform="matrix(1 0 0 -1 68.5367 94.0873)" fill="#FE8842"/>
<circle r="2.71251" transform="matrix(1 0 0 -1 84.8131 94.0873)" fill="#FE8842"/>
<circle r="2.71251" transform="matrix(1 0 0 -1 101.088 94.0873)" fill="#FE8842"/>
<circle r="2.71251" transform="matrix(1 0 0 -1 117.361 94.0873)" fill="#FE8842"/>
<circle r="2.71251" transform="matrix(1 0 0 -1 133.638 94.0873)" fill="#FE8842"/>
<circle r="2.71251" transform="matrix(1 0 0 -1 149.912 94.0873)" fill="#FE8842"/>
<circle r="2.71251" transform="matrix(1 0 0 -1 166.188 94.0873)" fill="#FE8842"/>
<circle r="2.71251" transform="matrix(1 0 0 -1 182.463 94.0873)" fill="#FE8842"/>
<circle r="2.71251" transform="matrix(1 0 0 -1 198.738 94.0873)" fill="#FE8842"/>
<circle r="2.71251" transform="matrix(1 0 0 -1 215.013 94.0873)" fill="#FE8842"/>
<circle r="2.71251" transform="matrix(1 0 0 -1 231.287 94.0873)" fill="#FE8842"/>
<circle r="2.71251" transform="matrix(1 0 0 -1 19.712 77.8126)" fill="#FE8842"/>
<circle r="2.71251" transform="matrix(1 0 0 -1 35.9859 77.8126)" fill="#FE8842"/>
<circle r="2.71251" transform="matrix(1 0 0 -1 52.2628 77.8126)" fill="#FE8842"/>
<circle r="2.71251" transform="matrix(1 0 0 -1 68.5367 77.8126)" fill="#FE8842"/>
<circle r="2.71251" transform="matrix(1 0 0 -1 84.8131 77.8126)" fill="#FE8842"/>
<circle r="2.71251" transform="matrix(1 0 0 -1 101.088 77.8126)" fill="#FE8842"/>
<circle r="2.71251" transform="matrix(1 0 0 -1 117.361 77.8126)" fill="#FE8842"/>
<circle r="2.71251" transform="matrix(1 0 0 -1 133.638 77.8126)" fill="#FE8842"/>
<circle r="2.71251" transform="matrix(1 0 0 -1 149.912 77.8126)" fill="#FE8842"/>
<circle r="2.71251" transform="matrix(1 0 0 -1 166.188 77.8126)" fill="#FE8842"/>
<circle r="2.71251" transform="matrix(1 0 0 -1 182.463 77.8126)" fill="#FE8842"/>
<circle r="2.71251" transform="matrix(1 0 0 -1 198.738 77.8126)" fill="#FE8842"/>
<circle r="2.71251" transform="matrix(1 0 0 -1 215.013 77.8126)" fill="#FE8842"/>
<circle r="2.71251" transform="matrix(1 0 0 -1 231.287 77.8126)" fill="#FE8842"/>
<circle r="2.71251" transform="matrix(1 0 0 -1 19.712 61.5372)" fill="#FE8842"/>
<circle r="2.71251" transform="matrix(1 0 0 -1 35.9859 61.5372)" fill="#FE8842"/>
<circle r="2.71251" transform="matrix(1 0 0 -1 52.2628 61.5372)" fill="#FE8842"/>
<circle r="2.71251" transform="matrix(1 0 0 -1 68.5367 61.5372)" fill="#FE8842"/>
<circle r="2.71251" transform="matrix(1 0 0 -1 84.8131 61.5372)" fill="#FE8842"/>
<circle r="2.71251" transform="matrix(1 0 0 -1 101.088 61.5372)" fill="#FE8842"/>
<circle r="2.71251" transform="matrix(1 0 0 -1 117.361 61.5372)" fill="#FE8842"/>
<circle r="2.71251" transform="matrix(1 0 0 -1 133.638 61.5372)" fill="#FE8842"/>
<circle r="2.71251" transform="matrix(1 0 0 -1 149.912 61.5372)" fill="#FE8842"/>
<circle r="2.71251" transform="matrix(1 0 0 -1 166.188 61.5372)" fill="#FE8842"/>
<circle r="2.71251" transform="matrix(1 0 0 -1 182.463 61.5372)" fill="#FE8842"/>
<circle r="2.71251" transform="matrix(1 0 0 -1 198.738 61.5372)" fill="#FE8842"/>
<circle r="2.71251" transform="matrix(1 0 0 -1 215.013 61.5372)" fill="#FE8842"/>
<circle r="2.71251" transform="matrix(1 0 0 -1 231.287 61.5372)" fill="#FE8842"/>
<circle r="2.71251" transform="matrix(1 0 0 -1 19.712 45.2626)" fill="#FE8842"/>
<circle r="2.71251" transform="matrix(1 0 0 -1 35.9859 45.2626)" fill="#FE8842"/>
<circle r="2.71251" transform="matrix(1 0 0 -1 52.2628 45.2626)" fill="#FE8842"/>
<circle r="2.71251" transform="matrix(1 0 0 -1 68.5367 45.2626)" fill="#FE8842"/>
<circle r="2.71251" transform="matrix(1 0 0 -1 84.8131 45.2626)" fill="#FE8842"/>
<circle r="2.71251" transform="matrix(1 0 0 -1 101.088 45.2626)" fill="#FE8842"/>
<circle r="2.71251" transform="matrix(1 0 0 -1 117.361 45.2626)" fill="#FE8842"/>
<circle r="2.71251" transform="matrix(1 0 0 -1 133.638 45.2626)" fill="#FE8842"/>
<circle r="2.71251" transform="matrix(1 0 0 -1 149.912 45.2626)" fill="#FE8842"/>
<circle r="2.71251" transform="matrix(1 0 0 -1 166.188 45.2626)" fill="#FE8842"/>
<circle r="2.71251" transform="matrix(1 0 0 -1 182.463 45.2626)" fill="#FE8842"/>
<circle r="2.71251" transform="matrix(1 0 0 -1 198.738 45.2626)" fill="#FE8842"/>
<circle r="2.71251" transform="matrix(1 0 0 -1 215.013 45.2626)" fill="#FE8842"/>
<circle r="2.71251" transform="matrix(1 0 0 -1 231.287 45.2626)" fill="#FE8842"/>
<circle r="2.71251" transform="matrix(1 0 0 -1 19.712 28.9872)" fill="#FE8842"/>
<circle r="2.71251" transform="matrix(1 0 0 -1 35.9859 28.9872)" fill="#FE8842"/>
<circle r="2.71251" transform="matrix(1 0 0 -1 52.2628 28.9872)" fill="#FE8842"/>
<circle r="2.71251" transform="matrix(1 0 0 -1 68.5367 28.9872)" fill="#FE8842"/>
<circle r="2.71251" transform="matrix(1 0 0 -1 84.8131 28.9872)" fill="#FE8842"/>
<circle r="2.71251" transform="matrix(1 0 0 -1 101.088 28.9872)" fill="#FE8842"/>
<circle r="2.71251" transform="matrix(1 0 0 -1 117.361 28.9872)" fill="#FE8842"/>
<circle r="2.71251" transform="matrix(1 0 0 -1 133.638 28.9872)" fill="#FE8842"/>
<circle r="2.71251" transform="matrix(1 0 0 -1 149.912 28.9872)" fill="#FE8842"/>
<circle r="2.71251" transform="matrix(1 0 0 -1 166.188 28.9872)" fill="#FE8842"/>
<circle r="2.71251" transform="matrix(1 0 0 -1 182.463 28.9872)" fill="#FE8842"/>
<circle r="2.71251" transform="matrix(1 0 0 -1 198.738 28.9872)" fill="#FE8842"/>
<circle r="2.71251" transform="matrix(1 0 0 -1 215.013 28.9872)" fill="#FE8842"/>
<circle r="2.71251" transform="matrix(1 0 0 -1 231.287 28.9872)" fill="#FE8842"/>
<circle r="2.71251" transform="matrix(1 0 0 -1 19.712 12.7125)" fill="#FE8842"/>
<circle r="2.71251" transform="matrix(1 0 0 -1 35.9859 12.7125)" fill="#FE8842"/>
<circle r="2.71251" transform="matrix(1 0 0 -1 52.2628 12.7125)" fill="#FE8842"/>
<circle r="2.71251" transform="matrix(1 0 0 -1 68.5367 12.7125)" fill="#FE8842"/>
<circle r="2.71251" transform="matrix(1 0 0 -1 84.8131 12.7125)" fill="#FE8842"/>
<circle r="2.71251" transform="matrix(1 0 0 -1 101.088 12.7125)" fill="#FE8842"/>
<circle r="2.71251" transform="matrix(1 0 0 -1 117.361 12.7125)" fill="#FE8842"/>
<circle r="2.71251" transform="matrix(1 0 0 -1 133.638 12.7125)" fill="#FE8842"/>
<circle r="2.71251" transform="matrix(1 0 0 -1 149.912 12.7125)" fill="#FE8842"/>
<circle r="2.71251" transform="matrix(1 0 0 -1 166.188 12.7125)" fill="#FE8842"/>
<circle r="2.71251" transform="matrix(1 0 0 -1 182.463 12.7125)" fill="#FE8842"/>
<circle r="2.71251" transform="matrix(1 0 0 -1 198.738 12.7125)" fill="#FE8842"/>
<circle r="2.71251" transform="matrix(1 0 0 -1 215.013 12.7125)" fill="#FE8842"/>
<circle r="2.71251" transform="matrix(1 0 0 -1 231.287 12.7125)" fill="#FE8842"/>
</svg>
