<svg width="286" height="286" viewBox="0 0 286 286" fill="none" xmlns="http://www.w3.org/2000/svg">
<rect width="286" height="286" rx="15" fill="#F1FBFA"/>
<path d="M132.224 161H152.064L119.168 75.624H96.384L63.36 161H83.328L88.704 146.28H126.848L132.224 161ZM107.776 91.368L121.856 130.536H93.568L107.776 91.368ZM196.684 161H212.94V121.064C212.94 103.272 200.012 97.64 185.932 97.64C176.204 97.64 166.476 100.712 158.924 107.368L165.068 118.248C170.316 113.384 176.46 110.952 183.116 110.952C191.308 110.952 196.684 115.048 196.684 121.32V129.896C192.588 124.904 185.292 122.344 177.1 122.344C167.244 122.344 155.596 127.592 155.596 142.056C155.596 155.88 167.244 162.536 177.1 162.536C185.164 162.536 192.46 159.592 196.684 154.6V161ZM196.684 146.152C193.996 149.736 188.876 151.528 183.628 151.528C177.228 151.528 171.98 148.2 171.98 142.44C171.98 136.552 177.228 133.096 183.628 133.096C188.876 133.096 193.996 134.888 196.684 138.472V146.152Z" fill="#202538" fill-opacity="0.53"/>
<path d="M31.376 232H36.488V223.396H42.608C47.792 223.396 50.672 219.904 50.672 215.728C50.672 211.516 47.828 207.988 42.608 207.988H31.376V232ZM45.452 215.692C45.452 217.708 43.94 219.004 41.924 219.004H36.488V212.38H41.924C43.94 212.38 45.452 213.712 45.452 215.692ZM53.7328 232H58.3048V220.516C59.0608 219.4 61.0768 218.572 62.5888 218.572C63.0928 218.572 63.5248 218.608 63.8488 218.68V214.216C61.6888 214.216 59.5288 215.44 58.3048 216.988V214.612H53.7328V232ZM74.7695 232.432C80.5295 232.432 83.9855 228.256 83.9855 223.288C83.9855 218.356 80.5295 214.18 74.7695 214.18C69.0455 214.18 65.5895 218.356 65.5895 223.288C65.5895 228.256 69.0455 232.432 74.7695 232.432ZM74.7695 228.364C71.9255 228.364 70.3415 226.024 70.3415 223.288C70.3415 220.588 71.9255 218.248 74.7695 218.248C77.6135 218.248 79.2335 220.588 79.2335 223.288C79.2335 226.024 77.6135 228.364 74.7695 228.364ZM97.2625 232H102.374L96.1465 223.072L101.978 214.612H96.8665L93.3025 219.976L89.7025 214.612H84.5905L90.3865 223.072L84.2305 232H89.3065L93.3025 226.132L97.2625 232ZM106.907 212.056C108.419 212.056 109.643 210.832 109.643 209.32C109.643 207.808 108.419 206.584 106.907 206.584C105.431 206.584 104.171 207.808 104.171 209.32C104.171 210.832 105.431 212.056 106.907 212.056ZM104.639 232H109.211V214.612H104.639V232ZM135.309 232H139.917V219.436C139.917 215.872 138.009 214.18 134.805 214.18C132.141 214.18 129.837 215.764 128.829 217.348C128.181 215.368 126.561 214.18 124.005 214.18C121.341 214.18 119.037 215.836 118.317 216.88V214.612H113.745V232H118.317V220.3C119.001 219.328 120.333 218.248 121.917 218.248C123.789 218.248 124.509 219.4 124.509 221.02V232H129.117V220.264C129.765 219.328 131.097 218.248 132.717 218.248C134.589 218.248 135.309 219.4 135.309 221.02V232ZM154.841 232H159.413V220.768C159.413 215.764 155.777 214.18 151.817 214.18C149.081 214.18 146.345 215.044 144.221 216.916L145.949 219.976C147.425 218.608 149.153 217.924 151.025 217.924C153.329 217.924 154.841 219.076 154.841 220.84V223.252C153.689 221.848 151.637 221.128 149.333 221.128C146.561 221.128 143.285 222.604 143.285 226.672C143.285 230.56 146.561 232.432 149.333 232.432C151.601 232.432 153.653 231.604 154.841 230.2V232ZM154.841 227.824C154.085 228.832 152.645 229.336 151.169 229.336C149.369 229.336 147.893 228.4 147.893 226.78C147.893 225.124 149.369 224.152 151.169 224.152C152.645 224.152 154.085 224.656 154.841 225.664V227.824ZM189.827 232H194.759V207.988H189.647V223.54L178.523 207.988H173.267V232H178.379V215.872L189.827 232ZM207.449 232.432C213.209 232.432 216.665 228.256 216.665 223.288C216.665 218.356 213.209 214.18 207.449 214.18C201.725 214.18 198.269 218.356 198.269 223.288C198.269 228.256 201.725 232.432 207.449 232.432ZM207.449 228.364C204.605 228.364 203.021 226.024 203.021 223.288C203.021 220.588 204.605 218.248 207.449 218.248C210.293 218.248 211.913 220.588 211.913 223.288C211.913 226.024 210.293 228.364 207.449 228.364ZM224.557 232H229.489L236.473 214.612H231.541L227.005 226.708L222.469 214.612H217.573L224.557 232ZM248.954 232H253.526V220.768C253.526 215.764 249.89 214.18 245.93 214.18C243.194 214.18 240.458 215.044 238.334 216.916L240.062 219.976C241.538 218.608 243.266 217.924 245.138 217.924C247.442 217.924 248.954 219.076 248.954 220.84V223.252C247.802 221.848 245.75 221.128 243.446 221.128C240.674 221.128 237.398 222.604 237.398 226.672C237.398 230.56 240.674 232.432 243.446 232.432C245.714 232.432 247.766 231.604 248.954 230.2V232ZM248.954 227.824C248.198 228.832 246.758 229.336 245.282 229.336C243.482 229.336 242.006 228.4 242.006 226.78C242.006 225.124 243.482 224.152 245.282 224.152C246.758 224.152 248.198 224.656 248.954 225.664V227.824Z" fill="#202538" fill-opacity="0.53"/>
</svg>
