<svg width="252" height="259" viewBox="0 0 252 259" fill="none" xmlns="http://www.w3.org/2000/svg">
<rect width="250" height="259" rx="15" fill="#5B4F8B"/>
<path d="M0 201.656H251.077V244C251.077 252.284 244.361 259 236.077 259H15C6.71571 259 0 252.284 0 244V201.656Z" fill="white"/>
<path d="M85.776 215.04C86.592 215.04 87.104 215.824 87.104 216.592C87.104 217.376 86.56 218.144 85.712 218.144H83.648V215.04H85.776ZM83.648 224V220.192H85.824C87.008 220.192 87.904 219.84 88.528 219.136C89.152 218.432 89.456 217.584 89.456 216.592C89.456 215.6 89.152 214.752 88.528 214.048C87.904 213.328 87.008 212.976 85.824 212.976H81.296V224H83.648ZM95.6681 220.48C95.6681 221.52 95.0921 222 94.3241 222C93.6681 222 92.9961 221.584 92.9961 220.512V216.528H90.7721V220.992C90.7721 223.04 91.9881 224.16 93.7321 224.16C94.4841 224.16 95.2841 223.696 95.6681 222.976V224H97.8921V216.528H95.6681V220.48ZM102.17 221.392C102.17 219.408 102.794 218.416 104.026 218.416C104.474 218.416 104.858 218.496 105.162 218.64L105.562 216.64C105.194 216.464 104.778 216.368 104.282 216.368C103.434 216.368 102.538 217.04 102.17 218.336V216.528H99.9459V224H102.17V221.392ZM108.968 220.288C108.968 219.248 109.736 218.48 110.696 218.48C111.656 218.48 112.424 219.216 112.424 220.288C112.424 221.328 111.656 222.064 110.696 222.064C109.736 222.064 108.968 221.376 108.968 220.288ZM106.712 227.664H108.92V223.088C109.288 223.744 110.152 224.16 111.112 224.16C112.104 224.16 112.952 223.792 113.656 223.072C114.376 222.352 114.727 221.408 114.727 220.24C114.727 219.104 114.376 218.176 113.656 217.456C112.952 216.736 112.104 216.368 111.112 216.368C110.152 216.368 109.288 216.768 108.92 217.456V216.528H106.712V227.664ZM116.337 224H118.561V212.464H116.337V224ZM125.85 221.536C125.482 222 124.938 222.24 124.218 222.24C123.338 222.24 122.49 221.808 122.378 220.992H127.85C127.866 220.736 127.882 220.512 127.882 220.304C127.882 219.136 127.514 218.192 126.778 217.472C126.058 216.736 125.146 216.368 124.058 216.368C122.954 216.368 122.026 216.72 121.274 217.44C120.522 218.16 120.154 219.088 120.154 220.24C120.154 221.392 120.522 222.336 121.274 223.072C122.026 223.792 122.954 224.16 124.058 224.16C125.642 224.16 126.778 223.648 127.466 222.64L125.85 221.536ZM122.41 219.6C122.762 217.888 125.418 217.904 125.642 219.6H122.41ZM139.497 212.976V219.568L135.721 212.976H133.577V224H135.913V217.328L139.753 224H141.849V212.976H139.497ZM151.737 224V216.528H149.529V217.36C149.017 216.64 148.057 216.368 147.353 216.368C146.345 216.368 145.465 216.736 144.697 217.456C143.929 218.176 143.545 219.104 143.545 220.256C143.545 221.408 143.929 222.352 144.697 223.072C145.465 223.792 146.345 224.144 147.353 224.144C147.705 224.144 148.105 224.064 148.537 223.888C148.985 223.712 149.321 223.472 149.529 223.152V224H151.737ZM147.721 222.032C147.225 222.032 146.793 221.872 146.409 221.536C146.041 221.2 145.849 220.768 145.849 220.256C145.849 219.744 146.041 219.328 146.409 218.992C146.793 218.656 147.225 218.48 147.721 218.48C148.681 218.48 149.529 219.184 149.529 220.256C149.529 221.328 148.681 222.032 147.721 222.032ZM157.87 224L161.038 216.528H158.654L156.926 221.168L155.182 216.528H152.814L155.966 224H157.87ZM166.806 216.528L165.142 220.768L163.494 216.528H161.126L164.006 223.232L162.214 227.664H164.566L169.174 216.528H166.806Z" fill="#202538"/>
<path opacity="0.6" d="M98.26 247H99.548L100.262 244.676H101.872L101.172 247H102.474L103.188 244.676H104.728L105.078 243.43H103.538L104.238 241.036H105.792L106.128 239.79H104.588L105.302 237.354H103.986L103.272 239.79H101.676L102.376 237.354H101.046L100.346 239.79H98.82L98.484 241.036H99.982L99.296 243.43H97.77L97.434 244.676H98.96L98.26 247ZM100.612 243.43L101.312 241.036H102.922L102.208 243.43H100.612ZM110.883 240.896C110.197 240.896 109.539 241.134 109.077 241.47L109.511 239.342H113.263V237.83H108.167L107.369 242.422L108.335 243.094C108.951 242.59 109.707 242.268 110.435 242.268C111.457 242.268 112.241 242.94 112.241 243.934C112.241 244.942 111.457 245.614 110.351 245.614C109.511 245.614 108.713 245.082 108.391 244.368L107.103 245.18C107.691 246.314 108.993 247.14 110.435 247.14C112.325 247.14 113.879 245.908 113.879 243.92C113.879 242.142 112.633 240.896 110.883 240.896ZM120.968 241.848C121.948 241.498 122.228 240.588 122.228 239.832C122.228 238.362 121.164 237.354 119.484 237.354H115.732V247H119.778C121.78 247 122.746 245.614 122.746 244.256C122.746 243.192 122.144 242.086 120.968 241.848ZM119.414 238.88C120.156 238.88 120.52 239.398 120.52 240.07C120.52 240.77 120.128 241.246 119.414 241.246H117.44V238.88H119.414ZM119.512 245.474H117.44V242.688H119.554C120.576 242.688 121.024 243.402 121.024 244.088C121.024 244.816 120.506 245.474 119.512 245.474ZM131.045 243.724H129.673V237.83H128.931L123.527 244.76V245.194H128.035V247H129.673V245.194H131.045V243.724ZM125.977 243.724L128.035 241.092V243.724H125.977ZM138.688 238.88V237.354H132.836V247H134.544V243.024H137.82V241.498H134.544V238.88H138.688ZM144.881 241.792C145.455 241.498 145.889 240.854 145.889 240.042C145.889 238.684 144.699 237.718 143.103 237.718C141.507 237.718 140.317 238.684 140.317 240.042C140.317 240.854 140.751 241.498 141.325 241.792C140.303 242.142 139.589 243.094 139.589 244.27C139.589 245.978 141.115 247.14 143.103 247.14C145.091 247.14 146.617 245.978 146.617 244.256C146.617 243.094 145.903 242.128 144.881 241.792ZM143.103 239.132C143.775 239.132 144.279 239.622 144.279 240.21C144.279 240.798 143.775 241.26 143.103 241.26C142.445 241.26 141.927 240.798 141.927 240.21C141.927 239.622 142.445 239.132 143.103 239.132ZM143.103 245.656C142.053 245.656 141.269 244.998 141.269 244.116C141.269 243.206 142.067 242.534 143.103 242.534C144.125 242.534 144.923 243.206 144.923 244.116C144.923 244.998 144.181 245.656 143.103 245.656ZM153.698 241.848C154.678 241.498 154.958 240.588 154.958 239.832C154.958 238.362 153.894 237.354 152.214 237.354H148.462V247H152.508C154.51 247 155.476 245.614 155.476 244.256C155.476 243.192 154.874 242.086 153.698 241.848ZM152.144 238.88C152.886 238.88 153.25 239.398 153.25 240.07C153.25 240.77 152.858 241.246 152.144 241.246H150.17V238.88H152.144ZM152.242 245.474H150.17V242.688H152.284C153.306 242.688 153.754 243.402 153.754 244.088C153.754 244.816 153.236 245.474 152.242 245.474Z" fill="#202538"/>
<circle r="2.71251" transform="matrix(1 0 0 -1 19.712 191.738)" fill="#6D5FA7"/>
<circle r="2.71251" transform="matrix(1 0 0 -1 35.9859 191.738)" fill="#6D5FA7"/>
<circle r="2.71251" transform="matrix(1 0 0 -1 52.2628 191.738)" fill="#6D5FA7"/>
<circle r="2.71251" transform="matrix(1 0 0 -1 68.5367 191.738)" fill="#6D5FA7"/>
<circle r="2.71251" transform="matrix(1 0 0 -1 84.8131 191.738)" fill="#6D5FA7"/>
<circle r="2.71251" transform="matrix(1 0 0 -1 101.088 191.738)" fill="#6D5FA7"/>
<circle r="2.71251" transform="matrix(1 0 0 -1 117.361 191.738)" fill="#6D5FA7"/>
<circle r="2.71251" transform="matrix(1 0 0 -1 133.638 191.738)" fill="#6D5FA7"/>
<circle r="2.71251" transform="matrix(1 0 0 -1 149.912 191.738)" fill="#6D5FA7"/>
<circle r="2.71251" transform="matrix(1 0 0 -1 166.188 191.738)" fill="#6D5FA7"/>
<circle r="2.71251" transform="matrix(1 0 0 -1 182.463 191.738)" fill="#6D5FA7"/>
<circle r="2.71251" transform="matrix(1 0 0 -1 198.738 191.738)" fill="#6D5FA7"/>
<circle r="2.71251" transform="matrix(1 0 0 -1 215.013 191.738)" fill="#6D5FA7"/>
<circle r="2.71251" transform="matrix(1 0 0 -1 231.287 191.738)" fill="#6D5FA7"/>
<circle r="2.71251" transform="matrix(1 0 0 -1 19.712 175.463)" fill="#6D5FA7"/>
<circle r="2.71251" transform="matrix(1 0 0 -1 35.9859 175.463)" fill="#6D5FA7"/>
<circle r="2.71251" transform="matrix(1 0 0 -1 52.2628 175.463)" fill="#6D5FA7"/>
<circle r="2.71251" transform="matrix(1 0 0 -1 68.5367 175.463)" fill="#6D5FA7"/>
<circle r="2.71251" transform="matrix(1 0 0 -1 84.8131 175.463)" fill="#6D5FA7"/>
<circle r="2.71251" transform="matrix(1 0 0 -1 101.088 175.463)" fill="#6D5FA7"/>
<circle r="2.71251" transform="matrix(1 0 0 -1 117.361 175.463)" fill="#6D5FA7"/>
<circle r="2.71251" transform="matrix(1 0 0 -1 133.638 175.463)" fill="#6D5FA7"/>
<circle r="2.71251" transform="matrix(1 0 0 -1 149.912 175.463)" fill="#6D5FA7"/>
<circle r="2.71251" transform="matrix(1 0 0 -1 166.188 175.463)" fill="#6D5FA7"/>
<circle r="2.71251" transform="matrix(1 0 0 -1 182.463 175.463)" fill="#6D5FA7"/>
<circle r="2.71251" transform="matrix(1 0 0 -1 198.738 175.463)" fill="#6D5FA7"/>
<circle r="2.71251" transform="matrix(1 0 0 -1 215.013 175.463)" fill="#6D5FA7"/>
<circle r="2.71251" transform="matrix(1 0 0 -1 231.287 175.463)" fill="#6D5FA7"/>
<circle r="2.71251" transform="matrix(1 0 0 -1 19.712 159.187)" fill="#6D5FA7"/>
<circle r="2.71251" transform="matrix(1 0 0 -1 35.9859 159.187)" fill="#6D5FA7"/>
<circle r="2.71251" transform="matrix(1 0 0 -1 52.2628 159.187)" fill="#6D5FA7"/>
<circle r="2.71251" transform="matrix(1 0 0 -1 68.5367 159.187)" fill="#6D5FA7"/>
<circle r="2.71251" transform="matrix(1 0 0 -1 84.8131 159.187)" fill="#6D5FA7"/>
<circle r="2.71251" transform="matrix(1 0 0 -1 101.088 159.187)" fill="#6D5FA7"/>
<circle r="2.71251" transform="matrix(1 0 0 -1 117.361 159.187)" fill="#6D5FA7"/>
<circle r="2.71251" transform="matrix(1 0 0 -1 133.638 159.187)" fill="#6D5FA7"/>
<circle r="2.71251" transform="matrix(1 0 0 -1 149.912 159.187)" fill="#6D5FA7"/>
<circle r="2.71251" transform="matrix(1 0 0 -1 166.188 159.187)" fill="#6D5FA7"/>
<circle r="2.71251" transform="matrix(1 0 0 -1 182.463 159.187)" fill="#6D5FA7"/>
<circle r="2.71251" transform="matrix(1 0 0 -1 198.738 159.187)" fill="#6D5FA7"/>
<circle r="2.71251" transform="matrix(1 0 0 -1 215.013 159.187)" fill="#6D5FA7"/>
<circle r="2.71251" transform="matrix(1 0 0 -1 231.287 159.187)" fill="#6D5FA7"/>
<circle r="2.71251" transform="matrix(1 0 0 -1 19.712 142.913)" fill="#6D5FA7"/>
<circle r="2.71251" transform="matrix(1 0 0 -1 35.9859 142.913)" fill="#6D5FA7"/>
<circle r="2.71251" transform="matrix(1 0 0 -1 52.2628 142.913)" fill="#6D5FA7"/>
<circle r="2.71251" transform="matrix(1 0 0 -1 68.5367 142.913)" fill="#6D5FA7"/>
<circle r="2.71251" transform="matrix(1 0 0 -1 84.8131 142.913)" fill="#6D5FA7"/>
<circle r="2.71251" transform="matrix(1 0 0 -1 101.088 142.913)" fill="#6D5FA7"/>
<circle r="2.71251" transform="matrix(1 0 0 -1 117.361 142.913)" fill="#6D5FA7"/>
<circle r="2.71251" transform="matrix(1 0 0 -1 133.638 142.913)" fill="#6D5FA7"/>
<circle r="2.71251" transform="matrix(1 0 0 -1 149.912 142.913)" fill="#6D5FA7"/>
<circle r="2.71251" transform="matrix(1 0 0 -1 166.188 142.913)" fill="#6D5FA7"/>
<circle r="2.71251" transform="matrix(1 0 0 -1 182.463 142.913)" fill="#6D5FA7"/>
<circle r="2.71251" transform="matrix(1 0 0 -1 198.738 142.913)" fill="#6D5FA7"/>
<circle r="2.71251" transform="matrix(1 0 0 -1 215.013 142.913)" fill="#6D5FA7"/>
<circle r="2.71251" transform="matrix(1 0 0 -1 231.287 142.913)" fill="#6D5FA7"/>
<circle r="2.71251" transform="matrix(1 0 0 -1 19.712 126.638)" fill="#6D5FA7"/>
<circle r="2.71251" transform="matrix(1 0 0 -1 35.9859 126.638)" fill="#6D5FA7"/>
<circle r="2.71251" transform="matrix(1 0 0 -1 52.2628 126.638)" fill="#6D5FA7"/>
<circle r="2.71251" transform="matrix(1 0 0 -1 68.5367 126.638)" fill="#6D5FA7"/>
<circle r="2.71251" transform="matrix(1 0 0 -1 84.8131 126.638)" fill="#6D5FA7"/>
<circle r="2.71251" transform="matrix(1 0 0 -1 101.088 126.638)" fill="#6D5FA7"/>
<circle r="2.71251" transform="matrix(1 0 0 -1 117.361 126.638)" fill="#6D5FA7"/>
<circle r="2.71251" transform="matrix(1 0 0 -1 133.638 126.638)" fill="#6D5FA7"/>
<circle r="2.71251" transform="matrix(1 0 0 -1 149.912 126.638)" fill="#6D5FA7"/>
<circle r="2.71251" transform="matrix(1 0 0 -1 166.188 126.638)" fill="#6D5FA7"/>
<circle r="2.71251" transform="matrix(1 0 0 -1 182.463 126.638)" fill="#6D5FA7"/>
<circle r="2.71251" transform="matrix(1 0 0 -1 198.738 126.638)" fill="#6D5FA7"/>
<circle r="2.71251" transform="matrix(1 0 0 -1 215.013 126.638)" fill="#6D5FA7"/>
<circle r="2.71251" transform="matrix(1 0 0 -1 231.287 126.638)" fill="#6D5FA7"/>
<circle r="2.71251" transform="matrix(1 0 0 -1 19.712 110.363)" fill="#6D5FA7"/>
<circle r="2.71251" transform="matrix(1 0 0 -1 35.9859 110.363)" fill="#6D5FA7"/>
<circle r="2.71251" transform="matrix(1 0 0 -1 52.2628 110.363)" fill="#6D5FA7"/>
<circle r="2.71251" transform="matrix(1 0 0 -1 68.5367 110.363)" fill="#6D5FA7"/>
<circle r="2.71251" transform="matrix(1 0 0 -1 84.8131 110.363)" fill="#6D5FA7"/>
<circle r="2.71251" transform="matrix(1 0 0 -1 101.088 110.363)" fill="#6D5FA7"/>
<circle r="2.71251" transform="matrix(1 0 0 -1 117.361 110.363)" fill="#6D5FA7"/>
<circle r="2.71251" transform="matrix(1 0 0 -1 133.638 110.363)" fill="#6D5FA7"/>
<circle r="2.71251" transform="matrix(1 0 0 -1 149.912 110.363)" fill="#6D5FA7"/>
<circle r="2.71251" transform="matrix(1 0 0 -1 166.188 110.363)" fill="#6D5FA7"/>
<circle r="2.71251" transform="matrix(1 0 0 -1 182.463 110.363)" fill="#6D5FA7"/>
<circle r="2.71251" transform="matrix(1 0 0 -1 198.738 110.363)" fill="#6D5FA7"/>
<circle r="2.71251" transform="matrix(1 0 0 -1 215.013 110.363)" fill="#6D5FA7"/>
<circle r="2.71251" transform="matrix(1 0 0 -1 231.287 110.363)" fill="#6D5FA7"/>
<circle r="2.71251" transform="matrix(1 0 0 -1 19.712 94.0873)" fill="#6D5FA7"/>
<circle r="2.71251" transform="matrix(1 0 0 -1 35.9859 94.0873)" fill="#6D5FA7"/>
<circle r="2.71251" transform="matrix(1 0 0 -1 52.2628 94.0873)" fill="#6D5FA7"/>
<circle r="2.71251" transform="matrix(1 0 0 -1 68.5367 94.0873)" fill="#6D5FA7"/>
<circle r="2.71251" transform="matrix(1 0 0 -1 84.8131 94.0873)" fill="#6D5FA7"/>
<circle r="2.71251" transform="matrix(1 0 0 -1 101.088 94.0873)" fill="#6D5FA7"/>
<circle r="2.71251" transform="matrix(1 0 0 -1 117.361 94.0873)" fill="#6D5FA7"/>
<circle r="2.71251" transform="matrix(1 0 0 -1 133.638 94.0873)" fill="#6D5FA7"/>
<circle r="2.71251" transform="matrix(1 0 0 -1 149.912 94.0873)" fill="#6D5FA7"/>
<circle r="2.71251" transform="matrix(1 0 0 -1 166.188 94.0873)" fill="#6D5FA7"/>
<circle r="2.71251" transform="matrix(1 0 0 -1 182.463 94.0873)" fill="#6D5FA7"/>
<circle r="2.71251" transform="matrix(1 0 0 -1 198.738 94.0873)" fill="#6D5FA7"/>
<circle r="2.71251" transform="matrix(1 0 0 -1 215.013 94.0873)" fill="#6D5FA7"/>
<circle r="2.71251" transform="matrix(1 0 0 -1 231.287 94.0873)" fill="#6D5FA7"/>
<circle r="2.71251" transform="matrix(1 0 0 -1 19.712 77.8126)" fill="#6D5FA7"/>
<circle r="2.71251" transform="matrix(1 0 0 -1 35.9859 77.8126)" fill="#6D5FA7"/>
<circle r="2.71251" transform="matrix(1 0 0 -1 52.2628 77.8126)" fill="#6D5FA7"/>
<circle r="2.71251" transform="matrix(1 0 0 -1 68.5367 77.8126)" fill="#6D5FA7"/>
<circle r="2.71251" transform="matrix(1 0 0 -1 84.8131 77.8126)" fill="#6D5FA7"/>
<circle r="2.71251" transform="matrix(1 0 0 -1 101.088 77.8126)" fill="#6D5FA7"/>
<circle r="2.71251" transform="matrix(1 0 0 -1 117.361 77.8126)" fill="#6D5FA7"/>
<circle r="2.71251" transform="matrix(1 0 0 -1 133.638 77.8126)" fill="#6D5FA7"/>
<circle r="2.71251" transform="matrix(1 0 0 -1 149.912 77.8126)" fill="#6D5FA7"/>
<circle r="2.71251" transform="matrix(1 0 0 -1 166.188 77.8126)" fill="#6D5FA7"/>
<circle r="2.71251" transform="matrix(1 0 0 -1 182.463 77.8126)" fill="#6D5FA7"/>
<circle r="2.71251" transform="matrix(1 0 0 -1 198.738 77.8126)" fill="#6D5FA7"/>
<circle r="2.71251" transform="matrix(1 0 0 -1 215.013 77.8126)" fill="#6D5FA7"/>
<circle r="2.71251" transform="matrix(1 0 0 -1 231.287 77.8126)" fill="#6D5FA7"/>
<circle r="2.71251" transform="matrix(1 0 0 -1 19.712 61.5372)" fill="#6D5FA7"/>
<circle r="2.71251" transform="matrix(1 0 0 -1 35.9859 61.5372)" fill="#6D5FA7"/>
<circle r="2.71251" transform="matrix(1 0 0 -1 52.2628 61.5372)" fill="#6D5FA7"/>
<circle r="2.71251" transform="matrix(1 0 0 -1 68.5367 61.5372)" fill="#6D5FA7"/>
<circle r="2.71251" transform="matrix(1 0 0 -1 84.8131 61.5372)" fill="#6D5FA7"/>
<circle r="2.71251" transform="matrix(1 0 0 -1 101.088 61.5372)" fill="#6D5FA7"/>
<circle r="2.71251" transform="matrix(1 0 0 -1 117.361 61.5372)" fill="#6D5FA7"/>
<circle r="2.71251" transform="matrix(1 0 0 -1 133.638 61.5372)" fill="#6D5FA7"/>
<circle r="2.71251" transform="matrix(1 0 0 -1 149.912 61.5372)" fill="#6D5FA7"/>
<circle r="2.71251" transform="matrix(1 0 0 -1 166.188 61.5372)" fill="#6D5FA7"/>
<circle r="2.71251" transform="matrix(1 0 0 -1 182.463 61.5372)" fill="#6D5FA7"/>
<circle r="2.71251" transform="matrix(1 0 0 -1 198.738 61.5372)" fill="#6D5FA7"/>
<circle r="2.71251" transform="matrix(1 0 0 -1 215.013 61.5372)" fill="#6D5FA7"/>
<circle r="2.71251" transform="matrix(1 0 0 -1 231.287 61.5372)" fill="#6D5FA7"/>
<circle r="2.71251" transform="matrix(1 0 0 -1 19.712 45.2626)" fill="#6D5FA7"/>
<circle r="2.71251" transform="matrix(1 0 0 -1 35.9859 45.2626)" fill="#6D5FA7"/>
<circle r="2.71251" transform="matrix(1 0 0 -1 52.2628 45.2626)" fill="#6D5FA7"/>
<circle r="2.71251" transform="matrix(1 0 0 -1 68.5367 45.2626)" fill="#6D5FA7"/>
<circle r="2.71251" transform="matrix(1 0 0 -1 84.8131 45.2626)" fill="#6D5FA7"/>
<circle r="2.71251" transform="matrix(1 0 0 -1 101.088 45.2626)" fill="#6D5FA7"/>
<circle r="2.71251" transform="matrix(1 0 0 -1 117.361 45.2626)" fill="#6D5FA7"/>
<circle r="2.71251" transform="matrix(1 0 0 -1 133.638 45.2626)" fill="#6D5FA7"/>
<circle r="2.71251" transform="matrix(1 0 0 -1 149.912 45.2626)" fill="#6D5FA7"/>
<circle r="2.71251" transform="matrix(1 0 0 -1 166.188 45.2626)" fill="#6D5FA7"/>
<circle r="2.71251" transform="matrix(1 0 0 -1 182.463 45.2626)" fill="#6D5FA7"/>
<circle r="2.71251" transform="matrix(1 0 0 -1 198.738 45.2626)" fill="#6D5FA7"/>
<circle r="2.71251" transform="matrix(1 0 0 -1 215.013 45.2626)" fill="#6D5FA7"/>
<circle r="2.71251" transform="matrix(1 0 0 -1 231.287 45.2626)" fill="#6D5FA7"/>
<circle r="2.71251" transform="matrix(1 0 0 -1 19.712 28.9872)" fill="#6D5FA7"/>
<circle r="2.71251" transform="matrix(1 0 0 -1 35.9859 28.9872)" fill="#6D5FA7"/>
<circle r="2.71251" transform="matrix(1 0 0 -1 52.2628 28.9872)" fill="#6D5FA7"/>
<circle r="2.71251" transform="matrix(1 0 0 -1 68.5367 28.9872)" fill="#6D5FA7"/>
<circle r="2.71251" transform="matrix(1 0 0 -1 84.8131 28.9872)" fill="#6D5FA7"/>
<circle r="2.71251" transform="matrix(1 0 0 -1 101.088 28.9872)" fill="#6D5FA7"/>
<circle r="2.71251" transform="matrix(1 0 0 -1 117.361 28.9872)" fill="#6D5FA7"/>
<circle r="2.71251" transform="matrix(1 0 0 -1 133.638 28.9872)" fill="#6D5FA7"/>
<circle r="2.71251" transform="matrix(1 0 0 -1 149.912 28.9872)" fill="#6D5FA7"/>
<circle r="2.71251" transform="matrix(1 0 0 -1 166.188 28.9872)" fill="#6D5FA7"/>
<circle r="2.71251" transform="matrix(1 0 0 -1 182.463 28.9872)" fill="#6D5FA7"/>
<circle r="2.71251" transform="matrix(1 0 0 -1 198.738 28.9872)" fill="#6D5FA7"/>
<circle r="2.71251" transform="matrix(1 0 0 -1 215.013 28.9872)" fill="#6D5FA7"/>
<circle r="2.71251" transform="matrix(1 0 0 -1 231.287 28.9872)" fill="#6D5FA7"/>
<circle r="2.71251" transform="matrix(1 0 0 -1 19.712 12.7125)" fill="#6D5FA7"/>
<circle r="2.71251" transform="matrix(1 0 0 -1 35.9859 12.7125)" fill="#6D5FA7"/>
<circle r="2.71251" transform="matrix(1 0 0 -1 52.2628 12.7125)" fill="#6D5FA7"/>
<circle r="2.71251" transform="matrix(1 0 0 -1 68.5367 12.7125)" fill="#6D5FA7"/>
<circle r="2.71251" transform="matrix(1 0 0 -1 84.8131 12.7125)" fill="#6D5FA7"/>
<circle r="2.71251" transform="matrix(1 0 0 -1 101.088 12.7125)" fill="#6D5FA7"/>
<circle r="2.71251" transform="matrix(1 0 0 -1 117.361 12.7125)" fill="#6D5FA7"/>
<circle r="2.71251" transform="matrix(1 0 0 -1 133.638 12.7125)" fill="#6D5FA7"/>
<circle r="2.71251" transform="matrix(1 0 0 -1 149.912 12.7125)" fill="#6D5FA7"/>
<circle r="2.71251" transform="matrix(1 0 0 -1 166.188 12.7125)" fill="#6D5FA7"/>
<circle r="2.71251" transform="matrix(1 0 0 -1 182.463 12.7125)" fill="#6D5FA7"/>
<circle r="2.71251" transform="matrix(1 0 0 -1 198.738 12.7125)" fill="#6D5FA7"/>
<circle r="2.71251" transform="matrix(1 0 0 -1 215.013 12.7125)" fill="#6D5FA7"/>
<circle r="2.71251" transform="matrix(1 0 0 -1 231.287 12.7125)" fill="#6D5FA7"/>
</svg>
