<svg width="286" height="286" viewBox="0 0 286 286" fill="none" xmlns="http://www.w3.org/2000/svg">
<rect width="286" height="286" rx="15" fill="#F1FBFA"/>
<path d="M106.112 94.16L115.456 124.88H97.152L106.112 94.16ZM129.28 162H148.992L116.352 73.808H96L63.232 162H83.2L91.008 141.136H121.472L129.28 162ZM217.894 162V102.224H200.23V108.88C196.134 103.12 188.454 100.944 182.822 100.944C174.758 100.944 167.718 103.888 161.574 109.648C155.43 115.408 152.358 122.832 152.358 132.048C152.358 141.264 155.43 148.816 161.574 154.576C167.718 160.336 174.758 163.152 182.822 163.152C185.638 163.152 188.838 162.512 192.294 161.104C195.878 159.696 198.566 157.776 200.23 155.216V162H217.894ZM185.766 146.256C181.798 146.256 178.342 144.976 175.27 142.288C172.326 139.6 170.79 136.144 170.79 132.048C170.79 127.952 172.326 124.624 175.27 121.936C178.342 119.248 181.798 117.84 185.766 117.84C193.446 117.84 200.23 123.472 200.23 132.048C200.23 140.624 193.446 146.256 185.766 146.256Z" fill="#202538" fill-opacity="0.53"/>
<path d="M67.584 222.728C67.584 224.996 68.412 226.832 70.068 228.272C71.724 229.676 73.884 230.396 76.584 230.396C79.644 230.396 82.38 229.46 84.144 227.192C85.044 226.04 85.476 224.672 85.512 223.124C85.62 219.488 83.352 216.968 78.708 215.636L75.756 214.7C73.992 214.196 73.092 213.368 73.092 212.18C73.092 210.74 74.424 209.696 76.296 209.696C78.348 209.696 79.5 210.812 79.5 212.504H84.756C84.756 210.164 83.964 208.328 82.38 206.96C80.832 205.592 78.816 204.908 76.368 204.908C73.956 204.908 71.904 205.592 70.284 206.996C68.664 208.364 67.836 210.128 67.836 212.324C67.836 215.744 69.96 218.12 74.244 219.452L77.232 220.28C79.572 220.964 80.256 221.828 80.22 223.088C80.184 224.672 78.744 225.716 76.584 225.716C74.316 225.716 72.984 224.42 72.876 222.728H67.584ZM96.9611 225.392C94.8371 225.392 93.1811 223.844 93.1811 221.54C93.1811 219.344 94.8371 217.724 96.9611 217.724C99.0851 217.724 100.777 219.344 100.777 221.54C100.777 223.844 99.1211 225.392 96.9611 225.392ZM103.153 227.876C104.845 226.256 105.709 224.132 105.709 221.54C105.709 218.948 104.845 216.86 103.153 215.24C101.461 213.62 99.4091 212.828 96.9611 212.828C94.5131 212.828 92.4611 213.62 90.7691 215.24C89.0771 216.86 88.2491 218.948 88.2491 221.54C88.2491 224.132 89.0771 226.256 90.7691 227.876C92.4611 229.496 94.5131 230.288 96.9611 230.288C99.4091 230.288 101.461 229.496 103.153 227.876ZM115.852 213.188V212.036C115.852 209.912 116.716 208.832 118.408 208.832H120.244V204.044H118.408C113.548 204.044 110.812 206.888 110.812 212.036V213.188H107.644V217.148H110.812V230H115.852V217.148H124.564V230H129.532V213.188H115.852ZM127.048 204.044C125.32 204.044 123.916 205.34 123.916 206.96C123.916 208.58 125.32 209.912 127.048 209.912C128.74 209.912 130.108 208.58 130.108 206.96C130.108 205.34 128.74 204.044 127.048 204.044ZM151.576 230V213.188H146.608V215.06C145.456 213.44 143.296 212.828 141.712 212.828C139.444 212.828 137.464 213.656 135.736 215.276C134.008 216.896 133.144 218.984 133.144 221.576C133.144 224.168 134.008 226.292 135.736 227.912C137.464 229.532 139.444 230.324 141.712 230.324C142.504 230.324 143.404 230.144 144.376 229.748C145.384 229.352 146.14 228.812 146.608 228.092V230H151.576ZM142.54 225.572C141.424 225.572 140.452 225.212 139.588 224.456C138.76 223.7 138.328 222.728 138.328 221.576C138.328 220.424 138.76 219.488 139.588 218.732C140.452 217.976 141.424 217.58 142.54 217.58C144.7 217.58 146.608 219.164 146.608 221.576C146.608 223.988 144.7 225.572 142.54 225.572ZM175.676 209.84C177.512 209.84 178.664 211.604 178.664 213.332C178.664 215.096 177.44 216.824 175.532 216.824H170.888V209.84H175.676ZM170.888 230V221.432H175.784C178.448 221.432 180.464 220.64 181.868 219.056C183.272 217.472 183.956 215.564 183.956 213.332C183.956 211.1 183.272 209.192 181.868 207.608C180.464 205.988 178.448 205.196 175.784 205.196H165.596V230H170.888ZM191.89 224.132C191.89 219.668 193.294 217.436 196.066 217.436C197.074 217.436 197.938 217.616 198.622 217.94L199.522 213.44C198.694 213.044 197.758 212.828 196.642 212.828C194.734 212.828 192.718 214.34 191.89 217.256V213.188H186.886V230H191.89V224.132ZM209.531 225.392C207.407 225.392 205.751 223.844 205.751 221.54C205.751 219.344 207.407 217.724 209.531 217.724C211.655 217.724 213.347 219.344 213.347 221.54C213.347 223.844 211.691 225.392 209.531 225.392ZM215.723 227.876C217.415 226.256 218.279 224.132 218.279 221.54C218.279 218.948 217.415 216.86 215.723 215.24C214.031 213.62 211.979 212.828 209.531 212.828C207.083 212.828 205.031 213.62 203.339 215.24C201.647 216.86 200.819 218.948 200.819 221.54C200.819 224.132 201.647 226.256 203.339 227.876C205.031 229.496 207.083 230.288 209.531 230.288C211.979 230.288 214.031 229.496 215.723 227.876Z" fill="#202538" fill-opacity="0.53"/>
</svg>
