<svg width="252" height="259" viewBox="0 0 252 259" fill="none" xmlns="http://www.w3.org/2000/svg">
<rect width="250" height="259" rx="15" fill="#576394"/>
<path d="M0 201.656H251.077V244C251.077 252.284 244.361 259 236.077 259H15C6.71571 259 0 252.284 0 244V201.656Z" fill="white"/>
<path d="M93.376 220.064C93.376 220.608 93.184 221.056 92.8 221.424C92.432 221.776 91.984 221.952 91.472 221.952C90.96 221.952 90.512 221.776 90.128 221.424C89.76 221.072 89.568 220.624 89.568 220.064V212.976H87.184V220.064C87.184 221.28 87.6 222.272 88.448 223.024C89.296 223.776 90.304 224.16 91.472 224.16C92.64 224.16 93.648 223.776 94.48 223.024C95.312 222.272 95.728 221.28 95.728 220.064V212.976H93.376V220.064ZM105.85 220.432C105.226 221.344 104.234 221.952 103.098 221.952C102.186 221.952 101.434 221.616 100.826 220.96C100.218 220.288 99.9143 219.472 99.9143 218.512C99.9143 217.536 100.218 216.72 100.826 216.064C101.434 215.392 102.186 215.056 103.098 215.056C104.234 215.056 105.13 215.536 105.786 216.496L107.69 215.184C106.714 213.76 105.018 212.848 103.098 212.848C101.53 212.848 100.218 213.392 99.1463 214.496C98.0903 215.6 97.5623 216.928 97.5623 218.512C97.5623 220.08 98.0903 221.408 99.1463 222.512C100.218 223.616 101.53 224.16 103.098 224.16C105.066 224.16 106.762 223.232 107.738 221.744L105.85 220.432ZM115.87 224V221.936H111.742V212.976H109.39V224H115.87ZM121.53 215.52L122.698 219.36H120.41L121.53 215.52ZM124.426 224H126.89L122.81 212.976H120.266L116.17 224H118.666L119.642 221.392H123.45L124.426 224ZM139.179 216.048C139.179 214.176 137.899 212.976 135.915 212.976H131.499V224H136.235C137.307 224 138.155 223.68 138.795 223.024C139.435 222.368 139.755 221.568 139.755 220.624C139.755 220.112 139.579 219.616 139.211 219.12C138.859 218.624 138.347 218.288 137.675 218.112C138.715 217.712 139.179 216.88 139.179 216.048ZM133.851 215.04H135.675C136.363 215.04 136.715 215.488 136.715 216.192C136.715 216.848 136.283 217.328 135.691 217.328H133.851V215.04ZM136.059 219.264C136.827 219.264 137.291 219.888 137.291 220.576C137.291 221.296 136.859 221.936 136.107 221.936H133.851V219.264H136.059ZM141.415 224H143.639V212.464H141.415V224ZM150.496 220.48C150.496 221.52 149.92 222 149.152 222C148.496 222 147.824 221.584 147.824 220.512V216.528H145.6V220.992C145.6 223.04 146.816 224.16 148.56 224.16C149.312 224.16 150.112 223.696 150.496 222.976V224H152.72V216.528H150.496V220.48ZM160.022 221.536C159.654 222 159.11 222.24 158.39 222.24C157.51 222.24 156.662 221.808 156.55 220.992H162.022C162.038 220.736 162.054 220.512 162.054 220.304C162.054 219.136 161.686 218.192 160.95 217.472C160.23 216.736 159.318 216.368 158.23 216.368C157.126 216.368 156.198 216.72 155.446 217.44C154.694 218.16 154.326 219.088 154.326 220.24C154.326 221.392 154.694 222.336 155.446 223.072C156.198 223.792 157.126 224.16 158.23 224.16C159.814 224.16 160.95 223.648 161.638 222.64L160.022 221.536ZM156.582 219.6C156.934 217.888 159.59 217.904 159.814 219.6H156.582Z" fill="#202538"/>
<path opacity="0.6" d="M97.26 247H98.548L99.262 244.676H100.872L100.172 247H101.474L102.188 244.676H103.728L104.078 243.43H102.538L103.238 241.036H104.792L105.128 239.79H103.588L104.302 237.354H102.986L102.272 239.79H100.676L101.376 237.354H100.046L99.346 239.79H97.82L97.484 241.036H98.982L98.296 243.43H96.77L96.434 244.676H97.96L97.26 247ZM99.612 243.43L100.312 241.036H101.922L101.208 243.43H99.612ZM109.883 240.896C109.197 240.896 108.539 241.134 108.077 241.47L108.511 239.342H112.263V237.83H107.167L106.369 242.422L107.335 243.094C107.951 242.59 108.707 242.268 109.435 242.268C110.457 242.268 111.241 242.94 111.241 243.934C111.241 244.942 110.457 245.614 109.351 245.614C108.511 245.614 107.713 245.082 107.391 244.368L106.103 245.18C106.691 246.314 107.993 247.14 109.435 247.14C111.325 247.14 112.879 245.908 112.879 243.92C112.879 242.142 111.633 240.896 109.883 240.896ZM114.102 237.83V239.356H118.064L114.284 247H116.174L120.598 237.984V237.83H114.102ZM124.925 241.092C124.001 241.092 123.301 241.498 122.867 242.03C122.881 240.434 123.777 239.23 125.023 239.23C125.653 239.23 126.255 239.538 126.577 240.238L127.935 239.552C127.347 238.222 126.171 237.718 125.023 237.718C122.335 237.718 121.187 240.21 121.187 242.716C121.187 245.516 122.517 247.14 124.701 247.14C126.717 247.14 128.033 245.768 128.033 244.074C128.033 242.478 126.787 241.092 124.925 241.092ZM124.659 245.614C123.679 245.6 122.979 244.928 122.979 244.018C123.007 243.136 123.749 242.506 124.757 242.506C125.695 242.534 126.381 243.192 126.381 244.06C126.381 244.956 125.667 245.614 124.659 245.614ZM133.798 242.072C134.54 241.722 134.988 241.022 134.988 240.21C135.002 238.684 133.826 237.718 132.216 237.718C131.082 237.718 130.13 238.236 129.542 239.02L130.508 240.014C130.858 239.524 131.474 239.216 132.076 239.216C132.818 239.216 133.322 239.636 133.35 240.266C133.378 240.98 132.776 241.526 131.796 241.526H131.152V242.8H132.048C133.056 242.8 133.77 243.402 133.77 244.27C133.77 245.082 133.056 245.642 132.048 245.642C131.334 245.642 130.732 245.236 130.298 244.55L129.122 245.404C129.738 246.51 130.802 247.126 132.118 247.126C134.05 247.126 135.408 246.006 135.408 244.326C135.408 243.248 134.764 242.408 133.798 242.072ZM140.132 237.718C138.102 237.718 136.8 239.09 136.8 240.784C136.8 242.38 138.046 243.752 139.908 243.752C140.832 243.752 141.518 243.388 141.966 242.856C141.938 244.438 141.028 245.628 139.796 245.628C139.18 245.628 138.564 245.32 138.256 244.606L136.898 245.306C137.486 246.636 138.662 247.14 139.796 247.14C142.484 247.14 143.646 244.648 143.646 242.142C143.646 239.552 142.316 237.718 140.132 237.718ZM140.062 242.338C139.124 242.31 138.438 241.666 138.438 240.798C138.438 239.902 139.166 239.244 140.16 239.244C141.14 239.258 141.854 239.93 141.854 240.84C141.826 241.708 141.07 242.338 140.062 242.338ZM152.002 243.724H150.63V237.83H149.888L144.484 244.76V245.194H148.992V247H150.63V245.194H152.002V243.724ZM146.934 243.724L148.992 241.092V243.724H146.934Z" fill="#202538"/>
<circle r="2.71251" transform="matrix(1 0 0 -1 19.7125 191.738)" fill="#5F6CA0"/>
<circle r="2.71251" transform="matrix(1 0 0 -1 35.9864 191.738)" fill="#5F6CA0"/>
<circle r="2.71251" transform="matrix(1 0 0 -1 52.2633 191.738)" fill="#5F6CA0"/>
<circle r="2.71251" transform="matrix(1 0 0 -1 68.5372 191.738)" fill="#5F6CA0"/>
<circle r="2.71251" transform="matrix(1 0 0 -1 84.8136 191.738)" fill="#5F6CA0"/>
<circle r="2.71251" transform="matrix(1 0 0 -1 101.088 191.738)" fill="#5F6CA0"/>
<circle r="2.71251" transform="matrix(1 0 0 -1 117.362 191.738)" fill="#5F6CA0"/>
<circle r="2.71251" transform="matrix(1 0 0 -1 133.638 191.738)" fill="#5F6CA0"/>
<circle r="2.71251" transform="matrix(1 0 0 -1 149.913 191.738)" fill="#5F6CA0"/>
<circle r="2.71251" transform="matrix(1 0 0 -1 166.188 191.738)" fill="#5F6CA0"/>
<circle r="2.71251" transform="matrix(1 0 0 -1 182.463 191.738)" fill="#5F6CA0"/>
<circle r="2.71251" transform="matrix(1 0 0 -1 198.738 191.738)" fill="#5F6CA0"/>
<circle r="2.71251" transform="matrix(1 0 0 -1 215.014 191.738)" fill="#5F6CA0"/>
<circle r="2.71251" transform="matrix(1 0 0 -1 231.288 191.738)" fill="#5F6CA0"/>
<circle r="2.71251" transform="matrix(1 0 0 -1 19.7125 175.463)" fill="#5F6CA0"/>
<circle r="2.71251" transform="matrix(1 0 0 -1 35.9864 175.463)" fill="#5F6CA0"/>
<circle r="2.71251" transform="matrix(1 0 0 -1 52.2633 175.463)" fill="#5F6CA0"/>
<circle r="2.71251" transform="matrix(1 0 0 -1 68.5372 175.463)" fill="#5F6CA0"/>
<circle r="2.71251" transform="matrix(1 0 0 -1 84.8136 175.463)" fill="#5F6CA0"/>
<circle r="2.71251" transform="matrix(1 0 0 -1 101.088 175.463)" fill="#5F6CA0"/>
<circle r="2.71251" transform="matrix(1 0 0 -1 117.362 175.463)" fill="#5F6CA0"/>
<circle r="2.71251" transform="matrix(1 0 0 -1 133.638 175.463)" fill="#5F6CA0"/>
<circle r="2.71251" transform="matrix(1 0 0 -1 149.913 175.463)" fill="#5F6CA0"/>
<circle r="2.71251" transform="matrix(1 0 0 -1 166.188 175.463)" fill="#5F6CA0"/>
<circle r="2.71251" transform="matrix(1 0 0 -1 182.463 175.463)" fill="#5F6CA0"/>
<circle r="2.71251" transform="matrix(1 0 0 -1 198.738 175.463)" fill="#5F6CA0"/>
<circle r="2.71251" transform="matrix(1 0 0 -1 215.014 175.463)" fill="#5F6CA0"/>
<circle r="2.71251" transform="matrix(1 0 0 -1 231.288 175.463)" fill="#5F6CA0"/>
<circle r="2.71251" transform="matrix(1 0 0 -1 19.7125 159.187)" fill="#5F6CA0"/>
<circle r="2.71251" transform="matrix(1 0 0 -1 35.9864 159.187)" fill="#5F6CA0"/>
<circle r="2.71251" transform="matrix(1 0 0 -1 52.2633 159.187)" fill="#5F6CA0"/>
<circle r="2.71251" transform="matrix(1 0 0 -1 68.5372 159.187)" fill="#5F6CA0"/>
<circle r="2.71251" transform="matrix(1 0 0 -1 84.8136 159.187)" fill="#5F6CA0"/>
<circle r="2.71251" transform="matrix(1 0 0 -1 101.088 159.187)" fill="#5F6CA0"/>
<circle r="2.71251" transform="matrix(1 0 0 -1 117.362 159.187)" fill="#5F6CA0"/>
<circle r="2.71251" transform="matrix(1 0 0 -1 133.638 159.187)" fill="#5F6CA0"/>
<circle r="2.71251" transform="matrix(1 0 0 -1 149.913 159.187)" fill="#5F6CA0"/>
<circle r="2.71251" transform="matrix(1 0 0 -1 166.188 159.187)" fill="#5F6CA0"/>
<circle r="2.71251" transform="matrix(1 0 0 -1 182.463 159.187)" fill="#5F6CA0"/>
<circle r="2.71251" transform="matrix(1 0 0 -1 198.738 159.187)" fill="#5F6CA0"/>
<circle r="2.71251" transform="matrix(1 0 0 -1 215.014 159.187)" fill="#5F6CA0"/>
<circle r="2.71251" transform="matrix(1 0 0 -1 231.288 159.187)" fill="#5F6CA0"/>
<circle r="2.71251" transform="matrix(1 0 0 -1 19.7125 142.913)" fill="#5F6CA0"/>
<circle r="2.71251" transform="matrix(1 0 0 -1 35.9864 142.913)" fill="#5F6CA0"/>
<circle r="2.71251" transform="matrix(1 0 0 -1 52.2633 142.913)" fill="#5F6CA0"/>
<circle r="2.71251" transform="matrix(1 0 0 -1 68.5372 142.913)" fill="#5F6CA0"/>
<circle r="2.71251" transform="matrix(1 0 0 -1 84.8136 142.913)" fill="#5F6CA0"/>
<circle r="2.71251" transform="matrix(1 0 0 -1 101.088 142.913)" fill="#5F6CA0"/>
<circle r="2.71251" transform="matrix(1 0 0 -1 117.362 142.913)" fill="#5F6CA0"/>
<circle r="2.71251" transform="matrix(1 0 0 -1 133.638 142.913)" fill="#5F6CA0"/>
<circle r="2.71251" transform="matrix(1 0 0 -1 149.913 142.913)" fill="#5F6CA0"/>
<circle r="2.71251" transform="matrix(1 0 0 -1 166.188 142.913)" fill="#5F6CA0"/>
<circle r="2.71251" transform="matrix(1 0 0 -1 182.463 142.913)" fill="#5F6CA0"/>
<circle r="2.71251" transform="matrix(1 0 0 -1 198.738 142.913)" fill="#5F6CA0"/>
<circle r="2.71251" transform="matrix(1 0 0 -1 215.014 142.913)" fill="#5F6CA0"/>
<circle r="2.71251" transform="matrix(1 0 0 -1 231.288 142.913)" fill="#5F6CA0"/>
<circle r="2.71251" transform="matrix(1 0 0 -1 19.7125 126.638)" fill="#5F6CA0"/>
<circle r="2.71251" transform="matrix(1 0 0 -1 35.9864 126.638)" fill="#5F6CA0"/>
<circle r="2.71251" transform="matrix(1 0 0 -1 52.2633 126.638)" fill="#5F6CA0"/>
<circle r="2.71251" transform="matrix(1 0 0 -1 68.5372 126.638)" fill="#5F6CA0"/>
<circle r="2.71251" transform="matrix(1 0 0 -1 84.8136 126.638)" fill="#5F6CA0"/>
<circle r="2.71251" transform="matrix(1 0 0 -1 101.088 126.638)" fill="#5F6CA0"/>
<circle r="2.71251" transform="matrix(1 0 0 -1 117.362 126.638)" fill="#5F6CA0"/>
<circle r="2.71251" transform="matrix(1 0 0 -1 133.638 126.638)" fill="#5F6CA0"/>
<circle r="2.71251" transform="matrix(1 0 0 -1 149.913 126.638)" fill="#5F6CA0"/>
<circle r="2.71251" transform="matrix(1 0 0 -1 166.188 126.638)" fill="#5F6CA0"/>
<circle r="2.71251" transform="matrix(1 0 0 -1 182.463 126.638)" fill="#5F6CA0"/>
<circle r="2.71251" transform="matrix(1 0 0 -1 198.738 126.638)" fill="#5F6CA0"/>
<circle r="2.71251" transform="matrix(1 0 0 -1 215.014 126.638)" fill="#5F6CA0"/>
<circle r="2.71251" transform="matrix(1 0 0 -1 231.288 126.638)" fill="#5F6CA0"/>
<circle r="2.71251" transform="matrix(1 0 0 -1 19.7125 110.363)" fill="#5F6CA0"/>
<circle r="2.71251" transform="matrix(1 0 0 -1 35.9864 110.363)" fill="#5F6CA0"/>
<circle r="2.71251" transform="matrix(1 0 0 -1 52.2633 110.363)" fill="#5F6CA0"/>
<circle r="2.71251" transform="matrix(1 0 0 -1 68.5372 110.363)" fill="#5F6CA0"/>
<circle r="2.71251" transform="matrix(1 0 0 -1 84.8136 110.363)" fill="#5F6CA0"/>
<circle r="2.71251" transform="matrix(1 0 0 -1 101.088 110.363)" fill="#5F6CA0"/>
<circle r="2.71251" transform="matrix(1 0 0 -1 117.362 110.363)" fill="#5F6CA0"/>
<circle r="2.71251" transform="matrix(1 0 0 -1 133.638 110.363)" fill="#5F6CA0"/>
<circle r="2.71251" transform="matrix(1 0 0 -1 149.913 110.363)" fill="#5F6CA0"/>
<circle r="2.71251" transform="matrix(1 0 0 -1 166.188 110.363)" fill="#5F6CA0"/>
<circle r="2.71251" transform="matrix(1 0 0 -1 182.463 110.363)" fill="#5F6CA0"/>
<circle r="2.71251" transform="matrix(1 0 0 -1 198.738 110.363)" fill="#5F6CA0"/>
<circle r="2.71251" transform="matrix(1 0 0 -1 215.014 110.363)" fill="#5F6CA0"/>
<circle r="2.71251" transform="matrix(1 0 0 -1 231.288 110.363)" fill="#5F6CA0"/>
<circle r="2.71251" transform="matrix(1 0 0 -1 19.7125 94.0873)" fill="#5F6CA0"/>
<circle r="2.71251" transform="matrix(1 0 0 -1 35.9864 94.0873)" fill="#5F6CA0"/>
<circle r="2.71251" transform="matrix(1 0 0 -1 52.2633 94.0873)" fill="#5F6CA0"/>
<circle r="2.71251" transform="matrix(1 0 0 -1 68.5372 94.0873)" fill="#5F6CA0"/>
<circle r="2.71251" transform="matrix(1 0 0 -1 84.8136 94.0873)" fill="#5F6CA0"/>
<circle r="2.71251" transform="matrix(1 0 0 -1 101.088 94.0873)" fill="#5F6CA0"/>
<circle r="2.71251" transform="matrix(1 0 0 -1 117.362 94.0873)" fill="#5F6CA0"/>
<circle r="2.71251" transform="matrix(1 0 0 -1 133.638 94.0873)" fill="#5F6CA0"/>
<circle r="2.71251" transform="matrix(1 0 0 -1 149.913 94.0873)" fill="#5F6CA0"/>
<circle r="2.71251" transform="matrix(1 0 0 -1 166.188 94.0873)" fill="#5F6CA0"/>
<circle r="2.71251" transform="matrix(1 0 0 -1 182.463 94.0873)" fill="#5F6CA0"/>
<circle r="2.71251" transform="matrix(1 0 0 -1 198.738 94.0873)" fill="#5F6CA0"/>
<circle r="2.71251" transform="matrix(1 0 0 -1 215.014 94.0873)" fill="#5F6CA0"/>
<circle r="2.71251" transform="matrix(1 0 0 -1 231.288 94.0873)" fill="#5F6CA0"/>
<circle r="2.71251" transform="matrix(1 0 0 -1 19.7125 77.8126)" fill="#5F6CA0"/>
<circle r="2.71251" transform="matrix(1 0 0 -1 35.9864 77.8126)" fill="#5F6CA0"/>
<circle r="2.71251" transform="matrix(1 0 0 -1 52.2633 77.8126)" fill="#5F6CA0"/>
<circle r="2.71251" transform="matrix(1 0 0 -1 68.5372 77.8126)" fill="#5F6CA0"/>
<circle r="2.71251" transform="matrix(1 0 0 -1 84.8136 77.8126)" fill="#5F6CA0"/>
<circle r="2.71251" transform="matrix(1 0 0 -1 101.088 77.8126)" fill="#5F6CA0"/>
<circle r="2.71251" transform="matrix(1 0 0 -1 117.362 77.8126)" fill="#5F6CA0"/>
<circle r="2.71251" transform="matrix(1 0 0 -1 133.638 77.8126)" fill="#5F6CA0"/>
<circle r="2.71251" transform="matrix(1 0 0 -1 149.913 77.8126)" fill="#5F6CA0"/>
<circle r="2.71251" transform="matrix(1 0 0 -1 166.188 77.8126)" fill="#5F6CA0"/>
<circle r="2.71251" transform="matrix(1 0 0 -1 182.463 77.8126)" fill="#5F6CA0"/>
<circle r="2.71251" transform="matrix(1 0 0 -1 198.738 77.8126)" fill="#5F6CA0"/>
<circle r="2.71251" transform="matrix(1 0 0 -1 215.014 77.8126)" fill="#5F6CA0"/>
<circle r="2.71251" transform="matrix(1 0 0 -1 231.288 77.8126)" fill="#5F6CA0"/>
<circle r="2.71251" transform="matrix(1 0 0 -1 19.7125 61.5372)" fill="#5F6CA0"/>
<circle r="2.71251" transform="matrix(1 0 0 -1 35.9864 61.5372)" fill="#5F6CA0"/>
<circle r="2.71251" transform="matrix(1 0 0 -1 52.2633 61.5372)" fill="#5F6CA0"/>
<circle r="2.71251" transform="matrix(1 0 0 -1 68.5372 61.5372)" fill="#5F6CA0"/>
<circle r="2.71251" transform="matrix(1 0 0 -1 84.8136 61.5372)" fill="#5F6CA0"/>
<circle r="2.71251" transform="matrix(1 0 0 -1 101.088 61.5372)" fill="#5F6CA0"/>
<circle r="2.71251" transform="matrix(1 0 0 -1 117.362 61.5372)" fill="#5F6CA0"/>
<circle r="2.71251" transform="matrix(1 0 0 -1 133.638 61.5372)" fill="#5F6CA0"/>
<circle r="2.71251" transform="matrix(1 0 0 -1 149.913 61.5372)" fill="#5F6CA0"/>
<circle r="2.71251" transform="matrix(1 0 0 -1 166.188 61.5372)" fill="#5F6CA0"/>
<circle r="2.71251" transform="matrix(1 0 0 -1 182.463 61.5372)" fill="#5F6CA0"/>
<circle r="2.71251" transform="matrix(1 0 0 -1 198.738 61.5372)" fill="#5F6CA0"/>
<circle r="2.71251" transform="matrix(1 0 0 -1 215.014 61.5372)" fill="#5F6CA0"/>
<circle r="2.71251" transform="matrix(1 0 0 -1 231.288 61.5372)" fill="#5F6CA0"/>
<circle r="2.71251" transform="matrix(1 0 0 -1 19.7125 45.2626)" fill="#5F6CA0"/>
<circle r="2.71251" transform="matrix(1 0 0 -1 35.9864 45.2626)" fill="#5F6CA0"/>
<circle r="2.71251" transform="matrix(1 0 0 -1 52.2633 45.2626)" fill="#5F6CA0"/>
<circle r="2.71251" transform="matrix(1 0 0 -1 68.5372 45.2626)" fill="#5F6CA0"/>
<circle r="2.71251" transform="matrix(1 0 0 -1 84.8136 45.2626)" fill="#5F6CA0"/>
<circle r="2.71251" transform="matrix(1 0 0 -1 101.088 45.2626)" fill="#5F6CA0"/>
<circle r="2.71251" transform="matrix(1 0 0 -1 117.362 45.2626)" fill="#5F6CA0"/>
<circle r="2.71251" transform="matrix(1 0 0 -1 133.638 45.2626)" fill="#5F6CA0"/>
<circle r="2.71251" transform="matrix(1 0 0 -1 149.913 45.2626)" fill="#5F6CA0"/>
<circle r="2.71251" transform="matrix(1 0 0 -1 166.188 45.2626)" fill="#5F6CA0"/>
<circle r="2.71251" transform="matrix(1 0 0 -1 182.463 45.2626)" fill="#5F6CA0"/>
<circle r="2.71251" transform="matrix(1 0 0 -1 198.738 45.2626)" fill="#5F6CA0"/>
<circle r="2.71251" transform="matrix(1 0 0 -1 215.014 45.2626)" fill="#5F6CA0"/>
<circle r="2.71251" transform="matrix(1 0 0 -1 231.288 45.2626)" fill="#5F6CA0"/>
<circle r="2.71251" transform="matrix(1 0 0 -1 19.7125 28.9872)" fill="#5F6CA0"/>
<circle r="2.71251" transform="matrix(1 0 0 -1 35.9864 28.9872)" fill="#5F6CA0"/>
<circle r="2.71251" transform="matrix(1 0 0 -1 52.2633 28.9872)" fill="#5F6CA0"/>
<circle r="2.71251" transform="matrix(1 0 0 -1 68.5372 28.9872)" fill="#5F6CA0"/>
<circle r="2.71251" transform="matrix(1 0 0 -1 84.8136 28.9872)" fill="#5F6CA0"/>
<circle r="2.71251" transform="matrix(1 0 0 -1 101.088 28.9872)" fill="#5F6CA0"/>
<circle r="2.71251" transform="matrix(1 0 0 -1 117.362 28.9872)" fill="#5F6CA0"/>
<circle r="2.71251" transform="matrix(1 0 0 -1 133.638 28.9872)" fill="#5F6CA0"/>
<circle r="2.71251" transform="matrix(1 0 0 -1 149.913 28.9872)" fill="#5F6CA0"/>
<circle r="2.71251" transform="matrix(1 0 0 -1 166.188 28.9872)" fill="#5F6CA0"/>
<circle r="2.71251" transform="matrix(1 0 0 -1 182.463 28.9872)" fill="#5F6CA0"/>
<circle r="2.71251" transform="matrix(1 0 0 -1 198.738 28.9872)" fill="#5F6CA0"/>
<circle r="2.71251" transform="matrix(1 0 0 -1 215.014 28.9872)" fill="#5F6CA0"/>
<circle r="2.71251" transform="matrix(1 0 0 -1 231.288 28.9872)" fill="#5F6CA0"/>
<circle r="2.71251" transform="matrix(1 0 0 -1 19.7125 12.7125)" fill="#5F6CA0"/>
<circle r="2.71251" transform="matrix(1 0 0 -1 35.9864 12.7125)" fill="#5F6CA0"/>
<circle r="2.71251" transform="matrix(1 0 0 -1 52.2633 12.7125)" fill="#5F6CA0"/>
<circle r="2.71251" transform="matrix(1 0 0 -1 68.5372 12.7125)" fill="#5F6CA0"/>
<circle r="2.71251" transform="matrix(1 0 0 -1 84.8136 12.7125)" fill="#5F6CA0"/>
<circle r="2.71251" transform="matrix(1 0 0 -1 101.088 12.7125)" fill="#5F6CA0"/>
<circle r="2.71251" transform="matrix(1 0 0 -1 117.362 12.7125)" fill="#5F6CA0"/>
<circle r="2.71251" transform="matrix(1 0 0 -1 133.638 12.7125)" fill="#5F6CA0"/>
<circle r="2.71251" transform="matrix(1 0 0 -1 149.913 12.7125)" fill="#5F6CA0"/>
<circle r="2.71251" transform="matrix(1 0 0 -1 166.188 12.7125)" fill="#5F6CA0"/>
<circle r="2.71251" transform="matrix(1 0 0 -1 182.463 12.7125)" fill="#5F6CA0"/>
<circle r="2.71251" transform="matrix(1 0 0 -1 198.738 12.7125)" fill="#5F6CA0"/>
<circle r="2.71251" transform="matrix(1 0 0 -1 215.014 12.7125)" fill="#5F6CA0"/>
<circle r="2.71251" transform="matrix(1 0 0 -1 231.288 12.7125)" fill="#5F6CA0"/>
</svg>
