<svg width="252" height="259" viewBox="0 0 252 259" fill="none" xmlns="http://www.w3.org/2000/svg">
<rect width="250" height="259" rx="15" fill="#33CA7F"/>
<path d="M0 201.656H251.077V244C251.077 252.284 244.361 259 236.077 259H15C6.71571 259 0 252.284 0 244V201.656Z" fill="white"/>
<path d="M91.376 220.064C91.376 220.608 91.184 221.056 90.8 221.424C90.432 221.776 89.984 221.952 89.472 221.952C88.96 221.952 88.512 221.776 88.128 221.424C87.76 221.072 87.568 220.624 87.568 220.064V212.976H85.184V220.064C85.184 221.28 85.6 222.272 86.448 223.024C87.296 223.776 88.304 224.16 89.472 224.16C90.64 224.16 91.648 223.776 92.48 223.024C93.312 222.272 93.728 221.28 93.728 220.064V212.976H91.376V220.064ZM98.5543 224V219.6H102.154V217.552H98.5543V215.04H103.098V212.976H96.2023V224H98.5543ZM112.926 218.512C112.926 219.424 112.606 220.208 111.966 220.864C111.342 221.52 110.574 221.84 109.662 221.84C108.75 221.84 107.982 221.52 107.358 220.88C106.734 220.224 106.414 219.44 106.414 218.512C106.414 217.584 106.734 216.8 107.358 216.144C107.982 215.488 108.75 215.168 109.662 215.168C110.574 215.168 111.342 215.488 111.966 216.144C112.606 216.8 112.926 217.584 112.926 218.512ZM104.078 218.512C104.078 220.064 104.622 221.408 105.694 222.512C106.782 223.616 108.11 224.16 109.662 224.16C111.214 224.16 112.542 223.616 113.63 222.512C114.718 221.408 115.262 220.064 115.262 218.512C115.262 216.944 114.718 215.616 113.63 214.512C112.558 213.408 111.23 212.848 109.662 212.848C108.11 212.848 106.782 213.408 105.694 214.512C104.622 215.616 104.078 216.944 104.078 218.512ZM130.276 214.656C129.3 213.52 127.796 212.848 126.132 212.848C124.548 212.848 123.22 213.408 122.116 214.512C121.028 215.616 120.484 216.944 120.484 218.512C120.484 220.064 121.028 221.408 122.116 222.512C123.22 223.616 124.548 224.16 126.132 224.16C127.78 224.16 129.092 223.664 130.052 222.688C131.028 221.696 131.508 220.208 131.508 218.208H125.844V220.112H128.804C128.788 220.672 128.5 221.12 127.94 221.488C127.38 221.84 126.772 222.016 126.132 222.016C125.22 222.016 124.436 221.68 123.796 220.992C123.156 220.304 122.836 219.472 122.836 218.512C122.836 217.552 123.156 216.736 123.78 216.048C124.42 215.36 125.204 215.024 126.132 215.024C127.076 215.024 127.892 215.392 128.548 216.144L130.276 214.656ZM135.17 221.392C135.17 219.408 135.794 218.416 137.026 218.416C137.474 218.416 137.858 218.496 138.162 218.64L138.562 216.64C138.194 216.464 137.778 216.368 137.282 216.368C136.434 216.368 135.538 217.04 135.17 218.336V216.528H132.946V224H135.17V221.392ZM144.835 221.536C144.467 222 143.923 222.24 143.203 222.24C142.323 222.24 141.475 221.808 141.363 220.992H146.835C146.851 220.736 146.867 220.512 146.867 220.304C146.867 219.136 146.499 218.192 145.763 217.472C145.043 216.736 144.131 216.368 143.043 216.368C141.939 216.368 141.011 216.72 140.259 217.44C139.507 218.16 139.139 219.088 139.139 220.24C139.139 221.392 139.507 222.336 140.259 223.072C141.011 223.792 141.939 224.16 143.043 224.16C144.627 224.16 145.763 223.648 146.451 222.64L144.835 221.536ZM141.395 219.6C141.747 217.888 144.403 217.904 144.627 219.6H141.395ZM153.631 221.536C153.263 222 152.719 222.24 151.999 222.24C151.119 222.24 150.271 221.808 150.159 220.992H155.631C155.647 220.736 155.663 220.512 155.663 220.304C155.663 219.136 155.295 218.192 154.559 217.472C153.839 216.736 152.927 216.368 151.839 216.368C150.735 216.368 149.807 216.72 149.055 217.44C148.303 218.16 147.935 219.088 147.935 220.24C147.935 221.392 148.303 222.336 149.055 223.072C149.807 223.792 150.735 224.16 151.839 224.16C153.423 224.16 154.559 223.648 155.247 222.64L153.631 221.536ZM150.191 219.6C150.543 217.888 153.199 217.904 153.423 219.6H150.191ZM159.404 220.048C159.404 219.04 159.868 218.528 160.78 218.528C161.564 218.528 162.076 219.056 162.076 220.016V224H164.3V219.536C164.3 217.44 163.292 216.368 161.564 216.368C160.684 216.368 159.804 216.864 159.404 217.616V216.528H157.18V224H159.404V220.048Z" fill="#202538"/>
<path opacity="0.6" d="M97.26 247H98.548L99.262 244.676H100.872L100.172 247H101.474L102.188 244.676H103.728L104.078 243.43H102.538L103.238 241.036H104.792L105.128 239.79H103.588L104.302 237.354H102.986L102.272 239.79H100.676L101.376 237.354H100.046L99.346 239.79H97.82L97.484 241.036H98.982L98.296 243.43H96.77L96.434 244.676H97.96L97.26 247ZM99.612 243.43L100.312 241.036H101.922L101.208 243.43H99.612ZM110.625 242.072C111.367 241.722 111.815 241.022 111.815 240.21C111.829 238.684 110.653 237.718 109.043 237.718C107.909 237.718 106.957 238.236 106.369 239.02L107.335 240.014C107.685 239.524 108.301 239.216 108.903 239.216C109.645 239.216 110.149 239.636 110.177 240.266C110.205 240.98 109.603 241.526 108.623 241.526H107.979V242.8H108.875C109.883 242.8 110.597 243.402 110.597 244.27C110.597 245.082 109.883 245.642 108.875 245.642C108.161 245.642 107.559 245.236 107.125 244.55L105.949 245.404C106.565 246.51 107.629 247.126 108.945 247.126C110.877 247.126 112.235 246.006 112.235 244.326C112.235 243.248 111.591 242.408 110.625 242.072ZM117.98 242.072C118.722 241.722 119.17 241.022 119.17 240.21C119.184 238.684 118.008 237.718 116.398 237.718C115.264 237.718 114.312 238.236 113.724 239.02L114.69 240.014C115.04 239.524 115.656 239.216 116.258 239.216C117 239.216 117.504 239.636 117.532 240.266C117.56 240.98 116.958 241.526 115.978 241.526H115.334V242.8H116.23C117.238 242.8 117.952 243.402 117.952 244.27C117.952 245.082 117.238 245.642 116.23 245.642C115.516 245.642 114.914 245.236 114.48 244.55L113.304 245.404C113.92 246.51 114.984 247.126 116.3 247.126C118.232 247.126 119.59 246.006 119.59 244.326C119.59 243.248 118.946 242.408 117.98 242.072ZM125.784 247.126C127.366 247.126 128.752 246.398 129.62 245.25L128.332 244.284C127.744 245.04 126.876 245.53 125.826 245.53C123.964 245.53 122.606 244.032 122.606 242.184C122.606 240.336 123.992 238.838 125.826 238.838C126.876 238.838 127.744 239.328 128.332 240.098L129.62 239.118C128.752 237.984 127.366 237.242 125.784 237.242C123.068 237.242 120.884 239.454 120.884 242.184C120.884 244.914 123.068 247.126 125.784 247.126ZM137.254 247H139.06L135.448 237.354H133.6L129.974 247H131.794L132.634 244.634H136.414L137.254 247ZM133.152 243.15L134.524 239.258L135.896 243.15H133.152ZM139.614 237.83V239.356H143.576L139.796 247H141.686L146.11 237.984V237.83H139.614ZM153.314 238.88V237.354H147.462V247H149.17V243.024H152.446V241.498H149.17V238.88H153.314Z" fill="#202538"/>
<circle r="2.71251" transform="matrix(1 0 0 -1 19.712 191.738)" fill="#36D988"/>
<circle r="2.71251" transform="matrix(1 0 0 -1 35.9859 191.738)" fill="#36D988"/>
<circle r="2.71251" transform="matrix(1 0 0 -1 52.2628 191.738)" fill="#36D988"/>
<circle r="2.71251" transform="matrix(1 0 0 -1 68.5367 191.738)" fill="#36D988"/>
<circle r="2.71251" transform="matrix(1 0 0 -1 84.8131 191.738)" fill="#36D988"/>
<circle r="2.71251" transform="matrix(1 0 0 -1 101.088 191.738)" fill="#36D988"/>
<circle r="2.71251" transform="matrix(1 0 0 -1 117.361 191.738)" fill="#36D988"/>
<circle r="2.71251" transform="matrix(1 0 0 -1 133.638 191.738)" fill="#36D988"/>
<circle r="2.71251" transform="matrix(1 0 0 -1 149.912 191.738)" fill="#36D988"/>
<circle r="2.71251" transform="matrix(1 0 0 -1 166.188 191.738)" fill="#36D988"/>
<circle r="2.71251" transform="matrix(1 0 0 -1 182.463 191.738)" fill="#36D988"/>
<circle r="2.71251" transform="matrix(1 0 0 -1 198.738 191.738)" fill="#36D988"/>
<circle r="2.71251" transform="matrix(1 0 0 -1 215.013 191.738)" fill="#36D988"/>
<circle r="2.71251" transform="matrix(1 0 0 -1 231.287 191.738)" fill="#36D988"/>
<circle r="2.71251" transform="matrix(1 0 0 -1 19.712 175.463)" fill="#36D988"/>
<circle r="2.71251" transform="matrix(1 0 0 -1 35.9859 175.463)" fill="#36D988"/>
<circle r="2.71251" transform="matrix(1 0 0 -1 52.2628 175.463)" fill="#36D988"/>
<circle r="2.71251" transform="matrix(1 0 0 -1 68.5367 175.463)" fill="#36D988"/>
<circle r="2.71251" transform="matrix(1 0 0 -1 84.8131 175.463)" fill="#36D988"/>
<circle r="2.71251" transform="matrix(1 0 0 -1 101.088 175.463)" fill="#36D988"/>
<circle r="2.71251" transform="matrix(1 0 0 -1 117.361 175.463)" fill="#36D988"/>
<circle r="2.71251" transform="matrix(1 0 0 -1 133.638 175.463)" fill="#36D988"/>
<circle r="2.71251" transform="matrix(1 0 0 -1 149.912 175.463)" fill="#36D988"/>
<circle r="2.71251" transform="matrix(1 0 0 -1 166.188 175.463)" fill="#36D988"/>
<circle r="2.71251" transform="matrix(1 0 0 -1 182.463 175.463)" fill="#36D988"/>
<circle r="2.71251" transform="matrix(1 0 0 -1 198.738 175.463)" fill="#36D988"/>
<circle r="2.71251" transform="matrix(1 0 0 -1 215.013 175.463)" fill="#36D988"/>
<circle r="2.71251" transform="matrix(1 0 0 -1 231.287 175.463)" fill="#36D988"/>
<circle r="2.71251" transform="matrix(1 0 0 -1 19.712 159.187)" fill="#36D988"/>
<circle r="2.71251" transform="matrix(1 0 0 -1 35.9859 159.187)" fill="#36D988"/>
<circle r="2.71251" transform="matrix(1 0 0 -1 52.2628 159.187)" fill="#36D988"/>
<circle r="2.71251" transform="matrix(1 0 0 -1 68.5367 159.187)" fill="#36D988"/>
<circle r="2.71251" transform="matrix(1 0 0 -1 84.8131 159.187)" fill="#36D988"/>
<circle r="2.71251" transform="matrix(1 0 0 -1 101.088 159.187)" fill="#36D988"/>
<circle r="2.71251" transform="matrix(1 0 0 -1 117.361 159.187)" fill="#36D988"/>
<circle r="2.71251" transform="matrix(1 0 0 -1 133.638 159.187)" fill="#36D988"/>
<circle r="2.71251" transform="matrix(1 0 0 -1 149.912 159.187)" fill="#36D988"/>
<circle r="2.71251" transform="matrix(1 0 0 -1 166.188 159.187)" fill="#36D988"/>
<circle r="2.71251" transform="matrix(1 0 0 -1 182.463 159.187)" fill="#36D988"/>
<circle r="2.71251" transform="matrix(1 0 0 -1 198.738 159.187)" fill="#36D988"/>
<circle r="2.71251" transform="matrix(1 0 0 -1 215.013 159.187)" fill="#36D988"/>
<circle r="2.71251" transform="matrix(1 0 0 -1 231.287 159.187)" fill="#36D988"/>
<circle r="2.71251" transform="matrix(1 0 0 -1 19.712 142.913)" fill="#36D988"/>
<circle r="2.71251" transform="matrix(1 0 0 -1 35.9859 142.913)" fill="#36D988"/>
<circle r="2.71251" transform="matrix(1 0 0 -1 52.2628 142.913)" fill="#36D988"/>
<circle r="2.71251" transform="matrix(1 0 0 -1 68.5367 142.913)" fill="#36D988"/>
<circle r="2.71251" transform="matrix(1 0 0 -1 84.8131 142.913)" fill="#36D988"/>
<circle r="2.71251" transform="matrix(1 0 0 -1 101.088 142.913)" fill="#36D988"/>
<circle r="2.71251" transform="matrix(1 0 0 -1 117.361 142.913)" fill="#36D988"/>
<circle r="2.71251" transform="matrix(1 0 0 -1 133.638 142.913)" fill="#36D988"/>
<circle r="2.71251" transform="matrix(1 0 0 -1 149.912 142.913)" fill="#36D988"/>
<circle r="2.71251" transform="matrix(1 0 0 -1 166.188 142.913)" fill="#36D988"/>
<circle r="2.71251" transform="matrix(1 0 0 -1 182.463 142.913)" fill="#36D988"/>
<circle r="2.71251" transform="matrix(1 0 0 -1 198.738 142.913)" fill="#36D988"/>
<circle r="2.71251" transform="matrix(1 0 0 -1 215.013 142.913)" fill="#36D988"/>
<circle r="2.71251" transform="matrix(1 0 0 -1 231.287 142.913)" fill="#36D988"/>
<circle r="2.71251" transform="matrix(1 0 0 -1 19.712 126.638)" fill="#36D988"/>
<circle r="2.71251" transform="matrix(1 0 0 -1 35.9859 126.638)" fill="#36D988"/>
<circle r="2.71251" transform="matrix(1 0 0 -1 52.2628 126.638)" fill="#36D988"/>
<circle r="2.71251" transform="matrix(1 0 0 -1 68.5367 126.638)" fill="#36D988"/>
<circle r="2.71251" transform="matrix(1 0 0 -1 84.8131 126.638)" fill="#36D988"/>
<circle r="2.71251" transform="matrix(1 0 0 -1 101.088 126.638)" fill="#36D988"/>
<circle r="2.71251" transform="matrix(1 0 0 -1 117.361 126.638)" fill="#36D988"/>
<circle r="2.71251" transform="matrix(1 0 0 -1 133.638 126.638)" fill="#36D988"/>
<circle r="2.71251" transform="matrix(1 0 0 -1 149.912 126.638)" fill="#36D988"/>
<circle r="2.71251" transform="matrix(1 0 0 -1 166.188 126.638)" fill="#36D988"/>
<circle r="2.71251" transform="matrix(1 0 0 -1 182.463 126.638)" fill="#36D988"/>
<circle r="2.71251" transform="matrix(1 0 0 -1 198.738 126.638)" fill="#36D988"/>
<circle r="2.71251" transform="matrix(1 0 0 -1 215.013 126.638)" fill="#36D988"/>
<circle r="2.71251" transform="matrix(1 0 0 -1 231.287 126.638)" fill="#36D988"/>
<circle r="2.71251" transform="matrix(1 0 0 -1 19.712 110.363)" fill="#36D988"/>
<circle r="2.71251" transform="matrix(1 0 0 -1 35.9859 110.363)" fill="#36D988"/>
<circle r="2.71251" transform="matrix(1 0 0 -1 52.2628 110.363)" fill="#36D988"/>
<circle r="2.71251" transform="matrix(1 0 0 -1 68.5367 110.363)" fill="#36D988"/>
<circle r="2.71251" transform="matrix(1 0 0 -1 84.8131 110.363)" fill="#36D988"/>
<circle r="2.71251" transform="matrix(1 0 0 -1 101.088 110.363)" fill="#36D988"/>
<circle r="2.71251" transform="matrix(1 0 0 -1 117.361 110.363)" fill="#36D988"/>
<circle r="2.71251" transform="matrix(1 0 0 -1 133.638 110.363)" fill="#36D988"/>
<circle r="2.71251" transform="matrix(1 0 0 -1 149.912 110.363)" fill="#36D988"/>
<circle r="2.71251" transform="matrix(1 0 0 -1 166.188 110.363)" fill="#36D988"/>
<circle r="2.71251" transform="matrix(1 0 0 -1 182.463 110.363)" fill="#36D988"/>
<circle r="2.71251" transform="matrix(1 0 0 -1 198.738 110.363)" fill="#36D988"/>
<circle r="2.71251" transform="matrix(1 0 0 -1 215.013 110.363)" fill="#36D988"/>
<circle r="2.71251" transform="matrix(1 0 0 -1 231.287 110.363)" fill="#36D988"/>
<circle r="2.71251" transform="matrix(1 0 0 -1 19.712 94.0873)" fill="#36D988"/>
<circle r="2.71251" transform="matrix(1 0 0 -1 35.9859 94.0873)" fill="#36D988"/>
<circle r="2.71251" transform="matrix(1 0 0 -1 52.2628 94.0873)" fill="#36D988"/>
<circle r="2.71251" transform="matrix(1 0 0 -1 68.5367 94.0873)" fill="#36D988"/>
<circle r="2.71251" transform="matrix(1 0 0 -1 84.8131 94.0873)" fill="#36D988"/>
<circle r="2.71251" transform="matrix(1 0 0 -1 101.088 94.0873)" fill="#36D988"/>
<circle r="2.71251" transform="matrix(1 0 0 -1 117.361 94.0873)" fill="#36D988"/>
<circle r="2.71251" transform="matrix(1 0 0 -1 133.638 94.0873)" fill="#36D988"/>
<circle r="2.71251" transform="matrix(1 0 0 -1 149.912 94.0873)" fill="#36D988"/>
<circle r="2.71251" transform="matrix(1 0 0 -1 166.188 94.0873)" fill="#36D988"/>
<circle r="2.71251" transform="matrix(1 0 0 -1 182.463 94.0873)" fill="#36D988"/>
<circle r="2.71251" transform="matrix(1 0 0 -1 198.738 94.0873)" fill="#36D988"/>
<circle r="2.71251" transform="matrix(1 0 0 -1 215.013 94.0873)" fill="#36D988"/>
<circle r="2.71251" transform="matrix(1 0 0 -1 231.287 94.0873)" fill="#36D988"/>
<circle r="2.71251" transform="matrix(1 0 0 -1 19.712 77.8126)" fill="#36D988"/>
<circle r="2.71251" transform="matrix(1 0 0 -1 35.9859 77.8126)" fill="#36D988"/>
<circle r="2.71251" transform="matrix(1 0 0 -1 52.2628 77.8126)" fill="#36D988"/>
<circle r="2.71251" transform="matrix(1 0 0 -1 68.5367 77.8126)" fill="#36D988"/>
<circle r="2.71251" transform="matrix(1 0 0 -1 84.8131 77.8126)" fill="#36D988"/>
<circle r="2.71251" transform="matrix(1 0 0 -1 101.088 77.8126)" fill="#36D988"/>
<circle r="2.71251" transform="matrix(1 0 0 -1 117.361 77.8126)" fill="#36D988"/>
<circle r="2.71251" transform="matrix(1 0 0 -1 133.638 77.8126)" fill="#36D988"/>
<circle r="2.71251" transform="matrix(1 0 0 -1 149.912 77.8126)" fill="#36D988"/>
<circle r="2.71251" transform="matrix(1 0 0 -1 166.188 77.8126)" fill="#36D988"/>
<circle r="2.71251" transform="matrix(1 0 0 -1 182.463 77.8126)" fill="#36D988"/>
<circle r="2.71251" transform="matrix(1 0 0 -1 198.738 77.8126)" fill="#36D988"/>
<circle r="2.71251" transform="matrix(1 0 0 -1 215.013 77.8126)" fill="#36D988"/>
<circle r="2.71251" transform="matrix(1 0 0 -1 231.287 77.8126)" fill="#36D988"/>
<circle r="2.71251" transform="matrix(1 0 0 -1 19.712 61.5372)" fill="#36D988"/>
<circle r="2.71251" transform="matrix(1 0 0 -1 35.9859 61.5372)" fill="#36D988"/>
<circle r="2.71251" transform="matrix(1 0 0 -1 52.2628 61.5372)" fill="#36D988"/>
<circle r="2.71251" transform="matrix(1 0 0 -1 68.5367 61.5372)" fill="#36D988"/>
<circle r="2.71251" transform="matrix(1 0 0 -1 84.8131 61.5372)" fill="#36D988"/>
<circle r="2.71251" transform="matrix(1 0 0 -1 101.088 61.5372)" fill="#36D988"/>
<circle r="2.71251" transform="matrix(1 0 0 -1 117.361 61.5372)" fill="#36D988"/>
<circle r="2.71251" transform="matrix(1 0 0 -1 133.638 61.5372)" fill="#36D988"/>
<circle r="2.71251" transform="matrix(1 0 0 -1 149.912 61.5372)" fill="#36D988"/>
<circle r="2.71251" transform="matrix(1 0 0 -1 166.188 61.5372)" fill="#36D988"/>
<circle r="2.71251" transform="matrix(1 0 0 -1 182.463 61.5372)" fill="#36D988"/>
<circle r="2.71251" transform="matrix(1 0 0 -1 198.738 61.5372)" fill="#36D988"/>
<circle r="2.71251" transform="matrix(1 0 0 -1 215.013 61.5372)" fill="#36D988"/>
<circle r="2.71251" transform="matrix(1 0 0 -1 231.287 61.5372)" fill="#36D988"/>
<circle r="2.71251" transform="matrix(1 0 0 -1 19.712 45.2626)" fill="#36D988"/>
<circle r="2.71251" transform="matrix(1 0 0 -1 35.9859 45.2626)" fill="#36D988"/>
<circle r="2.71251" transform="matrix(1 0 0 -1 52.2628 45.2626)" fill="#36D988"/>
<circle r="2.71251" transform="matrix(1 0 0 -1 68.5367 45.2626)" fill="#36D988"/>
<circle r="2.71251" transform="matrix(1 0 0 -1 84.8131 45.2626)" fill="#36D988"/>
<circle r="2.71251" transform="matrix(1 0 0 -1 101.088 45.2626)" fill="#36D988"/>
<circle r="2.71251" transform="matrix(1 0 0 -1 117.361 45.2626)" fill="#36D988"/>
<circle r="2.71251" transform="matrix(1 0 0 -1 133.638 45.2626)" fill="#36D988"/>
<circle r="2.71251" transform="matrix(1 0 0 -1 149.912 45.2626)" fill="#36D988"/>
<circle r="2.71251" transform="matrix(1 0 0 -1 166.188 45.2626)" fill="#36D988"/>
<circle r="2.71251" transform="matrix(1 0 0 -1 182.463 45.2626)" fill="#36D988"/>
<circle r="2.71251" transform="matrix(1 0 0 -1 198.738 45.2626)" fill="#36D988"/>
<circle r="2.71251" transform="matrix(1 0 0 -1 215.013 45.2626)" fill="#36D988"/>
<circle r="2.71251" transform="matrix(1 0 0 -1 231.287 45.2626)" fill="#36D988"/>
<circle r="2.71251" transform="matrix(1 0 0 -1 19.712 28.9872)" fill="#36D988"/>
<circle r="2.71251" transform="matrix(1 0 0 -1 35.9859 28.9872)" fill="#36D988"/>
<circle r="2.71251" transform="matrix(1 0 0 -1 52.2628 28.9872)" fill="#36D988"/>
<circle r="2.71251" transform="matrix(1 0 0 -1 68.5367 28.9872)" fill="#36D988"/>
<circle r="2.71251" transform="matrix(1 0 0 -1 84.8131 28.9872)" fill="#36D988"/>
<circle r="2.71251" transform="matrix(1 0 0 -1 101.088 28.9872)" fill="#36D988"/>
<circle r="2.71251" transform="matrix(1 0 0 -1 117.361 28.9872)" fill="#36D988"/>
<circle r="2.71251" transform="matrix(1 0 0 -1 133.638 28.9872)" fill="#36D988"/>
<circle r="2.71251" transform="matrix(1 0 0 -1 149.912 28.9872)" fill="#36D988"/>
<circle r="2.71251" transform="matrix(1 0 0 -1 166.188 28.9872)" fill="#36D988"/>
<circle r="2.71251" transform="matrix(1 0 0 -1 182.463 28.9872)" fill="#36D988"/>
<circle r="2.71251" transform="matrix(1 0 0 -1 198.738 28.9872)" fill="#36D988"/>
<circle r="2.71251" transform="matrix(1 0 0 -1 215.013 28.9872)" fill="#36D988"/>
<circle r="2.71251" transform="matrix(1 0 0 -1 231.287 28.9872)" fill="#36D988"/>
<circle r="2.71251" transform="matrix(1 0 0 -1 19.712 12.7125)" fill="#36D988"/>
<circle r="2.71251" transform="matrix(1 0 0 -1 35.9859 12.7125)" fill="#36D988"/>
<circle r="2.71251" transform="matrix(1 0 0 -1 52.2628 12.7125)" fill="#36D988"/>
<circle r="2.71251" transform="matrix(1 0 0 -1 68.5367 12.7125)" fill="#36D988"/>
<circle r="2.71251" transform="matrix(1 0 0 -1 84.8131 12.7125)" fill="#36D988"/>
<circle r="2.71251" transform="matrix(1 0 0 -1 101.088 12.7125)" fill="#36D988"/>
<circle r="2.71251" transform="matrix(1 0 0 -1 117.361 12.7125)" fill="#36D988"/>
<circle r="2.71251" transform="matrix(1 0 0 -1 133.638 12.7125)" fill="#36D988"/>
<circle r="2.71251" transform="matrix(1 0 0 -1 149.912 12.7125)" fill="#36D988"/>
<circle r="2.71251" transform="matrix(1 0 0 -1 166.188 12.7125)" fill="#36D988"/>
<circle r="2.71251" transform="matrix(1 0 0 -1 182.463 12.7125)" fill="#36D988"/>
<circle r="2.71251" transform="matrix(1 0 0 -1 198.738 12.7125)" fill="#36D988"/>
<circle r="2.71251" transform="matrix(1 0 0 -1 215.013 12.7125)" fill="#36D988"/>
<circle r="2.71251" transform="matrix(1 0 0 -1 231.287 12.7125)" fill="#36D988"/>
</svg>
