<svg width="252" height="259" viewBox="0 0 252 259" fill="none" xmlns="http://www.w3.org/2000/svg">
<rect width="250" height="259" rx="15" fill="#F7F7F7"/>
<path d="M0 201.656H251.077V244C251.077 252.284 244.361 259 236.077 259H15C6.71571 259 0 252.284 0 244V201.656Z" fill="white"/>
<path d="M85.048 214.528H83.128L81.656 219.92L79.512 212.976H76.984L80.696 224H82.552L84.072 218.208L85.624 224H87.464L91.208 212.976H88.664L86.504 219.92L85.048 214.528ZM94.4199 220.048C94.4199 219.008 95.0919 218.528 95.9079 218.528C96.6279 218.528 97.2839 219.104 97.2839 220.016V224H99.5079V219.936C99.5079 217.648 98.4519 216.368 96.5159 216.368C96.1159 216.368 95.6999 216.48 95.2679 216.72C94.8359 216.944 94.5639 217.264 94.4199 217.696V212.464H92.1959V224H94.4199V220.048ZM101.462 216.528V224H103.67V216.528H101.462ZM102.566 212.464C101.798 212.464 101.174 213.04 101.174 213.76C101.174 214.48 101.798 215.072 102.566 215.072C103.318 215.072 103.926 214.48 103.926 213.76C103.926 213.04 103.318 212.464 102.566 212.464ZM108.624 213.664H106.416V216.528H105.056V218.288H106.416V224H108.624V218.288H110.192V216.528H108.624V213.664ZM116.694 221.536C116.326 222 115.782 222.24 115.062 222.24C114.182 222.24 113.334 221.808 113.222 220.992H118.694C118.71 220.736 118.726 220.512 118.726 220.304C118.726 219.136 118.358 218.192 117.622 217.472C116.902 216.736 115.99 216.368 114.902 216.368C113.798 216.368 112.87 216.72 112.118 217.44C111.366 218.16 110.998 219.088 110.998 220.24C110.998 221.392 111.366 222.336 112.118 223.072C112.87 223.792 113.798 224.16 114.902 224.16C116.486 224.16 117.622 223.648 118.31 222.64L116.694 221.536ZM113.254 219.6C113.606 217.888 116.262 217.904 116.486 219.6H113.254ZM123.829 220.768C123.829 221.776 124.197 222.592 124.933 223.232C125.669 223.856 126.629 224.176 127.829 224.176C129.189 224.176 130.405 223.76 131.189 222.752C131.589 222.24 131.781 221.632 131.797 220.944C131.845 219.328 130.837 218.208 128.773 217.616L127.461 217.2C126.677 216.976 126.277 216.608 126.277 216.08C126.277 215.44 126.869 214.976 127.701 214.976C128.613 214.976 129.125 215.472 129.125 216.224H131.461C131.461 215.184 131.109 214.368 130.405 213.76C129.717 213.152 128.821 212.848 127.733 212.848C126.661 212.848 125.749 213.152 125.029 213.776C124.309 214.384 123.941 215.168 123.941 216.144C123.941 217.664 124.885 218.72 126.789 219.312L128.117 219.68C129.157 219.984 129.461 220.368 129.445 220.928C129.429 221.632 128.789 222.096 127.829 222.096C126.821 222.096 126.229 221.52 126.181 220.768H123.829ZM141.624 218.528C142.328 218.528 142.856 219.072 142.856 220.016V224H145.064V219.76C145.064 217.536 143.992 216.368 142.184 216.368C141.24 216.368 140.488 216.816 139.944 217.696C139.528 216.816 138.728 216.384 137.544 216.384C136.712 216.384 135.928 216.848 135.592 217.616V216.528H133.368V224H135.592V220.048C135.592 218.976 136.136 218.528 136.888 218.528C137.576 218.528 138.104 219.072 138.12 219.968V224H140.344V220.048C140.344 219.024 140.856 218.528 141.624 218.528ZM150.448 221.952C149.504 221.952 148.768 221.264 148.768 220.24C148.768 219.264 149.504 218.544 150.448 218.544C151.392 218.544 152.144 219.264 152.144 220.24C152.144 221.264 151.408 221.952 150.448 221.952ZM153.2 223.056C153.952 222.336 154.336 221.392 154.336 220.24C154.336 219.088 153.952 218.16 153.2 217.44C152.448 216.72 151.536 216.368 150.448 216.368C149.36 216.368 148.448 216.72 147.696 217.44C146.944 218.16 146.576 219.088 146.576 220.24C146.576 221.392 146.944 222.336 147.696 223.056C148.448 223.776 149.36 224.128 150.448 224.128C151.536 224.128 152.448 223.776 153.2 223.056ZM160.634 224H163.37L159.642 219.824L162.746 216.528H159.914L158.138 218.576V212.464H155.93V224H158.138V221.04L160.634 224ZM169.116 221.536C168.748 222 168.204 222.24 167.484 222.24C166.604 222.24 165.756 221.808 165.644 220.992H171.116C171.132 220.736 171.148 220.512 171.148 220.304C171.148 219.136 170.78 218.192 170.044 217.472C169.324 216.736 168.412 216.368 167.324 216.368C166.22 216.368 165.292 216.72 164.54 217.44C163.788 218.16 163.42 219.088 163.42 220.24C163.42 221.392 163.788 222.336 164.54 223.072C165.292 223.792 166.22 224.16 167.324 224.16C168.908 224.16 170.044 223.648 170.732 222.64L169.116 221.536ZM165.676 219.6C166.028 217.888 168.684 217.904 168.908 219.6H165.676Z" fill="#202538"/>
<path opacity="0.6" d="M98.26 247H99.548L100.262 244.676H101.872L101.172 247H102.474L103.188 244.676H104.728L105.078 243.43H103.538L104.238 241.036H105.792L106.128 239.79H104.588L105.302 237.354H103.986L103.272 239.79H101.676L102.376 237.354H101.046L100.346 239.79H98.82L98.484 241.036H99.982L99.296 243.43H97.77L97.434 244.676H98.96L98.26 247ZM100.612 243.43L101.312 241.036H102.922L102.208 243.43H100.612ZM110.603 237.718C108.573 237.718 107.271 239.09 107.271 240.784C107.271 242.38 108.517 243.752 110.379 243.752C111.303 243.752 111.989 243.388 112.437 242.856C112.409 244.438 111.499 245.628 110.267 245.628C109.651 245.628 109.035 245.32 108.727 244.606L107.369 245.306C107.957 246.636 109.133 247.14 110.267 247.14C112.955 247.14 114.117 244.648 114.117 242.142C114.117 239.552 112.787 237.718 110.603 237.718ZM110.533 242.338C109.595 242.31 108.909 241.666 108.909 240.798C108.909 239.902 109.637 239.244 110.631 239.244C111.611 239.258 112.325 239.93 112.325 240.84C112.297 241.708 111.541 242.338 110.533 242.338ZM121.282 241.848C122.262 241.498 122.542 240.588 122.542 239.832C122.542 238.362 121.478 237.354 119.798 237.354H116.046V247H120.092C122.094 247 123.06 245.614 123.06 244.256C123.06 243.192 122.458 242.086 121.282 241.848ZM119.728 238.88C120.47 238.88 120.834 239.398 120.834 240.07C120.834 240.77 120.442 241.246 119.728 241.246H117.754V238.88H119.728ZM119.826 245.474H117.754V242.688H119.868C120.89 242.688 121.338 243.402 121.338 244.088C121.338 244.816 120.82 245.474 119.826 245.474ZM127.747 237.718C125.717 237.718 124.415 239.09 124.415 240.784C124.415 242.38 125.661 243.752 127.523 243.752C128.447 243.752 129.133 243.388 129.581 242.856C129.553 244.438 128.643 245.628 127.411 245.628C126.795 245.628 126.179 245.32 125.871 244.606L124.513 245.306C125.101 246.636 126.277 247.14 127.411 247.14C130.099 247.14 131.261 244.648 131.261 242.142C131.261 239.552 129.931 237.718 127.747 237.718ZM127.677 242.338C126.739 242.31 126.053 241.666 126.053 240.798C126.053 239.902 126.781 239.244 127.775 239.244C128.755 239.258 129.469 239.93 129.469 240.84C129.441 241.708 128.685 242.338 127.677 242.338ZM139.043 238.88V237.354H133.191V247H134.899V243.024H138.175V241.498H134.899V238.88H139.043ZM146.019 247H147.825L144.213 237.354H142.365L138.739 247H140.559L141.399 244.634H145.179L146.019 247ZM141.917 243.15L143.289 239.258L144.661 243.15H141.917ZM153.699 241.792C154.273 241.498 154.707 240.854 154.707 240.042C154.707 238.684 153.517 237.718 151.921 237.718C150.325 237.718 149.135 238.684 149.135 240.042C149.135 240.854 149.569 241.498 150.143 241.792C149.121 242.142 148.407 243.094 148.407 244.27C148.407 245.978 149.933 247.14 151.921 247.14C153.909 247.14 155.435 245.978 155.435 244.256C155.435 243.094 154.721 242.128 153.699 241.792ZM151.921 239.132C152.593 239.132 153.097 239.622 153.097 240.21C153.097 240.798 152.593 241.26 151.921 241.26C151.263 241.26 150.745 240.798 150.745 240.21C150.745 239.622 151.263 239.132 151.921 239.132ZM151.921 245.656C150.871 245.656 150.087 244.998 150.087 244.116C150.087 243.206 150.885 242.534 151.921 242.534C152.943 242.534 153.741 243.206 153.741 244.116C153.741 244.998 152.999 245.656 151.921 245.656Z" fill="#202538"/>
<circle r="2.71251" transform="matrix(1 0 0 -1 19.712 191.738)" fill="white"/>
<circle r="2.71251" transform="matrix(1 0 0 -1 35.9859 191.738)" fill="white"/>
<circle r="2.71251" transform="matrix(1 0 0 -1 52.2628 191.738)" fill="white"/>
<circle r="2.71251" transform="matrix(1 0 0 -1 68.5367 191.738)" fill="white"/>
<circle r="2.71251" transform="matrix(1 0 0 -1 84.8131 191.738)" fill="white"/>
<circle r="2.71251" transform="matrix(1 0 0 -1 101.088 191.738)" fill="white"/>
<circle r="2.71251" transform="matrix(1 0 0 -1 117.361 191.738)" fill="white"/>
<circle r="2.71251" transform="matrix(1 0 0 -1 133.638 191.738)" fill="white"/>
<circle r="2.71251" transform="matrix(1 0 0 -1 149.912 191.738)" fill="white"/>
<circle r="2.71251" transform="matrix(1 0 0 -1 166.188 191.738)" fill="white"/>
<circle r="2.71251" transform="matrix(1 0 0 -1 182.463 191.738)" fill="white"/>
<circle r="2.71251" transform="matrix(1 0 0 -1 198.738 191.738)" fill="white"/>
<circle r="2.71251" transform="matrix(1 0 0 -1 215.013 191.738)" fill="white"/>
<circle r="2.71251" transform="matrix(1 0 0 -1 231.287 191.738)" fill="white"/>
<circle r="2.71251" transform="matrix(1 0 0 -1 19.712 175.463)" fill="white"/>
<circle r="2.71251" transform="matrix(1 0 0 -1 35.9859 175.463)" fill="white"/>
<circle r="2.71251" transform="matrix(1 0 0 -1 52.2628 175.463)" fill="white"/>
<circle r="2.71251" transform="matrix(1 0 0 -1 68.5367 175.463)" fill="white"/>
<circle r="2.71251" transform="matrix(1 0 0 -1 84.8131 175.463)" fill="white"/>
<circle r="2.71251" transform="matrix(1 0 0 -1 101.088 175.463)" fill="white"/>
<circle r="2.71251" transform="matrix(1 0 0 -1 117.361 175.463)" fill="white"/>
<circle r="2.71251" transform="matrix(1 0 0 -1 133.638 175.463)" fill="white"/>
<circle r="2.71251" transform="matrix(1 0 0 -1 149.912 175.463)" fill="white"/>
<circle r="2.71251" transform="matrix(1 0 0 -1 166.188 175.463)" fill="white"/>
<circle r="2.71251" transform="matrix(1 0 0 -1 182.463 175.463)" fill="white"/>
<circle r="2.71251" transform="matrix(1 0 0 -1 198.738 175.463)" fill="white"/>
<circle r="2.71251" transform="matrix(1 0 0 -1 215.013 175.463)" fill="white"/>
<circle r="2.71251" transform="matrix(1 0 0 -1 231.287 175.463)" fill="white"/>
<circle r="2.71251" transform="matrix(1 0 0 -1 19.712 159.187)" fill="white"/>
<circle r="2.71251" transform="matrix(1 0 0 -1 35.9859 159.187)" fill="white"/>
<circle r="2.71251" transform="matrix(1 0 0 -1 52.2628 159.187)" fill="white"/>
<circle r="2.71251" transform="matrix(1 0 0 -1 68.5367 159.187)" fill="white"/>
<circle r="2.71251" transform="matrix(1 0 0 -1 84.8131 159.187)" fill="white"/>
<circle r="2.71251" transform="matrix(1 0 0 -1 101.088 159.187)" fill="white"/>
<circle r="2.71251" transform="matrix(1 0 0 -1 117.361 159.187)" fill="white"/>
<circle r="2.71251" transform="matrix(1 0 0 -1 133.638 159.187)" fill="white"/>
<circle r="2.71251" transform="matrix(1 0 0 -1 149.912 159.187)" fill="white"/>
<circle r="2.71251" transform="matrix(1 0 0 -1 166.188 159.187)" fill="white"/>
<circle r="2.71251" transform="matrix(1 0 0 -1 182.463 159.187)" fill="white"/>
<circle r="2.71251" transform="matrix(1 0 0 -1 198.738 159.187)" fill="white"/>
<circle r="2.71251" transform="matrix(1 0 0 -1 215.013 159.187)" fill="white"/>
<circle r="2.71251" transform="matrix(1 0 0 -1 231.287 159.187)" fill="white"/>
<circle r="2.71251" transform="matrix(1 0 0 -1 19.712 142.913)" fill="white"/>
<circle r="2.71251" transform="matrix(1 0 0 -1 35.9859 142.913)" fill="white"/>
<circle r="2.71251" transform="matrix(1 0 0 -1 52.2628 142.913)" fill="white"/>
<circle r="2.71251" transform="matrix(1 0 0 -1 68.5367 142.913)" fill="white"/>
<circle r="2.71251" transform="matrix(1 0 0 -1 84.8131 142.913)" fill="white"/>
<circle r="2.71251" transform="matrix(1 0 0 -1 101.088 142.913)" fill="white"/>
<circle r="2.71251" transform="matrix(1 0 0 -1 117.361 142.913)" fill="white"/>
<circle r="2.71251" transform="matrix(1 0 0 -1 133.638 142.913)" fill="white"/>
<circle r="2.71251" transform="matrix(1 0 0 -1 149.912 142.913)" fill="white"/>
<circle r="2.71251" transform="matrix(1 0 0 -1 166.188 142.913)" fill="white"/>
<circle r="2.71251" transform="matrix(1 0 0 -1 182.463 142.913)" fill="white"/>
<circle r="2.71251" transform="matrix(1 0 0 -1 198.738 142.913)" fill="white"/>
<circle r="2.71251" transform="matrix(1 0 0 -1 215.013 142.913)" fill="white"/>
<circle r="2.71251" transform="matrix(1 0 0 -1 231.287 142.913)" fill="white"/>
<circle r="2.71251" transform="matrix(1 0 0 -1 19.712 126.638)" fill="white"/>
<circle r="2.71251" transform="matrix(1 0 0 -1 35.9859 126.638)" fill="white"/>
<circle r="2.71251" transform="matrix(1 0 0 -1 52.2628 126.638)" fill="white"/>
<circle r="2.71251" transform="matrix(1 0 0 -1 68.5367 126.638)" fill="white"/>
<circle r="2.71251" transform="matrix(1 0 0 -1 84.8131 126.638)" fill="white"/>
<circle r="2.71251" transform="matrix(1 0 0 -1 101.088 126.638)" fill="white"/>
<circle r="2.71251" transform="matrix(1 0 0 -1 117.361 126.638)" fill="white"/>
<circle r="2.71251" transform="matrix(1 0 0 -1 133.638 126.638)" fill="white"/>
<circle r="2.71251" transform="matrix(1 0 0 -1 149.912 126.638)" fill="white"/>
<circle r="2.71251" transform="matrix(1 0 0 -1 166.188 126.638)" fill="white"/>
<circle r="2.71251" transform="matrix(1 0 0 -1 182.463 126.638)" fill="white"/>
<circle r="2.71251" transform="matrix(1 0 0 -1 198.738 126.638)" fill="white"/>
<circle r="2.71251" transform="matrix(1 0 0 -1 215.013 126.638)" fill="white"/>
<circle r="2.71251" transform="matrix(1 0 0 -1 231.287 126.638)" fill="white"/>
<circle r="2.71251" transform="matrix(1 0 0 -1 19.712 110.363)" fill="white"/>
<circle r="2.71251" transform="matrix(1 0 0 -1 35.9859 110.363)" fill="white"/>
<circle r="2.71251" transform="matrix(1 0 0 -1 52.2628 110.363)" fill="white"/>
<circle r="2.71251" transform="matrix(1 0 0 -1 68.5367 110.363)" fill="white"/>
<circle r="2.71251" transform="matrix(1 0 0 -1 84.8131 110.363)" fill="white"/>
<circle r="2.71251" transform="matrix(1 0 0 -1 101.088 110.363)" fill="white"/>
<circle r="2.71251" transform="matrix(1 0 0 -1 117.361 110.363)" fill="white"/>
<circle r="2.71251" transform="matrix(1 0 0 -1 133.638 110.363)" fill="white"/>
<circle r="2.71251" transform="matrix(1 0 0 -1 149.912 110.363)" fill="white"/>
<circle r="2.71251" transform="matrix(1 0 0 -1 166.188 110.363)" fill="white"/>
<circle r="2.71251" transform="matrix(1 0 0 -1 182.463 110.363)" fill="white"/>
<circle r="2.71251" transform="matrix(1 0 0 -1 198.738 110.363)" fill="white"/>
<circle r="2.71251" transform="matrix(1 0 0 -1 215.013 110.363)" fill="white"/>
<circle r="2.71251" transform="matrix(1 0 0 -1 231.287 110.363)" fill="white"/>
<circle r="2.71251" transform="matrix(1 0 0 -1 19.712 94.0873)" fill="white"/>
<circle r="2.71251" transform="matrix(1 0 0 -1 35.9859 94.0873)" fill="white"/>
<circle r="2.71251" transform="matrix(1 0 0 -1 52.2628 94.0873)" fill="white"/>
<circle r="2.71251" transform="matrix(1 0 0 -1 68.5367 94.0873)" fill="white"/>
<circle r="2.71251" transform="matrix(1 0 0 -1 84.8131 94.0873)" fill="white"/>
<circle r="2.71251" transform="matrix(1 0 0 -1 101.088 94.0873)" fill="white"/>
<circle r="2.71251" transform="matrix(1 0 0 -1 117.361 94.0873)" fill="white"/>
<circle r="2.71251" transform="matrix(1 0 0 -1 133.638 94.0873)" fill="white"/>
<circle r="2.71251" transform="matrix(1 0 0 -1 149.912 94.0873)" fill="white"/>
<circle r="2.71251" transform="matrix(1 0 0 -1 166.188 94.0873)" fill="white"/>
<circle r="2.71251" transform="matrix(1 0 0 -1 182.463 94.0873)" fill="white"/>
<circle r="2.71251" transform="matrix(1 0 0 -1 198.738 94.0873)" fill="white"/>
<circle r="2.71251" transform="matrix(1 0 0 -1 215.013 94.0873)" fill="white"/>
<circle r="2.71251" transform="matrix(1 0 0 -1 231.287 94.0873)" fill="white"/>
<circle r="2.71251" transform="matrix(1 0 0 -1 19.712 77.8126)" fill="white"/>
<circle r="2.71251" transform="matrix(1 0 0 -1 35.9859 77.8126)" fill="white"/>
<circle r="2.71251" transform="matrix(1 0 0 -1 52.2628 77.8126)" fill="white"/>
<circle r="2.71251" transform="matrix(1 0 0 -1 68.5367 77.8126)" fill="white"/>
<circle r="2.71251" transform="matrix(1 0 0 -1 84.8131 77.8126)" fill="white"/>
<circle r="2.71251" transform="matrix(1 0 0 -1 101.088 77.8126)" fill="white"/>
<circle r="2.71251" transform="matrix(1 0 0 -1 117.361 77.8126)" fill="white"/>
<circle r="2.71251" transform="matrix(1 0 0 -1 133.638 77.8126)" fill="white"/>
<circle r="2.71251" transform="matrix(1 0 0 -1 149.912 77.8126)" fill="white"/>
<circle r="2.71251" transform="matrix(1 0 0 -1 166.188 77.8126)" fill="white"/>
<circle r="2.71251" transform="matrix(1 0 0 -1 182.463 77.8126)" fill="white"/>
<circle r="2.71251" transform="matrix(1 0 0 -1 198.738 77.8126)" fill="white"/>
<circle r="2.71251" transform="matrix(1 0 0 -1 215.013 77.8126)" fill="white"/>
<circle r="2.71251" transform="matrix(1 0 0 -1 231.287 77.8126)" fill="white"/>
<circle r="2.71251" transform="matrix(1 0 0 -1 19.712 61.5372)" fill="white"/>
<circle r="2.71251" transform="matrix(1 0 0 -1 35.9859 61.5372)" fill="white"/>
<circle r="2.71251" transform="matrix(1 0 0 -1 52.2628 61.5372)" fill="white"/>
<circle r="2.71251" transform="matrix(1 0 0 -1 68.5367 61.5372)" fill="white"/>
<circle r="2.71251" transform="matrix(1 0 0 -1 84.8131 61.5372)" fill="white"/>
<circle r="2.71251" transform="matrix(1 0 0 -1 101.088 61.5372)" fill="white"/>
<circle r="2.71251" transform="matrix(1 0 0 -1 117.361 61.5372)" fill="white"/>
<circle r="2.71251" transform="matrix(1 0 0 -1 133.638 61.5372)" fill="white"/>
<circle r="2.71251" transform="matrix(1 0 0 -1 149.912 61.5372)" fill="white"/>
<circle r="2.71251" transform="matrix(1 0 0 -1 166.188 61.5372)" fill="white"/>
<circle r="2.71251" transform="matrix(1 0 0 -1 182.463 61.5372)" fill="white"/>
<circle r="2.71251" transform="matrix(1 0 0 -1 198.738 61.5372)" fill="white"/>
<circle r="2.71251" transform="matrix(1 0 0 -1 215.013 61.5372)" fill="white"/>
<circle r="2.71251" transform="matrix(1 0 0 -1 231.287 61.5372)" fill="white"/>
<circle r="2.71251" transform="matrix(1 0 0 -1 19.712 45.2626)" fill="white"/>
<circle r="2.71251" transform="matrix(1 0 0 -1 35.9859 45.2626)" fill="white"/>
<circle r="2.71251" transform="matrix(1 0 0 -1 52.2628 45.2626)" fill="white"/>
<circle r="2.71251" transform="matrix(1 0 0 -1 68.5367 45.2626)" fill="white"/>
<circle r="2.71251" transform="matrix(1 0 0 -1 84.8131 45.2626)" fill="white"/>
<circle r="2.71251" transform="matrix(1 0 0 -1 101.088 45.2626)" fill="white"/>
<circle r="2.71251" transform="matrix(1 0 0 -1 117.361 45.2626)" fill="white"/>
<circle r="2.71251" transform="matrix(1 0 0 -1 133.638 45.2626)" fill="white"/>
<circle r="2.71251" transform="matrix(1 0 0 -1 149.912 45.2626)" fill="white"/>
<circle r="2.71251" transform="matrix(1 0 0 -1 166.188 45.2626)" fill="white"/>
<circle r="2.71251" transform="matrix(1 0 0 -1 182.463 45.2626)" fill="white"/>
<circle r="2.71251" transform="matrix(1 0 0 -1 198.738 45.2626)" fill="white"/>
<circle r="2.71251" transform="matrix(1 0 0 -1 215.013 45.2626)" fill="white"/>
<circle r="2.71251" transform="matrix(1 0 0 -1 231.287 45.2626)" fill="white"/>
<circle r="2.71251" transform="matrix(1 0 0 -1 19.712 28.9872)" fill="white"/>
<circle r="2.71251" transform="matrix(1 0 0 -1 35.9859 28.9872)" fill="white"/>
<circle r="2.71251" transform="matrix(1 0 0 -1 52.2628 28.9872)" fill="white"/>
<circle r="2.71251" transform="matrix(1 0 0 -1 68.5367 28.9872)" fill="white"/>
<circle r="2.71251" transform="matrix(1 0 0 -1 84.8131 28.9872)" fill="white"/>
<circle r="2.71251" transform="matrix(1 0 0 -1 101.088 28.9872)" fill="white"/>
<circle r="2.71251" transform="matrix(1 0 0 -1 117.361 28.9872)" fill="white"/>
<circle r="2.71251" transform="matrix(1 0 0 -1 133.638 28.9872)" fill="white"/>
<circle r="2.71251" transform="matrix(1 0 0 -1 149.912 28.9872)" fill="white"/>
<circle r="2.71251" transform="matrix(1 0 0 -1 166.188 28.9872)" fill="white"/>
<circle r="2.71251" transform="matrix(1 0 0 -1 182.463 28.9872)" fill="white"/>
<circle r="2.71251" transform="matrix(1 0 0 -1 198.738 28.9872)" fill="white"/>
<circle r="2.71251" transform="matrix(1 0 0 -1 215.013 28.9872)" fill="white"/>
<circle r="2.71251" transform="matrix(1 0 0 -1 231.287 28.9872)" fill="white"/>
<circle r="2.71251" transform="matrix(1 0 0 -1 19.712 12.7125)" fill="white"/>
<circle r="2.71251" transform="matrix(1 0 0 -1 35.9859 12.7125)" fill="white"/>
<circle r="2.71251" transform="matrix(1 0 0 -1 52.2628 12.7125)" fill="white"/>
<circle r="2.71251" transform="matrix(1 0 0 -1 68.5367 12.7125)" fill="white"/>
<circle r="2.71251" transform="matrix(1 0 0 -1 84.8131 12.7125)" fill="white"/>
<circle r="2.71251" transform="matrix(1 0 0 -1 101.088 12.7125)" fill="white"/>
<circle r="2.71251" transform="matrix(1 0 0 -1 117.361 12.7125)" fill="white"/>
<circle r="2.71251" transform="matrix(1 0 0 -1 133.638 12.7125)" fill="white"/>
<circle r="2.71251" transform="matrix(1 0 0 -1 149.912 12.7125)" fill="white"/>
<circle r="2.71251" transform="matrix(1 0 0 -1 166.188 12.7125)" fill="white"/>
<circle r="2.71251" transform="matrix(1 0 0 -1 182.463 12.7125)" fill="white"/>
<circle r="2.71251" transform="matrix(1 0 0 -1 198.738 12.7125)" fill="white"/>
<circle r="2.71251" transform="matrix(1 0 0 -1 215.013 12.7125)" fill="white"/>
<circle r="2.71251" transform="matrix(1 0 0 -1 231.287 12.7125)" fill="white"/>
</svg>
