<svg width="252" height="259" viewBox="0 0 252 259" fill="none" xmlns="http://www.w3.org/2000/svg">
<rect width="250" height="259" rx="15" fill="#BEBEBE"/>
<path d="M0 201.656H251.077V244C251.077 252.284 244.361 259 236.077 259H15C6.71571 259 0 252.284 0 244V201.656Z" fill="white"/>
<path d="M101.328 212.976L99.264 216.272L97.216 212.976H94.4L97.872 218.128L94.064 224H96.816L99.264 220L101.712 224H104.48L100.656 218.128L104.128 212.976H101.328ZM105.155 215.296V217.264L106.947 216.496V224H109.187V213.376L105.155 215.296ZM111.187 215.296V217.264L112.979 216.496V224H115.219V213.376L111.187 215.296ZM130.948 214.656C129.972 213.52 128.468 212.848 126.804 212.848C125.22 212.848 123.892 213.408 122.788 214.512C121.7 215.616 121.156 216.944 121.156 218.512C121.156 220.064 121.7 221.408 122.788 222.512C123.892 223.616 125.22 224.16 126.804 224.16C128.452 224.16 129.764 223.664 130.724 222.688C131.7 221.696 132.18 220.208 132.18 218.208H126.516V220.112H129.476C129.46 220.672 129.172 221.12 128.612 221.488C128.052 221.84 127.444 222.016 126.804 222.016C125.892 222.016 125.108 221.68 124.468 220.992C123.828 220.304 123.508 219.472 123.508 218.512C123.508 217.552 123.828 216.736 124.452 216.048C125.092 215.36 125.876 215.024 126.804 215.024C127.748 215.024 128.564 215.392 129.22 216.144L130.948 214.656ZM135.842 221.392C135.842 219.408 136.466 218.416 137.698 218.416C138.146 218.416 138.53 218.496 138.834 218.64L139.234 216.64C138.866 216.464 138.45 216.368 137.954 216.368C137.106 216.368 136.21 217.04 135.842 218.336V216.528H133.618V224H135.842V221.392ZM145.506 221.536C145.138 222 144.594 222.24 143.874 222.24C142.994 222.24 142.146 221.808 142.034 220.992H147.506C147.522 220.736 147.538 220.512 147.538 220.304C147.538 219.136 147.17 218.192 146.434 217.472C145.714 216.736 144.802 216.368 143.714 216.368C142.61 216.368 141.682 216.72 140.93 217.44C140.178 218.16 139.81 219.088 139.81 220.24C139.81 221.392 140.178 222.336 140.93 223.072C141.682 223.792 142.61 224.16 143.714 224.16C145.298 224.16 146.434 223.648 147.122 222.64L145.506 221.536ZM142.066 219.6C142.418 217.888 145.074 217.904 145.298 219.6H142.066ZM153.634 216.528L151.97 220.768L150.322 216.528H147.954L150.834 223.232L149.042 227.664H151.394L156.002 216.528H153.634Z" fill="#202538"/>
<path opacity="0.6" d="M96.26 247H97.548L98.262 244.676H99.872L99.172 247H100.474L101.188 244.676H102.728L103.078 243.43H101.538L102.238 241.036H103.792L104.128 239.79H102.588L103.302 237.354H101.986L101.272 239.79H99.676L100.376 237.354H99.046L98.346 239.79H96.82L96.484 241.036H97.982L97.296 243.43H95.77L95.434 244.676H96.96L96.26 247ZM98.612 243.43L99.312 241.036H100.922L100.208 243.43H98.612ZM111.025 241.848C112.005 241.498 112.285 240.588 112.285 239.832C112.285 238.362 111.221 237.354 109.541 237.354H105.789V247H109.835C111.837 247 112.803 245.614 112.803 244.256C112.803 243.192 112.201 242.086 111.025 241.848ZM109.471 238.88C110.213 238.88 110.577 239.398 110.577 240.07C110.577 240.77 110.185 241.246 109.471 241.246H107.497V238.88H109.471ZM109.569 245.474H107.497V242.688H109.611C110.633 242.688 111.081 243.402 111.081 244.088C111.081 244.816 110.563 245.474 109.569 245.474ZM116.369 245.474V243.038H120.065V241.484H116.369V238.88H120.597V237.354H114.675V247H120.737V245.474H116.369ZM127.909 241.848C128.889 241.498 129.169 240.588 129.169 239.832C129.169 238.362 128.105 237.354 126.425 237.354H122.673V247H126.719C128.721 247 129.687 245.614 129.687 244.256C129.687 243.192 129.085 242.086 127.909 241.848ZM126.355 238.88C127.097 238.88 127.461 239.398 127.461 240.07C127.461 240.77 127.069 241.246 126.355 241.246H124.381V238.88H126.355ZM126.453 245.474H124.381V242.688H126.495C127.517 242.688 127.965 243.402 127.965 244.088C127.965 244.816 127.447 245.474 126.453 245.474ZM133.254 245.474V243.038H136.95V241.484H133.254V238.88H137.482V237.354H131.56V247H137.622V245.474H133.254ZM144.794 241.848C145.774 241.498 146.054 240.588 146.054 239.832C146.054 238.362 144.99 237.354 143.31 237.354H139.558V247H143.604C145.606 247 146.572 245.614 146.572 244.256C146.572 243.192 145.97 242.086 144.794 241.848ZM143.24 238.88C143.982 238.88 144.346 239.398 144.346 240.07C144.346 240.77 143.954 241.246 143.24 241.246H141.266V238.88H143.24ZM143.338 245.474H141.266V242.688H143.38C144.402 242.688 144.85 243.402 144.85 244.088C144.85 244.816 144.332 245.474 143.338 245.474ZM150.139 245.474V243.038H153.835V241.484H150.139V238.88H154.367V237.354H148.445V247H154.507V245.474H150.139Z" fill="#202538"/>
<circle r="2.71251" transform="matrix(1 0 0 -1 19.712 191.738)" fill="#CACACA"/>
<circle r="2.71251" transform="matrix(1 0 0 -1 35.9859 191.738)" fill="#CACACA"/>
<circle r="2.71251" transform="matrix(1 0 0 -1 52.2628 191.738)" fill="#CACACA"/>
<circle r="2.71251" transform="matrix(1 0 0 -1 68.5367 191.738)" fill="#CACACA"/>
<circle r="2.71251" transform="matrix(1 0 0 -1 84.8131 191.738)" fill="#CACACA"/>
<circle r="2.71251" transform="matrix(1 0 0 -1 101.088 191.738)" fill="#CACACA"/>
<circle r="2.71251" transform="matrix(1 0 0 -1 117.361 191.738)" fill="#CACACA"/>
<circle r="2.71251" transform="matrix(1 0 0 -1 133.638 191.738)" fill="#CACACA"/>
<circle r="2.71251" transform="matrix(1 0 0 -1 149.912 191.738)" fill="#CACACA"/>
<circle r="2.71251" transform="matrix(1 0 0 -1 166.188 191.738)" fill="#CACACA"/>
<circle r="2.71251" transform="matrix(1 0 0 -1 182.463 191.738)" fill="#CACACA"/>
<circle r="2.71251" transform="matrix(1 0 0 -1 198.738 191.738)" fill="#CACACA"/>
<circle r="2.71251" transform="matrix(1 0 0 -1 215.013 191.738)" fill="#CACACA"/>
<circle r="2.71251" transform="matrix(1 0 0 -1 231.287 191.738)" fill="#CACACA"/>
<circle r="2.71251" transform="matrix(1 0 0 -1 19.712 175.463)" fill="#CACACA"/>
<circle r="2.71251" transform="matrix(1 0 0 -1 35.9859 175.463)" fill="#CACACA"/>
<circle r="2.71251" transform="matrix(1 0 0 -1 52.2628 175.463)" fill="#CACACA"/>
<circle r="2.71251" transform="matrix(1 0 0 -1 68.5367 175.463)" fill="#CACACA"/>
<circle r="2.71251" transform="matrix(1 0 0 -1 84.8131 175.463)" fill="#CACACA"/>
<circle r="2.71251" transform="matrix(1 0 0 -1 101.088 175.463)" fill="#CACACA"/>
<circle r="2.71251" transform="matrix(1 0 0 -1 117.361 175.463)" fill="#CACACA"/>
<circle r="2.71251" transform="matrix(1 0 0 -1 133.638 175.463)" fill="#CACACA"/>
<circle r="2.71251" transform="matrix(1 0 0 -1 149.912 175.463)" fill="#CACACA"/>
<circle r="2.71251" transform="matrix(1 0 0 -1 166.188 175.463)" fill="#CACACA"/>
<circle r="2.71251" transform="matrix(1 0 0 -1 182.463 175.463)" fill="#CACACA"/>
<circle r="2.71251" transform="matrix(1 0 0 -1 198.738 175.463)" fill="#CACACA"/>
<circle r="2.71251" transform="matrix(1 0 0 -1 215.013 175.463)" fill="#CACACA"/>
<circle r="2.71251" transform="matrix(1 0 0 -1 231.287 175.463)" fill="#CACACA"/>
<circle r="2.71251" transform="matrix(1 0 0 -1 19.712 159.187)" fill="#CACACA"/>
<circle r="2.71251" transform="matrix(1 0 0 -1 35.9859 159.187)" fill="#CACACA"/>
<circle r="2.71251" transform="matrix(1 0 0 -1 52.2628 159.187)" fill="#CACACA"/>
<circle r="2.71251" transform="matrix(1 0 0 -1 68.5367 159.187)" fill="#CACACA"/>
<circle r="2.71251" transform="matrix(1 0 0 -1 84.8131 159.187)" fill="#CACACA"/>
<circle r="2.71251" transform="matrix(1 0 0 -1 101.088 159.187)" fill="#CACACA"/>
<circle r="2.71251" transform="matrix(1 0 0 -1 117.361 159.187)" fill="#CACACA"/>
<circle r="2.71251" transform="matrix(1 0 0 -1 133.638 159.187)" fill="#CACACA"/>
<circle r="2.71251" transform="matrix(1 0 0 -1 149.912 159.187)" fill="#CACACA"/>
<circle r="2.71251" transform="matrix(1 0 0 -1 166.188 159.187)" fill="#CACACA"/>
<circle r="2.71251" transform="matrix(1 0 0 -1 182.463 159.187)" fill="#CACACA"/>
<circle r="2.71251" transform="matrix(1 0 0 -1 198.738 159.187)" fill="#CACACA"/>
<circle r="2.71251" transform="matrix(1 0 0 -1 215.013 159.187)" fill="#CACACA"/>
<circle r="2.71251" transform="matrix(1 0 0 -1 231.287 159.187)" fill="#CACACA"/>
<circle r="2.71251" transform="matrix(1 0 0 -1 19.712 142.913)" fill="#CACACA"/>
<circle r="2.71251" transform="matrix(1 0 0 -1 35.9859 142.913)" fill="#CACACA"/>
<circle r="2.71251" transform="matrix(1 0 0 -1 52.2628 142.913)" fill="#CACACA"/>
<circle r="2.71251" transform="matrix(1 0 0 -1 68.5367 142.913)" fill="#CACACA"/>
<circle r="2.71251" transform="matrix(1 0 0 -1 84.8131 142.913)" fill="#CACACA"/>
<circle r="2.71251" transform="matrix(1 0 0 -1 101.088 142.913)" fill="#CACACA"/>
<circle r="2.71251" transform="matrix(1 0 0 -1 117.361 142.913)" fill="#CACACA"/>
<circle r="2.71251" transform="matrix(1 0 0 -1 133.638 142.913)" fill="#CACACA"/>
<circle r="2.71251" transform="matrix(1 0 0 -1 149.912 142.913)" fill="#CACACA"/>
<circle r="2.71251" transform="matrix(1 0 0 -1 166.188 142.913)" fill="#CACACA"/>
<circle r="2.71251" transform="matrix(1 0 0 -1 182.463 142.913)" fill="#CACACA"/>
<circle r="2.71251" transform="matrix(1 0 0 -1 198.738 142.913)" fill="#CACACA"/>
<circle r="2.71251" transform="matrix(1 0 0 -1 215.013 142.913)" fill="#CACACA"/>
<circle r="2.71251" transform="matrix(1 0 0 -1 231.287 142.913)" fill="#CACACA"/>
<circle r="2.71251" transform="matrix(1 0 0 -1 19.712 126.638)" fill="#CACACA"/>
<circle r="2.71251" transform="matrix(1 0 0 -1 35.9859 126.638)" fill="#CACACA"/>
<circle r="2.71251" transform="matrix(1 0 0 -1 52.2628 126.638)" fill="#CACACA"/>
<circle r="2.71251" transform="matrix(1 0 0 -1 68.5367 126.638)" fill="#CACACA"/>
<circle r="2.71251" transform="matrix(1 0 0 -1 84.8131 126.638)" fill="#CACACA"/>
<circle r="2.71251" transform="matrix(1 0 0 -1 101.088 126.638)" fill="#CACACA"/>
<circle r="2.71251" transform="matrix(1 0 0 -1 117.361 126.638)" fill="#CACACA"/>
<circle r="2.71251" transform="matrix(1 0 0 -1 133.638 126.638)" fill="#CACACA"/>
<circle r="2.71251" transform="matrix(1 0 0 -1 149.912 126.638)" fill="#CACACA"/>
<circle r="2.71251" transform="matrix(1 0 0 -1 166.188 126.638)" fill="#CACACA"/>
<circle r="2.71251" transform="matrix(1 0 0 -1 182.463 126.638)" fill="#CACACA"/>
<circle r="2.71251" transform="matrix(1 0 0 -1 198.738 126.638)" fill="#CACACA"/>
<circle r="2.71251" transform="matrix(1 0 0 -1 215.013 126.638)" fill="#CACACA"/>
<circle r="2.71251" transform="matrix(1 0 0 -1 231.287 126.638)" fill="#CACACA"/>
<circle r="2.71251" transform="matrix(1 0 0 -1 19.712 110.363)" fill="#CACACA"/>
<circle r="2.71251" transform="matrix(1 0 0 -1 35.9859 110.363)" fill="#CACACA"/>
<circle r="2.71251" transform="matrix(1 0 0 -1 52.2628 110.363)" fill="#CACACA"/>
<circle r="2.71251" transform="matrix(1 0 0 -1 68.5367 110.363)" fill="#CACACA"/>
<circle r="2.71251" transform="matrix(1 0 0 -1 84.8131 110.363)" fill="#CACACA"/>
<circle r="2.71251" transform="matrix(1 0 0 -1 101.088 110.363)" fill="#CACACA"/>
<circle r="2.71251" transform="matrix(1 0 0 -1 117.361 110.363)" fill="#CACACA"/>
<circle r="2.71251" transform="matrix(1 0 0 -1 133.638 110.363)" fill="#CACACA"/>
<circle r="2.71251" transform="matrix(1 0 0 -1 149.912 110.363)" fill="#CACACA"/>
<circle r="2.71251" transform="matrix(1 0 0 -1 166.188 110.363)" fill="#CACACA"/>
<circle r="2.71251" transform="matrix(1 0 0 -1 182.463 110.363)" fill="#CACACA"/>
<circle r="2.71251" transform="matrix(1 0 0 -1 198.738 110.363)" fill="#CACACA"/>
<circle r="2.71251" transform="matrix(1 0 0 -1 215.013 110.363)" fill="#CACACA"/>
<circle r="2.71251" transform="matrix(1 0 0 -1 231.287 110.363)" fill="#CACACA"/>
<circle r="2.71251" transform="matrix(1 0 0 -1 19.712 94.0873)" fill="#CACACA"/>
<circle r="2.71251" transform="matrix(1 0 0 -1 35.9859 94.0873)" fill="#CACACA"/>
<circle r="2.71251" transform="matrix(1 0 0 -1 52.2628 94.0873)" fill="#CACACA"/>
<circle r="2.71251" transform="matrix(1 0 0 -1 68.5367 94.0873)" fill="#CACACA"/>
<circle r="2.71251" transform="matrix(1 0 0 -1 84.8131 94.0873)" fill="#CACACA"/>
<circle r="2.71251" transform="matrix(1 0 0 -1 101.088 94.0873)" fill="#CACACA"/>
<circle r="2.71251" transform="matrix(1 0 0 -1 117.361 94.0873)" fill="#CACACA"/>
<circle r="2.71251" transform="matrix(1 0 0 -1 133.638 94.0873)" fill="#CACACA"/>
<circle r="2.71251" transform="matrix(1 0 0 -1 149.912 94.0873)" fill="#CACACA"/>
<circle r="2.71251" transform="matrix(1 0 0 -1 166.188 94.0873)" fill="#CACACA"/>
<circle r="2.71251" transform="matrix(1 0 0 -1 182.463 94.0873)" fill="#CACACA"/>
<circle r="2.71251" transform="matrix(1 0 0 -1 198.738 94.0873)" fill="#CACACA"/>
<circle r="2.71251" transform="matrix(1 0 0 -1 215.013 94.0873)" fill="#CACACA"/>
<circle r="2.71251" transform="matrix(1 0 0 -1 231.287 94.0873)" fill="#CACACA"/>
<circle r="2.71251" transform="matrix(1 0 0 -1 19.712 77.8126)" fill="#CACACA"/>
<circle r="2.71251" transform="matrix(1 0 0 -1 35.9859 77.8126)" fill="#CACACA"/>
<circle r="2.71251" transform="matrix(1 0 0 -1 52.2628 77.8126)" fill="#CACACA"/>
<circle r="2.71251" transform="matrix(1 0 0 -1 68.5367 77.8126)" fill="#CACACA"/>
<circle r="2.71251" transform="matrix(1 0 0 -1 84.8131 77.8126)" fill="#CACACA"/>
<circle r="2.71251" transform="matrix(1 0 0 -1 101.088 77.8126)" fill="#CACACA"/>
<circle r="2.71251" transform="matrix(1 0 0 -1 117.361 77.8126)" fill="#CACACA"/>
<circle r="2.71251" transform="matrix(1 0 0 -1 133.638 77.8126)" fill="#CACACA"/>
<circle r="2.71251" transform="matrix(1 0 0 -1 149.912 77.8126)" fill="#CACACA"/>
<circle r="2.71251" transform="matrix(1 0 0 -1 166.188 77.8126)" fill="#CACACA"/>
<circle r="2.71251" transform="matrix(1 0 0 -1 182.463 77.8126)" fill="#CACACA"/>
<circle r="2.71251" transform="matrix(1 0 0 -1 198.738 77.8126)" fill="#CACACA"/>
<circle r="2.71251" transform="matrix(1 0 0 -1 215.013 77.8126)" fill="#CACACA"/>
<circle r="2.71251" transform="matrix(1 0 0 -1 231.287 77.8126)" fill="#CACACA"/>
<circle r="2.71251" transform="matrix(1 0 0 -1 19.712 61.5372)" fill="#CACACA"/>
<circle r="2.71251" transform="matrix(1 0 0 -1 35.9859 61.5372)" fill="#CACACA"/>
<circle r="2.71251" transform="matrix(1 0 0 -1 52.2628 61.5372)" fill="#CACACA"/>
<circle r="2.71251" transform="matrix(1 0 0 -1 68.5367 61.5372)" fill="#CACACA"/>
<circle r="2.71251" transform="matrix(1 0 0 -1 84.8131 61.5372)" fill="#CACACA"/>
<circle r="2.71251" transform="matrix(1 0 0 -1 101.088 61.5372)" fill="#CACACA"/>
<circle r="2.71251" transform="matrix(1 0 0 -1 117.361 61.5372)" fill="#CACACA"/>
<circle r="2.71251" transform="matrix(1 0 0 -1 133.638 61.5372)" fill="#CACACA"/>
<circle r="2.71251" transform="matrix(1 0 0 -1 149.912 61.5372)" fill="#CACACA"/>
<circle r="2.71251" transform="matrix(1 0 0 -1 166.188 61.5372)" fill="#CACACA"/>
<circle r="2.71251" transform="matrix(1 0 0 -1 182.463 61.5372)" fill="#CACACA"/>
<circle r="2.71251" transform="matrix(1 0 0 -1 198.738 61.5372)" fill="#CACACA"/>
<circle r="2.71251" transform="matrix(1 0 0 -1 215.013 61.5372)" fill="#CACACA"/>
<circle r="2.71251" transform="matrix(1 0 0 -1 231.287 61.5372)" fill="#CACACA"/>
<circle r="2.71251" transform="matrix(1 0 0 -1 19.712 45.2626)" fill="#CACACA"/>
<circle r="2.71251" transform="matrix(1 0 0 -1 35.9859 45.2626)" fill="#CACACA"/>
<circle r="2.71251" transform="matrix(1 0 0 -1 52.2628 45.2626)" fill="#CACACA"/>
<circle r="2.71251" transform="matrix(1 0 0 -1 68.5367 45.2626)" fill="#CACACA"/>
<circle r="2.71251" transform="matrix(1 0 0 -1 84.8131 45.2626)" fill="#CACACA"/>
<circle r="2.71251" transform="matrix(1 0 0 -1 101.088 45.2626)" fill="#CACACA"/>
<circle r="2.71251" transform="matrix(1 0 0 -1 117.361 45.2626)" fill="#CACACA"/>
<circle r="2.71251" transform="matrix(1 0 0 -1 133.638 45.2626)" fill="#CACACA"/>
<circle r="2.71251" transform="matrix(1 0 0 -1 149.912 45.2626)" fill="#CACACA"/>
<circle r="2.71251" transform="matrix(1 0 0 -1 166.188 45.2626)" fill="#CACACA"/>
<circle r="2.71251" transform="matrix(1 0 0 -1 182.463 45.2626)" fill="#CACACA"/>
<circle r="2.71251" transform="matrix(1 0 0 -1 198.738 45.2626)" fill="#CACACA"/>
<circle r="2.71251" transform="matrix(1 0 0 -1 215.013 45.2626)" fill="#CACACA"/>
<circle r="2.71251" transform="matrix(1 0 0 -1 231.287 45.2626)" fill="#CACACA"/>
<circle r="2.71251" transform="matrix(1 0 0 -1 19.712 28.9872)" fill="#CACACA"/>
<circle r="2.71251" transform="matrix(1 0 0 -1 35.9859 28.9872)" fill="#CACACA"/>
<circle r="2.71251" transform="matrix(1 0 0 -1 52.2628 28.9872)" fill="#CACACA"/>
<circle r="2.71251" transform="matrix(1 0 0 -1 68.5367 28.9872)" fill="#CACACA"/>
<circle r="2.71251" transform="matrix(1 0 0 -1 84.8131 28.9872)" fill="#CACACA"/>
<circle r="2.71251" transform="matrix(1 0 0 -1 101.088 28.9872)" fill="#CACACA"/>
<circle r="2.71251" transform="matrix(1 0 0 -1 117.361 28.9872)" fill="#CACACA"/>
<circle r="2.71251" transform="matrix(1 0 0 -1 133.638 28.9872)" fill="#CACACA"/>
<circle r="2.71251" transform="matrix(1 0 0 -1 149.912 28.9872)" fill="#CACACA"/>
<circle r="2.71251" transform="matrix(1 0 0 -1 166.188 28.9872)" fill="#CACACA"/>
<circle r="2.71251" transform="matrix(1 0 0 -1 182.463 28.9872)" fill="#CACACA"/>
<circle r="2.71251" transform="matrix(1 0 0 -1 198.738 28.9872)" fill="#CACACA"/>
<circle r="2.71251" transform="matrix(1 0 0 -1 215.013 28.9872)" fill="#CACACA"/>
<circle r="2.71251" transform="matrix(1 0 0 -1 231.287 28.9872)" fill="#CACACA"/>
<circle r="2.71251" transform="matrix(1 0 0 -1 19.712 12.7125)" fill="#CACACA"/>
<circle r="2.71251" transform="matrix(1 0 0 -1 35.9859 12.7125)" fill="#CACACA"/>
<circle r="2.71251" transform="matrix(1 0 0 -1 52.2628 12.7125)" fill="#CACACA"/>
<circle r="2.71251" transform="matrix(1 0 0 -1 68.5367 12.7125)" fill="#CACACA"/>
<circle r="2.71251" transform="matrix(1 0 0 -1 84.8131 12.7125)" fill="#CACACA"/>
<circle r="2.71251" transform="matrix(1 0 0 -1 101.088 12.7125)" fill="#CACACA"/>
<circle r="2.71251" transform="matrix(1 0 0 -1 117.361 12.7125)" fill="#CACACA"/>
<circle r="2.71251" transform="matrix(1 0 0 -1 133.638 12.7125)" fill="#CACACA"/>
<circle r="2.71251" transform="matrix(1 0 0 -1 149.912 12.7125)" fill="#CACACA"/>
<circle r="2.71251" transform="matrix(1 0 0 -1 166.188 12.7125)" fill="#CACACA"/>
<circle r="2.71251" transform="matrix(1 0 0 -1 182.463 12.7125)" fill="#CACACA"/>
<circle r="2.71251" transform="matrix(1 0 0 -1 198.738 12.7125)" fill="#CACACA"/>
<circle r="2.71251" transform="matrix(1 0 0 -1 215.013 12.7125)" fill="#CACACA"/>
<circle r="2.71251" transform="matrix(1 0 0 -1 231.287 12.7125)" fill="#CACACA"/>
</svg>
