<svg width="251" height="259" viewBox="0 0 251 259" fill="none" xmlns="http://www.w3.org/2000/svg">
<rect width="250.022" height="259" rx="15" fill="#252A41"/>
<path d="M0 202H251V244C251 252.284 244.284 259 236 259H15C6.71572 259 0 252.284 0 244V202Z" fill="white"/>
<path d="M83.4 219.04L87.672 212.976H84.888L82.2 217.104L79.544 212.976H76.76L81.016 219.008V224H83.4V219.04ZM94.5961 224V216.528H92.3881V217.36C91.8761 216.64 90.9161 216.368 90.2121 216.368C89.2041 216.368 88.3241 216.736 87.5561 217.456C86.7881 218.176 86.4041 219.104 86.4041 220.256C86.4041 221.408 86.7881 222.352 87.5561 223.072C88.3241 223.792 89.2041 224.144 90.2121 224.144C90.5641 224.144 90.9641 224.064 91.3961 223.888C91.8441 223.712 92.1801 223.472 92.3881 223.152V224H94.5961ZM90.5801 222.032C90.0841 222.032 89.6521 221.872 89.2681 221.536C88.9001 221.2 88.7081 220.768 88.7081 220.256C88.7081 219.744 88.9001 219.328 89.2681 218.992C89.6521 218.656 90.0841 218.48 90.5801 218.48C91.5401 218.48 92.3881 219.184 92.3881 220.256C92.3881 221.328 91.5401 222.032 90.5801 222.032ZM98.873 220.048C98.873 219.04 99.337 218.528 100.249 218.528C101.033 218.528 101.545 219.056 101.545 220.016V224H103.769V219.536C103.769 217.44 102.761 216.368 101.033 216.368C100.153 216.368 99.273 216.864 98.873 217.616V216.528H96.649V224H98.873V220.048ZM110.447 224H113.183L109.455 219.824L112.559 216.528H109.727L107.951 218.576V212.464H105.743V224H107.951V221.04L110.447 224ZM118.928 221.536C118.56 222 118.016 222.24 117.296 222.24C116.416 222.24 115.568 221.808 115.456 220.992H120.928C120.944 220.736 120.96 220.512 120.96 220.304C120.96 219.136 120.592 218.192 119.856 217.472C119.136 216.736 118.224 216.368 117.136 216.368C116.032 216.368 115.104 216.72 114.352 217.44C113.6 218.16 113.232 219.088 113.232 220.24C113.232 221.392 113.6 222.336 114.352 223.072C115.104 223.792 116.032 224.16 117.136 224.16C118.72 224.16 119.856 223.648 120.544 222.64L118.928 221.536ZM115.488 219.6C115.84 217.888 118.496 217.904 118.72 219.6H115.488ZM127.725 221.536C127.357 222 126.813 222.24 126.093 222.24C125.213 222.24 124.365 221.808 124.253 220.992H129.725C129.741 220.736 129.757 220.512 129.757 220.304C129.757 219.136 129.389 218.192 128.653 217.472C127.933 216.736 127.021 216.368 125.933 216.368C124.829 216.368 123.901 216.72 123.149 217.44C122.397 218.16 122.029 219.088 122.029 220.24C122.029 221.392 122.397 222.336 123.149 223.072C123.901 223.792 124.829 224.16 125.933 224.16C127.517 224.16 128.653 223.648 129.341 222.64L127.725 221.536ZM124.285 219.6C124.637 217.888 127.293 217.904 127.517 219.6H124.285ZM134.186 221.184C134.714 221.328 134.922 221.504 134.922 221.824C134.922 222.192 134.522 222.432 134.01 222.448C133.418 222.448 132.922 222.032 132.906 221.584H130.826C130.842 222.368 131.146 223.008 131.77 223.472C132.394 223.936 133.13 224.16 133.946 224.16C134.81 224.16 135.562 223.952 136.202 223.552C136.858 223.152 137.178 222.576 137.178 221.824C137.178 221.376 137.114 220.96 136.458 220.336C136.138 220.032 135.706 219.792 135.146 219.648L133.882 219.312C133.466 219.2 133.242 219.024 133.226 218.752C133.21 218.416 133.514 218.192 134.01 218.192C134.57 218.192 134.842 218.416 134.858 218.848H136.954C136.938 218 136.634 217.376 136.042 216.976C135.45 216.576 134.73 216.368 133.882 216.368C133.098 216.368 132.426 216.592 131.85 217.024C131.274 217.456 130.986 217.936 130.97 218.496C130.954 218.96 130.986 219.216 131.226 219.728C131.482 220.224 132.17 220.656 133.21 220.928L134.186 221.184ZM150.601 216.048C150.601 214.176 149.321 212.976 147.337 212.976H142.921V224H147.657C148.729 224 149.577 223.68 150.217 223.024C150.857 222.368 151.177 221.568 151.177 220.624C151.177 220.112 151.001 219.616 150.633 219.12C150.281 218.624 149.769 218.288 149.097 218.112C150.137 217.712 150.601 216.88 150.601 216.048ZM145.273 215.04H147.097C147.785 215.04 148.137 215.488 148.137 216.192C148.137 216.848 147.705 217.328 147.113 217.328H145.273V215.04ZM147.481 219.264C148.249 219.264 148.713 219.888 148.713 220.576C148.713 221.296 148.281 221.936 147.529 221.936H145.273V219.264H147.481ZM152.837 224H155.061V212.464H152.837V224ZM161.918 220.48C161.918 221.52 161.342 222 160.574 222C159.918 222 159.246 221.584 159.246 220.512V216.528H157.022V220.992C157.022 223.04 158.238 224.16 159.982 224.16C160.734 224.16 161.534 223.696 161.918 222.976V224H164.142V216.528H161.918V220.48ZM171.444 221.536C171.076 222 170.532 222.24 169.812 222.24C168.932 222.24 168.084 221.808 167.972 220.992H173.444C173.46 220.736 173.476 220.512 173.476 220.304C173.476 219.136 173.108 218.192 172.372 217.472C171.652 216.736 170.74 216.368 169.652 216.368C168.548 216.368 167.62 216.72 166.868 217.44C166.116 218.16 165.748 219.088 165.748 220.24C165.748 221.392 166.116 222.336 166.868 223.072C167.62 223.792 168.548 224.16 169.652 224.16C171.236 224.16 172.372 223.648 173.06 222.64L171.444 221.536ZM168.004 219.6C168.356 217.888 171.012 217.904 171.236 219.6H168.004Z" fill="#202538"/>
<path opacity="0.6" d="M98.26 246H99.548L100.262 243.676H101.872L101.172 246H102.474L103.188 243.676H104.728L105.078 242.43H103.538L104.238 240.036H105.792L106.128 238.79H104.588L105.302 236.354H103.986L103.272 238.79H101.676L102.376 236.354H101.046L100.346 238.79H98.82L98.484 240.036H99.982L99.296 242.43H97.77L97.434 243.676H98.96L98.26 246ZM100.612 242.43L101.312 240.036H102.922L102.208 242.43H100.612ZM109.833 244.474L112.115 241.814C112.703 241.128 113.137 240.274 113.137 239.476C113.137 237.824 111.975 236.718 110.183 236.718C108.447 236.718 107.369 237.768 107.159 239.308L108.629 239.588C108.713 238.776 109.259 238.23 110.127 238.23C110.953 238.23 111.499 238.72 111.499 239.448C111.499 239.812 111.205 240.372 110.743 240.932L107.229 245.174V246H113.263V244.474H109.833ZM118.32 239.896C117.634 239.896 116.976 240.134 116.514 240.47L116.948 238.342H120.7V236.83H115.604L114.806 241.422L115.772 242.094C116.388 241.59 117.144 241.268 117.872 241.268C118.894 241.268 119.678 241.94 119.678 242.934C119.678 243.942 118.894 244.614 117.788 244.614C116.948 244.614 116.15 244.082 115.828 243.368L114.54 244.18C115.128 245.314 116.43 246.14 117.872 246.14C119.762 246.14 121.316 244.908 121.316 242.92C121.316 241.142 120.07 239.896 118.32 239.896ZM125.214 244.474L127.496 241.814C128.084 241.128 128.518 240.274 128.518 239.476C128.518 237.824 127.356 236.718 125.564 236.718C123.828 236.718 122.75 237.768 122.54 239.308L124.01 239.588C124.094 238.776 124.64 238.23 125.508 238.23C126.334 238.23 126.88 238.72 126.88 239.448C126.88 239.812 126.586 240.372 126.124 240.932L122.61 245.174V246H128.644V244.474H125.214ZM136.613 246H138.419L134.807 236.354H132.959L129.333 246H131.153L131.993 243.634H135.773L136.613 246ZM132.511 242.15L133.883 238.258L135.255 242.15H132.511ZM146.029 242.724H144.657V236.83H143.915L138.511 243.76V244.194H143.019V246H144.657V244.194H146.029V242.724ZM140.961 242.724L143.019 240.092V242.724H140.961ZM150.317 236.718L146.761 238.244V239.756L148.819 238.944V246H150.429V236.718H150.317Z" fill="#202538"/>
<circle r="2.71251" transform="matrix(1 0 0 -1 19.712 191.738)" fill="#323855"/>
<circle r="2.71251" transform="matrix(1 0 0 -1 35.9859 191.738)" fill="#323855"/>
<circle r="2.71251" transform="matrix(1 0 0 -1 52.2628 191.738)" fill="#323855"/>
<circle r="2.71251" transform="matrix(1 0 0 -1 68.5367 191.738)" fill="#323855"/>
<circle r="2.71251" transform="matrix(1 0 0 -1 84.8131 191.738)" fill="#323855"/>
<circle r="2.71251" transform="matrix(1 0 0 -1 101.088 191.738)" fill="#323855"/>
<circle r="2.71251" transform="matrix(1 0 0 -1 117.361 191.738)" fill="#323855"/>
<circle r="2.71251" transform="matrix(1 0 0 -1 133.638 191.738)" fill="#323855"/>
<circle r="2.71251" transform="matrix(1 0 0 -1 149.912 191.738)" fill="#323855"/>
<circle r="2.71251" transform="matrix(1 0 0 -1 166.188 191.738)" fill="#323855"/>
<circle r="2.71251" transform="matrix(1 0 0 -1 182.463 191.738)" fill="#323855"/>
<circle r="2.71251" transform="matrix(1 0 0 -1 198.738 191.738)" fill="#323855"/>
<circle r="2.71251" transform="matrix(1 0 0 -1 215.013 191.738)" fill="#323855"/>
<circle r="2.71251" transform="matrix(1 0 0 -1 231.287 191.738)" fill="#323855"/>
<circle r="2.71251" transform="matrix(1 0 0 -1 19.712 175.463)" fill="#323855"/>
<circle r="2.71251" transform="matrix(1 0 0 -1 35.9859 175.463)" fill="#323855"/>
<circle r="2.71251" transform="matrix(1 0 0 -1 52.2628 175.463)" fill="#323855"/>
<circle r="2.71251" transform="matrix(1 0 0 -1 68.5367 175.463)" fill="#323855"/>
<circle r="2.71251" transform="matrix(1 0 0 -1 84.8131 175.463)" fill="#323855"/>
<circle r="2.71251" transform="matrix(1 0 0 -1 101.088 175.463)" fill="#323855"/>
<circle r="2.71251" transform="matrix(1 0 0 -1 117.361 175.463)" fill="#323855"/>
<circle r="2.71251" transform="matrix(1 0 0 -1 133.638 175.463)" fill="#323855"/>
<circle r="2.71251" transform="matrix(1 0 0 -1 149.912 175.463)" fill="#323855"/>
<circle r="2.71251" transform="matrix(1 0 0 -1 166.188 175.463)" fill="#323855"/>
<circle r="2.71251" transform="matrix(1 0 0 -1 182.463 175.463)" fill="#323855"/>
<circle r="2.71251" transform="matrix(1 0 0 -1 198.738 175.463)" fill="#323855"/>
<circle r="2.71251" transform="matrix(1 0 0 -1 215.013 175.463)" fill="#323855"/>
<circle r="2.71251" transform="matrix(1 0 0 -1 231.287 175.463)" fill="#323855"/>
<circle r="2.71251" transform="matrix(1 0 0 -1 19.712 159.187)" fill="#323855"/>
<circle r="2.71251" transform="matrix(1 0 0 -1 35.9859 159.187)" fill="#323855"/>
<circle r="2.71251" transform="matrix(1 0 0 -1 52.2628 159.187)" fill="#323855"/>
<circle r="2.71251" transform="matrix(1 0 0 -1 68.5367 159.187)" fill="#323855"/>
<circle r="2.71251" transform="matrix(1 0 0 -1 84.8131 159.187)" fill="#323855"/>
<circle r="2.71251" transform="matrix(1 0 0 -1 101.088 159.187)" fill="#323855"/>
<circle r="2.71251" transform="matrix(1 0 0 -1 117.361 159.187)" fill="#323855"/>
<circle r="2.71251" transform="matrix(1 0 0 -1 133.638 159.187)" fill="#323855"/>
<circle r="2.71251" transform="matrix(1 0 0 -1 149.912 159.187)" fill="#323855"/>
<circle r="2.71251" transform="matrix(1 0 0 -1 166.188 159.187)" fill="#323855"/>
<circle r="2.71251" transform="matrix(1 0 0 -1 182.463 159.187)" fill="#323855"/>
<circle r="2.71251" transform="matrix(1 0 0 -1 198.738 159.187)" fill="#323855"/>
<circle r="2.71251" transform="matrix(1 0 0 -1 215.013 159.187)" fill="#323855"/>
<circle r="2.71251" transform="matrix(1 0 0 -1 231.287 159.187)" fill="#323855"/>
<circle r="2.71251" transform="matrix(1 0 0 -1 19.712 142.913)" fill="#323855"/>
<circle r="2.71251" transform="matrix(1 0 0 -1 35.9859 142.913)" fill="#323855"/>
<circle r="2.71251" transform="matrix(1 0 0 -1 52.2628 142.913)" fill="#323855"/>
<circle r="2.71251" transform="matrix(1 0 0 -1 68.5367 142.913)" fill="#323855"/>
<circle r="2.71251" transform="matrix(1 0 0 -1 84.8131 142.913)" fill="#323855"/>
<circle r="2.71251" transform="matrix(1 0 0 -1 101.088 142.913)" fill="#323855"/>
<circle r="2.71251" transform="matrix(1 0 0 -1 117.361 142.913)" fill="#323855"/>
<circle r="2.71251" transform="matrix(1 0 0 -1 133.638 142.913)" fill="#323855"/>
<circle r="2.71251" transform="matrix(1 0 0 -1 149.912 142.913)" fill="#323855"/>
<circle r="2.71251" transform="matrix(1 0 0 -1 166.188 142.913)" fill="#323855"/>
<circle r="2.71251" transform="matrix(1 0 0 -1 182.463 142.913)" fill="#323855"/>
<circle r="2.71251" transform="matrix(1 0 0 -1 198.738 142.913)" fill="#323855"/>
<circle r="2.71251" transform="matrix(1 0 0 -1 215.013 142.913)" fill="#323855"/>
<circle r="2.71251" transform="matrix(1 0 0 -1 231.287 142.913)" fill="#323855"/>
<circle r="2.71251" transform="matrix(1 0 0 -1 19.712 126.638)" fill="#323855"/>
<circle r="2.71251" transform="matrix(1 0 0 -1 35.9859 126.638)" fill="#323855"/>
<circle r="2.71251" transform="matrix(1 0 0 -1 52.2628 126.638)" fill="#323855"/>
<circle r="2.71251" transform="matrix(1 0 0 -1 68.5367 126.638)" fill="#323855"/>
<circle r="2.71251" transform="matrix(1 0 0 -1 84.8131 126.638)" fill="#323855"/>
<circle r="2.71251" transform="matrix(1 0 0 -1 101.088 126.638)" fill="#323855"/>
<circle r="2.71251" transform="matrix(1 0 0 -1 117.361 126.638)" fill="#323855"/>
<circle r="2.71251" transform="matrix(1 0 0 -1 133.638 126.638)" fill="#323855"/>
<circle r="2.71251" transform="matrix(1 0 0 -1 149.912 126.638)" fill="#323855"/>
<circle r="2.71251" transform="matrix(1 0 0 -1 166.188 126.638)" fill="#323855"/>
<circle r="2.71251" transform="matrix(1 0 0 -1 182.463 126.638)" fill="#323855"/>
<circle r="2.71251" transform="matrix(1 0 0 -1 198.738 126.638)" fill="#323855"/>
<circle r="2.71251" transform="matrix(1 0 0 -1 215.013 126.638)" fill="#323855"/>
<circle r="2.71251" transform="matrix(1 0 0 -1 231.287 126.638)" fill="#323855"/>
<circle r="2.71251" transform="matrix(1 0 0 -1 19.712 110.363)" fill="#323855"/>
<circle r="2.71251" transform="matrix(1 0 0 -1 35.9859 110.363)" fill="#323855"/>
<circle r="2.71251" transform="matrix(1 0 0 -1 52.2628 110.363)" fill="#323855"/>
<circle r="2.71251" transform="matrix(1 0 0 -1 68.5367 110.363)" fill="#323855"/>
<circle r="2.71251" transform="matrix(1 0 0 -1 84.8131 110.363)" fill="#323855"/>
<circle r="2.71251" transform="matrix(1 0 0 -1 101.088 110.363)" fill="#323855"/>
<circle r="2.71251" transform="matrix(1 0 0 -1 117.361 110.363)" fill="#323855"/>
<circle r="2.71251" transform="matrix(1 0 0 -1 133.638 110.363)" fill="#323855"/>
<circle r="2.71251" transform="matrix(1 0 0 -1 149.912 110.363)" fill="#323855"/>
<circle r="2.71251" transform="matrix(1 0 0 -1 166.188 110.363)" fill="#323855"/>
<circle r="2.71251" transform="matrix(1 0 0 -1 182.463 110.363)" fill="#323855"/>
<circle r="2.71251" transform="matrix(1 0 0 -1 198.738 110.363)" fill="#323855"/>
<circle r="2.71251" transform="matrix(1 0 0 -1 215.013 110.363)" fill="#323855"/>
<circle r="2.71251" transform="matrix(1 0 0 -1 231.287 110.363)" fill="#323855"/>
<circle r="2.71251" transform="matrix(1 0 0 -1 19.712 94.0873)" fill="#323855"/>
<circle r="2.71251" transform="matrix(1 0 0 -1 35.9859 94.0873)" fill="#323855"/>
<circle r="2.71251" transform="matrix(1 0 0 -1 52.2628 94.0873)" fill="#323855"/>
<circle r="2.71251" transform="matrix(1 0 0 -1 68.5367 94.0873)" fill="#323855"/>
<circle r="2.71251" transform="matrix(1 0 0 -1 84.8131 94.0873)" fill="#323855"/>
<circle r="2.71251" transform="matrix(1 0 0 -1 101.088 94.0873)" fill="#323855"/>
<circle r="2.71251" transform="matrix(1 0 0 -1 117.361 94.0873)" fill="#323855"/>
<circle r="2.71251" transform="matrix(1 0 0 -1 133.638 94.0873)" fill="#323855"/>
<circle r="2.71251" transform="matrix(1 0 0 -1 149.912 94.0873)" fill="#323855"/>
<circle r="2.71251" transform="matrix(1 0 0 -1 166.188 94.0873)" fill="#323855"/>
<circle r="2.71251" transform="matrix(1 0 0 -1 182.463 94.0873)" fill="#323855"/>
<circle r="2.71251" transform="matrix(1 0 0 -1 198.738 94.0873)" fill="#323855"/>
<circle r="2.71251" transform="matrix(1 0 0 -1 215.013 94.0873)" fill="#323855"/>
<circle r="2.71251" transform="matrix(1 0 0 -1 231.287 94.0873)" fill="#323855"/>
<circle r="2.71251" transform="matrix(1 0 0 -1 19.712 77.8126)" fill="#323855"/>
<circle r="2.71251" transform="matrix(1 0 0 -1 35.9859 77.8126)" fill="#323855"/>
<circle r="2.71251" transform="matrix(1 0 0 -1 52.2628 77.8126)" fill="#323855"/>
<circle r="2.71251" transform="matrix(1 0 0 -1 68.5367 77.8126)" fill="#323855"/>
<circle r="2.71251" transform="matrix(1 0 0 -1 84.8131 77.8126)" fill="#323855"/>
<circle r="2.71251" transform="matrix(1 0 0 -1 101.088 77.8126)" fill="#323855"/>
<circle r="2.71251" transform="matrix(1 0 0 -1 117.361 77.8126)" fill="#323855"/>
<circle r="2.71251" transform="matrix(1 0 0 -1 133.713 77.7125)" fill="#323855"/>
<circle r="2.71251" transform="matrix(1 0 0 -1 149.912 77.8126)" fill="#323855"/>
<circle r="2.71251" transform="matrix(1 0 0 -1 166.188 77.8126)" fill="#323855"/>
<circle r="2.71251" transform="matrix(1 0 0 -1 182.463 77.8126)" fill="#323855"/>
<circle r="2.71251" transform="matrix(1 0 0 -1 198.738 77.8126)" fill="#323855"/>
<circle r="2.71251" transform="matrix(1 0 0 -1 215.013 77.8126)" fill="#323855"/>
<circle r="2.71251" transform="matrix(1 0 0 -1 231.287 77.8126)" fill="#323855"/>
<circle r="2.71251" transform="matrix(1 0 0 -1 19.712 61.5372)" fill="#323855"/>
<circle r="2.71251" transform="matrix(1 0 0 -1 35.9859 61.5372)" fill="#323855"/>
<circle r="2.71251" transform="matrix(1 0 0 -1 52.2628 61.5372)" fill="#323855"/>
<circle r="2.71251" transform="matrix(1 0 0 -1 68.5367 61.5372)" fill="#323855"/>
<circle r="2.71251" transform="matrix(1 0 0 -1 84.8131 61.5372)" fill="#323855"/>
<circle r="2.71251" transform="matrix(1 0 0 -1 101.088 61.5372)" fill="#323855"/>
<circle r="2.71251" transform="matrix(1 0 0 -1 117.361 61.5372)" fill="#323855"/>
<circle r="2.71251" transform="matrix(1 0 0 -1 133.638 61.5372)" fill="#323855"/>
<circle r="2.71251" transform="matrix(1 0 0 -1 149.912 61.5372)" fill="#323855"/>
<circle r="2.71251" transform="matrix(1 0 0 -1 166.188 61.5372)" fill="#323855"/>
<circle r="2.71251" transform="matrix(1 0 0 -1 182.463 61.5372)" fill="#323855"/>
<circle r="2.71251" transform="matrix(1 0 0 -1 198.738 61.5372)" fill="#323855"/>
<circle r="2.71251" transform="matrix(1 0 0 -1 215.013 61.5372)" fill="#323855"/>
<circle r="2.71251" transform="matrix(1 0 0 -1 231.287 61.5372)" fill="#323855"/>
<circle r="2.71251" transform="matrix(1 0 0 -1 19.712 45.2626)" fill="#323855"/>
<circle r="2.71251" transform="matrix(1 0 0 -1 35.9859 45.2626)" fill="#323855"/>
<circle r="2.71251" transform="matrix(1 0 0 -1 52.2628 45.2626)" fill="#323855"/>
<circle r="2.71251" transform="matrix(1 0 0 -1 68.5367 45.2626)" fill="#323855"/>
<circle r="2.71251" transform="matrix(1 0 0 -1 84.8131 45.2626)" fill="#323855"/>
<circle r="2.71251" transform="matrix(1 0 0 -1 101.088 45.2626)" fill="#323855"/>
<circle r="2.71251" transform="matrix(1 0 0 -1 117.361 45.2626)" fill="#323855"/>
<circle r="2.71251" transform="matrix(1 0 0 -1 133.638 45.2626)" fill="#323855"/>
<circle r="2.71251" transform="matrix(1 0 0 -1 149.912 45.2626)" fill="#323855"/>
<circle r="2.71251" transform="matrix(1 0 0 -1 166.188 45.2626)" fill="#323855"/>
<circle r="2.71251" transform="matrix(1 0 0 -1 182.463 45.2626)" fill="#323855"/>
<circle r="2.71251" transform="matrix(1 0 0 -1 198.738 45.2626)" fill="#323855"/>
<circle r="2.71251" transform="matrix(1 0 0 -1 215.013 45.2626)" fill="#323855"/>
<circle r="2.71251" transform="matrix(1 0 0 -1 231.287 45.2626)" fill="#323855"/>
<circle r="2.71251" transform="matrix(1 0 0 -1 19.712 28.9872)" fill="#323855"/>
<circle r="2.71251" transform="matrix(1 0 0 -1 35.9859 28.9872)" fill="#323855"/>
<circle r="2.71251" transform="matrix(1 0 0 -1 52.2628 28.9872)" fill="#323855"/>
<circle r="2.71251" transform="matrix(1 0 0 -1 68.5367 28.9872)" fill="#323855"/>
<circle r="2.71251" transform="matrix(1 0 0 -1 84.8131 28.9872)" fill="#323855"/>
<circle r="2.71251" transform="matrix(1 0 0 -1 101.088 28.9872)" fill="#323855"/>
<circle r="2.71251" transform="matrix(1 0 0 -1 117.361 28.9872)" fill="#323855"/>
<circle r="2.71251" transform="matrix(1 0 0 -1 133.638 28.9872)" fill="#323855"/>
<circle r="2.71251" transform="matrix(1 0 0 -1 149.912 28.9872)" fill="#323855"/>
<circle r="2.71251" transform="matrix(1 0 0 -1 166.188 28.9872)" fill="#323855"/>
<circle r="2.71251" transform="matrix(1 0 0 -1 182.463 28.9872)" fill="#323855"/>
<circle r="2.71251" transform="matrix(1 0 0 -1 198.738 28.9872)" fill="#323855"/>
<circle r="2.71251" transform="matrix(1 0 0 -1 215.013 28.9872)" fill="#323855"/>
<circle r="2.71251" transform="matrix(1 0 0 -1 231.287 28.9872)" fill="#323855"/>
<circle r="2.71251" transform="matrix(1 0 0 -1 19.712 12.7125)" fill="#323855"/>
<circle r="2.71251" transform="matrix(1 0 0 -1 35.9859 12.7125)" fill="#323855"/>
<circle r="2.71251" transform="matrix(1 0 0 -1 52.2628 12.7125)" fill="#323855"/>
<circle r="2.71251" transform="matrix(1 0 0 -1 68.5367 12.7125)" fill="#323855"/>
<circle r="2.71251" transform="matrix(1 0 0 -1 84.8131 12.7125)" fill="#323855"/>
<circle r="2.71251" transform="matrix(1 0 0 -1 101.088 12.7125)" fill="#323855"/>
<circle r="2.71251" transform="matrix(1 0 0 -1 117.361 12.7125)" fill="#323855"/>
<circle r="2.71251" transform="matrix(1 0 0 -1 133.638 12.7125)" fill="#323855"/>
<circle r="2.71251" transform="matrix(1 0 0 -1 149.912 12.7125)" fill="#323855"/>
<circle r="2.71251" transform="matrix(1 0 0 -1 166.188 12.7125)" fill="#323855"/>
<circle r="2.71251" transform="matrix(1 0 0 -1 182.463 12.7125)" fill="#323855"/>
<circle r="2.71251" transform="matrix(1 0 0 -1 198.738 12.7125)" fill="#323855"/>
<circle r="2.71251" transform="matrix(1 0 0 -1 215.013 12.7125)" fill="#323855"/>
<circle r="2.71251" transform="matrix(1 0 0 -1 231.287 12.7125)" fill="#323855"/>
</svg>
